<svg width="48" height="48" viewBox="0 0 48 48" fill="none" xmlns="http://www.w3.org/2000/svg">
<path d="M0 24C0 10.7452 10.7452 0 24 0C37.2548 0 48 10.7452 48 24C48 37.2548 37.2548 48 24 48C10.7452 48 0 37.2548 0 24Z" fill="white"/>
<path d="M15.6239 20.24C15.1439 20 14.4839 20.26 14.1639 20.78L10.9039 26.22L10.0839 22.86C9.98391 22.44 9.64391 22.2 9.20391 22.22C8.80391 22.2 8.36391 22.44 8.10391 22.86L6.10391 26.22L4.76391 20.78C4.64391 20.26 4.06391 20 3.48391 20.24C2.92391 20.44 2.56391 21.06 2.70391 21.6L4.58391 29.32C4.60391 29.38 4.62391 29.44 4.64391 29.48C4.64391 29.5 4.66391 29.5 4.66391 29.52C4.68391 29.56 4.70391 29.6 4.74391 29.64C4.74391 29.66 4.76391 29.66 4.76391 29.68C4.80391 29.7 4.84391 29.72 4.86391 29.76C4.88391 29.76 4.88391 29.78 4.90391 29.78C4.92391 29.82 4.98391 29.84 5.02391 29.88C5.04391 29.88 5.04391 29.88 5.04391 29.88C5.06391 29.88 5.06391 29.88 5.08391 29.9C5.12391 29.9 5.16391 29.92 5.20391 29.94C5.22391 29.94 5.24391 29.94 5.26391 29.94C5.32391 29.96 5.38391 29.96 5.44391 29.96C5.50391 29.96 5.56391 29.96 5.62391 29.94C5.64391 29.94 5.66391 29.94 5.68391 29.94C5.72391 29.92 5.78391 29.9 5.84391 29.9C5.84391 29.88 5.86391 29.88 5.86391 29.88H5.88391C5.94391 29.84 5.98391 29.82 6.04391 29.78C6.06391 29.78 6.08391 29.76 6.08391 29.76C6.12391 29.72 6.18391 29.7 6.22391 29.68C6.24391 29.66 6.24391 29.66 6.26391 29.64C6.30391 29.6 6.34391 29.56 6.38391 29.52C6.40391 29.5 6.40391 29.5 6.40391 29.48C6.46391 29.44 6.50391 29.38 6.50391 29.32L8.56391 25.9L9.40391 29.32C9.42391 29.38 9.44391 29.44 9.46391 29.48C9.46391 29.5 9.46391 29.5 9.48391 29.52C9.50391 29.56 9.52391 29.6 9.54391 29.64C9.56391 29.66 9.58391 29.66 9.58391 29.68C9.62391 29.7 9.64391 29.72 9.66391 29.76C9.68391 29.76 9.68391 29.78 9.70391 29.78C9.74391 29.82 9.78391 29.84 9.84391 29.88H9.86391C9.86391 29.88 9.88391 29.88 9.88391 29.9C9.94391 29.9 9.98391 29.92 10.0239 29.94C10.0439 29.94 10.0639 29.94 10.0839 29.94C10.1439 29.96 10.1839 29.96 10.2439 29.96C10.3039 29.96 10.3839 29.96 10.4439 29.94C10.4639 29.94 10.4839 29.94 10.5039 29.94C10.5439 29.92 10.6039 29.9 10.6439 29.9C10.6639 29.88 10.6639 29.88 10.6839 29.88C10.7439 29.84 10.8039 29.82 10.8639 29.78C10.8839 29.78 10.8839 29.76 10.9039 29.76C10.9439 29.72 10.9839 29.7 11.0439 29.68C11.0439 29.66 11.0639 29.66 11.0839 29.64C11.1239 29.6 11.1639 29.56 11.2039 29.52C11.2039 29.5 11.2039 29.5 11.2039 29.48C11.2439 29.44 11.2839 29.38 11.3239 29.32L15.9439 21.6C16.2639 21.06 16.1239 20.44 15.6239 20.24ZM29.5552 20.24C29.0752 20 28.4152 20.26 28.0952 20.78L24.8352 26.22L24.0152 22.86C23.9152 22.44 23.5752 22.2 23.1352 22.22C22.7352 22.2 22.2952 22.44 22.0352 22.86L20.0352 26.22L18.6952 20.78C18.5752 20.26 17.9952 20 17.4152 20.24C16.8552 20.44 16.4952 21.06 16.6352 21.6L18.5152 29.32C18.5352 29.38 18.5552 29.44 18.5752 29.48C18.5752 29.5 18.5952 29.5 18.5952 29.52C18.6152 29.56 18.6352 29.6 18.6752 29.64C18.6752 29.66 18.6952 29.66 18.6952 29.68C18.7352 29.7 18.7752 29.72 18.7952 29.76C18.8152 29.76 18.8152 29.78 18.8352 29.78C18.8552 29.82 18.9152 29.84 18.9552 29.88C18.9752 29.88 18.9752 29.88 18.9752 29.88C18.9952 29.88 18.9952 29.88 19.0152 29.9C19.0552 29.9 19.0952 29.92 19.1352 29.94C19.1552 29.94 19.1752 29.94 19.1952 29.94C19.2552 29.96 19.3152 29.96 19.3752 29.96C19.4352 29.96 19.4952 29.96 19.5552 29.94C19.5752 29.94 19.5952 29.94 19.6152 29.94C19.6552 29.92 19.7152 29.9 19.7752 29.9C19.7752 29.88 19.7952 29.88 19.7952 29.88H19.8152C19.8752 29.84 19.9152 29.82 19.9752 29.78C19.9952 29.78 20.0152 29.76 20.0152 29.76C20.0552 29.72 20.1152 29.7 20.1552 29.68C20.1752 29.66 20.1752 29.66 20.1952 29.64C20.2352 29.6 20.2752 29.56 20.3152 29.52C20.3352 29.5 20.3352 29.5 20.3352 29.48C20.3952 29.44 20.4352 29.38 20.4352 29.32L22.4952 25.9L23.3352 29.32C23.3552 29.38 23.3752 29.44 23.3952 29.48C23.3952 29.5 23.3952 29.5 23.4152 29.52C23.4352 29.56 23.4552 29.6 23.4752 29.64C23.4952 29.66 23.5152 29.66 23.5152 29.68C23.5552 29.7 23.5752 29.72 23.5952 29.76C23.6152 29.76 23.6152 29.78 23.6352 29.78C23.6752 29.82 23.7152 29.84 23.7752 29.88H23.7952C23.7952 29.88 23.8152 29.88 23.8152 29.9C23.8752 29.9 23.9152 29.92 23.9552 29.94C23.9752 29.94 23.9952 29.94 24.0152 29.94C24.0752 29.96 24.1152 29.96 24.1752 29.96C24.2352 29.96 24.3152 29.96 24.3752 29.94C24.3952 29.94 24.4152 29.94 24.4352 29.94C24.4752 29.92 24.5352 29.9 24.5752 29.9C24.5952 29.88 24.5952 29.88 24.6152 29.88C24.6752 29.84 24.7352 29.82 24.7952 29.78C24.8152 29.78 24.8152 29.76 24.8352 29.76C24.8752 29.72 24.9152 29.7 24.9752 29.68C24.9752 29.66 24.9952 29.66 25.0152 29.64C25.0552 29.6 25.0952 29.56 25.1352 29.52C25.1352 29.5 25.1352 29.5 25.1352 29.48C25.1752 29.44 25.2152 29.38 25.2552 29.32L29.8752 21.6C30.1952 21.06 30.0552 20.44 29.5552 20.24ZM43.4864 20.24C43.0064 20 42.3464 20.26 42.0264 20.78L38.7664 26.22L37.9464 22.86C37.8464 22.44 37.5064 22.2 37.0664 22.22C36.6664 22.2 36.2264 22.44 35.9664 22.86L33.9664 26.22L32.6264 20.78C32.5064 20.26 31.9264 20 31.3464 20.24C30.7864 20.44 30.4264 21.06 30.5664 21.6L32.4464 29.32C32.4664 29.38 32.4864 29.44 32.5064 29.48C32.5064 29.5 32.5264 29.5 32.5264 29.52C32.5464 29.56 32.5664 29.6 32.6064 29.64C32.6064 29.66 32.6264 29.66 32.6264 29.68C32.6664 29.7 32.7064 29.72 32.7264 29.76C32.7464 29.76 32.7464 29.78 32.7664 29.78C32.7864 29.82 32.8464 29.84 32.8864 29.88C32.9064 29.88 32.9064 29.88 32.9064 29.88C32.9264 29.88 32.9264 29.88 32.9464 29.9C32.9864 29.9 33.0264 29.92 33.0664 29.94C33.0864 29.94 33.1064 29.94 33.1264 29.94C33.1864 29.96 33.2464 29.96 33.3064 29.96C33.3664 29.96 33.4264 29.96 33.4864 29.94C33.5064 29.94 33.5264 29.94 33.5464 29.94C33.5864 29.92 33.6464 29.9 33.7064 29.9C33.7064 29.88 33.7264 29.88 33.7264 29.88H33.7464C33.8064 29.84 33.8464 29.82 33.9064 29.78C33.9264 29.78 33.9464 29.76 33.9464 29.76C33.9864 29.72 34.0464 29.7 34.0864 29.68C34.1064 29.66 34.1064 29.66 34.1264 29.64C34.1664 29.6 34.2064 29.56 34.2464 29.52C34.2664 29.5 34.2664 29.5 34.2664 29.48C34.3264 29.44 34.3664 29.38 34.3664 29.32L36.4264 25.9L37.2664 29.32C37.2864 29.38 37.3064 29.44 37.3264 29.48C37.3264 29.5 37.3264 29.5 37.3464 29.52C37.3664 29.56 37.3864 29.6 37.4064 29.64C37.4264 29.66 37.4464 29.66 37.4464 29.68C37.4864 29.7 37.5064 29.72 37.5264 29.76C37.5464 29.76 37.5464 29.78 37.5664 29.78C37.6064 29.82 37.6464 29.84 37.7064 29.88H37.7264C37.7264 29.88 37.7464 29.88 37.7464 29.9C37.8064 29.9 37.8464 29.92 37.8864 29.94C37.9064 29.94 37.9264 29.94 37.9464 29.94C38.0064 29.96 38.0464 29.96 38.1064 29.96C38.1664 29.96 38.2464 29.96 38.3064 29.94C38.3264 29.94 38.3464 29.94 38.3664 29.94C38.4064 29.92 38.4664 29.9 38.5064 29.9C38.5264 29.88 38.5264 29.88 38.5464 29.88C38.6064 29.84 38.6664 29.82 38.7264 29.78C38.7464 29.78 38.7464 29.76 38.7664 29.76C38.8064 29.72 38.8464 29.7 38.9064 29.68C38.9064 29.66 38.9264 29.66 38.9464 29.64C38.9864 29.6 39.0264 29.56 39.0664 29.52C39.0664 29.5 39.0664 29.5 39.0664 29.48C39.1064 29.44 39.1464 29.38 39.1864 29.32L43.8064 21.6C44.1264 21.06 43.9864 20.44 43.4864 20.24ZM45.6067 29C45.6067 28.46 45.1667 28.02 44.6267 28.02C44.1067 28.02 43.6267 28.46 43.6267 29C43.6267 29.52 44.1067 30 44.6267 30C45.1667 30 45.6067 29.52 45.6067 29Z" fill="#333333"/>
</svg>
