<svg width="48" height="48" viewBox="0 0 48 48" fill="none" xmlns="http://www.w3.org/2000/svg">
<path d="M0 24C0 10.7452 10.7452 0 24 0C37.2548 0 48 10.7452 48 24C48 37.2548 37.2548 48 24 48C10.7452 48 0 37.2548 0 24Z" fill="white"/>
<path d="M19.6674 24C19.6674 21.6069 21.6069 19.6663 24 19.6663C26.3931 19.6663 28.3337 21.6069 28.3337 24C28.3337 26.3931 26.3931 28.3337 24 28.3337C21.6069 28.3337 19.6674 26.3931 19.6674 24ZM17.3247 24C17.3247 27.6868 20.3132 30.6753 24 30.6753C27.6868 30.6753 30.6753 27.6868 30.6753 24C30.6753 20.3132 27.6868 17.3247 24 17.3247C20.3132 17.3247 17.3247 20.3132 17.3247 24ZM29.3796 17.06C29.3795 17.3685 29.4709 17.6702 29.6422 17.9268C29.8135 18.1834 30.057 18.3834 30.342 18.5016C30.6271 18.6198 30.9407 18.6508 31.2433 18.5907C31.546 18.5307 31.824 18.3822 32.0423 18.1641C32.2605 17.946 32.4092 17.6681 32.4695 17.3656C32.5298 17.063 32.4991 16.7493 32.3811 16.4642C32.2631 16.1791 32.0633 15.9354 31.8068 15.7639C31.5503 15.5923 31.2488 15.5007 30.9402 15.5006H30.9396C30.526 15.5008 30.1295 15.6651 29.837 15.9575C29.5445 16.2499 29.38 16.6464 29.3796 17.06V17.06ZM18.748 34.5817C17.4806 34.524 16.7917 34.3128 16.3338 34.1345C15.7269 33.8982 15.2938 33.6168 14.8385 33.1621C14.3832 32.7074 14.1014 32.2748 13.8661 31.6678C13.6877 31.2102 13.4766 30.5211 13.4189 29.2537C13.3559 27.8834 13.3433 27.4717 13.3433 24.0001C13.3433 20.5285 13.357 20.118 13.4189 18.7465C13.4767 17.4791 13.6893 16.7913 13.8661 16.3324C14.1024 15.7254 14.3838 15.2924 14.8385 14.8371C15.2932 14.3818 15.7259 14.0999 16.3338 13.8647C16.7914 13.6862 17.4806 13.4751 18.748 13.4175C20.1183 13.3545 20.5299 13.3419 24 13.3419C27.4701 13.3419 27.8821 13.3555 29.2536 13.4175C30.521 13.4752 31.2088 13.6879 31.6677 13.8647C32.2747 14.0999 32.7077 14.3824 33.163 14.8371C33.6183 15.2918 33.8991 15.7254 34.1354 16.3324C34.3139 16.79 34.525 17.4791 34.5826 18.7465C34.6457 20.118 34.6582 20.5285 34.6582 24.0001C34.6582 27.4717 34.6457 27.8822 34.5826 29.2537C34.5249 30.5211 34.3127 31.21 34.1354 31.6678C33.8991 32.2748 33.6177 32.7078 33.163 33.1621C32.7083 33.6164 32.2747 33.8982 31.6677 34.1345C31.2101 34.313 30.521 34.5241 29.2536 34.5817C27.8833 34.6447 27.4716 34.6573 24 34.6573C20.5284 34.6573 20.1179 34.6447 18.748 34.5817V34.5817ZM18.6404 11.0787C17.2564 11.1418 16.3108 11.3612 15.4849 11.6826C14.6296 12.0144 13.9056 12.4596 13.182 13.182C12.4585 13.9044 12.0144 14.6296 11.6826 15.4849C11.3612 16.3113 11.1418 17.2564 11.0787 18.6404C11.0147 20.0265 11 20.4696 11 24C11 27.5304 11.0147 27.9735 11.0787 29.3596C11.1418 30.7437 11.3612 31.6887 11.6826 32.5151C12.0144 33.3699 12.4586 34.0959 13.182 34.818C13.9054 35.54 14.6296 35.9846 15.4849 36.3174C16.3123 36.6388 17.2564 36.8582 18.6404 36.9213C20.0272 36.9843 20.4696 37 24 37C27.5304 37 27.9735 36.9853 29.3596 36.9213C30.7437 36.8582 31.6887 36.6388 32.5151 36.3174C33.3699 35.9846 34.0944 35.5404 34.818 34.818C35.5415 34.0956 35.9847 33.3699 36.3175 32.5151C36.6388 31.6887 36.8593 30.7436 36.9213 29.3596C36.9843 27.9725 36.999 27.5304 36.999 24C36.999 20.4696 36.9843 20.0265 36.9213 18.6404C36.8582 17.2563 36.6388 16.3108 36.3175 15.4849C35.9847 14.6301 35.5404 13.9056 34.818 13.182C34.0956 12.4585 33.3699 12.0144 32.5161 11.6826C31.6887 11.3612 30.7436 11.1407 29.3607 11.0787C27.9746 11.0157 27.5314 11 24.001 11C20.4707 11 20.0272 11.0147 18.6404 11.0787Z" fill="url(#paint0_radial)"/>
<path d="M19.6674 24C19.6674 21.6069 21.6069 19.6663 24 19.6663C26.3931 19.6663 28.3337 21.6069 28.3337 24C28.3337 26.3931 26.3931 28.3337 24 28.3337C21.6069 28.3337 19.6674 26.3931 19.6674 24ZM17.3247 24C17.3247 27.6868 20.3132 30.6753 24 30.6753C27.6868 30.6753 30.6753 27.6868 30.6753 24C30.6753 20.3132 27.6868 17.3247 24 17.3247C20.3132 17.3247 17.3247 20.3132 17.3247 24ZM29.3796 17.06C29.3795 17.3685 29.4709 17.6702 29.6422 17.9268C29.8135 18.1834 30.057 18.3834 30.342 18.5016C30.6271 18.6198 30.9407 18.6508 31.2433 18.5907C31.546 18.5307 31.824 18.3822 32.0423 18.1641C32.2605 17.946 32.4092 17.6681 32.4695 17.3656C32.5298 17.063 32.4991 16.7493 32.3811 16.4642C32.2631 16.1791 32.0633 15.9354 31.8068 15.7639C31.5503 15.5923 31.2488 15.5007 30.9402 15.5006H30.9396C30.526 15.5008 30.1295 15.6651 29.837 15.9575C29.5445 16.2499 29.38 16.6464 29.3796 17.06V17.06ZM18.748 34.5817C17.4806 34.524 16.7917 34.3128 16.3338 34.1345C15.7269 33.8982 15.2938 33.6168 14.8385 33.1621C14.3832 32.7074 14.1014 32.2748 13.8661 31.6678C13.6877 31.2102 13.4766 30.5211 13.4189 29.2537C13.3559 27.8834 13.3433 27.4717 13.3433 24.0001C13.3433 20.5285 13.357 20.118 13.4189 18.7465C13.4767 17.4791 13.6893 16.7913 13.8661 16.3324C14.1024 15.7254 14.3838 15.2924 14.8385 14.8371C15.2932 14.3818 15.7259 14.0999 16.3338 13.8647C16.7914 13.6862 17.4806 13.4751 18.748 13.4175C20.1183 13.3545 20.5299 13.3419 24 13.3419C27.4701 13.3419 27.8821 13.3555 29.2536 13.4175C30.521 13.4752 31.2088 13.6879 31.6677 13.8647C32.2747 14.0999 32.7077 14.3824 33.163 14.8371C33.6183 15.2918 33.8991 15.7254 34.1354 16.3324C34.3139 16.79 34.525 17.4791 34.5826 18.7465C34.6457 20.118 34.6582 20.5285 34.6582 24.0001C34.6582 27.4717 34.6457 27.8822 34.5826 29.2537C34.5249 30.5211 34.3127 31.21 34.1354 31.6678C33.8991 32.2748 33.6177 32.7078 33.163 33.1621C32.7083 33.6164 32.2747 33.8982 31.6677 34.1345C31.2101 34.313 30.521 34.5241 29.2536 34.5817C27.8833 34.6447 27.4716 34.6573 24 34.6573C20.5284 34.6573 20.1179 34.6447 18.748 34.5817V34.5817ZM18.6404 11.0787C17.2564 11.1418 16.3108 11.3612 15.4849 11.6826C14.6296 12.0144 13.9056 12.4596 13.182 13.182C12.4585 13.9044 12.0144 14.6296 11.6826 15.4849C11.3612 16.3113 11.1418 17.2564 11.0787 18.6404C11.0147 20.0265 11 20.4696 11 24C11 27.5304 11.0147 27.9735 11.0787 29.3596C11.1418 30.7437 11.3612 31.6887 11.6826 32.5151C12.0144 33.3699 12.4586 34.0959 13.182 34.818C13.9054 35.54 14.6296 35.9846 15.4849 36.3174C16.3123 36.6388 17.2564 36.8582 18.6404 36.9213C20.0272 36.9843 20.4696 37 24 37C27.5304 37 27.9735 36.9853 29.3596 36.9213C30.7437 36.8582 31.6887 36.6388 32.5151 36.3174C33.3699 35.9846 34.0944 35.5404 34.818 34.818C35.5415 34.0956 35.9847 33.3699 36.3175 32.5151C36.6388 31.6887 36.8593 30.7436 36.9213 29.3596C36.9843 27.9725 36.999 27.5304 36.999 24C36.999 20.4696 36.9843 20.0265 36.9213 18.6404C36.8582 17.2563 36.6388 16.3108 36.3175 15.4849C35.9847 14.6301 35.5404 13.9056 34.818 13.182C34.0956 12.4585 33.3699 12.0144 32.5161 11.6826C31.6887 11.3612 30.7436 11.1407 29.3607 11.0787C27.9746 11.0157 27.5314 11 24.001 11C20.4707 11 20.0272 11.0147 18.6404 11.0787Z" fill="url(#paint1_radial)"/>
<defs>
<radialGradient id="paint0_radial" cx="0" cy="0" r="1" gradientUnits="userSpaceOnUse" gradientTransform="translate(14.4543 37.1228) scale(33.9408)">
<stop offset="0.09" stop-color="#FA8F21"/>
<stop offset="0.78" stop-color="#D82D7E"/>
</radialGradient>
<radialGradient id="paint1_radial" cx="0" cy="0" r="1" gradientUnits="userSpaceOnUse" gradientTransform="translate(26.7679 38.2876) scale(26.75)">
<stop offset="0.64" stop-color="#8C3AAA" stop-opacity="0"/>
<stop offset="1" stop-color="#8C3AAA"/>
</radialGradient>
</defs>
</svg>
