<svg width="112" height="29" viewBox="0 0 112 29" fill="none" xmlns="http://www.w3.org/2000/svg">
<path d="M109.266 0H86.7344C85.2242 0 84 1.22422 84 2.73438V25.2656C84 26.7758 85.2242 28 86.7344 28H109.266C110.776 28 112 26.7758 112 25.2656V2.73438C112 1.22422 110.776 0 109.266 0Z" fill="url(#paint0_linear)"/>
<path d="M107.048 3.64001H101.133C100.408 3.64001 99.8201 4.22764 99.8201 4.95251V14.5775C99.8201 15.3024 100.408 15.89 101.133 15.89H107.048C107.772 15.89 108.36 15.3024 108.36 14.5775V4.95251C108.36 4.22764 107.772 3.64001 107.048 3.64001Z" fill="white"/>
<path d="M94.8675 3.64001H88.9525C88.2276 3.64001 87.64 4.22764 87.64 4.95251V21.5775C87.64 22.3024 88.2276 22.89 88.9525 22.89H94.8675C95.5924 22.89 96.18 22.3024 96.18 21.5775V4.95251C96.18 4.22764 95.5924 3.64001 94.8675 3.64001Z" fill="white"/>
<g filter="url(#filter0_d)">
<path d="M30.9581 11.788C31.6421 12.328 32.7341 12.976 34.0301 12.988C34.8821 12.988 35.6621 12.736 36.2501 12.304C36.8501 11.872 37.2821 11.212 37.2821 10.444C37.2821 10.072 37.1741 9.712 36.9941 9.424C36.7181 8.98 36.2861 8.668 35.7941 8.428C35.3141 8.2 34.7501 8.044 34.1381 7.924H34.1141C33.4661 7.804 32.9261 7.612 32.6141 7.396C32.4581 7.288 32.3501 7.18 32.2901 7.084C32.2301 6.988 32.2061 6.892 32.2061 6.748C32.2061 6.496 32.3381 6.232 32.6621 5.992C32.9861 5.752 33.4661 5.584 34.0061 5.584C34.7381 5.584 35.3261 5.944 35.9381 6.352C36.2261 6.544 36.6101 6.46 36.7901 6.172C36.9821 5.896 36.8981 5.512 36.6221 5.32C36.0101 4.924 35.1581 4.36 34.0061 4.36C33.2261 4.36 32.4941 4.588 31.9301 4.996C31.3781 5.404 30.9701 6.028 30.9701 6.748C30.9701 7.108 31.0661 7.444 31.2461 7.732C31.5101 8.152 31.9061 8.452 32.3621 8.668C32.8181 8.884 33.3461 9.028 33.9101 9.136H33.9341C34.6421 9.268 35.2301 9.472 35.5781 9.7C35.7581 9.82 35.8661 9.94 35.9381 10.06C36.0101 10.18 36.0461 10.288 36.0461 10.444C36.0461 10.744 35.8901 11.044 35.5301 11.308C35.1701 11.572 34.6301 11.752 34.0301 11.752C33.1781 11.764 32.2661 11.26 31.7381 10.828C31.4741 10.612 31.0781 10.648 30.8621 10.912C30.6581 11.176 30.6941 11.572 30.9581 11.788ZM45.6488 7.132C45.3488 7 44.9648 7.144 44.8448 7.492L43.4288 10.72L42.5768 8.716C42.4808 8.476 42.2528 8.332 41.9888 8.332C41.7368 8.332 41.5088 8.476 41.4008 8.716L40.5608 10.72L39.1448 7.492C39.0128 7.144 38.6408 7 38.3528 7.132C38.0168 7.276 37.8608 7.636 38.0048 7.96L39.9728 12.616C39.9968 12.64 40.0088 12.676 40.0328 12.712C40.0328 12.724 40.0328 12.724 40.0448 12.724C40.0568 12.748 40.0808 12.772 40.0928 12.796C40.1168 12.808 40.1168 12.808 40.1168 12.808C40.1528 12.832 40.1768 12.856 40.1888 12.868C40.1888 12.88 40.1888 12.88 40.2008 12.88C40.2248 12.916 40.2728 12.94 40.3088 12.952C40.3208 12.952 40.3208 12.952 40.3328 12.964C40.3568 12.964 40.3808 12.976 40.4048 12.988C40.4288 12.988 40.4288 12.988 40.4408 12.988C40.4768 13 40.5128 13 40.5608 13C40.5968 13 40.6328 13 40.6808 12.988C40.6808 12.988 40.6808 12.988 40.7048 12.988C40.7168 12.976 40.7528 12.964 40.7768 12.964C40.7768 12.952 40.7888 12.952 40.7888 12.952H40.8128C40.8488 12.94 40.8728 12.916 40.9208 12.88C40.9448 12.856 40.9688 12.832 40.9928 12.808C40.9928 12.808 41.0048 12.808 41.0048 12.796C41.0288 12.772 41.0528 12.748 41.0768 12.724V12.712C41.1008 12.676 41.1248 12.64 41.1368 12.616L41.9888 10.54L42.8648 12.616C42.8768 12.64 42.8888 12.676 42.9128 12.712C42.9128 12.724 42.9248 12.724 42.9248 12.724C42.9368 12.748 42.9608 12.772 42.9848 12.796C42.9848 12.808 43.0088 12.808 43.0088 12.808C43.0328 12.832 43.0448 12.856 43.0808 12.868C43.0808 12.88 43.0808 12.88 43.0808 12.88C43.1168 12.916 43.1528 12.94 43.1888 12.952C43.1888 12.952 43.1888 12.952 43.2008 12.952C43.2008 12.952 43.2008 12.952 43.2128 12.964C43.2488 12.964 43.2728 12.976 43.2968 12.988C43.3088 12.988 43.3088 12.988 43.3208 12.988C43.3568 13 43.3928 13 43.4288 13C43.4768 13 43.5128 13 43.5488 12.988C43.5608 12.988 43.5608 12.988 43.5728 12.988C43.6088 12.976 43.6448 12.964 43.6688 12.964C43.6688 12.952 43.6808 12.952 43.6808 12.952C43.7288 12.94 43.7528 12.916 43.7888 12.892C43.7888 12.88 43.8008 12.88 43.8008 12.868C43.8248 12.856 43.8488 12.832 43.8728 12.808C43.8728 12.808 43.8848 12.808 43.8968 12.796C43.9208 12.772 43.9448 12.748 43.9568 12.724C43.9568 12.724 43.9688 12.724 43.9688 12.712C43.9928 12.676 44.0048 12.64 44.0168 12.616L45.9968 7.96C46.1408 7.636 45.9728 7.276 45.6488 7.132ZM47.9385 7.012C47.5785 7.012 47.2905 7.288 47.2905 7.672V12.352C47.2905 12.712 47.5785 13 47.9385 13C48.3105 13 48.5865 12.712 48.5865 12.352V7.672C48.5865 7.288 48.3105 7.012 47.9385 7.012ZM48.5865 5.248C48.5865 4.888 48.3105 4.6 47.9385 4.6C47.5785 4.6 47.2905 4.888 47.2905 5.248V5.5C47.2905 5.86 47.5785 6.16 47.9385 6.16C48.3105 6.16 48.5865 5.86 48.5865 5.5V5.248ZM52.0815 7H51.7815V5.26C51.7815 4.888 51.4935 4.6 51.1215 4.6C50.7495 4.6 50.4495 4.888 50.4495 5.26V7H50.1015C49.7295 7 49.4415 7.288 49.4415 7.66C49.4415 8.02 49.7295 8.32 50.1015 8.32H50.4495V11.668C50.4495 12.4 51.0495 13 51.7815 13C52.1535 13 52.4415 12.712 52.4415 12.34C52.4415 11.968 52.1535 11.668 51.7815 11.668V8.32H52.0815C52.4415 8.32 52.7535 8.02 52.7535 7.66C52.7535 7.288 52.4415 7 52.0815 7ZM56.7104 13C57.4304 13 58.1024 12.736 58.6184 12.364C58.8944 12.124 58.9424 11.74 58.7504 11.476C58.5104 11.188 58.1144 11.14 57.8504 11.344C57.5384 11.572 57.1424 11.728 56.7104 11.728C55.7384 11.728 54.9344 10.936 54.9344 10.012C54.9344 9.088 55.7384 8.284 56.7104 8.284C57.1544 8.284 57.5384 8.44 57.8504 8.668C58.1264 8.884 58.5104 8.836 58.7504 8.548C58.9424 8.284 58.8944 7.876 58.6184 7.66C58.1024 7.264 57.4304 7 56.7104 7C55.0544 7.012 53.6624 8.344 53.6624 10.012C53.6624 11.656 55.0544 13 56.7104 13ZM61.6699 9.628C61.6819 8.92 62.2459 8.344 62.9539 8.332C63.6739 8.344 64.2499 8.92 64.2499 9.628V12.34C64.2499 12.712 64.5379 13 64.9099 13C65.2819 13 65.5699 12.712 65.5699 12.34V9.628C65.5699 8.188 64.4059 7 62.9539 7C62.4859 7 62.0539 7.144 61.6699 7.348V5.26C61.6699 4.888 61.3699 4.6 60.9979 4.6C60.6379 4.6 60.3379 4.888 60.3379 5.26V12.34C60.3379 12.4 60.3499 12.46 60.3619 12.508C60.4459 12.784 60.6979 13 60.9979 13C61.3699 13 61.6699 12.712 61.6699 12.34V9.628ZM69.6052 13C70.4572 13 71.1652 12.748 71.7532 12.208C72.0292 11.956 71.9092 11.596 71.7532 11.428C71.5972 11.236 71.1052 11.2 70.8532 11.464C70.5532 11.692 70.0372 11.8 69.6052 11.764C69.1852 11.728 68.7052 11.512 68.4532 11.224C68.2372 11.02 68.1052 10.708 68.0452 10.432H71.8612C72.1972 10.432 72.4492 10.24 72.4852 9.952C72.4972 9.928 72.4972 9.868 72.4972 9.844C72.4972 9.82 72.4972 9.796 72.4972 9.784C72.4012 8.164 71.1652 7 69.6052 7C67.9612 7 66.6892 8.368 66.6772 10C66.6892 11.632 67.9612 12.988 69.6052 13ZM69.6052 8.14C70.6492 8.224 71.2612 8.932 71.3812 9.412H67.9852C68.0812 8.92 68.5852 8.188 69.6052 8.14ZM73.6057 12.172C74.0857 12.556 74.8057 12.988 75.7417 13C76.3297 13 76.8697 12.82 77.3017 12.52C77.7337 12.208 78.0577 11.716 78.0577 11.128C78.0577 10.852 77.9737 10.576 77.8297 10.336C77.6257 10 77.3017 9.772 76.9777 9.628C76.6297 9.46 76.2577 9.352 75.8617 9.28H75.8497L75.8377 9.268C75.4297 9.196 75.1177 9.088 74.9617 8.98C74.8777 8.932 74.8417 8.884 74.8297 8.86C74.8057 8.824 74.8057 8.812 74.8057 8.764C74.8057 8.704 74.8417 8.596 74.9977 8.488C75.1537 8.368 75.4177 8.272 75.7177 8.272C76.1017 8.272 76.4377 8.464 76.8217 8.716C77.1217 8.92 77.5177 8.836 77.7097 8.548C77.8897 8.248 77.8057 7.852 77.5177 7.66C77.1337 7.396 76.5457 7 75.7177 7C75.1657 7 74.6617 7.156 74.2417 7.444C73.8457 7.744 73.5337 8.212 73.5337 8.764C73.5337 9.04 73.6057 9.304 73.7377 9.52C73.9537 9.844 74.2417 10.06 74.5657 10.216C74.8777 10.36 75.2377 10.456 75.6097 10.528H75.6217C76.0537 10.612 76.4137 10.744 76.5817 10.864C76.6777 10.924 76.7257 10.972 76.7377 11.008C76.7617 11.044 76.7737 11.068 76.7737 11.128C76.7737 11.224 76.7257 11.344 76.5577 11.488C76.3657 11.608 76.0657 11.716 75.7417 11.716C75.2737 11.728 74.7337 11.452 74.4217 11.188C74.1577 10.96 73.7377 10.996 73.5217 11.284C73.3057 11.548 73.3417 11.956 73.6057 12.172ZM11.6307 24C12.3507 24 13.0227 23.736 13.5387 23.364C13.8147 23.124 13.8627 22.74 13.6707 22.476C13.4307 22.188 13.0347 22.14 12.7707 22.344C12.4587 22.572 12.0627 22.728 11.6307 22.728C10.6587 22.728 9.85472 21.936 9.85472 21.012C9.85472 20.088 10.6587 19.284 11.6307 19.284C12.0747 19.284 12.4587 19.44 12.7707 19.668C13.0467 19.884 13.4307 19.836 13.6707 19.548C13.8627 19.284 13.8147 18.876 13.5387 18.66C13.0227 18.264 12.3507 18 11.6307 18C9.97472 18.012 8.58272 19.344 8.58272 21.012C8.58272 22.656 9.97472 24 11.6307 24ZM17.6984 24.036C18.4904 24.036 19.2104 23.688 19.7024 23.124C20.2424 22.596 20.5424 21.852 20.5424 21.012C20.5424 20.196 20.2424 19.488 19.7024 18.912C19.2104 18.348 18.4904 18 17.6984 18C16.8704 18 16.1744 18.348 15.6344 18.912C15.1184 19.488 14.8064 20.196 14.8064 21.012C14.8064 21.852 15.1184 22.596 15.6344 23.124C16.1744 23.688 16.8704 24.036 17.6984 24.036ZM16.5464 19.764C16.8464 19.5 17.2424 19.308 17.6984 19.308C18.1184 19.308 18.5024 19.5 18.8024 19.764C19.1024 20.088 19.2704 20.52 19.2704 21.012C19.2704 21.528 19.1024 21.948 18.8024 22.284C18.5024 22.572 18.1184 22.728 17.6984 22.728C17.2424 22.728 16.8464 22.572 16.5464 22.284C16.2704 21.948 16.1144 21.528 16.1144 21.012C16.1144 20.52 16.2704 20.088 16.5464 19.764ZM28.2464 19.284C28.9064 19.284 29.4584 19.836 29.4584 20.52V23.364C29.4584 23.712 29.7584 24 30.1064 24C30.4544 24 30.7424 23.712 30.7424 23.364V20.52C30.7424 19.128 29.6264 18 28.2464 18C27.4904 18 26.8064 18.312 26.3624 18.828C25.9064 18.312 25.2344 18 24.4784 18C24.0224 18 23.5784 18.132 23.1944 18.36C23.0984 18.132 22.8704 18 22.6184 18C22.2704 18 21.9824 18.276 21.9824 18.648V20.508C21.9824 20.508 21.9824 20.508 21.9824 20.52V23.364C21.9824 23.676 22.2104 23.916 22.4984 23.988C22.5344 23.988 22.5704 24 22.6184 24C22.8704 24 23.1104 23.832 23.2184 23.616C23.2184 23.592 23.2184 23.568 23.2184 23.556C23.2424 23.532 23.2424 23.508 23.2544 23.484C23.2544 23.484 23.2544 23.46 23.2544 23.448C23.2544 23.424 23.2664 23.388 23.2664 23.364V20.52C23.2664 19.836 23.8184 19.284 24.4784 19.284C25.1504 19.284 25.7024 19.824 25.7144 20.484C25.7144 20.496 25.7144 20.508 25.7144 20.52V23.364C25.7144 23.712 26.0264 24 26.3624 24C26.7104 24 26.9984 23.712 26.9984 23.364V20.52C26.9984 20.508 26.9984 20.496 26.9984 20.484C27.0224 19.824 27.5624 19.284 28.2464 19.284ZM33.4565 18.012C33.0965 18.012 32.8085 18.288 32.8085 18.672V23.352C32.8085 23.712 33.0965 24 33.4565 24C33.8285 24 34.1045 23.712 34.1045 23.352V18.672C34.1045 18.288 33.8285 18.012 33.4565 18.012ZM34.1045 16.248C34.1045 15.888 33.8285 15.6 33.4565 15.6C33.0965 15.6 32.8085 15.888 32.8085 16.248V16.5C32.8085 16.86 33.0965 17.16 33.4565 17.16C33.8285 17.16 34.1045 16.86 34.1045 16.5V16.248ZM38.0675 18C37.5995 18 37.1555 18.144 36.7955 18.372C36.6875 18.144 36.4595 18 36.2075 18C35.8475 18 35.5715 18.288 35.5715 18.636V20.496V23.364C35.5715 23.712 35.8475 24 36.2075 24C36.5195 24 36.7835 23.772 36.8435 23.484C36.8675 23.436 36.8675 23.4 36.8675 23.364V20.496C36.8675 19.824 37.3955 19.284 38.0675 19.284C38.7515 19.284 39.3155 19.824 39.3155 20.496V23.364C39.3155 23.712 39.6155 24 39.9515 24C40.2995 24 40.5755 23.712 40.5755 23.364V20.496C40.5755 19.14 39.4595 18 38.0675 18ZM47.6948 21.024V18.636C47.6948 18.288 47.4188 18 47.0588 18C46.7468 18 46.4828 18.216 46.4228 18.504C45.9908 18.192 45.4388 18 44.8148 18C44.0228 18 43.2908 18.348 42.7748 18.888C42.2588 19.452 41.9348 20.196 41.9348 21.024C41.9348 21.864 42.2588 22.608 42.7748 23.136C43.2908 23.7 44.0228 24.048 44.8148 24.048C45.4028 24.048 45.9548 23.868 46.3868 23.568C46.2308 24.3 45.5948 24.852 44.8148 24.852C44.5628 24.852 44.3348 24.792 44.1308 24.684C43.7948 24.54 43.4228 24.66 43.2668 24.984C43.0988 25.308 43.2428 25.704 43.5548 25.848C43.9268 26.04 44.3708 26.148 44.8148 26.148C46.4108 26.148 47.6948 24.84 47.6948 23.268V21.036V21.024ZM45.9548 22.26C45.6428 22.584 45.2708 22.752 44.8148 22.752C44.3948 22.752 43.9988 22.584 43.7108 22.26C43.4228 21.984 43.2308 21.528 43.2308 21.024C43.2308 20.544 43.4228 20.088 43.7108 19.8C43.9988 19.464 44.3948 19.284 44.8148 19.284C45.2708 19.284 45.6428 19.464 45.9548 19.8C46.2188 20.088 46.4108 20.544 46.4108 21.024C46.4108 21.528 46.2188 21.984 45.9548 22.26ZM52.4464 23.172C52.9264 23.556 53.6464 23.988 54.5824 24C55.1704 24 55.7104 23.82 56.1424 23.52C56.5744 23.208 56.8984 22.716 56.8984 22.128C56.8984 21.852 56.8144 21.576 56.6704 21.336C56.4664 21 56.1424 20.772 55.8184 20.628C55.4704 20.46 55.0984 20.352 54.7024 20.28H54.6904L54.6784 20.268C54.2704 20.196 53.9584 20.088 53.8024 19.98C53.7184 19.932 53.6824 19.884 53.6704 19.86C53.6464 19.824 53.6464 19.812 53.6464 19.764C53.6464 19.704 53.6824 19.596 53.8384 19.488C53.9944 19.368 54.2584 19.272 54.5584 19.272C54.9424 19.272 55.2784 19.464 55.6624 19.716C55.9624 19.92 56.3584 19.836 56.5504 19.548C56.7304 19.248 56.6464 18.852 56.3584 18.66C55.9744 18.396 55.3864 18 54.5584 18C54.0064 18 53.5024 18.156 53.0824 18.444C52.6864 18.744 52.3744 19.212 52.3744 19.764C52.3744 20.04 52.4464 20.304 52.5784 20.52C52.7944 20.844 53.0824 21.06 53.4064 21.216C53.7184 21.36 54.0784 21.456 54.4504 21.528H54.4624C54.8944 21.612 55.2544 21.744 55.4224 21.864C55.5184 21.924 55.5664 21.972 55.5784 22.008C55.6024 22.044 55.6144 22.068 55.6144 22.128C55.6144 22.224 55.5664 22.344 55.3984 22.488C55.2064 22.608 54.9064 22.716 54.5824 22.716C54.1144 22.728 53.5744 22.452 53.2624 22.188C52.9984 21.96 52.5784 21.996 52.3624 22.284C52.1464 22.548 52.1824 22.956 52.4464 23.172ZM60.5726 24.036C61.3646 24.036 62.0846 23.688 62.5766 23.124C63.1166 22.596 63.4166 21.852 63.4166 21.012C63.4166 20.196 63.1166 19.488 62.5766 18.912C62.0846 18.348 61.3646 18 60.5726 18C59.7446 18 59.0486 18.348 58.5086 18.912C57.9926 19.488 57.6806 20.196 57.6806 21.012C57.6806 21.852 57.9926 22.596 58.5086 23.124C59.0486 23.688 59.7446 24.036 60.5726 24.036ZM59.4206 19.764C59.7206 19.5 60.1166 19.308 60.5726 19.308C60.9926 19.308 61.3766 19.5 61.6766 19.764C61.9766 20.088 62.1446 20.52 62.1446 21.012C62.1446 21.528 61.9766 21.948 61.6766 22.284C61.3766 22.572 60.9926 22.728 60.5726 22.728C60.1166 22.728 59.7206 22.572 59.4206 22.284C59.1446 21.948 58.9886 21.528 58.9886 21.012C58.9886 20.52 59.1446 20.088 59.4206 19.764ZM67.4726 24.036C68.2646 24.036 68.9846 23.688 69.4766 23.124C70.0166 22.596 70.3166 21.852 70.3166 21.012C70.3166 20.196 70.0166 19.488 69.4766 18.912C68.9846 18.348 68.2646 18 67.4726 18C66.6446 18 65.9486 18.348 65.4086 18.912C64.8926 19.488 64.5806 20.196 64.5806 21.012C64.5806 21.852 64.8926 22.596 65.4086 23.124C65.9486 23.688 66.6446 24.036 67.4726 24.036ZM66.3206 19.764C66.6206 19.5 67.0166 19.308 67.4726 19.308C67.8926 19.308 68.2766 19.5 68.5766 19.764C68.8766 20.088 69.0446 20.52 69.0446 21.012C69.0446 21.528 68.8766 21.948 68.5766 22.284C68.2766 22.572 67.8926 22.728 67.4726 22.728C67.0166 22.728 66.6206 22.572 66.3206 22.284C66.0446 21.948 65.8886 21.528 65.8886 21.012C65.8886 20.52 66.0446 20.088 66.3206 19.764ZM74.2526 18C73.7846 18 73.3406 18.144 72.9806 18.372C72.8726 18.144 72.6446 18 72.3926 18C72.0326 18 71.7566 18.288 71.7566 18.636V20.496V23.364C71.7566 23.712 72.0326 24 72.3926 24C72.7046 24 72.9686 23.772 73.0286 23.484C73.0526 23.436 73.0526 23.4 73.0526 23.364V20.496C73.0526 19.824 73.5806 19.284 74.2526 19.284C74.9366 19.284 75.5006 19.824 75.5006 20.496V23.364C75.5006 23.712 75.8006 24 76.1366 24C76.4846 24 76.7606 23.712 76.7606 23.364V20.496C76.7606 19.14 75.6446 18 74.2526 18Z" fill="#CACACA"/>
<path d="M30.9581 11.788C31.6421 12.328 32.7341 12.976 34.0301 12.988C34.8821 12.988 35.6621 12.736 36.2501 12.304C36.8501 11.872 37.2821 11.212 37.2821 10.444C37.2821 10.072 37.1741 9.712 36.9941 9.424C36.7181 8.98 36.2861 8.668 35.7941 8.428C35.3141 8.2 34.7501 8.044 34.1381 7.924H34.1141C33.4661 7.804 32.9261 7.612 32.6141 7.396C32.4581 7.288 32.3501 7.18 32.2901 7.084C32.2301 6.988 32.2061 6.892 32.2061 6.748C32.2061 6.496 32.3381 6.232 32.6621 5.992C32.9861 5.752 33.4661 5.584 34.0061 5.584C34.7381 5.584 35.3261 5.944 35.9381 6.352C36.2261 6.544 36.6101 6.46 36.7901 6.172C36.9821 5.896 36.8981 5.512 36.6221 5.32C36.0101 4.924 35.1581 4.36 34.0061 4.36C33.2261 4.36 32.4941 4.588 31.9301 4.996C31.3781 5.404 30.9701 6.028 30.9701 6.748C30.9701 7.108 31.0661 7.444 31.2461 7.732C31.5101 8.152 31.9061 8.452 32.3621 8.668C32.8181 8.884 33.3461 9.028 33.9101 9.136H33.9341C34.6421 9.268 35.2301 9.472 35.5781 9.7C35.7581 9.82 35.8661 9.94 35.9381 10.06C36.0101 10.18 36.0461 10.288 36.0461 10.444C36.0461 10.744 35.8901 11.044 35.5301 11.308C35.1701 11.572 34.6301 11.752 34.0301 11.752C33.1781 11.764 32.2661 11.26 31.7381 10.828C31.4741 10.612 31.0781 10.648 30.8621 10.912C30.6581 11.176 30.6941 11.572 30.9581 11.788ZM45.6488 7.132C45.3488 7 44.9648 7.144 44.8448 7.492L43.4288 10.72L42.5768 8.716C42.4808 8.476 42.2528 8.332 41.9888 8.332C41.7368 8.332 41.5088 8.476 41.4008 8.716L40.5608 10.72L39.1448 7.492C39.0128 7.144 38.6408 7 38.3528 7.132C38.0168 7.276 37.8608 7.636 38.0048 7.96L39.9728 12.616C39.9968 12.64 40.0088 12.676 40.0328 12.712C40.0328 12.724 40.0328 12.724 40.0448 12.724C40.0568 12.748 40.0808 12.772 40.0928 12.796C40.1168 12.808 40.1168 12.808 40.1168 12.808C40.1528 12.832 40.1768 12.856 40.1888 12.868C40.1888 12.88 40.1888 12.88 40.2008 12.88C40.2248 12.916 40.2728 12.94 40.3088 12.952C40.3208 12.952 40.3208 12.952 40.3328 12.964C40.3568 12.964 40.3808 12.976 40.4048 12.988C40.4288 12.988 40.4288 12.988 40.4408 12.988C40.4768 13 40.5128 13 40.5608 13C40.5968 13 40.6328 13 40.6808 12.988C40.6808 12.988 40.6808 12.988 40.7048 12.988C40.7168 12.976 40.7528 12.964 40.7768 12.964C40.7768 12.952 40.7888 12.952 40.7888 12.952H40.8128C40.8488 12.94 40.8728 12.916 40.9208 12.88C40.9448 12.856 40.9688 12.832 40.9928 12.808C40.9928 12.808 41.0048 12.808 41.0048 12.796C41.0288 12.772 41.0528 12.748 41.0768 12.724V12.712C41.1008 12.676 41.1248 12.64 41.1368 12.616L41.9888 10.54L42.8648 12.616C42.8768 12.64 42.8888 12.676 42.9128 12.712C42.9128 12.724 42.9248 12.724 42.9248 12.724C42.9368 12.748 42.9608 12.772 42.9848 12.796C42.9848 12.808 43.0088 12.808 43.0088 12.808C43.0328 12.832 43.0448 12.856 43.0808 12.868C43.0808 12.88 43.0808 12.88 43.0808 12.88C43.1168 12.916 43.1528 12.94 43.1888 12.952C43.1888 12.952 43.1888 12.952 43.2008 12.952C43.2008 12.952 43.2008 12.952 43.2128 12.964C43.2488 12.964 43.2728 12.976 43.2968 12.988C43.3088 12.988 43.3088 12.988 43.3208 12.988C43.3568 13 43.3928 13 43.4288 13C43.4768 13 43.5128 13 43.5488 12.988C43.5608 12.988 43.5608 12.988 43.5728 12.988C43.6088 12.976 43.6448 12.964 43.6688 12.964C43.6688 12.952 43.6808 12.952 43.6808 12.952C43.7288 12.94 43.7528 12.916 43.7888 12.892C43.7888 12.88 43.8008 12.88 43.8008 12.868C43.8248 12.856 43.8488 12.832 43.8728 12.808C43.8728 12.808 43.8848 12.808 43.8968 12.796C43.9208 12.772 43.9448 12.748 43.9568 12.724C43.9568 12.724 43.9688 12.724 43.9688 12.712C43.9928 12.676 44.0048 12.64 44.0168 12.616L45.9968 7.96C46.1408 7.636 45.9728 7.276 45.6488 7.132ZM47.9385 7.012C47.5785 7.012 47.2905 7.288 47.2905 7.672V12.352C47.2905 12.712 47.5785 13 47.9385 13C48.3105 13 48.5865 12.712 48.5865 12.352V7.672C48.5865 7.288 48.3105 7.012 47.9385 7.012ZM48.5865 5.248C48.5865 4.888 48.3105 4.6 47.9385 4.6C47.5785 4.6 47.2905 4.888 47.2905 5.248V5.5C47.2905 5.86 47.5785 6.16 47.9385 6.16C48.3105 6.16 48.5865 5.86 48.5865 5.5V5.248ZM52.0815 7H51.7815V5.26C51.7815 4.888 51.4935 4.6 51.1215 4.6C50.7495 4.6 50.4495 4.888 50.4495 5.26V7H50.1015C49.7295 7 49.4415 7.288 49.4415 7.66C49.4415 8.02 49.7295 8.32 50.1015 8.32H50.4495V11.668C50.4495 12.4 51.0495 13 51.7815 13C52.1535 13 52.4415 12.712 52.4415 12.34C52.4415 11.968 52.1535 11.668 51.7815 11.668V8.32H52.0815C52.4415 8.32 52.7535 8.02 52.7535 7.66C52.7535 7.288 52.4415 7 52.0815 7ZM56.7104 13C57.4304 13 58.1024 12.736 58.6184 12.364C58.8944 12.124 58.9424 11.74 58.7504 11.476C58.5104 11.188 58.1144 11.14 57.8504 11.344C57.5384 11.572 57.1424 11.728 56.7104 11.728C55.7384 11.728 54.9344 10.936 54.9344 10.012C54.9344 9.088 55.7384 8.284 56.7104 8.284C57.1544 8.284 57.5384 8.44 57.8504 8.668C58.1264 8.884 58.5104 8.836 58.7504 8.548C58.9424 8.284 58.8944 7.876 58.6184 7.66C58.1024 7.264 57.4304 7 56.7104 7C55.0544 7.012 53.6624 8.344 53.6624 10.012C53.6624 11.656 55.0544 13 56.7104 13ZM61.6699 9.628C61.6819 8.92 62.2459 8.344 62.9539 8.332C63.6739 8.344 64.2499 8.92 64.2499 9.628V12.34C64.2499 12.712 64.5379 13 64.9099 13C65.2819 13 65.5699 12.712 65.5699 12.34V9.628C65.5699 8.188 64.4059 7 62.9539 7C62.4859 7 62.0539 7.144 61.6699 7.348V5.26C61.6699 4.888 61.3699 4.6 60.9979 4.6C60.6379 4.6 60.3379 4.888 60.3379 5.26V12.34C60.3379 12.4 60.3499 12.46 60.3619 12.508C60.4459 12.784 60.6979 13 60.9979 13C61.3699 13 61.6699 12.712 61.6699 12.34V9.628ZM69.6052 13C70.4572 13 71.1652 12.748 71.7532 12.208C72.0292 11.956 71.9092 11.596 71.7532 11.428C71.5972 11.236 71.1052 11.2 70.8532 11.464C70.5532 11.692 70.0372 11.8 69.6052 11.764C69.1852 11.728 68.7052 11.512 68.4532 11.224C68.2372 11.02 68.1052 10.708 68.0452 10.432H71.8612C72.1972 10.432 72.4492 10.24 72.4852 9.952C72.4972 9.928 72.4972 9.868 72.4972 9.844C72.4972 9.82 72.4972 9.796 72.4972 9.784C72.4012 8.164 71.1652 7 69.6052 7C67.9612 7 66.6892 8.368 66.6772 10C66.6892 11.632 67.9612 12.988 69.6052 13ZM69.6052 8.14C70.6492 8.224 71.2612 8.932 71.3812 9.412H67.9852C68.0812 8.92 68.5852 8.188 69.6052 8.14ZM73.6057 12.172C74.0857 12.556 74.8057 12.988 75.7417 13C76.3297 13 76.8697 12.82 77.3017 12.52C77.7337 12.208 78.0577 11.716 78.0577 11.128C78.0577 10.852 77.9737 10.576 77.8297 10.336C77.6257 10 77.3017 9.772 76.9777 9.628C76.6297 9.46 76.2577 9.352 75.8617 9.28H75.8497L75.8377 9.268C75.4297 9.196 75.1177 9.088 74.9617 8.98C74.8777 8.932 74.8417 8.884 74.8297 8.86C74.8057 8.824 74.8057 8.812 74.8057 8.764C74.8057 8.704 74.8417 8.596 74.9977 8.488C75.1537 8.368 75.4177 8.272 75.7177 8.272C76.1017 8.272 76.4377 8.464 76.8217 8.716C77.1217 8.92 77.5177 8.836 77.7097 8.548C77.8897 8.248 77.8057 7.852 77.5177 7.66C77.1337 7.396 76.5457 7 75.7177 7C75.1657 7 74.6617 7.156 74.2417 7.444C73.8457 7.744 73.5337 8.212 73.5337 8.764C73.5337 9.04 73.6057 9.304 73.7377 9.52C73.9537 9.844 74.2417 10.06 74.5657 10.216C74.8777 10.36 75.2377 10.456 75.6097 10.528H75.6217C76.0537 10.612 76.4137 10.744 76.5817 10.864C76.6777 10.924 76.7257 10.972 76.7377 11.008C76.7617 11.044 76.7737 11.068 76.7737 11.128C76.7737 11.224 76.7257 11.344 76.5577 11.488C76.3657 11.608 76.0657 11.716 75.7417 11.716C75.2737 11.728 74.7337 11.452 74.4217 11.188C74.1577 10.96 73.7377 10.996 73.5217 11.284C73.3057 11.548 73.3417 11.956 73.6057 12.172ZM11.6307 24C12.3507 24 13.0227 23.736 13.5387 23.364C13.8147 23.124 13.8627 22.74 13.6707 22.476C13.4307 22.188 13.0347 22.14 12.7707 22.344C12.4587 22.572 12.0627 22.728 11.6307 22.728C10.6587 22.728 9.85472 21.936 9.85472 21.012C9.85472 20.088 10.6587 19.284 11.6307 19.284C12.0747 19.284 12.4587 19.44 12.7707 19.668C13.0467 19.884 13.4307 19.836 13.6707 19.548C13.8627 19.284 13.8147 18.876 13.5387 18.66C13.0227 18.264 12.3507 18 11.6307 18C9.97472 18.012 8.58272 19.344 8.58272 21.012C8.58272 22.656 9.97472 24 11.6307 24ZM17.6984 24.036C18.4904 24.036 19.2104 23.688 19.7024 23.124C20.2424 22.596 20.5424 21.852 20.5424 21.012C20.5424 20.196 20.2424 19.488 19.7024 18.912C19.2104 18.348 18.4904 18 17.6984 18C16.8704 18 16.1744 18.348 15.6344 18.912C15.1184 19.488 14.8064 20.196 14.8064 21.012C14.8064 21.852 15.1184 22.596 15.6344 23.124C16.1744 23.688 16.8704 24.036 17.6984 24.036ZM16.5464 19.764C16.8464 19.5 17.2424 19.308 17.6984 19.308C18.1184 19.308 18.5024 19.5 18.8024 19.764C19.1024 20.088 19.2704 20.52 19.2704 21.012C19.2704 21.528 19.1024 21.948 18.8024 22.284C18.5024 22.572 18.1184 22.728 17.6984 22.728C17.2424 22.728 16.8464 22.572 16.5464 22.284C16.2704 21.948 16.1144 21.528 16.1144 21.012C16.1144 20.52 16.2704 20.088 16.5464 19.764ZM28.2464 19.284C28.9064 19.284 29.4584 19.836 29.4584 20.52V23.364C29.4584 23.712 29.7584 24 30.1064 24C30.4544 24 30.7424 23.712 30.7424 23.364V20.52C30.7424 19.128 29.6264 18 28.2464 18C27.4904 18 26.8064 18.312 26.3624 18.828C25.9064 18.312 25.2344 18 24.4784 18C24.0224 18 23.5784 18.132 23.1944 18.36C23.0984 18.132 22.8704 18 22.6184 18C22.2704 18 21.9824 18.276 21.9824 18.648V20.508C21.9824 20.508 21.9824 20.508 21.9824 20.52V23.364C21.9824 23.676 22.2104 23.916 22.4984 23.988C22.5344 23.988 22.5704 24 22.6184 24C22.8704 24 23.1104 23.832 23.2184 23.616C23.2184 23.592 23.2184 23.568 23.2184 23.556C23.2424 23.532 23.2424 23.508 23.2544 23.484C23.2544 23.484 23.2544 23.46 23.2544 23.448C23.2544 23.424 23.2664 23.388 23.2664 23.364V20.52C23.2664 19.836 23.8184 19.284 24.4784 19.284C25.1504 19.284 25.7024 19.824 25.7144 20.484C25.7144 20.496 25.7144 20.508 25.7144 20.52V23.364C25.7144 23.712 26.0264 24 26.3624 24C26.7104 24 26.9984 23.712 26.9984 23.364V20.52C26.9984 20.508 26.9984 20.496 26.9984 20.484C27.0224 19.824 27.5624 19.284 28.2464 19.284ZM33.4565 18.012C33.0965 18.012 32.8085 18.288 32.8085 18.672V23.352C32.8085 23.712 33.0965 24 33.4565 24C33.8285 24 34.1045 23.712 34.1045 23.352V18.672C34.1045 18.288 33.8285 18.012 33.4565 18.012ZM34.1045 16.248C34.1045 15.888 33.8285 15.6 33.4565 15.6C33.0965 15.6 32.8085 15.888 32.8085 16.248V16.5C32.8085 16.86 33.0965 17.16 33.4565 17.16C33.8285 17.16 34.1045 16.86 34.1045 16.5V16.248ZM38.0675 18C37.5995 18 37.1555 18.144 36.7955 18.372C36.6875 18.144 36.4595 18 36.2075 18C35.8475 18 35.5715 18.288 35.5715 18.636V20.496V23.364C35.5715 23.712 35.8475 24 36.2075 24C36.5195 24 36.7835 23.772 36.8435 23.484C36.8675 23.436 36.8675 23.4 36.8675 23.364V20.496C36.8675 19.824 37.3955 19.284 38.0675 19.284C38.7515 19.284 39.3155 19.824 39.3155 20.496V23.364C39.3155 23.712 39.6155 24 39.9515 24C40.2995 24 40.5755 23.712 40.5755 23.364V20.496C40.5755 19.14 39.4595 18 38.0675 18ZM47.6948 21.024V18.636C47.6948 18.288 47.4188 18 47.0588 18C46.7468 18 46.4828 18.216 46.4228 18.504C45.9908 18.192 45.4388 18 44.8148 18C44.0228 18 43.2908 18.348 42.7748 18.888C42.2588 19.452 41.9348 20.196 41.9348 21.024C41.9348 21.864 42.2588 22.608 42.7748 23.136C43.2908 23.7 44.0228 24.048 44.8148 24.048C45.4028 24.048 45.9548 23.868 46.3868 23.568C46.2308 24.3 45.5948 24.852 44.8148 24.852C44.5628 24.852 44.3348 24.792 44.1308 24.684C43.7948 24.54 43.4228 24.66 43.2668 24.984C43.0988 25.308 43.2428 25.704 43.5548 25.848C43.9268 26.04 44.3708 26.148 44.8148 26.148C46.4108 26.148 47.6948 24.84 47.6948 23.268V21.036V21.024ZM45.9548 22.26C45.6428 22.584 45.2708 22.752 44.8148 22.752C44.3948 22.752 43.9988 22.584 43.7108 22.26C43.4228 21.984 43.2308 21.528 43.2308 21.024C43.2308 20.544 43.4228 20.088 43.7108 19.8C43.9988 19.464 44.3948 19.284 44.8148 19.284C45.2708 19.284 45.6428 19.464 45.9548 19.8C46.2188 20.088 46.4108 20.544 46.4108 21.024C46.4108 21.528 46.2188 21.984 45.9548 22.26ZM52.4464 23.172C52.9264 23.556 53.6464 23.988 54.5824 24C55.1704 24 55.7104 23.82 56.1424 23.52C56.5744 23.208 56.8984 22.716 56.8984 22.128C56.8984 21.852 56.8144 21.576 56.6704 21.336C56.4664 21 56.1424 20.772 55.8184 20.628C55.4704 20.46 55.0984 20.352 54.7024 20.28H54.6904L54.6784 20.268C54.2704 20.196 53.9584 20.088 53.8024 19.98C53.7184 19.932 53.6824 19.884 53.6704 19.86C53.6464 19.824 53.6464 19.812 53.6464 19.764C53.6464 19.704 53.6824 19.596 53.8384 19.488C53.9944 19.368 54.2584 19.272 54.5584 19.272C54.9424 19.272 55.2784 19.464 55.6624 19.716C55.9624 19.92 56.3584 19.836 56.5504 19.548C56.7304 19.248 56.6464 18.852 56.3584 18.66C55.9744 18.396 55.3864 18 54.5584 18C54.0064 18 53.5024 18.156 53.0824 18.444C52.6864 18.744 52.3744 19.212 52.3744 19.764C52.3744 20.04 52.4464 20.304 52.5784 20.52C52.7944 20.844 53.0824 21.06 53.4064 21.216C53.7184 21.36 54.0784 21.456 54.4504 21.528H54.4624C54.8944 21.612 55.2544 21.744 55.4224 21.864C55.5184 21.924 55.5664 21.972 55.5784 22.008C55.6024 22.044 55.6144 22.068 55.6144 22.128C55.6144 22.224 55.5664 22.344 55.3984 22.488C55.2064 22.608 54.9064 22.716 54.5824 22.716C54.1144 22.728 53.5744 22.452 53.2624 22.188C52.9984 21.96 52.5784 21.996 52.3624 22.284C52.1464 22.548 52.1824 22.956 52.4464 23.172ZM60.5726 24.036C61.3646 24.036 62.0846 23.688 62.5766 23.124C63.1166 22.596 63.4166 21.852 63.4166 21.012C63.4166 20.196 63.1166 19.488 62.5766 18.912C62.0846 18.348 61.3646 18 60.5726 18C59.7446 18 59.0486 18.348 58.5086 18.912C57.9926 19.488 57.6806 20.196 57.6806 21.012C57.6806 21.852 57.9926 22.596 58.5086 23.124C59.0486 23.688 59.7446 24.036 60.5726 24.036ZM59.4206 19.764C59.7206 19.5 60.1166 19.308 60.5726 19.308C60.9926 19.308 61.3766 19.5 61.6766 19.764C61.9766 20.088 62.1446 20.52 62.1446 21.012C62.1446 21.528 61.9766 21.948 61.6766 22.284C61.3766 22.572 60.9926 22.728 60.5726 22.728C60.1166 22.728 59.7206 22.572 59.4206 22.284C59.1446 21.948 58.9886 21.528 58.9886 21.012C58.9886 20.52 59.1446 20.088 59.4206 19.764ZM67.4726 24.036C68.2646 24.036 68.9846 23.688 69.4766 23.124C70.0166 22.596 70.3166 21.852 70.3166 21.012C70.3166 20.196 70.0166 19.488 69.4766 18.912C68.9846 18.348 68.2646 18 67.4726 18C66.6446 18 65.9486 18.348 65.4086 18.912C64.8926 19.488 64.5806 20.196 64.5806 21.012C64.5806 21.852 64.8926 22.596 65.4086 23.124C65.9486 23.688 66.6446 24.036 67.4726 24.036ZM66.3206 19.764C66.6206 19.5 67.0166 19.308 67.4726 19.308C67.8926 19.308 68.2766 19.5 68.5766 19.764C68.8766 20.088 69.0446 20.52 69.0446 21.012C69.0446 21.528 68.8766 21.948 68.5766 22.284C68.2766 22.572 67.8926 22.728 67.4726 22.728C67.0166 22.728 66.6206 22.572 66.3206 22.284C66.0446 21.948 65.8886 21.528 65.8886 21.012C65.8886 20.52 66.0446 20.088 66.3206 19.764ZM74.2526 18C73.7846 18 73.3406 18.144 72.9806 18.372C72.8726 18.144 72.6446 18 72.3926 18C72.0326 18 71.7566 18.288 71.7566 18.636V20.496V23.364C71.7566 23.712 72.0326 24 72.3926 24C72.7046 24 72.9686 23.772 73.0286 23.484C73.0526 23.436 73.0526 23.4 73.0526 23.364V20.496C73.0526 19.824 73.5806 19.284 74.2526 19.284C74.9366 19.284 75.5006 19.824 75.5006 20.496V23.364C75.5006 23.712 75.8006 24 76.1366 24C76.4846 24 76.7606 23.712 76.7606 23.364V20.496C76.7606 19.14 75.6446 18 74.2526 18Z" fill="url(#paint1_linear)"/>
</g>
<defs>
<filter id="filter0_d" x="8.58276" y="4.35999" width="71.475" height="23.788" filterUnits="userSpaceOnUse" color-interpolation-filters="sRGB">
<feFlood flood-opacity="0" result="BackgroundImageFix"/>
<feColorMatrix in="SourceAlpha" type="matrix" values="0 0 0 0 0 0 0 0 0 0 0 0 0 0 0 0 0 0 127 0"/>
<feOffset dx="1" dy="1"/>
<feGaussianBlur stdDeviation="0.5"/>
<feColorMatrix type="matrix" values="0 0 0 0 0 0 0 0 0 0 0 0 0 0 0 0 0 0 0.2 0"/>
<feBlend mode="normal" in2="BackgroundImageFix" result="effect1_dropShadow"/>
<feBlend mode="normal" in="SourceGraphic" in2="effect1_dropShadow" result="shape"/>
</filter>
<linearGradient id="paint0_linear" x1="98" y1="0" x2="98" y2="28" gradientUnits="userSpaceOnUse">
<stop stop-color="#0091E6"/>
<stop offset="1" stop-color="#0079BF"/>
</linearGradient>
<linearGradient id="paint1_linear" x1="39" y1="3" x2="39" y2="25" gradientUnits="userSpaceOnUse">
<stop offset="0.0729167" stop-color="#ADADAD"/>
<stop offset="0.942708" stop-color="white" stop-opacity="0.4"/>
</linearGradient>
</defs>
</svg>
