<svg width="26" height="24" viewBox="0 0 26 24" fill="none" xmlns="http://www.w3.org/2000/svg">
<path d="M8.222 18.4233C7.91658 18.4234 7.62067 18.3461 7.39148 18.127C7.38936 18.125 7.38588 18.1216 7.38382 18.1196C7.36285 18.0992 7.34182 18.0767 7.32237 18.0537C7.31634 18.0469 7.31047 18.04 7.30476 18.0329C6.93881 17.5763 7.00173 16.8827 7.50287 15.8499C7.89952 15.0324 8.55708 14.03 9.45725 12.8703C9.96398 12.2171 10.54 11.5259 11.1692 10.8162C12.0569 9.81564 13.0308 8.79925 14.0638 7.79505C16.2958 5.62563 18.5652 3.74573 20.454 2.5016C22.6768 1.03745 24.0221 0.656823 24.6876 1.30374C25.3529 1.95044 24.9612 3.25794 23.4548 5.41849C22.1746 7.25471 20.2407 9.46047 18.0092 11.6294C16.9743 12.6354 15.9284 13.582 14.9006 14.443C14.1656 15.0592 13.4505 15.6223 12.7753 16.1164C11.5733 16.9973 10.4952 17.6613 9.65786 18.0363C9.39868 18.1524 8.79393 18.4232 8.222 18.4233ZM8.16451 17.364C8.34262 17.3814 9.29783 17.3422 12.1215 15.2728C12.7778 14.7924 13.474 14.2442 14.191 13.643C15.1988 12.7988 16.2249 11.8701 17.2409 10.8825C19.3121 8.86928 21.1368 6.80701 22.3787 5.07563C23.7601 3.14962 23.9547 2.27757 23.9113 2.05812C23.6861 2.01603 22.7888 2.20452 20.8073 3.54731C19.0261 4.75426 16.9042 6.52805 14.8323 8.54194C13.818 9.52781 12.8624 10.525 11.9923 11.5058C11.3785 12.1981 10.8175 12.8712 10.3248 13.5064C8.18885 16.2579 8.14631 17.189 8.16451 17.364Z" fill="#939393" stroke="#939393" stroke-width="0.6"/>
<path d="M12.3244 16.2202C12.1854 16.2202 12.0463 16.1686 11.9402 16.0655L9.45223 13.6472C9.24005 13.4409 9.24005 13.1065 9.45223 12.9002C9.6644 12.694 10.0085 12.694 10.2207 12.9002L12.7087 15.3186C12.9209 15.5248 12.9209 15.8592 12.7087 16.0655C12.6026 16.1686 12.4635 16.2202 12.3244 16.2202Z" fill="#939393"/>
<path d="M14.4873 14.6528C14.3482 14.6528 14.2091 14.6012 14.1031 14.4981L11.1418 11.6198C10.9296 11.4135 10.9296 11.0791 11.1418 10.8728C11.354 10.6666 11.698 10.6666 11.9103 10.8728L14.8715 13.7512C15.0837 13.9574 15.0837 14.2918 14.8715 14.4981C14.7654 14.6012 14.6263 14.6528 14.4873 14.6528Z" fill="#939393"/>
<path d="M4.46422 22.9999C3.25895 22.9999 2.06559 22.5521 1.16243 21.6891C1.01925 21.5523 0.965408 21.3499 1.0223 21.1628C1.07919 20.9757 1.23763 20.8343 1.43432 20.7952C1.64737 20.7528 1.85287 20.6751 2.04516 20.5645C2.58117 20.2552 2.9287 19.7328 2.99809 19.1316C2.99836 19.1292 2.99869 19.1267 2.99901 19.1241C2.99994 19.1121 3.00113 19.101 3.00244 19.091C3.00428 19.0682 3.00765 19.0455 3.0126 19.0231C3.12839 18.1421 3.64115 17.3807 4.42569 16.9279C5.60249 16.2488 7.13392 16.4588 8.06931 17.4267C8.07289 17.4304 8.07642 17.434 8.0799 17.4377C8.09517 17.4532 8.11033 17.4696 8.1263 17.488C8.24997 17.6232 8.36098 17.7707 8.45634 17.9266C9.05446 18.9061 8.99925 20.1282 8.31865 21.0515C8.31349 21.0594 8.30811 21.0673 8.30251 21.075C7.92282 21.5969 7.44076 22.0286 6.86969 22.3581C6.12209 22.7895 5.29033 22.9999 4.46422 22.9999ZM2.6247 21.4582C3.74292 22.0975 5.15944 22.1166 6.31488 21.4498C6.74412 21.2021 7.10763 20.8799 7.39566 20.4917C7.40337 20.4796 7.41158 20.4678 7.42033 20.4563C7.86343 19.8718 7.90331 19.0907 7.52193 18.466C7.46102 18.3664 7.38979 18.272 7.31046 18.1859C7.30622 18.1813 7.30204 18.1766 7.29796 18.1718L7.29367 18.1669C7.28601 18.1594 7.27889 18.1521 7.27205 18.1446C6.68229 17.5392 5.72039 17.4092 4.9804 17.8362C4.47655 18.1269 4.1507 18.6207 4.08632 19.191C4.08534 19.1996 4.08414 19.2082 4.08278 19.2167C4.08235 19.2228 4.08175 19.229 4.0811 19.2352C4.07936 19.2521 4.07692 19.2682 4.07387 19.2838C3.95819 20.1929 3.43212 20.9823 2.6247 21.4582Z" fill="#939393" stroke="#939393" stroke-width="0.4"/>
<path d="M5.30796 20.9937C5.09301 20.9937 4.88953 20.869 4.804 20.6634C4.69158 20.3929 4.82595 20.0851 5.10415 19.9758C5.18739 19.9431 5.2683 19.9043 5.34469 19.8603C5.519 19.7596 5.67174 19.6319 5.79779 19.4811L5.88891 19.3607C6.0667 19.1258 6.40689 19.0755 6.64857 19.2483C6.89026 19.4212 6.94204 19.7518 6.7642 19.9868L6.66585 20.1167C6.66134 20.1226 6.65672 20.1285 6.65194 20.1342C6.44292 20.3874 6.18955 20.6009 5.89897 20.7689C5.77492 20.8402 5.64484 20.9027 5.51139 20.9551C5.44467 20.9813 5.37572 20.9937 5.30796 20.9937Z" fill="#939393" stroke="#939393" stroke-width="0.4"/>
<path d="M5.14386 21.0602C4.93288 21.0602 4.73216 20.9401 4.64398 20.7396C4.52601 20.4714 4.65408 20.161 4.93 20.0463L5.09518 19.9777C5.37115 19.8631 5.69042 19.9875 5.80838 20.2557C5.92634 20.5239 5.79833 20.8343 5.52236 20.9489L5.35718 21.0176C5.28758 21.0465 5.21509 21.0602 5.14386 21.0602Z" fill="#939393" stroke="#939393" stroke-width="0.4"/>
</svg>
