<svg width="26" height="20" viewBox="0 0 26 20" fill="none" xmlns="http://www.w3.org/2000/svg">
<path fill-rule="evenodd" clip-rule="evenodd" d="M0 0.5C0 0.223858 0.223858 0 0.5 0H25.5C25.7761 0 26 0.223857 26 0.5V19.5C26 19.7761 25.7761 20 25.5 20H0.5C0.223858 20 0 19.7761 0 19.5V0.5ZM2 2.5C2 2.22386 2.22386 2 2.5 2H4.95714C5.23329 2 5.45714 2.22386 5.45714 2.5V17.5C5.45714 17.7761 5.23329 18 4.95714 18H2.5C2.22386 18 2 17.7761 2 17.5V2.5ZM24 2.2C24 2.08954 23.9105 2 23.8 2H8.44286C8.16671 2 7.94286 2.22386 7.94286 2.5V17.5C7.94286 17.7761 8.16671 18 8.44286 18H23.8C23.9105 18 24 17.9105 24 17.8V14.309C24 14.1196 23.893 13.9465 23.7236 13.8618L22.2764 13.1382C22.107 13.0535 22 12.8804 22 12.691V10V7.30902C22 7.11963 22.107 6.9465 22.2764 6.8618L23.7236 6.1382C23.893 6.0535 24 5.88037 24 5.69098V2.2Z" fill="#939393"/>
<path d="M9.9268 4.92672C10.4386 4.41491 11.2684 4.41491 11.7802 4.92672L20.5378 13.6843C21.0496 14.1961 21.0496 15.0259 20.5378 15.5377V15.5377C20.026 16.0496 19.1962 16.0496 18.6844 15.5377L9.9268 6.78016C9.41498 6.26835 9.41498 5.43853 9.9268 4.92672V4.92672Z" fill="#4F4F4F"/>
<path d="M9.92672 15.5377C9.41491 15.0259 9.41491 14.1961 9.92672 13.6843L18.6843 4.92672C19.1961 4.4149 20.0259 4.4149 20.5377 4.92671V4.92671C21.0496 5.43853 21.0496 6.26834 20.5377 6.78015L11.7802 15.5377C11.2683 16.0496 10.4385 16.0496 9.92672 15.5377V15.5377Z" fill="#4F4F4F"/>
</svg>
