<svg width="18" height="18" viewBox="0 0 18 18" fill="none" xmlns="http://www.w3.org/2000/svg">
<path d="M15.9363 2.41702C15.6865 2.0864 15.2126 2.0166 14.8783 2.26273C14.544 2.50887 14.4742 2.97542 14.724 3.30605C17.1045 6.46172 17.1045 11.5938 14.724 14.7495C14.4742 15.0801 14.5366 15.554 14.8783 15.7928C15.2971 16.083 15.7893 15.8369 15.9363 15.6385C18.6878 11.9979 18.6878 6.06496 15.9363 2.41702Z" fill="#CF3947"/>
<path d="M14.0958 4.8563C13.846 4.52567 13.3721 4.45955 13.0378 4.70201C12.7035 4.94814 12.6337 5.4147 12.8835 5.74532C14.2281 7.52337 14.2281 10.5321 12.8835 12.3101C12.6337 12.6408 12.6998 13.111 13.0378 13.3535C13.4676 13.6584 13.9489 13.3975 14.0958 13.1992C15.8629 10.8627 15.8629 7.19642 14.0958 4.8563Z" fill="#A76A6F"/>
<path d="M10.3193 15.6976L5.02188 11.5684V6.49142L10.3193 2.36591V15.6976ZM3.50834 11.1864H1.51355V6.86246H3.50834V11.1864ZM10.6609 0.158048L4.04469 5.37096H0.756773C0.337976 5.37096 0 5.70526 0 6.11671V11.9284C0 12.3399 0.337976 12.6742 0.756773 12.6742H4.10714L10.6609 17.843C11.1312 18.2141 11.8328 17.8834 11.8328 17.2883V0.71277C11.8328 0.117638 11.1348 -0.216665 10.6609 0.158048Z" fill="#939393"/>
</svg>
