<svg width="380" height="78" fill="none" xmlns="http://www.w3.org/2000/svg"><path d="M78.625 37.556c2.508 1.98 6.512 4.356 11.264 4.4 3.124 0 5.984-.924 8.14-2.508 2.2-1.584 3.784-4.004 3.784-6.82a7.134 7.134 0 00-1.056-3.74c-1.012-1.628-2.596-2.772-4.4-3.652-1.76-.836-3.828-1.408-6.072-1.848h-.088c-2.376-.44-4.356-1.144-5.5-1.936-.572-.396-.968-.792-1.188-1.144-.22-.352-.308-.704-.308-1.232 0-.924.484-1.892 1.672-2.772 1.188-.88 2.948-1.496 4.928-1.496 2.684 0 4.84 1.32 7.084 2.816a2.222 2.222 0 003.124-.66c.704-1.012.396-2.42-.616-3.124-2.244-1.452-5.368-3.52-9.592-3.52-2.86 0-5.544.836-7.612 2.332-2.024 1.496-3.52 3.784-3.52 6.424 0 1.32.352 2.552 1.012 3.608.968 1.54 2.42 2.64 4.092 3.432 1.672.792 3.608 1.32 5.676 1.716h.088c2.596.484 4.752 1.232 6.028 2.068.66.44 1.056.88 1.32 1.32.264.44.396.836.396 1.408 0 1.1-.572 2.2-1.892 3.168-1.32.968-3.3 1.628-5.5 1.628-3.124.044-6.468-1.804-8.404-3.388-.968-.792-2.42-.66-3.212.308-.748.968-.616 2.42.352 3.212zm66.422-25.828c-1.276-.528-2.684.044-3.212 1.276l-8.58 20.372-5.676-13.508a2.516 2.516 0 00-2.288-1.496c-.968 0-1.892.528-2.288 1.496l-5.676 13.508-8.624-20.372c-.484-1.232-1.936-1.804-3.124-1.276-1.276.484-1.804 1.936-1.32 3.124l10.824 25.652c.088.132.132.308.22.396v.044c.088.088.132.176.22.264.044.088.044.088.088.132.132.044.176.132.308.22h.044c.088.088.264.22.396.264.044 0 .044 0 .088.044.088 0 .176.044.308.088h.132c.132.044.308.044.44.044s.264 0 .396-.044h.132a.682.682 0 01.352-.088c0-.044.044-.044.044-.044h.044c.088-.044.22-.176.352-.264h.088c.088-.088.176-.176.264-.22 0-.044.044-.044.044-.132l.264-.264s0-.044.044-.044c.044-.088.132-.264.176-.396l5.764-13.64 5.764 13.64c.044.132.088.308.176.396 0 0 0 .044.088.044.044.088.132.176.176.264.044.088.044.088.088.132.088.044.176.132.308.22h.044c.088.088.22.22.396.264.044 0 .044 0 .088.044.088 0 .176.044.308.088h.132c.132.044.264.044.396.044.176 0 .308 0 .44-.044h.088c.132-.044.264-.088.352-.088 0-.044.044-.044.044-.044h.044c.176-.044.264-.176.396-.264h.044c.088-.088.22-.176.308-.22 0-.044.044-.044.044-.132.088-.088.176-.176.22-.264l.044-.044c.088-.088.176-.264.22-.396l10.78-25.652c.528-1.188-.044-2.64-1.232-3.124zm5.49 27.852a2.386 2.386 0 002.42 2.42c1.32 0 2.464-1.056 2.464-2.42V13.62c0-1.364-1.144-2.42-2.464-2.42a2.386 2.386 0 00-2.42 2.42v25.96zm32.59-25.96c0-1.364-1.1-2.42-2.42-2.42h-18.788a2.386 2.386 0 00-2.42 2.42c0 1.32 1.056 2.464 2.42 2.464h6.952V39.58c0 1.364 1.1 2.42 2.42 2.42a2.386 2.386 0 002.42-2.42V16.084h6.996c1.32 0 2.42-1.144 2.42-2.464zM201.024 42c3.872 0 7.392-1.276 10.164-3.432 1.056-.836 1.232-2.42.44-3.52-.88-1.056-2.508-1.232-3.52-.484-1.98 1.584-4.356 2.42-7.084 2.42-3.036 0-5.852-1.232-7.92-3.168a10.7 10.7 0 01-3.212-7.656c0-2.992 1.232-5.632 3.212-7.656 2.068-1.936 4.884-3.168 7.92-3.168 2.728 0 5.148.836 7.084 2.42 1.012.792 2.64.616 3.52-.484.792-1.1.616-2.64-.44-3.52-2.772-2.156-6.292-3.432-10.164-3.432-8.8.044-16.104 7.128-16.148 15.84.044 8.756 7.348 15.84 16.148 15.84zm19.821 0c1.364 0 2.464-1.056 2.464-2.42V29.02h11.396v10.56a2.386 2.386 0 002.42 2.42c1.364 0 2.464-1.056 2.464-2.42V13.62c0-1.364-1.1-2.42-2.464-2.42a2.386 2.386 0 00-2.42 2.42v10.56h-11.396V13.62c0-1.364-1.1-2.42-2.464-2.42a2.386 2.386 0 00-2.42 2.42v25.96a2.386 2.386 0 002.42 2.42zm29.436 0l.044-.044s0 .044.088.044h14.256c1.276 0 2.42-1.1 2.42-2.42 0-1.364-1.144-2.464-2.42-2.464h-11.924V29.02h10.252c1.32 0 2.42-1.1 2.42-2.464 0-1.276-1.1-2.42-2.42-2.42h-10.252v-8.052h11.924c1.276 0 2.42-1.1 2.42-2.464 0-1.364-1.144-2.42-2.42-2.42h-14.388a2.386 2.386 0 00-2.42 2.42v25.96c0 1.32 1.056 2.42 2.42 2.42zm21.286-4.444c2.508 1.98 6.512 4.356 11.264 4.4 3.124 0 5.984-.924 8.14-2.508 2.2-1.584 3.784-4.004 3.784-6.82a7.134 7.134 0 00-1.056-3.74c-1.012-1.628-2.596-2.772-4.4-3.652-1.76-.836-3.828-1.408-6.072-1.848h-.088c-2.376-.44-4.356-1.144-5.5-1.936-.572-.396-.968-.792-1.188-1.144-.22-.352-.308-.704-.308-1.232 0-.924.484-1.892 1.672-2.772 1.188-.88 2.948-1.496 4.928-1.496 2.684 0 4.84 1.32 7.084 2.816a2.222 2.222 0 003.124-.66c.704-1.012.396-2.42-.616-3.124-2.244-1.452-5.368-3.52-9.592-3.52-2.86 0-5.544.836-7.612 2.332-2.024 1.496-3.52 3.784-3.52 6.424 0 1.32.352 2.552 1.012 3.608.968 1.54 2.42 2.64 4.092 3.432 1.672.792 3.608 1.32 5.676 1.716h.088c2.596.484 4.752 1.232 6.028 2.068.66.44 1.056.88 1.32 1.32.264.44.396.836.396 1.408 0 1.1-.572 2.2-1.892 3.168-1.32.968-3.3 1.628-5.5 1.628-3.124.044-6.468-1.804-8.404-3.388-.968-.792-2.42-.66-3.212.308-.748.968-.616 2.42.352 3.212zm27.235 1.496a3.249 3.249 0 003.256 3.256c1.804 0 3.3-1.452 3.3-3.256 0-1.804-1.496-3.3-3.3-3.3-1.804 0-3.256 1.496-3.256 3.3z" fill="#454545"/><path d="M334.593 27.694c-.196 0-.366.155-.513.464a26.037 26.037 0 01-1.977 3.272c-.684.976-1.376 1.806-2.076 2.49-.7.683-1.391 1.212-2.075 1.587-.683.358-1.326.537-1.929.537a3.703 3.703 0 01-1.635-.366c-.489-.26-1.026-.74-1.612-1.44-.569-.7-1.228-1.669-1.977-2.906a147.14 147.14 0 01-2.71-4.834c-.179-.326-.366-.562-.562-.708-.179-.163-.341-.244-.488-.244-.212 0-.407.228-.586.684-.179.439-.334 1.066-.464 1.88-.13.797-.236 1.765-.317 2.905a65.064 65.064 0 00-.098 3.735c0 .814.041 1.628.122 2.441.098.814.147 1.652.147 2.515 0 .293-.082.57-.244.83a2.24 2.24 0 01-.66.635c-.26.195-.577.35-.952.464a3.76 3.76 0 01-1.147.17c-.814 0-1.4-.488-1.758-1.464-.358-.977-.537-2.54-.537-4.688 0-2.718.146-5.184.439-7.397.31-2.23.741-4.134 1.294-5.713.57-1.595 1.237-2.824 2.002-3.687.782-.879 1.652-1.318 2.613-1.318.846 0 1.652.488 2.417 1.465.781.96 1.619 2.523 2.514 4.687.358.88.741 1.701 1.148 2.466.423.765.838 1.433 1.245 2.002.423.554.83.993 1.221 1.319.39.309.74.463 1.049.463.31 0 .603-.065.879-.195.293-.146.619-.448.977-.903.374-.472.805-1.156 1.294-2.051a72.532 72.532 0 001.855-3.589c.391-.781.741-1.432 1.05-1.953.309-.52.618-.936.928-1.245.309-.326.634-.553.976-.684.342-.146.725-.22 1.148-.22.504 0 1.001.27 1.489.806.488.537.96 1.254 1.416 2.149.472.895.928 1.936 1.367 3.125a76.39 76.39 0 011.27 3.735c.423 1.302.83 2.629 1.22 3.98.407 1.334.798 2.604 1.172 3.808.098.358.163.61.196.757.048.13.073.293.073.488 0 .277-.09.554-.269.83-.162.26-.382.497-.659.708a3.56 3.56 0 01-.952.513c-.342.13-.684.195-1.025.195-.456 0-.814-.049-1.075-.146-.244-.114-.439-.31-.586-.586-.081-.147-.219-.537-.415-1.172-.195-.635-.431-1.383-.708-2.246a84.668 84.668 0 00-.879-2.783 38.402 38.402 0 00-.952-2.686c-.309-.83-.61-1.514-.903-2.05-.293-.554-.553-.83-.781-.83zm19.506 12.818c-.358.862-.904 1.294-1.636 1.294-.293 0-.627-.082-1.001-.244l-.659-.318c-.798-.39-1.197-.936-1.197-1.636 0-.358.066-.691.196-1 .504-1.189 1.05-2.418 1.636-3.687a162.207 162.207 0 011.855-3.93c.049-.131.098-.253.146-.367a.81.81 0 00.074-.317c0-.391-.204-.74-.611-1.05a902.25 902.25 0 01-4.077-3.076 154.893 154.893 0 00-4.077-3.076c-.602-.424-.903-.912-.903-1.465 0-.228.04-.448.122-.66.081-.227.228-.455.439-.683l.684-.806c.472-.553.993-.83 1.562-.83.196 0 .391.049.586.147.212.081.432.195.659.341 1.205.88 2.393 1.758 3.565 2.637 1.188.863 2.368 1.75 3.54 2.661.146.098.285.18.415.244.13.066.26.098.391.098.358 0 .675-.228.952-.684a148.038 148.038 0 012.417-4.492c.83-1.48 1.684-2.938 2.563-4.37.44-.667.961-1 1.563-1 .342 0 .74.137 1.196.414l.391.244c.667.44 1.001.953 1.001 1.538 0 .212-.033.424-.098.635a3.588 3.588 0 01-.293.635 95.721 95.721 0 00-2.734 4.639 146.156 146.156 0 00-2.515 4.76c-.049.13-.098.244-.147.342a.936.936 0 00-.048.293c0 .407.195.757.586 1.05a522.053 522.053 0 015.615 4.419 462.1 462.1 0 005.591 4.346c.569.44.854.92.854 1.44 0 .488-.252.952-.757 1.392l-.854.757c-.472.439-.952.659-1.441.659-.439 0-.887-.188-1.342-.562L358.64 33.7a3.96 3.96 0 00-.415-.244.727.727 0 00-.367-.098c-.39 0-.708.245-.952.733l-2.807 6.42z" fill="#FF3D7F"/><rect x="74.5" y="54" width="305" height="3" rx="1.5" fill="#FF3D7F"/><path d="M19.162 50.235v9.664a6 6 0 006 6h6.567a6 6 0 006-6v-9.664h9.662a6 6 0 006-6v-6.57a6 6 0 00-6-6H37.73V22a6 6 0 00-6-6h-6.567a6 6 0 00-6 6v9.665H9.5a6 6 0 00-6 6v6.57a6 6 0 006 6h9.662z" fill="#4C4C4C" stroke="#FF3D7F" stroke-width="6"/><mask id="a" maskUnits="userSpaceOnUse" x="6" y="19" width="45" height="44"><path d="M22.162 47.235v12.664a3 3 0 003 3h6.567a3 3 0 003-3V47.235h12.662a3 3 0 003-3v-6.57a3 3 0 00-3-3H34.73V22a3 3 0 00-3-3h-6.567a3 3 0 00-3 3v12.665H9.5a3 3 0 00-3 3v6.57a3 3 0 003 3h12.662z" fill="#FFDF6B"/></mask><g mask="url(#a)"><path d="M-7 6v67h66V6H-7zm59.198 4.392c.325-1.45.52-3.295 1.753-3.295 1.234 0 3.312 2.043 3.312 2.768 0 .725 1.233 2.24.291 3.197-1.163 1.18-1.233-1.318-3.213-1.022-1.98.296-2.467-.198-2.143-1.648zm-23.755 37.09c.956.186 3.996 1.513 3.744 2.042-.778 1.631-4.458 1.71-6.259-.99-1.8-2.704-1.724-6.582.6-7.502 2.325-.92 4.762 1.24 5.608 2.511.847 1.27 1.965 3.091 1.124 3.67-.843.577-2.921-.463-3.823-1.816-.902-1.355-2.61-1.588-2.795-.617-.184.97.845 2.514 1.801 2.701zm-.786 8.548c-2.142.527-2.24-2.867-.455-3.493 1.786-.626 2.597 2.966.455 3.493zm-5.955-16.371c-.72 0-2.137-.137-2.137-1.323s.811-2.999 2.694-1.746c1.882 1.252 2.273 4.942.455 4.942-1.59 0-.293-1.873-1.012-1.873zM19.6 21.861c-1.224-1.52 1.385-2.888 2.551-1.691 1.166 1.196-1.325 3.212-2.55 1.691zm3.602 10.768c-.459-2.236 1.837-5.126 3.122-3.82 1.124 1.14-1.098 1.534-.59 2.05.51.516 1.416 1.63.59 2.47-.826.839-2.663 1.538-3.122-.7zm10.483-9.32c-2.127-.653-3.102-1.505-4.699.115-1.595 1.62-4.314 1.327-4.314 0s.734-3.657 3.121-2.817c2.387.838 3.765.185 4.958-1.026 1.193-1.212 2.617-.42 3.03 0 2.112 2.144.032 4.38-2.096 3.728zm-1.738 3.536c-.103-2.235 3.198-1.688 3.465.21.267 1.898-3.36 2.026-3.465-.21zM26.87 38.56c-2.143.526-2.24-2.868-.455-3.494 1.786-.626 2.597 2.966.455 3.494zm4.703.715c-1.3-1.319-2.338-6.064-.26-8.172 2.077-2.11 2.077 0 2.077 2.108 0 2.11 1.039 2.636 2.987 2.636 1.947 0 1.947-2.306 3.44-2.306 1.884 0 1.818 3.295.26 4.877-1.557 1.581-7.206 2.175-8.504.857zm9.264 6.538c-1.125 1.143-1.511-1.114-2.02-.598-.509.516-1.607 1.438-2.433.598-.826-.838-1.514-2.702.689-3.168 2.203-.466 5.05 1.864 3.764 3.168zm-2.307 3.33c1.47 1.491 2.571 1.12 3.948-.279 1.377-1.398-.23-3.03.827-4.101 1.33-1.352 3.58 1.026 3.58 3.262 0 2.237-3.58 6.71-5.417 6.71-1.836 0-5.876-2.609-5.876-5.591 0-2.984 1.47-1.492 2.938 0zm5.523-8.68c-1.658-.325-1.808-1.965-1.699-2.548.567-2.976 3.557-2.48 4.217-.326.66 2.154.51 3.453 2.725 3.886 2.217.434 3.5 2.885 2.42 3.629-1.084.743-3.397 1.43-4.05-1.047-.652-2.477-1.956-3.269-3.613-3.595zm8.118 7.366c2.204-.466 5.05 1.864 3.764 3.168-1.125 1.142-1.511-1.114-2.02-.598-.508.516-1.606 1.438-2.433.598-.826-.839-1.514-2.703.689-3.168zm2.727-3.796c-1.87.27-1.996-3.412.206-3.518 2.202-.105 1.664 3.246-.206 3.518zm.936-6.476c-2.272 2.307-6.038 2.966-7.368.823-1.331-2.142.297-4.98 1.365-6.065C50.9 31.23 52.45 29.77 53.169 30.5c.718.73.107 2.998-1.032 4.154-1.139 1.156-1.04 2.903-.067 2.903.973 0 2.272-1.318 2.272-2.307 0-.989.706-4.27 1.266-4.118 1.725.465 2.499 4.118.227 6.425zm-.206-11.222c0 1.211-5 .329-5.52-.198-.518-.527-.842-2.965-.063-3.757.78-.79 5.583 2.571 5.583 3.955zm-1.968-7.837c1.299-1.318 3.7-.593 2.792 1.384-.776 1.69-4.09-.066-2.792-1.384zm-12.864-4.446c.894-.907 2.128.015 2.972 1.728.843 1.714 3.668 2.736 5.13 1.253 1.46-1.484-.618-3.065-1.398-3.856-.778-.79-2.656-1.247-3.37-.522-.715.725-1.856-.565-1.271-2.147.584-1.581 2.759-2.932 4.415-2.175 1.656.758 1.72 2.406 2.24 3.526.519 1.121 1.697.188 2.573 1.079.877.89.68 4.793-.912 6.408-1.894 1.922-7.407 1.312-8.608.093-1.202-1.22-2.665-4.48-1.77-5.387zm4.39 9.255c1.298 1.319.52 3.427 1.557 4.481 1.04 1.056 2.014-.856 3.377.529 1.355 1.375-3.896 4.48-4.934 3.426-1.04-1.054-.715-5.47-2.922-4.415-2.207 1.053.13 2.636-1.883 4.678-2.012 2.044-2.921-.394-2.921-2.965 0-2.57.065-4.416 2.338-5.8 2.271-1.383 4.09-1.251 5.388.066zM33.027 8.117c3.213 0 6.334 2.237 5.783 4.707-.55 2.47-3.68 3.309-5.19 3.309-1.512 0-3.623-.08-3.623-1.112s2.013-2.197 3.623-2.197c1.61 0 2.757-1.306 2.069-2.005-.688-.698-2.525-.698-3.213 0-.689.699-3.474 2.513-3.765 2.005-.895-1.569 1.102-4.707 4.316-4.707zm-6.52 7.456c1.727-.638 2.847 2.983 1.01 2.983-1.835 0-3.029-2.237-1.01-2.983zm-8.446-8.481c2.204 0 6.61 3.635 6.61 5.498 0 1.864-2.57 5.965-5.508 5.965s-1.47-1.491 0-2.982c1.47-1.492 1.102-2.61-.275-4.008-1.378-1.399-2.984.233-4.04-.838-1.332-1.352 1.01-3.635 3.213-3.635zm-.505 15.564c1.194.607 3.626 1.478 3.03 3.495-.55 1.864-2.525-.28-3.679.047-1.155.326-1.19 1.961 0 3.17 1.19 1.208 2.165-.373 3.404.185 1.239.56.206 3.006-1.102 4.334-1.309 1.33-2.697 1.013-4.75-1.072-2.053-2.084-1.677-5.545-.85-8.283.825-2.738 2.754-2.481 3.947-1.876zM.373 33.748c0-1.259 2.86-3.877 5.11-3.877 2.677 0 6.151 4.39 6.151 6.113 0 1.724-1.235 5.08-2.5 5.08-1.264 0-1.494-1.538-.897-3.356.597-1.817-.689-4.566-2.754-4.566-2.066 0-1.7 2.609-1.7 3.728 0 1.118 1.011 2.788 2.02 2.788 1.01 0 .919 1.732-.596 2.431-1.515.7-3.994.094-4.637-1.63-.643-1.725.46-2.937.873-4.102.413-1.164-1.07-1.35-1.07-2.609zm9.792-11.231c1.882 1.165-.413 3.634-2.111 2.796-1.7-.84.229-3.961 2.11-2.796zm-.96 27.948c.628 1.752-2.937 2.889-2.937 1.025 0-1.864 2.203-3.076 2.938-1.025zm.92 3.455c1.028 1.545-.128 3.802-1.868 2.52-1.487-1.093.84-4.063 1.868-2.52zm-.608-10.305c1.958-1.066 3.241-1.163 3.241-3.454 0-2.291 2.127-4.035 3.051-3.098.924.939 2.029 3.114-.244 4.234-2.272 1.12-2.79 2.57-2.79 4.284 0 1.713-1.56 2.174-2.144 2.174-2.986 0-3.075-3.075-1.114-4.14zm8.814-.374c1.125 1.143-1.099 1.535-.59 2.05.509.518 1.416 1.632.59 2.471-.826.839-2.663 1.538-3.122-.7-.46-2.236 1.836-5.126 3.122-3.82zM11.766 9.35c1.166 1.196-1.325 3.212-2.55 1.69-1.225-1.52 1.384-2.887 2.55-1.69zm-9.773.539c0-1.946 5.877-.373 5.877 1.117 0 1.493-3.306 4.381-1.01 5.22 2.295.839 1.744-1.957 4.59-1.957s1.79 2.377 0 4.195c-1.79 1.816-3.121 3.075-5.693 2.423-2.57-.653-3.764-2.05-3.764-3.915 0-1.864 2.02-2.796 2.02-4.287 0-1.492-2.02-.84-2.02-2.796zm.276 15.89c1.607 1.212 1.607 1.913.367 2.705-1.24.791-2.662 1.956-3.534 1.07-.872-.884-.919-3.82-.413-4.333.504-.513.687-2.47 2.019-2.47 1.646 0-.046 1.817 1.561 3.028zm-6.436 7.79c-1.225-1.52 1.385-2.887 2.55-1.69 1.167 1.196-1.325 3.213-2.55 1.69zm.376-23.214c.844-.857 3.765 3.355 3.765 4.1 0 .746-1.47 2.703-2.57 2.703-1.103 0-2.159-5.825-1.195-6.803zm1.35 10.817c.267 1.898-3.362 2.027-3.466-.209-.104-2.235 3.197-1.689 3.465.209zm-.602 14.615c1.882 1.252 2.272 4.943.455 4.943-1.59 0-.292-1.874-1.012-1.874s-2.137-.136-2.137-1.323c0-1.186.811-2.999 2.694-1.746zm-2.018 28.95c-.103-2.235 3.197-1.688 3.465.21.267 1.898-3.361 2.026-3.465-.21zm3.146-3.923c-1.59 0-.292-1.872-1.011-1.872-.72 0-2.138-.137-2.138-1.324 0-1.186.812-2.998 2.695-1.746 1.882 1.252 2.273 4.942.454 4.942zm.812-9.018c-.91-1.714 1.98-1.615 2.569-2.675.588-1.058-.524-2.24-2.208-2.24-1.682 0-1.27 1.818-2.536 2.312-1.266.494-2.24-1.977-2.24-3.856 0-1.878 1.2-2.652 4.105-2.652 2.905 0 5.05 2.718 6.372 5.247 1.324 2.53-.219 3.732-1.484 4.16-1.267.43-3.594 1.56-4.578-.296zm3.344 6.047c-2.14.526-2.239-2.868-.454-3.494 1.786-.626 2.597 2.966.454 3.494zm2.091 8.273c-.37 1.941 1.862 2.38 1.58 3.867-.358 1.877-3.533 1.188-4.767-.666-1.234-1.852-.737-7.595.783-8.64 1.521-1.044 6.307-1.18 7.954 1.29 1.646 2.47-.394 2.071-2.434 1.673-2.04-.4-2.747.535-3.116 2.476zm4.701 5.103c-1.172-.23.63-5.046 1.237-5.464.609-.417 3.029-.279 3.646.648.617.926-3.544 5.078-4.883 4.816zm5.032-8.734c-1.587 1.09-3.596-4.732-2.379-5.568 1.216-.835 5.426.325 4.825-2.075-.602-2.4-2.575-.37-4.17-2.763-1.594-2.394.937-2.837 3.423-2.35 2.486.487 4.258.902 5.166 3.429.908 2.528.437 4.314-1.085 5.357-1.52 1.046-3.413-.13-4.63.705s.447 2.168-1.15 3.265zm11.872 3.775c-.203 1.489-1.666 4.237-2.759 4.082-1.092-.153-1.109-1.51-.378-3.007.73-1.497-.056-4.028-1.84-4.279-1.785-.252-1.775 2.047-1.906 3.013-.133.966.541 2.532 1.414 2.654.872.123.588 1.607-.803 2.027-1.39.42-3.46-.407-3.811-1.974-.352-1.567.743-2.479 1.238-3.435.494-.956-.764-1.297-.616-2.384.15-1.087 2.928-3 4.87-2.726 2.314.327 4.795 4.54 4.591 6.03zm-1.863-6.639c-1.223-1.52 1.385-2.888 2.55-1.691 1.166 1.196-1.324 3.212-2.55 1.691zM30.1 71.758c-1.59 0-.292-1.874-1.011-1.874-.72 0-2.138-.136-2.138-1.323 0-1.186.811-2.999 2.694-1.747 1.884 1.253 2.273 4.944.455 4.944zm1.014-7.318c-2.178-1.533-2.808-3.269-2.16-5.013.65-1.743 2.864-1.89 3.383-3.285.52-1.395-1.597-1.51-.915-3.34.677-1.822 5.626 1.759 5.107 3.153-.52 1.395-4.617 2.913-2.762 4.52 1.854 1.608 2.313-1.205 4.976-.184 2.662 1.02.847 2.866-1.46 3.924-2.308 1.058-3.99 1.757-6.17.225zm14.33 5.228c-.774 2.055-3.568 2.385-4.868 2.195-1.299-.189-3.106-.523-2.98-1.41.125-.888 1.999-1.637 3.383-1.436 1.385.202 2.531-.775 2.023-1.463-.506-.688-2.085-.918-2.763-.404-.677.515-3.293 1.724-3.481 1.25-.58-1.46 1.52-3.909 4.284-3.506 2.764.405 5.177 2.72 4.402 4.774zm-1.627-10.846c1.69-1.465 2.925-1.836 2.445-4.075-.479-2.239 1.236-4.402 2.334-3.685 1.1.718 2.633 2.606.646 4.19-1.985 1.584-2.19 3.113-1.83 4.788.358 1.675-1.069 2.461-1.64 2.587-2.917.644-3.647-2.342-1.955-3.805zm13.319 6.697c-.551 2.895-3.586 4.517-6.284 5.357-2.697.838-3.568-.927-3.741-2.27-.175-1.342-.827-3.877 1.154-4.506 1.83-.58 1.187 2.28 2.099 3.068.913.788 2.267-.099 2.586-1.776.319-1.677-1.516-1.61-1.755-2.966-.238-1.355 2.338-1.858 4.154-1.502 1.817.356 2.337 1.7 1.787 4.595zm.751-9.628c-.233 1.23-2.603 2.913-3.304 2.776-.702-.137-2.402.805-3.148-.314-.921-1.385 1.51-.98 1.597-3.01.089-2.03.66-2.422 2.001-1.824 1.34.6 3.089 1.143 2.854 2.372z" fill="#944660"/></g><path d="M80.58 67.26c0-.372-.3-.66-.66-.66h-5.125a.65.65 0 00-.66.66c0 .36.288.672.66.672h1.896v6.408c0 .372.3.66.66.66a.65.65 0 00.66-.66v-6.408h1.908c.36 0 .66-.312.66-.672zm2.95 4.368a1.312 1.312 0 011.284-1.296c.72.012 1.296.588 1.296 1.296v2.712c0 .372.288.66.66.66a.65.65 0 00.66-.66v-2.712A2.625 2.625 0 0084.814 69c-.468 0-.9.144-1.284.348V67.26a.66.66 0 00-.672-.66c-.36 0-.66.288-.66.66v7.08a.68.68 0 00.66.66.66.66 0 00.672-.66v-2.712zM92.065 75c.852 0 1.56-.252 2.148-.792.276-.252.156-.612 0-.78-.156-.192-.648-.228-.9.036-.3.228-.816.336-1.248.3-.42-.036-.9-.252-1.152-.54-.216-.204-.348-.516-.408-.792h3.816c.336 0 .588-.192.624-.48.012-.024.012-.084.012-.108v-.06C94.861 70.164 93.625 69 92.065 69c-1.644 0-2.916 1.368-2.928 3 .012 1.632 1.284 2.988 2.928 3zm0-4.86c1.044.084 1.656.792 1.776 1.272h-3.396c.096-.492.6-1.224 1.62-1.272zm11.019 4.896c.792 0 1.512-.348 2.004-.912.54-.528.84-1.272.84-2.112 0-.816-.3-1.524-.84-2.1a2.653 2.653 0 00-2.004-.912c-.828 0-1.524.348-2.064.912-.516.576-.828 1.284-.828 2.1 0 .84.312 1.584.828 2.112.54.564 1.236.912 2.064.912zm-1.152-4.272c.3-.264.696-.456 1.152-.456.42 0 .804.192 1.104.456.3.324.468.756.468 1.248 0 .516-.168.936-.468 1.272-.3.288-.684.444-1.104.444-.456 0-.852-.156-1.152-.444-.276-.336-.432-.756-.432-1.272 0-.492.156-.924.432-1.248zM110.464 69c-.468 0-.912.144-1.272.372a.649.649 0 00-.588-.372.632.632 0 00-.636.636v4.728c0 .348.276.636.636.636a.656.656 0 00.636-.516c.024-.048.024-.084.024-.12v-2.868c0-.672.528-1.212 1.2-1.212.684 0 1.248.54 1.248 1.212v2.868c0 .348.3.636.636.636a.63.63 0 00.624-.636v-2.868A2.512 2.512 0 00110.464 69zm7.371 6c.852 0 1.56-.252 2.148-.792.276-.252.156-.612 0-.78-.156-.192-.648-.228-.9.036-.3.228-.816.336-1.248.3-.42-.036-.9-.252-1.152-.54-.216-.204-.348-.516-.408-.792h3.816c.336 0 .588-.192.624-.48.012-.024.012-.084.012-.108v-.06c-.096-1.62-1.332-2.784-2.892-2.784-1.644 0-2.916 1.368-2.928 3 .012 1.632 1.284 2.988 2.928 3zm0-4.86c1.044.084 1.656.792 1.776 1.272h-3.396c.096-.492.6-1.224 1.62-1.272zm5.188 1.896h2.256a.717.717 0 00.708-.708.72.72 0 00-.708-.72h-2.256a.72.72 0 00-.708.72c0 .384.324.708.708.708zm4.311 2.136c.48.384 1.2.816 2.136.828a2.73 2.73 0 001.56-.48c.432-.312.756-.804.756-1.392 0-.276-.084-.552-.228-.792-.204-.336-.528-.564-.852-.708a4.32 4.32 0 00-1.116-.348h-.012l-.012-.012c-.408-.072-.72-.18-.876-.288a.323.323 0 01-.132-.12c-.024-.036-.024-.048-.024-.096 0-.06.036-.168.192-.276.156-.12.42-.216.72-.216.384 0 .72.192 1.104.444.3.204.696.12.888-.168a.663.663 0 00-.192-.888c-.384-.264-.972-.66-1.8-.66-.552 0-1.056.156-1.476.444-.396.3-.708.768-.708 1.32 0 .276.072.54.204.756.216.324.504.54.828.696.312.144.672.24 1.044.312h.012c.432.084.792.216.96.336.096.06.144.108.156.144a.18.18 0 01.036.12c0 .096-.048.216-.216.36-.192.12-.492.228-.816.228-.468.012-1.008-.264-1.32-.528a.624.624 0 00-.9.096.64.64 0 00.084.888zM135.648 69h-.3v-1.74a.65.65 0 00-.66-.66.66.66 0 00-.672.66V69h-.348a.65.65 0 00-.66.66c0 .36.288.66.66.66h.348v3.348c0 .732.6 1.332 1.332 1.332a.65.65 0 00.66-.66.66.66 0 00-.66-.672V70.32h.3c.36 0 .672-.3.672-.66a.668.668 0 00-.672-.66zm5.217 6.036c.792 0 1.512-.348 2.004-.912.54-.528.84-1.272.84-2.112 0-.816-.3-1.524-.84-2.1a2.653 2.653 0 00-2.004-.912c-.828 0-1.524.348-2.064.912-.516.576-.828 1.284-.828 2.1 0 .84.312 1.584.828 2.112.54.564 1.236.912 2.064.912zm-1.152-4.272c.3-.264.696-.456 1.152-.456.42 0 .804.192 1.104.456.3.324.468.756.468 1.248 0 .516-.168.936-.468 1.272-.3.288-.684.444-1.104.444-.456 0-.852-.156-1.152-.444-.276-.336-.432-.756-.432-1.272 0-.492.156-.924.432-1.248zm6.672 6.492c.384 0 .684-.312.684-.648v-2.112c.432.312 1.008.492 1.608.492 1.596 0 2.904-1.332 2.904-2.976S150.273 69 148.677 69c-.612 0-1.188.204-1.632.492-.048-.264-.324-.492-.66-.492a.64.64 0 00-.636.636V76.608c0 .336.288.648.636.648zm1.152-6.456c.3-.324.696-.492 1.14-.492.408 0 .816.168 1.128.492.276.312.468.744.468 1.212 0 .468-.192.924-.468 1.2-.312.336-.72.504-1.128.504-.444 0-.84-.168-1.14-.504-.312-.276-.468-.732-.468-1.2 0-.468.156-.9.468-1.212zm15.095 1.224v-2.388a.632.632 0 00-.636-.636.646.646 0 00-.636.504 2.728 2.728 0 00-1.608-.504 2.84 2.84 0 00-2.04.888 3.152 3.152 0 00-.84 2.136c0 .84.324 1.584.84 2.112a2.77 2.77 0 003.612.432 1.608 1.608 0 01-1.572 1.284c-.252 0-.48-.06-.684-.168-.336-.144-.708-.024-.864.3a.636.636 0 00.288.864c.372.192.816.3 1.26.3a2.888 2.888 0 002.88-2.88v-2.244zm-1.74 1.236a1.516 1.516 0 01-1.14.492c-.42 0-.816-.168-1.104-.492-.288-.276-.48-.732-.48-1.236 0-.48.192-.936.48-1.224a1.441 1.441 0 011.104-.516c.456 0 .828.18 1.14.516.264.288.456.744.456 1.224 0 .504-.192.96-.456 1.236zm9.206-.756v-2.868c0-.336-.312-.636-.648-.636a.63.63 0 00-.624.636v2.868a1.245 1.245 0 01-1.26 1.224c-.684 0-1.224-.54-1.224-1.224v-2.868a.64.64 0 00-.636-.636c-.348 0-.636.3-.636.636v2.868A2.51 2.51 0 00167.566 75c1.38 0 2.532-1.128 2.532-2.496zm3.112-3.492a.64.64 0 00-.648.66v4.68c0 .36.288.648.648.648a.638.638 0 00.648-.648v-4.68c0-.384-.276-.66-.648-.66zm.648-1.764a.638.638 0 00-.648-.648.645.645 0 00-.648.648v.252c0 .36.288.66.648.66.372 0 .648-.3.648-.66v-.252zm7.503 4.764V67.248a.653.653 0 00-1.308 0v2.256a2.84 2.84 0 00-1.608-.504c-1.62 0-2.916 1.368-2.916 3.012 0 1.62 1.296 2.988 2.916 2.988.6 0 1.176-.204 1.632-.516.06.288.312.516.636.516.36 0 .648-.3.648-.648v-2.34zm-1.788-1.212c.3.3.48.732.48 1.212 0 .456-.18.888-.48 1.188-.3.312-.684.492-1.128.492-.432 0-.828-.18-1.128-.492-.3-.3-.48-.732-.48-1.188 0-.48.18-.912.48-1.212.3-.312.696-.492 1.128-.492.444 0 .828.18 1.128.492zm6.606 4.2c.852 0 1.56-.252 2.148-.792.276-.252.156-.612 0-.78-.156-.192-.648-.228-.9.036-.3.228-.816.336-1.248.3-.42-.036-.9-.252-1.152-.54-.216-.204-.348-.516-.408-.792h3.816c.336 0 .588-.192.624-.48.012-.024.012-.084.012-.108v-.06c-.096-1.62-1.332-2.784-2.892-2.784-1.644 0-2.916 1.368-2.928 3 .012 1.632 1.284 2.988 2.928 3zm0-4.86c1.044.084 1.656.792 1.776 1.272h-3.396c.096-.492.6-1.224 1.62-1.272zm10.478-2.148c.012-.012.024-.024.072-.036.048-.024.156-.036.312-.036a.666.666 0 000-1.332c-.252 0-.48.024-.72.096a1.43 1.43 0 00-.864.744c-.18.348-.228.732-.228 1.176v.168h-.312a.66.66 0 00-.672.66c0 .36.3.66.672.66h.312v4.236c0 .36.288.66.66.66.372 0 .66-.3.66-.66v-4.236h.36c.36 0 .66-.3.66-.66 0-.372-.3-.66-.66-.66h-.36v-.168c0-.444.096-.612.108-.612zm4.747 7.044c.792 0 1.512-.348 2.004-.912.54-.528.84-1.272.84-2.112 0-.816-.3-1.524-.84-2.1a2.653 2.653 0 00-2.004-.912c-.828 0-1.524.348-2.064.912-.516.576-.828 1.284-.828 2.1 0 .84.312 1.584.828 2.112.54.564 1.236.912 2.064.912zm-1.152-4.272c.3-.264.696-.456 1.152-.456.42 0 .804.192 1.104.456.3.324.468.756.468 1.248 0 .516-.168.936-.468 1.272-.3.288-.684.444-1.104.444-.456 0-.852-.156-1.152-.444-.276-.336-.432-.756-.432-1.272 0-.492.156-.924.432-1.248zm8.862-1.752c-.6-.012-1.116.204-1.512.468-.084.06-.18.156-.252.24v-.084c0-.348-.3-.624-.66-.624a.63.63 0 00-.636.624v4.728a.64.64 0 00.636.636c.36 0 .66-.288.66-.636v-2.28c.06-.168.204-.624.492-1.008.144-.228.324-.432.552-.576.204-.156.444-.228.72-.228.36 0 .636-.3.636-.636a.622.622 0 00-.636-.624zm12.495-2.412h-.012a.655.655 0 00-.54.276l-2.388 3.312-2.388-3.312a.65.65 0 00-.528-.276h-.036c-.36 0-.66.3-.66.66v7.08a.666.666 0 001.332 0v-5.052l1.716 2.4c.132.18.336.276.552.276h.024a.655.655 0 00.54-.276l1.728-2.4v5.052c0 .36.288.66.66.66.36 0 .672-.3.672-.66v-7.08c0-.36-.312-.648-.672-.66zm9.441.228c-.3-.228-.696-.168-.924.144l-2.016 2.76-2.028-2.76a.622.622 0 00-.912-.144.652.652 0 00-.156.912l2.28 3.096-2.28 3.12a.654.654 0 00.156.912.62.62 0 00.384.132.683.683 0 00.528-.276l2.028-2.772 2.016 2.772a.688.688 0 00.54.276.675.675 0 00.384-.132c.3-.204.348-.624.144-.912l-2.28-3.12 2.28-3.096c.204-.3.156-.708-.144-.912zm6.053 7.344c.48.384 1.2.816 2.136.828a2.73 2.73 0 001.56-.48c.432-.312.756-.804.756-1.392 0-.276-.084-.552-.228-.792-.204-.336-.528-.564-.852-.708a4.32 4.32 0 00-1.116-.348h-.012l-.012-.012c-.408-.072-.72-.18-.876-.288a.323.323 0 01-.132-.12c-.024-.036-.024-.048-.024-.096 0-.06.036-.168.192-.276.156-.12.42-.216.72-.216.384 0 .72.192 1.104.444.3.204.696.12.888-.168a.663.663 0 00-.192-.888c-.384-.264-.972-.66-1.8-.66-.552 0-1.056.156-1.476.444-.396.3-.708.768-.708 1.32 0 .276.072.54.204.756.216.324.504.54.828.696.312.144.672.24 1.044.312h.012c.432.084.792.216.96.336.096.06.144.108.156.144a.18.18 0 01.036.12c0 .096-.048.216-.216.36-.192.12-.492.228-.816.228-.468.012-1.008-.264-1.32-.528a.624.624 0 00-.9.096.64.64 0 00.084.888zM245.417 69h-.3v-1.74a.65.65 0 00-.66-.66.66.66 0 00-.672.66V69h-.348a.65.65 0 00-.66.66c0 .36.288.66.66.66h.348v3.348c0 .732.6 1.332 1.332 1.332a.65.65 0 00.66-.66.66.66 0 00-.66-.672V70.32h.3c.36 0 .672-.3.672-.66a.668.668 0 00-.672-.66zm6.653 0a.615.615 0 00-.624.636v2.832c0 .696-.552 1.224-1.236 1.224-.684 0-1.248-.528-1.248-1.224v-2.832a.618.618 0 00-.636-.636.638.638 0 00-.624.636v2.832c0 1.38 1.128 2.52 2.508 2.52.396 0 .804-.096 1.14-.288-.192.624-.792 1.08-1.5 1.092-.24 0-.468-.06-.696-.168-.288-.156-.696-.024-.852.264-.144.336-.024.708.312.852.36.18.804.3 1.236.3a2.845 2.845 0 002.868-2.868v-4.536c0-.36-.3-.636-.648-.636zm2.9-1.74v7.08a.666.666 0 001.332 0v-7.08a.666.666 0 00-1.332 0zm5.951 7.74c.852 0 1.56-.252 2.148-.792.276-.252.156-.612 0-.78-.156-.192-.648-.228-.9.036-.3.228-.816.336-1.248.3-.42-.036-.9-.252-1.152-.54-.216-.204-.348-.516-.408-.792h3.816c.336 0 .588-.192.624-.48.012-.024.012-.084.012-.108v-.06c-.096-1.62-1.332-2.784-2.892-2.784-1.644 0-2.916 1.368-2.928 3 .012 1.632 1.284 2.988 2.928 3zm0-4.86c1.044.084 1.656.792 1.776 1.272h-3.396c.096-.492.6-1.224 1.62-1.272zm9.062 4.86c.372 0 .672-.3.672-.66v-1.056l.66-.66 1.764 2.136c.12.156.312.24.504.24a.63.63 0 00.42-.156.666.666 0 00.096-.936l-1.848-2.22 1.8-1.8a.652.652 0 000-.936.674.674 0 00-.936 0l-2.46 2.46V67.26c0-.36-.3-.66-.672-.66-.372 0-.66.3-.66.66v7.08c0 .36.288.66.66.66zm8.258 0c.852 0 1.56-.252 2.148-.792.276-.252.156-.612 0-.78-.156-.192-.648-.228-.9.036-.3.228-.816.336-1.248.3-.42-.036-.9-.252-1.152-.54-.216-.204-.348-.516-.408-.792h3.816c.336 0 .588-.192.624-.48.012-.024.012-.084.012-.108v-.06c-.096-1.62-1.332-2.784-2.892-2.784-1.644 0-2.916 1.368-2.928 3 .012 1.632 1.284 2.988 2.928 3zm0-4.86c1.044.084 1.656.792 1.776 1.272h-3.396c.096-.492.6-1.224 1.62-1.272zm9.056-1.14a.615.615 0 00-.624.636v2.832c0 .696-.552 1.224-1.236 1.224-.684 0-1.248-.528-1.248-1.224v-2.832a.618.618 0 00-.636-.636.638.638 0 00-.624.636v2.832c0 1.38 1.128 2.52 2.508 2.52.396 0 .804-.096 1.14-.288-.192.624-.792 1.08-1.5 1.092-.24 0-.468-.06-.696-.168-.288-.156-.696-.024-.852.264-.144.336-.024.708.312.852.36.18.804.3 1.236.3a2.845 2.845 0 002.868-2.868v-4.536c0-.36-.3-.636-.648-.636zm3.178 5.352c0 .348.288.648.648.648a.646.646 0 00.636-.516 2.928 2.928 0 001.632.516c1.62 0 2.916-1.368 2.916-2.988 0-1.644-1.296-3.012-2.916-3.012a2.84 2.84 0 00-1.608.504v-2.256a.653.653 0 00-1.308 0V74.352zm1.788-3.552c.3-.312.684-.492 1.128-.492.432 0 .828.18 1.128.492.3.3.48.732.48 1.212 0 .456-.18.888-.48 1.188-.3.312-.696.492-1.128.492-.444 0-.828-.18-1.128-.492-.3-.3-.48-.732-.48-1.188 0-.48.18-.912.48-1.212zm8.75 4.236c.792 0 1.512-.348 2.004-.912.54-.528.84-1.272.84-2.112 0-.816-.3-1.524-.84-2.1a2.653 2.653 0 00-2.004-.912c-.828 0-1.524.348-2.064.912-.516.576-.828 1.284-.828 2.1 0 .84.312 1.584.828 2.112.54.564 1.236.912 2.064.912zm-1.152-4.272c.3-.264.696-.456 1.152-.456.42 0 .804.192 1.104.456.3.324.468.756.468 1.248 0 .516-.168.936-.468 1.272-.3.288-.684.444-1.104.444-.456 0-.852-.156-1.152-.444-.276-.336-.432-.756-.432-1.272 0-.492.156-.924.432-1.248zm11.112-1.116a.643.643 0 00-.636-.648c-.312 0-.552.228-.624.528a2.735 2.735 0 00-1.596-.528c-.816 0-1.524.348-2.04.9-.516.54-.816 1.284-.816 2.112 0 .816.3 1.56.816 2.112.516.54 1.224.876 2.04.876.6 0 1.14-.192 1.596-.516.072.288.312.516.624.516a.64.64 0 00.636-.636V69.648zm-1.74 3.6c-.288.3-.696.468-1.116.468-.432 0-.84-.168-1.116-.468-.288-.312-.456-.744-.456-1.236 0-.504.168-.936.456-1.236a1.447 1.447 0 011.116-.492c.42 0 .828.168 1.116.492.288.3.468.732.468 1.236 0 .492-.18.924-.468 1.236zm7.154-4.236c-.6-.012-1.116.204-1.512.468-.084.06-.18.156-.252.24v-.084c0-.348-.3-.624-.66-.624a.63.63 0 00-.636.624v4.728a.64.64 0 00.636.636c.36 0 .66-.288.66-.636v-2.28c.06-.168.204-.624.492-1.008.144-.228.324-.432.552-.576.204-.156.444-.228.72-.228.36 0 .636-.3.636-.636a.622.622 0 00-.636-.624zm7.345 3V67.248a.653.653 0 00-1.308 0v2.256a2.84 2.84 0 00-1.608-.504c-1.62 0-2.916 1.368-2.916 3.012 0 1.62 1.296 2.988 2.916 2.988.6 0 1.176-.204 1.632-.516.06.288.312.516.636.516.36 0 .648-.3.648-.648v-2.34zm-1.788-1.212c.3.3.48.732.48 1.212 0 .456-.18.888-.48 1.188-.3.312-.684.492-1.128.492-.432 0-.828-.18-1.128-.492-.3-.3-.48-.732-.48-1.188 0-.48.18-.912.48-1.212.3-.312.696-.492 1.128-.492.444 0 .828.18 1.128.492zm7.667 3.372c.48.384 1.2.816 2.136.828a2.73 2.73 0 001.56-.48c.432-.312.756-.804.756-1.392 0-.276-.084-.552-.228-.792-.204-.336-.528-.564-.852-.708a4.32 4.32 0 00-1.116-.348h-.012l-.012-.012c-.408-.072-.72-.18-.876-.288a.323.323 0 01-.132-.12c-.024-.036-.024-.048-.024-.096 0-.06.036-.168.192-.276.156-.12.42-.216.72-.216.384 0 .72.192 1.104.444.3.204.696.12.888-.168a.663.663 0 00-.192-.888c-.384-.264-.972-.66-1.8-.66-.552 0-1.056.156-1.476.444-.396.3-.708.768-.708 1.32 0 .276.072.54.204.756.216.324.504.54.828.696.312.144.672.24 1.044.312h.012c.432.084.792.216.96.336.096.06.144.108.156.144a.18.18 0 01.036.12c0 .096-.048.216-.216.36-.192.12-.492.228-.816.228-.468.012-1.008-.264-1.32-.528a.624.624 0 00-.9.096.64.64 0 00.084.888zm13.303-5.04a.601.601 0 00-.804.36l-1.416 3.228-.852-2.004a.616.616 0 00-.588-.384.64.64 0 00-.588.384l-.84 2.004-1.416-3.228c-.132-.348-.504-.492-.792-.36-.336.144-.492.504-.348.828l1.968 4.656c.024.024.036.06.06.096 0 .012 0 .012.012.012.012.024.036.048.048.072l.024.012c.036.024.06.048.072.06 0 .012 0 .012.012.012.024.036.072.06.108.072.012 0 .012 0 .024.012a.17.17 0 01.072.024h.036c.036.012.072.012.12.012.036 0 .072 0 .12-.012h.024a.129.129 0 01.072-.024c0-.012.012-.012.012-.012h.024c.036-.012.06-.036.108-.072l.072-.072s.012 0 .012-.012l.072-.072v-.012c.024-.036.048-.072.06-.096l.852-2.076.876 2.076c.012.024.024.06.048.096 0 .012.012.012.012.012a.318.318 0 00.06.072c0 .012.024.012.024.012.024.024.036.048.072.06v.012c.036.036.072.06.108.072h.012l.012.012c.036 0 .06.012.084.024h.024c.036.012.072.012.108.012.048 0 .084 0 .12-.012h.024a.371.371 0 01.096-.024c0-.012.012-.012.012-.012.048-.012.072-.036.108-.06 0-.012.012-.012.012-.024.024-.012.048-.036.072-.06 0 0 .012 0 .024-.012.024-.024.048-.048.06-.072 0 0 .012 0 .012-.012.024-.036.036-.072.048-.096l1.98-4.656c.144-.324-.024-.684-.348-.828zm2.889-.12a.64.64 0 00-.648.66v4.68c0 .36.288.648.648.648a.638.638 0 00.648-.648v-4.68c0-.384-.276-.66-.648-.66zm.648-1.764a.638.638 0 00-.648-.648.645.645 0 00-.648.648v.252c0 .36.288.66.648.66.372 0 .648-.3.648-.66v-.252zM350.546 69h-.3v-1.74a.65.65 0 00-.66-.66.66.66 0 00-.672.66V69h-.348a.65.65 0 00-.66.66c0 .36.288.66.66.66h.348v3.348c0 .732.6 1.332 1.332 1.332a.65.65 0 00.66-.66.66.66 0 00-.66-.672V70.32h.3c.36 0 .672-.3.672-.66a.668.668 0 00-.672-.66zm5.229 6c.72 0 1.392-.264 1.908-.636.276-.24.324-.624.132-.888-.24-.288-.636-.336-.9-.132a1.943 1.943 0 01-1.14.384c-.972 0-1.776-.792-1.776-1.716 0-.924.804-1.728 1.776-1.728.444 0 .828.156 1.14.384.276.216.66.168.9-.12a.66.66 0 00-.132-.888 3.162 3.162 0 00-1.908-.66c-1.656.012-3.048 1.344-3.048 3.012 0 1.644 1.392 2.988 3.048 2.988zm5.56-3.372a1.312 1.312 0 011.284-1.296c.72.012 1.296.588 1.296 1.296v2.712c0 .372.288.66.66.66a.65.65 0 00.66-.66v-2.712A2.625 2.625 0 00362.619 69c-.468 0-.9.144-1.284.348V67.26a.66.66 0 00-.672-.66c-.36 0-.66.288-.66.66v7.08a.68.68 0 00.66.66.66.66 0 00.672-.66v-2.712zM369.87 75c.852 0 1.56-.252 2.148-.792.276-.252.156-.612 0-.78-.156-.192-.648-.228-.9.036-.3.228-.816.336-1.248.3-.42-.036-.9-.252-1.152-.54-.216-.204-.348-.516-.408-.792h3.816c.336 0 .588-.192.624-.48.012-.024.012-.084.012-.108v-.06c-.096-1.62-1.332-2.784-2.892-2.784-1.644 0-2.916 1.368-2.928 3 .012 1.632 1.284 2.988 2.928 3zm0-4.86c1.044.084 1.656.792 1.776 1.272h-3.396c.096-.492.6-1.224 1.62-1.272zm4.601 4.032c.48.384 1.2.816 2.136.828a2.73 2.73 0 001.56-.48c.432-.312.756-.804.756-1.392 0-.276-.084-.552-.228-.792-.204-.336-.528-.564-.852-.708a4.32 4.32 0 00-1.116-.348h-.012l-.012-.012c-.408-.072-.72-.18-.876-.288a.323.323 0 01-.132-.12c-.024-.036-.024-.048-.024-.096 0-.06.036-.168.192-.276.156-.12.42-.216.72-.216.384 0 .72.192 1.104.444.3.204.696.12.888-.168a.663.663 0 00-.192-.888c-.384-.264-.972-.66-1.8-.66-.552 0-1.056.156-1.476.444-.396.3-.708.768-.708 1.32 0 .276.072.54.204.756.216.324.504.54.828.696.312.144.672.24 1.044.312h.012c.432.084.792.216.96.336.096.06.144.108.156.144a.18.18 0 01.036.12c0 .096-.048.216-.216.36-.192.12-.492.228-.816.228-.468.012-1.008-.264-1.32-.528a.624.624 0 00-.9.096.64.64 0 00.084.888z" fill="#454545"/></svg>