<svg width="28" height="33" viewBox="0 0 28 33" fill="none" xmlns="http://www.w3.org/2000/svg">
<g clip-path="url(#clip0)">
<path d="M11.127 13.5184C10.2222 13.5184 9.50793 14.3202 9.50793 15.2983C9.50793 16.2764 10.2381 17.0781 11.127 17.0781C12.0317 17.0781 12.746 16.2764 12.746 15.2983C12.7619 14.3202 12.0317 13.5184 11.127 13.5184ZM16.9206 13.5184C16.0159 13.5184 15.3016 14.3202 15.3016 15.2983C15.3016 16.2764 16.0317 17.0781 16.9206 17.0781C17.8254 17.0781 18.5397 16.2764 18.5397 15.2983C18.5397 14.3202 17.8254 13.5184 16.9206 13.5184Z" fill="#7289DA"/>
<path d="M24.6349 0.0654297H3.36505C1.5714 0.0654297 0.111084 1.54061 0.111084 3.36855V25.0473C0.111084 26.8752 1.5714 28.3504 3.36505 28.3504H21.3651L20.5238 25.384L22.5555 27.2921L24.4762 29.088L27.8889 32.1345V3.36855C27.8889 1.54061 26.4285 0.0654297 24.6349 0.0654297ZM18.5079 21.0066C18.5079 21.0066 17.9365 20.3171 17.4603 19.7078C19.5397 19.1145 20.3333 17.7996 20.3333 17.7996C19.6825 18.2326 19.0635 18.5372 18.5079 18.7457C17.7143 19.0824 16.9524 19.3069 16.2063 19.4352C14.6825 19.7238 13.2857 19.6436 12.0952 19.4191C11.1905 19.2428 10.4127 18.9862 9.76188 18.7296C9.3968 18.5853 8.99997 18.409 8.60315 18.1845C8.55553 18.1524 8.50791 18.1364 8.46029 18.1043C8.42855 18.0883 8.41267 18.0722 8.3968 18.0562C8.11108 17.8958 7.95236 17.7836 7.95236 17.7836C7.95236 17.7836 8.71426 19.0664 10.7301 19.6757C10.2539 20.285 9.66664 21.0066 9.66664 21.0066C6.1587 20.8943 4.82537 18.5693 4.82537 18.5693C4.82537 13.4062 7.11108 9.22116 7.11108 9.22116C9.3968 7.48943 11.5714 7.53753 11.5714 7.53753L11.7301 7.72995C8.87299 8.56374 7.55553 9.83047 7.55553 9.83047C7.55553 9.83047 7.90474 9.63806 8.49204 9.36547C10.1905 8.61185 11.5397 8.4034 12.0952 8.35529C12.1905 8.33926 12.2698 8.32322 12.3651 8.32322C13.3333 8.19495 14.4285 8.16288 15.5714 8.29115C17.0793 8.46753 18.6984 8.9165 20.3492 9.83047C20.3492 9.83047 19.0952 8.62788 16.3968 7.79408L16.619 7.53753C16.619 7.53753 18.7936 7.48943 21.0793 9.22116C21.0793 9.22116 23.3651 13.4062 23.3651 18.5693C23.3651 18.5693 22.0158 20.8943 18.5079 21.0066V21.0066Z" fill="#7289DA"/>
</g>
<defs>
<clipPath id="clip0">
<rect width="28" height="32.2" fill="white"/>
</clipPath>
</defs>
</svg>
