<svg width="78" height="18" viewBox="0 0 78 18" fill="none" xmlns="http://www.w3.org/2000/svg">
<path d="M19.0321 0.883289C19.1624 1.12202 19.2357 1.33687 19.252 1.52785C19.2845 1.71883 19.3008 1.99735 19.3008 2.3634V15.6127C19.3008 16.7109 18.9914 17.3554 18.3724 17.5464C18.063 17.6419 17.6721 17.6897 17.1997 17.6897C16.7274 17.6897 16.3528 17.6499 16.0759 17.5703C15.799 17.4907 15.5873 17.3952 15.4407 17.2838C15.2941 17.1724 15.1801 17.0133 15.0986 16.8064C15.0172 16.5358 14.9765 16.122 14.9765 15.565V7.56764C14.5693 8.06101 13.9748 8.84881 13.193 9.93103C12.4112 10.9973 11.9144 11.6658 11.7027 11.9363C11.4909 12.2069 11.3443 12.3979 11.2629 12.5093C11.1815 12.6048 10.9779 12.748 10.6521 12.939C10.3426 13.1141 10.0006 13.2016 9.62598 13.2016C9.26766 13.2016 8.93376 13.122 8.62429 12.9629C8.33112 12.7878 8.11938 12.6207 7.98908 12.4615L7.79363 12.1989C7.46787 11.8011 6.82451 10.9576 5.86354 9.66844C4.90257 8.3634 4.38137 7.66313 4.29993 7.56764V15.6127C4.29993 15.9788 4.28364 16.2573 4.25107 16.4483C4.23478 16.6233 4.16149 16.8223 4.03119 17.0451C3.78687 17.4748 3.15165 17.6897 2.12553 17.6897C1.13199 17.6897 0.51306 17.4748 0.268746 17.0451C0.138445 16.8223 0.0570066 16.6154 0.0244314 16.4244C0.0081438 16.2334 0 15.9469 0 15.565V2.31565C0 1.9496 0.0081438 1.67905 0.0244314 1.50398C0.0570066 1.313 0.138445 1.09814 0.268746 0.859417C0.51306 0.445623 1.14828 0.238727 2.1744 0.238727C2.61416 0.238727 2.98878 0.29443 3.29824 0.405836C3.624 0.501326 3.83573 0.604775 3.93346 0.716181L4.08005 0.859417L9.62598 7.97347C12.3949 4.39257 14.2435 2.02918 15.1719 0.883289C15.4488 0.453581 16.1003 0.238727 17.1264 0.238727C18.1688 0.238727 18.8041 0.453581 19.0321 0.883289Z" fill="#6F7373"/>
<path d="M31.8614 0C34.272 0 36.365 0.851459 38.1403 2.55438C39.9157 4.25729 40.8033 6.37401 40.8033 8.90451C40.8033 11.4191 39.9564 13.5676 38.2625 15.3501C36.5686 17.1167 34.4838 18 32.008 18C29.5323 18 27.4231 17.1247 25.6803 15.374C23.9538 13.6233 23.0906 11.5385 23.0906 9.11936C23.0906 7.79841 23.3349 6.56499 23.8235 5.4191C24.3121 4.25729 24.9636 3.28647 25.778 2.50663C26.5924 1.72679 27.5289 1.11406 28.5876 0.668435C29.6463 0.222812 30.7376 0 31.8614 0ZM27.4149 9C27.4149 10.4164 27.8791 11.5703 28.8075 12.4615C29.7522 13.3369 30.8027 13.7745 31.9592 13.7745C33.1156 13.7745 34.158 13.3448 35.0864 12.4854C36.0148 11.626 36.479 10.4721 36.479 9.02387C36.479 7.5756 36.0066 6.41379 35.062 5.53846C34.1336 4.66313 33.0912 4.22546 31.9347 4.22546C30.7783 4.22546 29.7359 4.67109 28.8075 5.56233C27.8791 6.43767 27.4149 7.58355 27.4149 9Z" fill="#6F7373"/>
<path d="M46.7742 0.190982L51.294 0.214854C53.6557 0.214854 55.7323 1.0504 57.524 2.72149C59.3156 4.37666 60.2114 6.42175 60.2114 8.85676C60.2114 11.2759 59.3319 13.3528 57.5728 15.0875C55.8301 16.8223 53.7127 17.6897 51.2207 17.6897H46.7497C45.7562 17.6897 45.1373 17.4907 44.8929 17.0928C44.6975 16.7586 44.5998 16.2493 44.5998 15.565V2.29178C44.5998 1.90981 44.6079 1.6313 44.6242 1.45623C44.6568 1.28117 44.7382 1.07427 44.8685 0.835544C45.0965 0.405836 45.7317 0.190982 46.7742 0.190982ZM51.294 13.4642C52.4667 13.4642 53.5254 13.0424 54.4701 12.1989C55.4147 11.3395 55.8871 10.2653 55.8871 8.97613C55.8871 7.687 55.4229 6.61273 54.4945 5.75332C53.5824 4.87798 52.5074 4.44032 51.2695 4.44032H48.9241V13.4642H51.294Z" fill="#6F7373"/>
<path d="M68.3252 13.4881H75.85C76.2247 13.4881 76.5015 13.504 76.6807 13.5358C76.8762 13.5517 77.096 13.6233 77.3404 13.7507C77.7801 13.9735 78 14.5942 78 15.6127C78 16.7268 77.6987 17.3793 77.096 17.5703C76.8192 17.6658 76.3957 17.7135 75.8256 17.7135H66.1508C65.0106 17.7135 64.3428 17.4111 64.1474 16.8064C64.0497 16.5517 64.0008 16.1459 64.0008 15.5889V2.31565C64.0008 1.50398 64.1555 0.954907 64.465 0.668435C64.7745 0.366048 65.3608 0.214854 66.2241 0.214854H75.85C76.2247 0.214854 76.5015 0.23077 76.6807 0.2626C76.8762 0.278515 77.096 0.350133 77.3404 0.477453C77.7801 0.700266 78 1.32096 78 2.33952C78 3.45358 77.6987 4.1061 77.096 4.29708C76.8192 4.39257 76.3957 4.44032 75.8256 4.44032H68.3252V6.85146H73.1626C73.5372 6.85146 73.8141 6.86737 73.9933 6.8992C74.1887 6.91512 74.4086 6.98674 74.6529 7.11406C75.0927 7.33687 75.3125 7.95756 75.3125 8.97613C75.3125 10.0902 75.0031 10.7427 74.3842 10.9337C74.1073 11.0292 73.6838 11.0769 73.1137 11.0769H68.3252V13.4881Z" fill="#6F7373"/>
</svg>
