<svg width="26" height="20" viewBox="0 0 26 20" fill="none" xmlns="http://www.w3.org/2000/svg">
<path fill-rule="evenodd" clip-rule="evenodd" d="M0 0.5C0 0.223858 0.223858 0 0.5 0H25.5C25.7761 0 26 0.223857 26 0.5V19.5C26 19.7761 25.7761 20 25.5 20H0.5C0.223858 20 0 19.7761 0 19.5V0.5ZM2 2.5C2 2.22386 2.22386 2 2.5 2H4.95714C5.23328 2 5.45714 2.22386 5.45714 2.5V17.5C5.45714 17.7761 5.23329 18 4.95714 18H2.5C2.22386 18 2 17.7761 2 17.5V2.5ZM24 2.2C24 2.08954 23.9105 2 23.8 2H8.44286C8.16671 2 7.94286 2.22386 7.94286 2.5V17.5C7.94286 17.7761 8.16671 18 8.44286 18H23.8C23.9105 18 24 17.9105 24 17.8V14.309C24 14.1196 23.893 13.9465 23.7236 13.8618L22.2764 13.1382C22.107 13.0535 22 12.8804 22 12.691V10V7.30902C22 7.11963 22.107 6.9465 22.2764 6.8618L23.7236 6.1382C23.893 6.0535 24 5.88037 24 5.69098V2.2Z" fill="#939393"/>
<path d="M14.0498 13.0713C14.0498 12.251 14.1494 11.5977 14.3486 11.1113C14.5479 10.625 14.9111 10.1475 15.4385 9.67871C15.9717 9.2041 16.3262 8.82031 16.502 8.52734C16.6777 8.22852 16.7656 7.91504 16.7656 7.58691C16.7656 6.59668 16.3086 6.10156 15.3945 6.10156C14.9609 6.10156 14.6123 6.23633 14.3486 6.50586C14.0908 6.76953 13.9561 7.13574 13.9443 7.60449H11.3955C11.4072 6.48535 11.7676 5.60938 12.4766 4.97656C13.1914 4.34375 14.1641 4.02734 15.3945 4.02734C16.6367 4.02734 17.6006 4.3291 18.2861 4.93262C18.9717 5.53027 19.3145 6.37695 19.3145 7.47266C19.3145 7.9707 19.2031 8.44238 18.9805 8.8877C18.7578 9.32715 18.3682 9.81641 17.8115 10.3555L17.0996 11.0322C16.6543 11.46 16.3994 11.9609 16.335 12.5352L16.2998 13.0713H14.0498ZM13.7949 15.7695C13.7949 15.377 13.9268 15.0547 14.1904 14.8027C14.46 14.5449 14.8027 14.416 15.2188 14.416C15.6348 14.416 15.9746 14.5449 16.2383 14.8027C16.5078 15.0547 16.6426 15.377 16.6426 15.7695C16.6426 16.1562 16.5107 16.4756 16.2471 16.7275C15.9893 16.9795 15.6465 17.1055 15.2188 17.1055C14.791 17.1055 14.4453 16.9795 14.1816 16.7275C13.9238 16.4756 13.7949 16.1562 13.7949 15.7695Z" fill="#939393"/>
</svg>
