<svg width="26" height="20" viewBox="0 0 26 20" fill="none" xmlns="http://www.w3.org/2000/svg">
<path fill-rule="evenodd" clip-rule="evenodd" d="M0 0.5C0 0.223858 0.223858 0 0.5 0H25.5C25.7761 0 26 0.223857 26 0.5V19.5C26 19.7761 25.7761 20 25.5 20H0.5C0.223858 20 0 19.7761 0 19.5V0.5ZM2 2.5C2 2.22386 2.22386 2 2.5 2H4.95714C5.23329 2 5.45714 2.22386 5.45714 2.5V17.5C5.45714 17.7761 5.23329 18 4.95714 18H2.5C2.22386 18 2 17.7761 2 17.5V2.5ZM24 2.2C24 2.08954 23.9105 2 23.8 2H8.44286C8.16671 2 7.94286 2.22386 7.94286 2.5V17.5C7.94286 17.7761 8.16671 18 8.44286 18H23.8C23.9105 18 24 17.9105 24 17.8V14.309C24 14.1196 23.893 13.9465 23.7236 13.8618L22.2764 13.1382C22.107 13.0535 22 12.8804 22 12.691V10V7.30902C22 7.11963 22.107 6.9465 22.2764 6.8618L23.7236 6.1382C23.893 6.0535 24 5.88037 24 5.69098V2.2Z" fill="#219653"/>
<path d="M14.047 14.8156L22.0376 5.77636C22.4961 5.25772 22.4719 4.47189 21.9824 3.98241C21.4494 3.44943 20.5777 3.47505 20.077 4.03841L13.2569 11.7111C13.1152 11.8704 12.871 11.8842 12.7123 11.7417L11.0074 10.2103C10.4425 9.70298 9.57943 9.72611 9.04254 10.263C8.47215 10.8334 8.48679 11.7626 9.07485 12.3147L11.8475 14.918C12.4783 15.5103 13.4739 15.4639 14.047 14.8156Z" fill="#219653"/>
</svg>
