<svg width="26" height="20" viewBox="0 0 26 20" fill="none" xmlns="http://www.w3.org/2000/svg">
<path fill-rule="evenodd" clip-rule="evenodd" d="M0 0.5C0 0.223858 0.223858 0 0.5 0H25.5C25.7761 0 26 0.223857 26 0.5V19.5C26 19.7761 25.7761 20 25.5 20H0.5C0.223858 20 0 19.7761 0 19.5V0.5ZM2 2.5C2 2.22386 2.22386 2 2.5 2H4.95714C5.23328 2 5.45714 2.22386 5.45714 2.5V17.5C5.45714 17.7761 5.23329 18 4.95714 18H2.5C2.22386 18 2 17.7761 2 17.5V2.5ZM24 2.2C24 2.08954 23.9105 2 23.8 2H8.44286C8.16671 2 7.94286 2.22386 7.94286 2.5V17.5C7.94286 17.7761 8.16671 18 8.44286 18H23.8C23.9105 18 24 17.9105 24 17.8V14.309C24 14.1196 23.893 13.9465 23.7236 13.8618L22.2764 13.1382C22.107 13.0535 22 12.8804 22 12.691V10V7.30902C22 7.11963 22.107 6.9465 22.2764 6.8618L23.7236 6.1382C23.893 6.0535 24 5.88037 24 5.69098V2.2Z" fill="#219653"/>
<path d="M14.047 14.8155L22.0375 5.7763C22.496 5.25766 22.4718 4.47183 21.9824 3.98235C21.4494 3.44937 20.5777 3.47499 20.0769 4.03835L13.2568 11.711C13.1152 11.8704 12.8709 11.8841 12.7123 11.7416L11.0073 10.2103C10.4424 9.70292 9.57937 9.72605 9.04248 10.2629C8.47209 10.8333 8.48672 11.7625 9.07479 12.3147L11.8474 14.9179C12.4783 15.5102 13.4739 15.4639 14.047 14.8155Z" fill="#219653"/>
</svg>
