<svg width="22" height="22" viewBox="0 0 22 22" fill="none" xmlns="http://www.w3.org/2000/svg">
<rect x="1" y="1" width="20" height="20" rx="4" stroke="#939393" stroke-width="2"/>
<path d="M8.75 13.25V15.8C8.75 16.3247 9.17533 16.75 9.7 16.75H12.3C12.8247 16.75 13.25 16.3247 13.25 15.8V13.25H15.8C16.3247 13.25 16.75 12.8247 16.75 12.3V9.7C16.75 9.17533 16.3247 8.75 15.8 8.75H13.25V6.2C13.25 5.67533 12.8247 5.25 12.3 5.25H9.7C9.17533 5.25 8.75 5.67533 8.75 6.2V8.75H6.2C5.67533 8.75 5.25 9.17533 5.25 9.7V12.3C5.25 12.8247 5.67533 13.25 6.2 13.25H8.75Z" stroke="#939393" stroke-width="1.5"/>
</svg>
