<svg width="15" height="30" viewBox="0 0 15 30" fill="none" xmlns="http://www.w3.org/2000/svg">
<path d="M13 27.9286C13 27.9286 9.51114 27.4566 7.32258 26.9668C5.16135 26.4831 2 25.4982 2 25.4982M13 24.9913C13 24.9913 9.51114 24.5194 7.32258 24.0295C5.16135 23.5458 2 22.5609 2 22.5609M13 22.054C13 22.054 9.51114 21.5821 7.32258 21.0923C5.16135 20.6086 2 19.6236 2 19.6236M13 19.1168C13 19.1168 9.51114 18.6448 7.32258 18.155C5.16135 17.6713 2 16.6864 2 16.6864M13 16.1795C13 16.1795 9.51114 15.7075 7.32258 15.2177C5.16135 14.734 2 13.7491 2 13.7491M13 13.2422C13 13.2422 9.51114 12.7703 7.32258 12.2805C5.16135 11.7967 2 10.8118 2 10.8118M13 10.3049C13 10.3049 9.51114 9.833 7.32258 9.34318C5.16135 8.85947 2 7.87454 2 7.87454M13 7.36767C13 7.36767 9.51114 6.89573 7.32258 6.40591C5.16135 5.9222 2 4.93727 2 4.93727M13 4.4304C13 4.4304 9.51114 3.95846 7.32258 3.46864C5.16135 2.98493 2.35484 2 2.35484 2" stroke="#B9B9B9" stroke-linecap="round"/>
<path d="M2 27.9286C2 27.9286 5.48886 27.4566 7.67742 26.9668C9.83865 26.4831 13 25.4982 13 25.4982M2 24.9913C2 24.9913 5.48886 24.5194 7.67742 24.0295C9.83865 23.5458 13 22.5609 13 22.5609M2 22.054C2 22.054 5.48886 21.5821 7.67742 21.0923C9.83865 20.6086 13 19.6236 13 19.6236M2 19.1168C2 19.1168 5.48886 18.6448 7.67742 18.155C9.83865 17.6713 13 16.6864 13 16.6864M2 16.1795C2 16.1795 5.48886 15.7075 7.67742 15.2177C9.83865 14.734 13 13.7491 13 13.7491M2 13.2422C2 13.2422 5.48886 12.7703 7.67742 12.2805C9.83865 11.7967 13 10.8118 13 10.8118M2 10.3049C2 10.3049 5.48886 9.833 7.67742 9.34318C9.83865 8.85947 13 7.87454 13 7.87454M2 7.36767C2 7.36767 5.48886 6.89573 7.67742 6.40591C9.83865 5.9222 13 4.93727 13 4.93727M2 4.4304C2 4.4304 5.48886 3.95846 7.67742 3.46864C9.83865 2.98493 12.6452 2 12.6452 2" stroke="#939393" stroke-width="2" stroke-linecap="round"/>
<path d="M2.3999 27.9282H12.4999" stroke="#939393" stroke-width="3" stroke-linecap="round"/>
<path d="M2.3999 2H12.4999" stroke="#939393" stroke-width="3" stroke-linecap="round"/>
</svg>
