<svg width="34" height="35" viewBox="0 0 34 35" fill="none" xmlns="http://www.w3.org/2000/svg">
<path d="M18.743 1.57475H15.5904C14.9412 1.57475 14.3987 2.03116 14.2661 2.64059L8.69077 2.64058C8.51998 1.92856 7.87919 1.39936 7.1148 1.39936H5.06508C3.03801 1.39936 1.39474 3.04262 1.39474 5.06969V6.66045C1.39474 7.30757 1.80584 7.87417 2.3947 8.08282V26.5835C1.80584 26.7922 1.39474 27.3588 1.39474 28.0059V28.4648C1.39474 31.1632 3.58221 33.3506 6.28059 33.3506H6.28922C6.55207 33.3507 7.0112 33.3507 7.42982 33.2419C7.82661 33.1388 8.4766 32.8507 8.68103 32.1094L14.2664 32.1094C14.3962 32.7039 14.9177 33.1752 15.5811 33.1752H18.7523C19.4157 33.1752 19.9372 32.7039 20.0671 32.1094L24.8095 32.1094C24.9766 32.8073 25.5942 33.3506 26.3691 33.3506L29.1788 33.3506C31.0709 33.3506 32.6053 31.8168 32.6053 29.9244V27.9982C32.6053 27.3451 32.1879 26.7895 31.6053 26.5836V8.08277C32.1879 7.87685 32.6053 7.32125 32.6053 6.66816V4.78375C32.6053 2.9146 31.09 1.39936 29.2209 1.39936L26.3853 1.39935C25.621 1.39935 24.9802 1.92856 24.8094 2.64058L20.0674 2.64059C19.9348 2.03116 19.3922 1.57475 18.743 1.57475Z" fill="white" stroke="#939393" stroke-width="2"/>
<g opacity="0.15">
<path d="M4.96053 5.39447H6.79816L6.79817 10.441H4.96053L4.5658 7.91774L4.96053 5.39447Z" fill="black"/>
<path d="M4.96053 24.5633H6.79816L6.79817 29.6098H4.96053L4.5658 27.0866L4.96053 24.5633Z" fill="black"/>
<path d="M4.94968 12.3831H6.73683L6.73683 22.5666H4.94968L4.94968 17.4748L4.94968 12.3831Z" fill="black"/>
<path d="M29.1008 5.39447H27.2632L27.2632 10.441H29.1008L29.4955 7.91774L29.1008 5.39447Z" fill="black"/>
<path d="M29.1008 24.5633H27.2632L27.2632 29.6098H29.1008L29.4955 27.0866L29.1008 24.5633Z" fill="black"/>
<path d="M29.1116 12.3831H27.3245L27.3245 22.5666H29.1116L29.1116 17.4748L29.1116 12.3831Z" fill="black"/>
</g>
<ellipse cx="17.1115" cy="17.4878" rx="4.14474" ry="4.19318" fill="#939393"/>
<ellipse cx="9.69736" cy="17.375" rx="2.17105" ry="2.19643" fill="#939393"/>
<ellipse cx="24.5" cy="17.5747" rx="2.17105" ry="2.19642" fill="#939393"/>
<path d="M9.69736 6.28714L9.51265 5.82251L9.19736 5.94784V6.28714V7.27377V7.61306L9.51265 7.7384L9.69736 7.27377C9.51265 7.7384 9.51271 7.73843 9.51277 7.73845L9.51292 7.73851L9.5133 7.73866L9.5144 7.7391L9.51795 7.74049L9.53029 7.74532L9.57495 7.76246C9.61318 7.77696 9.66792 7.79735 9.73589 7.82165C9.87155 7.87017 10.0614 7.93482 10.2791 7.99963C10.7008 8.12523 11.2774 8.26709 11.7697 8.26709C12.2621 8.26709 12.8386 8.12523 13.2604 7.99963C13.478 7.93482 13.6679 7.87017 13.8036 7.82165C13.8715 7.79735 13.9263 7.77696 13.9645 7.76246L14.0092 7.74532L14.0215 7.74049L14.025 7.7391L14.0261 7.73866L14.0265 7.73851L14.0267 7.73845C14.0267 7.73843 14.0268 7.7384 13.8421 7.27377L14.0268 7.7384L14.3421 7.61306V7.27377V6.28714V5.94784L14.0268 5.82251L13.8421 6.28714C14.0268 5.82251 14.0267 5.82248 14.0267 5.82246L14.0265 5.8224L14.0261 5.82225L14.025 5.82181L14.0215 5.82041L14.0092 5.81559L13.9645 5.79845C13.9263 5.78395 13.8715 5.76356 13.8036 5.73926C13.6679 5.69074 13.478 5.62609 13.2604 5.56128C12.8386 5.43568 12.2621 5.29382 11.7697 5.29382C11.2774 5.29382 10.7008 5.43568 10.2791 5.56128C10.0614 5.62609 9.87155 5.69074 9.73589 5.73926C9.66792 5.76356 9.61318 5.78395 9.57495 5.79845L9.53029 5.81559L9.51795 5.82041L9.5144 5.82181L9.5133 5.82225L9.51292 5.8224L9.51277 5.82246C9.51271 5.82248 9.51265 5.82251 9.69736 6.28714Z" fill="#FFDF6B" stroke="#FFDF6B"/>
<path d="M23.1327 10.5464L23.3165 10.0793L23.0018 9.95234L22.7701 10.2021L22.1027 10.9214L21.871 11.1712L22.0161 11.4809L22.4653 11.2657C22.0161 11.4809 22.0162 11.4809 22.0162 11.481L22.0162 11.4811L22.0164 11.4815L22.0169 11.4826L22.0186 11.486L22.0243 11.4981L22.0452 11.5415C22.0633 11.5785 22.0894 11.6312 22.1225 11.6959C22.1885 11.8252 22.2832 12.0037 22.398 12.2015C22.6205 12.585 22.9444 13.0868 23.3025 13.4268C23.6606 13.7669 24.1761 14.0622 24.5685 14.2626C24.7709 14.366 24.953 14.4503 25.0846 14.5088C25.1506 14.5381 25.2043 14.5611 25.2419 14.577L25.286 14.5954L25.2983 14.6004L25.3018 14.6019L25.3029 14.6023L25.3033 14.6025L25.3034 14.6025C25.3035 14.6026 25.3035 14.6026 25.4873 14.1355L25.3035 14.6026L25.6182 14.7295L25.8499 14.4798L26.5173 13.7604L26.749 13.5107L26.6039 13.201L26.1548 13.4161C26.6039 13.201 26.6039 13.2009 26.6039 13.2008L26.6038 13.2007L26.6036 13.2003L26.6031 13.1993L26.6015 13.1958L26.5958 13.1837L26.5748 13.1404C26.5568 13.1034 26.5307 13.0506 26.4976 12.9859C26.4315 12.8567 26.3369 12.6782 26.2221 12.4804C25.9995 12.0968 25.6756 11.595 25.3175 11.255C24.9594 10.9149 24.444 10.6196 24.0515 10.4192C23.8491 10.3158 23.6671 10.2316 23.5354 10.173C23.4694 10.1437 23.4158 10.1207 23.3781 10.1048L23.334 10.0864L23.3218 10.0814L23.3182 10.08L23.3172 10.0795L23.3168 10.0794L23.3166 10.0793C23.3166 10.0793 23.3165 10.0793 23.1327 10.5464Z" fill="#FFDF6B" stroke="#FFDF6B"/>
</svg>
