<svg width="60" height="36" viewBox="0 0 60 36" fill="none" xmlns="http://www.w3.org/2000/svg">
<path d="M44.5 21.3493H41V32.1692C41 32.1692 41 33.6693 42.75 33.6693C44.5 33.6693 44.5 32.1692 44.5 32.1692V21.3493Z" fill="#A4966F"/>
<path d="M44.5 21.3493H41V27.1692H44.5V21.3493Z" fill="url(#paint0_linear)"/>
<path d="M21.5 21.3493H18V32.6692L19.75 34.6693L21.5 32.6692V21.3493Z" fill="#A4966F"/>
<path d="M20.7002 21.3492V28.2319C20.7002 28.2319 20.7002 29.3492 19.7002 29.3492C18.7002 29.3492 18.7002 28.2319 18.7002 28.2319V21.3492" stroke="black" stroke-opacity="0.42" stroke-width="0.4"/>
<path d="M21.5 21.3493H18V27.1692H21.5V21.3493Z" fill="url(#paint1_linear)"/>
<path d="M2 0.368005C2 0.184094 2.14909 0.0350037 2.333 0.0350037H57.3753C57.5592 0.0350037 57.7083 0.184094 57.7083 0.368005C57.7083 0.551917 57.8574 0.701007 58.0413 0.701007H59.4C59.7314 0.701007 60 0.969636 60 1.30101V4.06916C60 4.40053 59.7314 4.66916 59.4 4.66916H57.9333C57.602 4.66916 57.3333 4.93779 57.3333 5.26916V10.5994C57.3333 10.6602 57.3241 10.7206 57.306 10.7785L54.1317 20.9262C54.0533 21.1766 53.8214 21.3471 53.559 21.3471H51.9333C51.602 21.3471 51.3333 21.6157 51.3333 21.9471V27.2672C51.3333 27.3163 51.3273 27.3652 51.3154 27.4129L50.1137 32.2148C50.0469 32.4819 49.8069 32.6692 49.5316 32.6692H47.135C46.8598 32.6692 46.6198 32.4819 46.553 32.2148L45.3513 27.4129C45.3394 27.3652 45.3333 27.3163 45.3333 27.2672V21.9471C45.3333 21.6157 45.0647 21.3471 44.7333 21.3471H37.2667C36.9353 21.3471 36.6667 21.6157 36.6667 21.9471V27.1994C36.6667 27.2926 36.6449 27.3845 36.6032 27.4679L34.8326 31.0057C34.7309 31.2089 34.5232 31.3372 34.296 31.3372H25.6543C25.4538 31.3372 25.2665 31.237 25.1552 31.0702L22.7676 27.4924C22.7018 27.3938 22.6667 27.2779 22.6667 27.1593V21.9471C22.6667 21.6157 22.398 21.3471 22.0667 21.3471H15.2667C14.9353 21.3471 14.6667 21.6157 14.6667 21.9471V27.2672C14.6667 27.3163 14.6606 27.3652 14.6487 27.4129L13.447 32.2148C13.3802 32.4819 13.1402 32.6692 12.865 32.6692H10.4684C10.1931 32.6692 9.95313 32.4819 9.8863 32.2148L8.68462 27.4129C8.6727 27.3652 8.66667 27.3163 8.66667 27.2672V21.9471C8.66667 21.6157 8.39804 21.3471 8.06667 21.3471H6.44098C6.17862 21.3471 5.94668 21.1766 5.86835 20.9262L2.69403 10.7785C2.67589 10.7206 2.66667 10.6602 2.66667 10.5994V5.26916C2.66667 4.93779 2.39804 4.66916 2.06667 4.66916H0.600001C0.26863 4.66916 0 4.40053 0 4.06916V1.30101C0 0.969636 0.268629 0.701007 0.6 0.701007H1.667C1.85091 0.701007 2 0.551917 2 0.368005Z" fill="white"/>
<path d="M26.0019 5.21645C26.1148 5.0612 26.2951 4.96935 26.4871 4.96935H33.3034C33.5109 4.96935 33.7037 5.07657 33.8132 5.25287L35.4998 7.96935C35.4998 7.96935 36.2769 8.5146 36.67 8.96935V15.6693H39V8.96935C39 8.96935 40 6.6693 43 6.6693C45.9986 6.6693 47.162 8.35756 47.4338 8.84127C47.4808 8.92497 47.4998 9.0189 47.4998 9.11491V21.3394L36.67 21.3393V21.0584C36.67 20.727 36.4014 20.4584 36.07 20.4584H23.3141C22.9551 20.4584 22.6641 20.7494 22.6641 21.1084V21.3394H15V8.96935C15 8.96935 15 6.6693 17.5 6.6693C20 6.6693 20.0781 8.96935 20.0781 8.96935L20 15.6693H22.5V8.96935C23.5 8.6693 23.9998 7.96935 23.9998 7.96935L26.0019 5.21645Z" fill="url(#paint2_linear)" fill-opacity="0.6"/>
<path d="M26.0444 8.16907L33.5 8.16907L33.1719 -3.78601e-06L26.5819 -3.2099e-06L26.0444 8.16907Z" fill="url(#paint3_linear)"/>
<path d="M2 0.368005C2 0.184094 2.14909 0.0350037 2.333 0.0350037H57.3753C57.5592 0.0350037 57.7083 0.184094 57.7083 0.368005C57.7083 0.551917 57.8574 0.701007 58.0413 0.701007H59.4C59.7314 0.701007 60 0.969636 60 1.30101V4.06916C60 4.40053 59.7314 4.66916 59.4 4.66916H57.9333C57.602 4.66916 57.3333 4.93779 57.3333 5.26916V10.5994C57.3333 10.6602 57.3241 10.7206 57.306 10.7785L54.1317 20.9262C54.0533 21.1766 53.8214 21.3471 53.559 21.3471H51.9333C51.602 21.3471 51.3333 21.6157 51.3333 21.9471V27.2672C51.3333 27.3163 51.3273 27.3652 51.3154 27.4129L50.1137 32.2148C50.0469 32.4819 49.8069 32.6692 49.5316 32.6692H47.135C46.8598 32.6692 46.6198 32.4819 46.553 32.2148L45.3513 27.4129C45.3394 27.3652 45.3333 27.3163 45.3333 27.2672V21.9471C45.3333 21.6157 45.0647 21.3471 44.7333 21.3471H37.2667C36.9353 21.3471 36.6667 21.6157 36.6667 21.9471V27.1994C36.6667 27.2926 36.6449 27.3845 36.6032 27.4679L34.8326 31.0057C34.7309 31.2089 34.5232 31.3372 34.296 31.3372H25.6543C25.4538 31.3372 25.2665 31.237 25.1552 31.0702L22.7676 27.4924C22.7018 27.3938 22.6667 27.2779 22.6667 27.1593V21.9471C22.6667 21.6157 22.398 21.3471 22.0667 21.3471H15.2667C14.9353 21.3471 14.6667 21.6157 14.6667 21.9471V27.2672C14.6667 27.3163 14.6606 27.3652 14.6487 27.4129L13.447 32.2148C13.3802 32.4819 13.1402 32.6692 12.865 32.6692H10.4684C10.1931 32.6692 9.95313 32.4819 9.8863 32.2148L8.68462 27.4129C8.6727 27.3652 8.66667 27.3163 8.66667 27.2672V21.9471C8.66667 21.6157 8.39804 21.3471 8.06667 21.3471H6.44098C6.17862 21.3471 5.94668 21.1766 5.86835 20.9262L2.69403 10.7785C2.67589 10.7206 2.66667 10.6602 2.66667 10.5994V5.26916C2.66667 4.93779 2.39804 4.66916 2.06667 4.66916H0.600001C0.26863 4.66916 0 4.40053 0 4.06916V1.30101C0 0.969636 0.268629 0.701007 0.6 0.701007H1.667C1.85091 0.701007 2 0.551917 2 0.368005Z" fill="#F14A1E" fill-opacity="0.65"/>
<path opacity="0.8" d="M49.4005 21.3491V4.66915H58.0001C58.0001 4.66915 57.3301 4.66915 57.3301 5.55915V10.6892L54.0001 21.3491H49.4005Z" fill="url(#paint4_linear)"/>
<path opacity="0.8" d="M10.6001 21.3491L10.6001 4.66917H2.00049C2.00049 4.66917 2.67049 4.66917 2.67049 5.55979L2.67049 10.6892L6.00049 21.3491H10.6001Z" fill="url(#paint5_linear)"/>
<path d="M22.6701 27.3392C22.6701 27.3392 26.7665 28.1692 29.5002 28.1692C32.2338 28.1691 36.67 27.3392 36.67 27.3392L34.8358 31.0075C34.7342 31.2108 34.5264 31.3392 34.2992 31.3392H25.6516C25.4507 31.3392 25.2632 31.2387 25.1519 31.0714L22.6701 27.3392Z" fill="url(#paint6_linear)"/>
<mask id="mask0" mask-type="alpha" maskUnits="userSpaceOnUse" x="15" y="15" width="29" height="14">
<ellipse cx="29.5" cy="21.7691" rx="14" ry="6.5" fill="#C4C4C4"/>
</mask>
<g mask="url(#mask0)">
<path d="M22.6699 21.0692C22.6699 20.7378 22.9386 20.4692 23.2699 20.4692H36.0699C36.4013 20.4692 36.6699 20.7378 36.6699 21.0692V27.3392L34.8358 31.0075C34.7342 31.2108 34.5264 31.3392 34.2992 31.3392H25.6516C25.4507 31.3392 25.2632 31.2387 25.1519 31.0714L22.67 27.3392L22.6699 21.0692Z" fill="url(#paint7_linear)"/>
</g>
<path d="M8.66987 21.9492C8.66986 21.6179 8.93849 21.3492 9.26987 21.3492H14.0699C14.4013 21.3492 14.6699 21.6178 14.6699 21.9492V27.1692L13.4415 32.2112C13.376 32.48 13.1352 32.6692 12.8586 32.6692H10.4721C10.1951 32.6692 9.95407 32.4795 9.88895 32.2102L8.66994 27.1692L8.66987 21.9492Z" fill="url(#paint8_linear)"/>
<path d="M45.33 21.9492C45.33 21.6179 45.5987 21.3492 45.93 21.3492H50.7301C51.0615 21.3492 51.3301 21.6178 51.3301 21.9492V27.1692L50.1017 32.2112C50.0362 32.48 49.7954 32.6692 49.5187 32.6692H47.1323C46.8553 32.6692 46.6142 32.4795 46.5491 32.2102L45.3301 27.1692L45.33 21.9492Z" fill="url(#paint9_linear)"/>
<path d="M11.5 12.1692H20V15.6692H22.5V12.1692H36.5V15.6692H39V12.1692H48.5V20.1692H11.5V12.1692Z" fill="url(#paint10_linear)"/>
<path d="M10.6001 4.3691H20V9.1691H10.6001V4.3691Z" fill="url(#paint11_linear)"/>
<path d="M39 4.3691H49.3999V9.1691H39V4.3691Z" fill="url(#paint12_linear)"/>
<path opacity="0.2" d="M20 0.0391541V15.6692H22.5V8.16915H26V5.16915V0.0391541" stroke="black" stroke-width="0.3"/>
<path opacity="0.2" d="M22.5 7.56921C22.5 7.23784 22.7686 6.96921 23.1 6.96921H26V8.16921H22.5V7.56921Z" fill="black"/>
<path opacity="0.2" d="M39 0.0391541V15.6692H36.5V8.16915H33V5.16915V0.0391541" stroke="black" stroke-width="0.3"/>
<path opacity="0.2" d="M36.5 7.56921C36.5 7.23784 36.2314 6.96921 35.9 6.96921H33V8.16921H36.5V7.56921Z" fill="black"/>
<path d="M0 1.29919C0 0.967817 0.268629 0.699188 0.6 0.699188H3.5V4.66919H0.6C0.268629 4.66919 0 4.40056 0 4.06919V1.29919Z" fill="url(#paint13_linear)"/>
<path d="M60 1.29919C60 0.967817 59.7314 0.699188 59.4 0.699188H56.5V4.66919H59.4C59.7314 4.66919 60 4.40056 60 4.06919V1.29919Z" fill="url(#paint14_linear)"/>
<path d="M2 0.439154C2 0.21824 2.17909 0.0391541 2.4 0.0391541H57.31C57.5309 0.0391541 57.71 0.21824 57.71 0.439154V1.16916H2V0.439154Z" fill="url(#paint15_linear)"/>
<defs>
<linearGradient id="paint0_linear" x1="42.75" y1="21.3493" x2="42.75" y2="26.1692" gradientUnits="userSpaceOnUse">
<stop stop-opacity="0.3"/>
<stop offset="1" stop-opacity="0"/>
</linearGradient>
<linearGradient id="paint1_linear" x1="19.75" y1="21.3493" x2="19.75" y2="26.1692" gradientUnits="userSpaceOnUse">
<stop stop-opacity="0.3"/>
<stop offset="1" stop-opacity="0"/>
</linearGradient>
<linearGradient id="paint2_linear" x1="30.0205" y1="4.96935" x2="30.0205" y2="21.3694" gradientUnits="userSpaceOnUse">
<stop offset="0.213542" stop-color="#FAECC5"/>
<stop offset="0.375" stop-color="#D9BD6F"/>
<stop offset="0.536458" stop-color="#A4966F"/>
</linearGradient>
<linearGradient id="paint3_linear" x1="30" y1="7.66907" x2="30" y2="0.169068" gradientUnits="userSpaceOnUse">
<stop offset="0.163696" stop-color="#FEF9EE"/>
<stop offset="1" stop-color="#68592E"/>
</linearGradient>
<linearGradient id="paint4_linear" x1="53.0001" y1="3.16915" x2="53.0001" y2="11.1692" gradientUnits="userSpaceOnUse">
<stop stop-opacity="0.6"/>
<stop offset="1" stop-color="#0A0A0A" stop-opacity="0.15"/>
</linearGradient>
<linearGradient id="paint5_linear" x1="7.00049" y1="3.16916" x2="7.00049" y2="11.1692" gradientUnits="userSpaceOnUse">
<stop stop-opacity="0.6"/>
<stop offset="1" stop-color="#0A0A0A" stop-opacity="0.15"/>
</linearGradient>
<linearGradient id="paint6_linear" x1="22.5002" y1="26.1692" x2="36.5002" y2="26.1692" gradientUnits="userSpaceOnUse">
<stop stop-opacity="0.25"/>
<stop offset="0.517857" stop-opacity="0"/>
<stop offset="1" stop-opacity="0.35"/>
</linearGradient>
<linearGradient id="paint7_linear" x1="22.5" y1="26.1692" x2="36.5" y2="26.1692" gradientUnits="userSpaceOnUse">
<stop stop-opacity="0.3"/>
<stop offset="0.517857" stop-opacity="0.1"/>
<stop offset="1" stop-opacity="0.3"/>
</linearGradient>
<linearGradient id="paint8_linear" x1="8.42712" y1="26.9129" x2="14.4271" y2="26.9129" gradientUnits="userSpaceOnUse">
<stop stop-opacity="0.5"/>
<stop offset="0.517857" stop-opacity="0.15"/>
<stop offset="1" stop-opacity="0.5"/>
</linearGradient>
<linearGradient id="paint9_linear" x1="45.0873" y1="26.9129" x2="51.0873" y2="26.9129" gradientUnits="userSpaceOnUse">
<stop stop-opacity="0.5"/>
<stop offset="0.517857" stop-opacity="0.15"/>
<stop offset="1" stop-opacity="0.5"/>
</linearGradient>
<linearGradient id="paint10_linear" x1="30" y1="10.1692" x2="30" y2="20.1692" gradientUnits="userSpaceOnUse">
<stop stop-opacity="0.1"/>
<stop offset="1" stop-opacity="0"/>
</linearGradient>
<linearGradient id="paint11_linear" x1="16" y1="4.16915" x2="16" y2="8.66915" gradientUnits="userSpaceOnUse">
<stop stop-opacity="0.3"/>
<stop offset="1" stop-opacity="0"/>
</linearGradient>
<linearGradient id="paint12_linear" x1="45.3999" y1="4.16915" x2="45.3999" y2="8.66915" gradientUnits="userSpaceOnUse">
<stop stop-opacity="0.3"/>
<stop offset="1" stop-opacity="0"/>
</linearGradient>
<linearGradient id="paint13_linear" x1="8.32127e-09" y1="2.66916" x2="3.5" y2="2.66916" gradientUnits="userSpaceOnUse">
<stop stop-opacity="0.2"/>
<stop offset="1" stop-opacity="0"/>
</linearGradient>
<linearGradient id="paint14_linear" x1="60" y1="2.66916" x2="56.5" y2="2.66916" gradientUnits="userSpaceOnUse">
<stop stop-opacity="0.2"/>
<stop offset="1" stop-opacity="0"/>
</linearGradient>
<linearGradient id="paint15_linear" x1="29.855" y1="0.0391541" x2="29.855" y2="1.16916" gradientUnits="userSpaceOnUse">
<stop stop-opacity="0.26"/>
<stop offset="1" stop-opacity="0.11"/>
</linearGradient>
</defs>
</svg>
