<svg width="57" height="53" viewBox="0 0 57 53" fill="none" xmlns="http://www.w3.org/2000/svg">
<path d="M13.5 11.9H33.5L33.3696 11.3132C33.3289 11.1302 33.1666 11 32.9791 11H29.4563C29.2906 11 29.1562 10.8657 29.1562 10.7V1.75656C29.1562 1.71922 29.1493 1.6822 29.1357 1.64741L29.0745 1.49089C29.0296 1.3758 28.9187 1.30005 28.7951 1.30005H25.1581C25.0637 1.30005 24.9799 1.23962 24.95 1.15002C24.9201 1.06043 24.8363 1 24.7419 1H22.2581C22.1637 1 22.0799 1.06043 22.05 1.15002C22.0201 1.23962 21.9363 1.30005 21.8419 1.30005H18.1663C18.0628 1.30005 17.9667 1.35333 17.9119 1.44105L17.7956 1.62709C17.7658 1.67477 17.75 1.72986 17.75 1.78609V10.7C17.75 10.8657 17.6157 11 17.45 11H14.0209C13.8334 11 13.6711 11.1302 13.6304 11.3132L13.5 11.9Z" fill="white" stroke="#939393" stroke-width="2"/>
<path d="M8.69497 12.6457C8.87946 12.1947 9.31835 11.9 9.80562 11.9H37.1944C37.6816 11.9 38.1205 12.1947 38.305 12.6457L42.4014 22.6591C42.461 22.8048 42.6029 22.9 42.7603 22.9C42.9072 22.9 43.0415 22.983 43.1072 23.1144L44.5658 26.0317C44.7653 26.4306 44.4752 26.9 44.0292 26.9H2.99266C2.54143 26.9 2.25167 26.4206 2.46142 26.0211L4.01191 23.0678C4.06607 22.9646 4.17299 22.9 4.28951 22.9C4.41682 22.9 4.53149 22.823 4.5797 22.7052L8.69497 12.6457Z" fill="white" stroke="#939393" stroke-width="2"/>
<path d="M2.5 27.15C2.5 27.012 2.61193 26.9 2.75 26.9H44.0312C44.1693 26.9 44.2812 27.012 44.2812 27.15C44.2812 27.2881 44.3932 27.4 44.5312 27.4H45.4C45.7314 27.4 46 27.6687 46 28V29.3C46 29.6314 45.7314 29.9 45.4 29.9H44.6C44.2686 29.9 44 30.1687 44 30.5V34.8085C44 34.8692 43.9908 34.9295 43.9727 34.9874L41.6316 42.479C41.5533 42.7295 41.3213 42.9 41.0589 42.9H40.1C39.7686 42.9 39.5 43.1687 39.5 43.5V47.3262C39.5 47.3752 39.494 47.4241 39.4821 47.4717L38.6136 50.9455C38.5468 51.2126 38.3069 51.4 38.0315 51.4H36.4685C36.1931 51.4 35.9532 51.2126 35.8864 50.9455L35.0179 47.4717C35.006 47.4241 35 47.3752 35 47.3262V43.5C35 43.1687 34.7314 42.9 34.4 42.9H29.1C28.7686 42.9 28.5 43.1687 28.5 43.5V47.2584C28.5 47.3515 28.4783 47.4434 28.4367 47.5267L27.1658 50.0684C27.0642 50.2716 26.8564 50.4 26.6292 50.4H20.3211C20.1205 50.4 19.9332 50.2998 19.8219 50.1328L18.1008 47.5512C18.0351 47.4526 18 47.3368 18 47.2184V43.5C18 43.1687 17.7314 42.9 17.4 42.9H12.6C12.2686 42.9 12 43.1687 12 43.5V47.3262C12 47.3752 11.994 47.4241 11.9821 47.4717L11.1136 50.9455C11.0468 51.2126 10.8069 51.4 10.5315 51.4H8.96847C8.69315 51.4 8.45316 51.2126 8.38638 50.9455L7.51791 47.4717C7.50602 47.4241 7.5 47.3752 7.5 47.3262V43.5C7.5 43.1687 7.23137 42.9 6.9 42.9H5.94111C5.67868 42.9 5.4467 42.7295 5.36843 42.479L3.02731 34.9874C3.00921 34.9295 3 34.8692 3 34.8085V30.5C3 30.1687 2.73137 29.9 2.4 29.9H1.6C1.26863 29.9 1 29.6314 1 29.3V28C1 27.6687 1.26863 27.4 1.6 27.4H2.25C2.38807 27.4 2.5 27.2881 2.5 27.15Z" fill="white" stroke="#939393" stroke-width="2"/>
<path d="M25 5.90002L43 5.90002L48 11.9H56.5" stroke="#DBDBDB" stroke-linejoin="round"/>
<path d="M28 19.9L48 19.9L51 27.9H56.5" stroke="#DBDBDB" stroke-linejoin="round"/>
<path d="M29 35.9L48 35.9L51.5 44.9H56.5" stroke="#DBDBDB" stroke-linejoin="round"/>
</svg>
