<svg width="31" height="47" viewBox="0 0 31 47" fill="none" xmlns="http://www.w3.org/2000/svg">
<path d="M7.1 13.3201H3.4C2.6268 13.3201 2 13.9469 2 14.7201V17.8C2 17.9105 1.91046 18 1.8 18H0.9C0.679086 18 0.5 18.1791 0.5 18.4V36.1C0.5 36.3209 0.679086 36.5 0.9 36.5H1.80007C1.91052 36.5 2.00007 36.5895 2.00007 36.7V37.25C2.00007 37.6366 2.31347 37.95 2.70007 37.95H4.30006H5.10005C5.92847 37.95 6.60005 37.2784 6.60005 36.45V27C6.60005 26.7239 6.82391 26.5 7.10005 26.5H11C11.5523 26.5 12 26.9477 12 27.5V45.5C12 46.3284 12.6716 47 13.5 47H16.54C17.3684 47 18.04 46.3284 18.04 45.5V27.5C18.04 26.9477 18.4877 26.5 19.04 26.5H23.3C23.5762 26.5 23.8 26.7239 23.8 27V36.45C23.8 37.2784 24.4716 37.95 25.3 37.95H26.1H27.43C27.8166 37.95 28.13 37.6366 28.13 37.25V36.5H29.23C29.4509 36.5 29.63 36.3209 29.63 36.1V18.4C29.63 18.1791 29.4509 18 29.23 18H28.1333V14.7201C28.1333 13.9469 27.5065 13.3201 26.7333 13.3201H22.9083C22.7426 13.3201 22.6083 13.1858 22.6083 13.0201V1.05628C22.6083 0.97446 22.593 0.893363 22.5632 0.817164C22.4648 0.565375 22.2221 0.399667 21.9517 0.399667H17.177C17.0517 0.399667 16.9406 0.318999 16.9018 0.199834C16.8631 0.0806683 16.752 0 16.6267 0H13.4107C13.2848 0 13.1731 0.080489 13.1333 0.199834C13.0935 0.319178 12.9818 0.399667 12.856 0.399667H8.14731C7.88976 0.399667 7.65037 0.532282 7.51377 0.75062C7.43942 0.869454 7.4 1.0068 7.4 1.14698V13.0201C7.4 13.1858 7.26568 13.3201 7.1 13.3201Z" fill="#404040"/>
<path d="M7.1 13.3201H3.4C2.6268 13.3201 2 13.9469 2 14.7201V17.8C2 17.9105 1.91046 18 1.8 18H0.9C0.679086 18 0.5 18.1791 0.5 18.4V36.1C0.5 36.3209 0.679086 36.5 0.9 36.5H1.80007C1.91052 36.5 2.00007 36.5895 2.00007 36.7V37.25C2.00007 37.6366 2.31347 37.95 2.70007 37.95H4.30006H5.10005C5.92847 37.95 6.60005 37.2784 6.60005 36.45V27C6.60005 26.7239 6.82391 26.5 7.10005 26.5H11C11.5523 26.5 12 26.9477 12 27.5V45.5C12 46.3284 12.6716 47 13.5 47H16.54C17.3684 47 18.04 46.3284 18.04 45.5V27.5C18.04 26.9477 18.4877 26.5 19.04 26.5H23.3C23.5762 26.5 23.8 26.7239 23.8 27V36.45C23.8 37.2784 24.4716 37.95 25.3 37.95H26.1H27.43C27.8166 37.95 28.13 37.6366 28.13 37.25V36.5H29.23C29.4509 36.5 29.63 36.3209 29.63 36.1V18.4C29.63 18.1791 29.4509 18 29.23 18H28.1333V14.7201C28.1333 13.9469 27.5065 13.3201 26.7333 13.3201H22.9083C22.7426 13.3201 22.6083 13.1858 22.6083 13.0201V1.05628C22.6083 0.97446 22.593 0.893363 22.5632 0.817164C22.4648 0.565375 22.2221 0.399667 21.9517 0.399667H17.177C17.0517 0.399667 16.9406 0.318999 16.9018 0.199834C16.8631 0.0806683 16.752 0 16.6267 0H13.4107C13.2848 0 13.1731 0.080489 13.1333 0.199834C13.0935 0.319178 12.9818 0.399667 12.856 0.399667H8.14731C7.88976 0.399667 7.65037 0.532282 7.51377 0.75062C7.43942 0.869454 7.4 1.0068 7.4 1.14698V13.0201C7.4 13.1858 7.26568 13.3201 7.1 13.3201Z" fill="#5AA378"/>
<path d="M7.64856 0.537729C7.70362 0.451879 7.79853 0.399883 7.90052 0.39969L13.067 0.389893V2.89477C13.067 2.96289 13.0438 3.02898 13.0012 3.08217L12.7108 3.44522C12.6824 3.48068 12.667 3.52474 12.667 3.57016V6.2C12.667 6.26295 12.6966 6.32223 12.747 6.36L13.067 6.6V12.8899C13.067 13.166 12.8431 13.3899 12.567 13.3899H7.39697V1.01794C7.39697 0.960521 7.41345 0.904309 7.44445 0.855978L7.64856 0.537729Z" fill="url(#paint0_linear)"/>
<path d="M22.3753 0.537729C22.3202 0.451879 22.2253 0.399883 22.1233 0.39969L16.9569 0.389893V2.89477C16.9569 2.96289 16.9801 3.02898 17.0226 3.08217L17.3131 3.44522C17.3414 3.48068 17.3569 3.52474 17.3569 3.57016V6.2C17.3569 6.26295 17.3273 6.32223 17.2769 6.36L16.9569 6.6V12.8899C16.9569 13.166 17.1807 13.3899 17.4569 13.3899H22.6269V1.01794C22.6269 0.960521 22.6104 0.904309 22.5794 0.855978L22.3753 0.537729Z" fill="url(#paint1_linear)"/>
<path d="M13.0672 3H16.9601L17.3601 3.5V4.5H12.6671L12.6672 3.5L13.0672 3Z" fill="url(#paint2_linear)"/>
<path d="M13.0671 6.5999L16.96 6.6L17.28 6.3599C17.3304 6.32213 17.36 6.26286 17.36 6.19992V5H12.667L12.6671 6.19991C12.6671 6.26286 12.6967 6.32213 12.7471 6.3599L13.0671 6.5999Z" fill="url(#paint3_linear)"/>
<path d="M18.04 45.5V26.5H12V45.5C12 46.3284 12.6716 47 13.5 47H16.54C17.3684 47 18.04 46.3284 18.04 45.5Z" fill="url(#paint4_linear)"/>
<path d="M3 26.9C3 26.6791 3.17909 26.5 3.4 26.5H5.1C5.32091 26.5 5.5 26.6791 5.5 26.9V37.3C5.5 37.4105 5.41046 37.5 5.3 37.5H3.2C3.08954 37.5 3 37.4105 3 37.3V26.9Z" fill="url(#paint5_linear)"/>
<path d="M24.8 26.9C24.8 26.6791 24.9791 26.5 25.2 26.5H26.9C27.1209 26.5 27.3 26.6791 27.3 26.9V37.3C27.3 37.4105 27.2104 37.5 27.1 37.5H25C24.8895 37.5 24.8 37.4105 24.8 37.3V26.9Z" fill="url(#paint6_linear)"/>
<path d="M7.4 13.3201H3.5C2.67158 13.3201 2.00003 13.9917 2.00007 14.8201H28.1333C28.1333 13.9916 27.4618 13.3201 26.6333 13.3201H22.6083H7.4Z" fill="url(#paint7_linear)"/>
<path d="M0.9 36.5H2.00007L2 18H0.9C0.679086 18 0.5 18.1791 0.5 18.4V36.1C0.5 36.3209 0.679086 36.5 0.9 36.5Z" fill="url(#paint8_linear)"/>
<path d="M29.23 36.5H28.1299L28.13 18H29.23C29.4509 18 29.63 18.1791 29.63 18.4V36.1C29.63 36.3209 29.4509 36.5 29.23 36.5Z" fill="url(#paint9_linear)"/>
<defs>
<linearGradient id="paint0_linear" x1="14.5669" y1="9.5" x2="7.56689" y2="9" gradientUnits="userSpaceOnUse">
<stop offset="0.276042" stop-opacity="0.24"/>
<stop offset="0.828125" stop-opacity="0.05"/>
</linearGradient>
<linearGradient id="paint1_linear" x1="15.457" y1="9.5" x2="22.457" y2="9" gradientUnits="userSpaceOnUse">
<stop offset="0.447917" stop-opacity="0.15"/>
<stop offset="0.880208" stop-opacity="0.04"/>
</linearGradient>
<linearGradient id="paint2_linear" x1="15.067" y1="3" x2="15.067" y2="4" gradientUnits="userSpaceOnUse">
<stop stop-opacity="0.3"/>
<stop offset="1" stop-opacity="0"/>
</linearGradient>
<linearGradient id="paint3_linear" x1="15.0669" y1="6.4999" x2="15.0669" y2="5.4999" gradientUnits="userSpaceOnUse">
<stop stop-color="white" stop-opacity="0.1"/>
<stop offset="0.375" stop-color="white" stop-opacity="0"/>
</linearGradient>
<linearGradient id="paint4_linear" x1="12" y1="37" x2="18" y2="37" gradientUnits="userSpaceOnUse">
<stop offset="0.177083" stop-color="#2F2F2F" stop-opacity="0.25"/>
<stop offset="0.496795" stop-color="#434343" stop-opacity="0"/>
<stop offset="0.796875" stop-color="#2F2F2F" stop-opacity="0.25"/>
</linearGradient>
<linearGradient id="paint5_linear" x1="3" y1="32.5" x2="5.5" y2="32.5" gradientUnits="userSpaceOnUse">
<stop offset="0.635417" stop-color="#2F2F2F" stop-opacity="0.3"/>
<stop offset="0.916667" stop-color="#505050" stop-opacity="0.1"/>
</linearGradient>
<linearGradient id="paint6_linear" x1="24.8" y1="32.5" x2="27.3" y2="32.5" gradientUnits="userSpaceOnUse">
<stop offset="0.635417" stop-color="#2F2F2F" stop-opacity="0.3"/>
<stop offset="0.916667" stop-color="#505050" stop-opacity="0.1"/>
</linearGradient>
<linearGradient id="paint7_linear" x1="15.2" y1="13.3201" x2="15.2" y2="15.8748" gradientUnits="userSpaceOnUse">
<stop stop-color="#404040" stop-opacity="0.15"/>
<stop offset="0.078125" stop-color="#323232" stop-opacity="0.5"/>
<stop offset="0.442708" stop-color="#404040" stop-opacity="0"/>
</linearGradient>
<linearGradient id="paint8_linear" x1="0.5" y1="26.5" x2="2" y2="26.5" gradientUnits="userSpaceOnUse">
<stop offset="0.296875" stop-color="#404040" stop-opacity="0"/>
<stop offset="0.713542" stop-color="#404040" stop-opacity="0.2"/>
<stop offset="1" stop-color="#404040" stop-opacity="0.3"/>
</linearGradient>
<linearGradient id="paint9_linear" x1="29.63" y1="26.5" x2="28.13" y2="26.5" gradientUnits="userSpaceOnUse">
<stop offset="0.296875" stop-color="#404040" stop-opacity="0"/>
<stop offset="0.713542" stop-color="#404040" stop-opacity="0.2"/>
<stop offset="1" stop-color="#404040" stop-opacity="0.3"/>
</linearGradient>
</defs>
</svg>
