<svg width="18" height="18" viewBox="0 0 18 18" fill="none" xmlns="http://www.w3.org/2000/svg">
<path d="M15.9362 2.41705C15.6864 2.08642 15.2125 2.01662 14.8782 2.26276C14.5439 2.50889 14.4741 2.97545 14.7239 3.30608C17.1044 6.46174 17.1044 11.5938 14.7239 14.7495C14.4741 15.0801 14.5366 15.554 14.8782 15.7928C15.297 16.083 15.7893 15.8369 15.9362 15.6385C18.6878 11.9979 18.6878 6.06499 15.9362 2.41705Z" fill="#484848"/>
<path d="M14.0959 4.85628C13.8461 4.52566 13.3722 4.45953 13.0379 4.70199C12.7036 4.94813 12.6338 5.41468 12.8836 5.74531C14.2281 7.52336 14.2281 10.5321 12.8836 12.3101C12.6338 12.6408 12.6999 13.111 13.0379 13.3534C13.4677 13.6584 13.949 13.3975 14.0959 13.1992C15.8629 10.8627 15.8629 7.1964 14.0959 4.85628Z" fill="#666666"/>
<path d="M10.3193 15.6976L5.02188 11.5684V6.49142L10.3193 2.36591V15.6976ZM3.50834 11.1864H1.51355V6.86246H3.50834V11.1864ZM10.6609 0.158048L4.04469 5.37096H0.756773C0.337976 5.37096 0 5.70526 0 6.11671V11.9284C0 12.3399 0.337976 12.6742 0.756773 12.6742H4.10714L10.6609 17.843C11.1312 18.2141 11.8328 17.8834 11.8328 17.2883V0.71277C11.8328 0.117638 11.1348 -0.216665 10.6609 0.158048Z" fill="#939393"/>
<rect y="16.1467" width="22.8347" height="2.62116" rx="1.31058" transform="rotate(-45 0 16.1467)" fill="#CF3947"/>
</svg>
