<svg width="26" height="18" viewBox="0 0 26 18" fill="none" xmlns="http://www.w3.org/2000/svg">
<g clip-path="url(#clip0)">
<path d="M23.5501 0.12085H2.19719C1.11713 0.254048 0.257095 1.08866 0.0915527 2.16423V15.2448C0.272412 16.432 1.2929 17.3094 2.49381 17.3101H23.2535C24.5964 17.3101 25.6851 16.2215 25.6851 14.8786V2.53409C25.685 1.30595 24.7691 0.270668 23.5501 0.12085Z" fill="#4658A9"/>
<path d="M9.1946 0.105072H2.45657C1.12369 0.119124 0.0505851 1.20366 0.0506592 2.53662V8.87916H9.20559L9.1946 0.105072Z" fill="#4658A9"/>
<path d="M3.91038 6.47803V8.88028H5.33855V6.4231L7.79573 8.88028H9.1946V7.78169L6.63122 5.21831H9.1946V3.75352H6.63122L9.1946 1.19014V0.0915527H7.79207L5.33855 2.54507V0.0915527H3.91038V2.49381L1.6546 0.238032C1.08213 0.445474 0.607959 0.859557 0.325307 1.39888L2.67263 3.7462H0.0506592V5.21099H2.67263L0.0506592 7.83296V8.8693H1.51545L3.91038 6.47803Z" fill="white"/>
<path d="M4.27719 5.47352V8.88282H4.97296V5.41859L8.42254 8.87916H9.18423V8.42141L5.60282 4.84H9.18423V4.13324H5.60282L9.18423 0.551833V0.105072H8.42254L4.96197 3.56563V0.105072H4.2662V3.51071L1.21578 0.456621C0.969103 0.606273 0.750895 0.798445 0.571269 1.02423L3.68028 4.13324H0.0439453V4.84732H3.68028L0.0439453 8.48366V8.88282H0.860565L4.27719 5.47352Z" fill="#EC5463"/>
<path d="M15.318 4.82282C15.2009 4.90704 15.1313 4.85943 15.1679 4.71662L15.2961 4.19296C15.3254 4.03647 15.2745 3.87568 15.1606 3.76451L14.7944 3.43127C14.6845 3.33606 14.7138 3.25549 14.8566 3.25183H15.3913C15.5443 3.23946 15.6753 3.13725 15.7245 2.99183L15.893 2.4169C15.9333 2.27775 16.0065 2.27408 16.0541 2.4169L16.2555 2.98084C16.3169 3.12952 16.4609 3.22741 16.6217 3.22986H17.1673C17.3102 3.22986 17.3394 3.31042 17.2296 3.40563L16.8158 3.77183C16.7034 3.88224 16.6563 4.04301 16.6913 4.19662L16.8231 4.65803C16.8634 4.79718 16.7975 4.84845 16.673 4.77521L16.2299 4.50056C16.0957 4.42038 15.9283 4.42038 15.7941 4.50056L15.318 4.82282Z" fill="white"/>
<path d="M19.7125 6.2876C19.5953 6.37182 19.5257 6.32422 19.5623 6.1814L19.6905 5.65774C19.7198 5.50125 19.669 5.34046 19.555 5.22929L19.1888 4.89605C19.0789 4.80084 19.1082 4.72027 19.251 4.71661H19.7857C19.9387 4.70424 20.0697 4.60203 20.1189 4.45661L20.2874 3.88168C20.3277 3.74253 20.4009 3.73887 20.4485 3.88168L20.6499 4.44563C20.7113 4.5943 20.8553 4.6922 21.0161 4.69464H21.5617C21.7046 4.69464 21.7339 4.7752 21.624 4.87042L21.2102 5.23661C21.0978 5.34702 21.0507 5.50779 21.0857 5.6614L21.2175 6.12281C21.2578 6.26196 21.1919 6.31323 21.0674 6.23999L20.6243 5.96535C20.4901 5.88516 20.3227 5.88516 20.1885 5.96535L19.7125 6.2876Z" fill="white"/>
<path d="M13.1209 8.85098C13.0037 8.93521 12.9341 8.8876 12.9708 8.74479L13.0989 8.22113C13.1282 8.06464 13.0774 7.90385 12.9634 7.79268L12.5972 7.45944C12.4874 7.36422 12.5167 7.28366 12.6595 7.28H13.1941C13.3472 7.26763 13.4782 7.16542 13.5274 7.02L13.6958 6.44507C13.7361 6.30591 13.8093 6.30225 13.857 6.44507L14.0584 7.00901C14.1198 7.15769 14.2637 7.25558 14.4246 7.25803H14.9702C15.113 7.25803 15.1423 7.33859 15.0324 7.4338L14.6186 7.8C14.5063 7.91041 14.4591 8.07118 14.4941 8.22479L14.626 8.6862C14.6662 8.82535 14.6003 8.87662 14.4758 8.80338L14.0327 8.52873C13.8985 8.44855 13.7311 8.44855 13.597 8.52873L13.1209 8.85098Z" fill="white"/>
<path d="M4.13431 14.6992C3.98417 14.8054 3.89629 14.7468 3.94023 14.5637L4.10136 13.8899C4.1382 13.6889 4.07225 13.4828 3.92558 13.3406L3.43122 12.9121C3.29206 12.7913 3.32868 12.6887 3.51178 12.6814L4.20389 12.6631C4.40174 12.6488 4.57187 12.5176 4.63601 12.3299L4.85206 11.5975C4.90333 11.418 4.99854 11.4144 5.06079 11.5975L5.32079 12.3299C5.39648 12.515 5.5716 12.6402 5.77122 12.6521H6.47432C6.65741 12.6521 6.6977 12.7547 6.55854 12.8792L6.02389 13.3479C5.87767 13.4901 5.81655 13.6985 5.86277 13.8972L6.03488 14.4904C6.08615 14.6699 5.99826 14.7358 5.84079 14.6369L5.26953 14.2707C5.09659 14.1691 4.88218 14.1691 4.70924 14.2707L4.13431 14.6992Z" fill="white"/>
<path d="M18.4344 10.693C18.3502 10.7516 18.3026 10.7186 18.3245 10.6197L18.4161 10.2535C18.4357 10.1421 18.3986 10.0282 18.3172 9.94958L18.0426 9.71155C17.9657 9.64564 17.984 9.58705 18.0865 9.58339H18.4527C18.5623 9.57438 18.6559 9.50091 18.6907 9.39662L18.8116 8.98648C18.8409 8.88761 18.8922 8.88395 18.9288 8.98648L19.0753 9.3893C19.1171 9.49184 19.2138 9.56152 19.3243 9.56874H19.7161C19.8186 9.56874 19.8406 9.62733 19.7637 9.69324L19.4671 9.95324C19.3983 10.0371 19.3762 10.15 19.4085 10.2535L19.5037 10.5831C19.533 10.682 19.4854 10.7186 19.3975 10.6673L19.0789 10.4696C18.9828 10.4132 18.8637 10.4132 18.7676 10.4696L18.4344 10.693Z" fill="white"/>
</g>
<defs>
<clipPath id="clip0">
<path d="M0 0H26V17.5775H0V0Z" fill="white"/>
</clipPath>
</defs>
</svg>
