<svg width="26" height="18" viewBox="0 0 26 18" fill="none" xmlns="http://www.w3.org/2000/svg">
<g clip-path="url(#clip0)">
<path d="M23.6343 0.241686H2.66222C2.57562 0.236897 2.48882 0.236897 2.40222 0.241686H23.898C23.8102 0.236761 23.7221 0.236761 23.6343 0.241686Z" fill="white"/>
<path d="M2.66222 17.453H23.6343C23.7209 17.4578 23.8077 17.4578 23.8943 17.453H2.40222C2.48882 17.4578 2.57562 17.4578 2.66222 17.453Z" fill="white"/>
<path d="M25.9561 15.2924H0.322266C0.40334 16.4107 1.26977 17.3125 2.38396 17.4383H23.8797C24.9997 17.3191 25.8738 16.4156 25.9561 15.2924Z" fill="white"/>
<path d="M0.32959 15.1239V15.2924C0.336914 15.2375 0.32959 15.1789 0.32959 15.1239Z" fill="#ED5565"/>
<path d="M0.32959 15.1239C0.32959 15.1789 0.32959 15.2375 0.32959 15.2924H25.9634C25.9634 15.2375 25.9634 15.1825 25.9634 15.1239V13.1428H0.32959V15.1239Z" fill="#ED5565"/>
<path d="M25.9634 10.9969H0.32959V13.1428H25.9634V10.9969Z" fill="white"/>
<path d="M25.9634 8.84732H0.32959V10.9932H25.9634V8.84732Z" fill="#ED5565"/>
<path d="M25.9634 6.7014H0.32959V8.84732H25.9634V6.7014Z" fill="white"/>
<path d="M25.9634 4.55183H0.32959V6.69774H25.9634V4.55183Z" fill="#ED5565"/>
<path d="M25.9634 2.56338V2.39493C25.9598 2.46084 25.9634 2.51577 25.9634 2.56338Z" fill="white"/>
<path d="M0.340576 2.40591C0.340576 2.46084 0.340576 2.51577 0.340576 2.57436V4.55549H25.9744V2.56338C25.9744 2.50845 25.9744 2.44985 25.9744 2.39493L0.340576 2.40591Z" fill="white"/>
<path d="M0.340576 2.40591H25.9744C25.8933 1.28758 25.0269 0.385759 23.9127 0.259995H2.40227C1.28808 0.385759 0.421651 1.28758 0.340576 2.40591Z" fill="#ED5565"/>
<path d="M11.0702 0.259995H2.40227C1.22675 0.390153 0.335423 1.38069 0.32959 2.56338V10.9859H11.0665L11.0702 0.259995Z" fill="#4758A9"/>
<path d="M6.98339 6.86253C6.85156 6.94676 6.78198 6.89549 6.82226 6.74535L6.97973 6.19239C7.01791 6.02681 6.96967 5.85315 6.85156 5.73098L6.45241 5.36478C6.33888 5.25859 6.37184 5.17436 6.52931 5.17436H7.1079C7.27104 5.1657 7.41414 5.06267 7.4741 4.9107L7.67917 4.30647C7.73043 4.16 7.80734 4.16 7.85494 4.30647L8.04903 4.91802C8.10709 5.07434 8.24926 5.18381 8.41522 5.2L9.0048 5.22563C9.1586 5.22563 9.1879 5.31718 9.06705 5.41605L8.60198 5.78225C8.47594 5.89536 8.41887 6.06655 8.45184 6.23267L8.57635 6.7307C8.61297 6.88084 8.53973 6.93211 8.4079 6.84788L7.93917 6.53662C7.79321 6.45147 7.61273 6.45147 7.46677 6.53662L6.98339 6.86253ZM7.21043 7.88422C7.08308 7.94633 6.9508 7.99778 6.81494 8.03802C6.18559 8.2256 5.5075 8.15542 4.92991 7.84293C4.35231 7.53044 3.92256 7.00125 3.73522 6.37183C3.59913 5.87374 3.61186 5.34671 3.77184 4.85577C4.21392 3.55107 5.61959 2.8409 6.93212 3.25915C7.06581 3.30186 7.19566 3.35576 7.32029 3.42028C7.36461 3.43258 7.41092 3.40862 7.42649 3.36535C7.43779 3.32981 7.42438 3.29108 7.39353 3.27014C7.0793 2.99787 6.71301 2.79231 6.31691 2.66591C4.66795 2.14131 2.90257 3.03377 2.34734 4.67267C1.97715 5.77029 2.25179 6.98276 3.05883 7.81372C3.86587 8.64467 5.0698 8.9546 6.17776 8.61662C6.5784 8.49958 6.95182 8.30416 7.27635 8.04169C7.30857 8.02179 7.32356 7.98284 7.31297 7.94648C7.3005 7.90224 7.25487 7.87617 7.21043 7.88788V7.88422ZM7.94283 7.07126C7.89156 7.21774 7.80367 7.2214 7.74508 7.07126L7.52903 6.53662C7.45657 6.38383 7.31202 6.27783 7.14452 6.25464L6.60255 6.2107C6.44874 6.2107 6.42311 6.11183 6.54396 6.01662L7.0017 5.65042C7.12941 5.54338 7.18123 5.37064 7.13353 5.21098L6.92114 4.60676C6.86987 4.46028 6.92114 4.41267 7.06029 4.50056L7.59128 4.86676C7.73246 4.95486 7.9115 4.95486 8.05269 4.86676L8.53607 4.52253C8.66057 4.43098 8.73748 4.48225 8.70086 4.63239L8.56536 5.21464C8.53554 5.3809 8.59535 5.55059 8.72283 5.6614L9.12564 5.97633C9.24649 6.07155 9.22086 6.15943 9.06705 6.17042L8.50677 6.21436C8.34196 6.23886 8.20255 6.349 8.14057 6.50366L7.94283 7.07126Z" fill="#FFCE54"/>
</g>
<defs>
<clipPath id="clip0">
<rect width="26" height="17.5775" fill="white"/>
</clipPath>
</defs>
</svg>
