<svg width="26" height="18" viewBox="0 0 26 18" fill="none" xmlns="http://www.w3.org/2000/svg">
<g clip-path="url(#clip0)">
<path d="M2.5634 17.4346H23.7186C24.5617 17.3672 25.3092 16.8666 25.6924 16.1127H0.585938C0.969857 16.8677 1.71899 17.3685 2.5634 17.4346Z" fill="#ED5565"/>
<path d="M0.333252 14.787V15.2777C0.365347 15.5676 0.449715 15.8492 0.582266 16.109H25.6851C25.8176 15.8492 25.902 15.5676 25.9341 15.2777V14.787H0.333252Z" fill="white"/>
<path d="M25.9378 13.4651H0.333252V14.787H25.9378V13.4651Z" fill="#ED5565"/>
<path d="M25.9378 12.1431H0.333252V13.465H25.9378V12.1431Z" fill="white"/>
<path d="M25.9378 10.8211H0.333252V12.1431H25.9378V10.8211Z" fill="#ED5565"/>
<path d="M25.9378 9.49915H0.333252V10.8211H25.9378V9.49915Z" fill="white"/>
<path d="M25.9378 8.17715H0.333252V9.49913H25.9378V8.17715Z" fill="#ED5565"/>
<path d="M25.9378 6.85519H0.333252V8.17717H25.9378V6.85519Z" fill="white"/>
<path d="M25.9378 5.5332H0.333252V6.85517H25.9378V5.5332Z" fill="#ED5565"/>
<path d="M25.9378 4.20758H0.333252V5.52955H25.9378V4.20758Z" fill="white"/>
<path d="M25.9378 2.88562H0.333252V4.20759H25.9378V2.88562Z" fill="#ED5565"/>
<path d="M25.9378 2.8856V2.3949C25.9061 2.10378 25.8217 1.82086 25.6887 1.55997H0.585928C0.452955 1.82086 0.368575 2.10378 0.336914 2.3949V2.8856H25.9378Z" fill="white"/>
<path d="M23.715 0.241669H2.5634C1.72033 0.309067 0.972851 0.809701 0.5896 1.56364H25.6924C25.3085 0.808647 24.5594 0.307837 23.715 0.241669Z" fill="#ED5565"/>
<path d="M12.4837 9.49914V0.241669H2.56339C1.40115 0.334713 0.468555 1.23966 0.340576 2.39857V9.49914H12.4837Z" fill="#4A89DC"/>
<path d="M1.83836 1.36224L1.73949 1.66985H1.41724L1.67724 1.85661L1.57836 2.16422L1.83836 1.97379L2.09836 2.16422L1.99949 1.85661L2.25949 1.66985H1.93724L1.83836 1.36224Z" fill="white"/>
<path d="M1.83836 2.91492L1.73949 3.22252H1.41724L1.67724 3.41295L1.57836 3.71689L1.83836 3.53013L2.09836 3.71689L1.99949 3.41295L2.25949 3.22252H1.93724L1.83836 2.91492Z" fill="white"/>
<path d="M1.83836 4.46759L1.73949 4.7752H1.41724L1.67724 4.96562L1.57836 5.27322L1.83836 5.0828L2.09836 5.27322L1.99949 4.96562L2.25949 4.7752H1.93724L1.83836 4.46759Z" fill="white"/>
<path d="M1.83836 6.02393L1.73949 6.32787H1.41724L1.67724 6.51829L1.57836 6.8259L1.83836 6.63548L2.09836 6.8259L1.99949 6.51829L2.25949 6.32787H1.93724L1.83836 6.02393Z" fill="white"/>
<path d="M1.93724 7.88054L1.83836 7.5766L1.73949 7.88054H1.41724L1.67724 8.07097L1.57836 8.37857L1.83836 8.18815L2.09836 8.37857L1.99949 8.07097L2.25949 7.88054H1.93724Z" fill="white"/>
<path d="M2.75023 2.13858L2.65136 2.44619H2.3291L2.5891 2.63661L2.49023 2.94055L2.75023 2.75013L3.01389 2.94055L2.91502 2.63661L3.17502 2.44619H2.85276L2.75023 2.13858Z" fill="white"/>
<path d="M2.75023 3.69122L2.65136 3.99883H2.3291L2.5891 4.18925L2.49023 4.4932L2.75023 4.30644L3.01389 4.4932L2.91502 4.18925L3.17502 3.99883H2.85276L2.75023 3.69122Z" fill="white"/>
<path d="M2.75023 5.24759L2.65136 5.55153H2.3291L2.5891 5.74196L2.49023 6.04956L2.75023 5.85914L3.01389 6.04956L2.91502 5.74196L3.17502 5.55153H2.85276L2.75023 5.24759Z" fill="white"/>
<path d="M2.85276 7.10421L2.75023 6.80026L2.65136 7.10421H2.3291L2.5891 7.29463L2.49023 7.60223L2.75023 7.41181L3.01389 7.60223L2.91502 7.29463L3.17502 7.10421H2.85276Z" fill="white"/>
<path d="M3.66563 1.36224L3.56676 1.66985H3.24451L3.50451 1.85661L3.40563 2.16422L3.66563 1.97379L3.92563 2.16422L3.82676 1.85661L4.08676 1.66985H3.76451L3.66563 1.36224Z" fill="white"/>
<path d="M3.66563 2.91492L3.56676 3.22252H3.24451L3.50451 3.41295L3.40563 3.71689L3.66563 3.53013L3.92563 3.71689L3.82676 3.41295L4.08676 3.22252H3.76451L3.66563 2.91492Z" fill="white"/>
<path d="M3.66563 4.46759L3.56676 4.7752H3.24451L3.50451 4.96562L3.40563 5.27322L3.66563 5.0828L3.92563 5.27322L3.82676 4.96562L4.08676 4.7752H3.76451L3.66563 4.46759Z" fill="white"/>
<path d="M3.66563 6.02393L3.56676 6.32787H3.24451L3.50451 6.51829L3.40563 6.8259L3.66563 6.63548L3.92563 6.8259L3.82676 6.51829L4.08676 6.32787H3.76451L3.66563 6.02393Z" fill="white"/>
<path d="M3.76451 7.88054L3.66563 7.5766L3.56676 7.88054H3.24451L3.50451 8.07097L3.40563 8.37857L3.66563 8.18815L3.92563 8.37857L3.82676 8.07097L4.08676 7.88054H3.76451Z" fill="white"/>
<path d="M4.5775 2.13858L4.47863 2.44619H4.15637L4.41637 2.63661L4.3175 2.94055L4.5775 2.75013L4.84116 2.94055L4.74229 2.63661L5.00229 2.44619H4.68003L4.5775 2.13858Z" fill="white"/>
<path d="M4.5775 3.69122L4.47863 3.99883H4.15637L4.41637 4.18925L4.3175 4.4932L4.5775 4.30644L4.84116 4.4932L4.74229 4.18925L5.00229 3.99883H4.68003L4.5775 3.69122Z" fill="white"/>
<path d="M4.5775 5.24759L4.47863 5.55153H4.15637L4.41637 5.74196L4.3175 6.04956L4.5775 5.85914L4.84116 6.04956L4.74229 5.74196L5.00229 5.55153H4.68003L4.5775 5.24759Z" fill="white"/>
<path d="M4.68003 7.10421L4.5775 6.80026L4.47863 7.10421H4.15637L4.41637 7.29463L4.3175 7.60223L4.5775 7.41181L4.84116 7.60223L4.74229 7.29463L5.00229 7.10421H4.68003Z" fill="white"/>
<path d="M5.49303 1.36224L5.39415 1.66985H5.0719L5.3319 1.85661L5.23303 2.16422L5.49303 1.97379L5.75303 2.16422L5.65415 1.85661L5.91415 1.66985H5.5919L5.49303 1.36224Z" fill="white"/>
<path d="M5.49303 2.91492L5.39415 3.22252H5.0719L5.3319 3.41295L5.23303 3.71689L5.49303 3.53013L5.75303 3.71689L5.65415 3.41295L5.91415 3.22252H5.5919L5.49303 2.91492Z" fill="white"/>
<path d="M5.49303 4.46759L5.39415 4.7752H5.0719L5.3319 4.96562L5.23303 5.27322L5.49303 5.0828L5.75303 5.27322L5.65415 4.96562L5.91415 4.7752H5.5919L5.49303 4.46759Z" fill="white"/>
<path d="M5.49303 6.02393L5.39415 6.32787H5.0719L5.3319 6.51829L5.23303 6.8259L5.49303 6.63548L5.75303 6.8259L5.65415 6.51829L5.91415 6.32787H5.5919L5.49303 6.02393Z" fill="white"/>
<path d="M5.5919 7.88054L5.49303 7.5766L5.39415 7.88054H5.0719L5.3319 8.07097L5.23303 8.37857L5.49303 8.18815L5.75303 8.37857L5.65415 8.07097L5.91415 7.88054H5.5919Z" fill="white"/>
<path d="M6.40477 2.13858L6.3059 2.44619H5.98364L6.24364 2.63661L6.14477 2.94055L6.40477 2.75013L6.66843 2.94055L6.5659 2.63661L6.82956 2.44619H6.50731L6.40477 2.13858Z" fill="white"/>
<path d="M6.40477 3.69122L6.3059 3.99883H5.98364L6.24364 4.18925L6.14477 4.4932L6.40477 4.30644L6.66843 4.4932L6.5659 4.18925L6.82956 3.99883H6.50731L6.40477 3.69122Z" fill="white"/>
<path d="M6.40477 5.24759L6.3059 5.55153H5.98364L6.24364 5.74196L6.14477 6.04956L6.40477 5.85914L6.66843 6.04956L6.5659 5.74196L6.82956 5.55153H6.50731L6.40477 5.24759Z" fill="white"/>
<path d="M6.50731 7.10421L6.40477 6.80026L6.3059 7.10421H5.98364L6.24364 7.29463L6.14477 7.60223L6.40477 7.41181L6.66843 7.60223L6.5659 7.29463L6.82956 7.10421H6.50731Z" fill="white"/>
<path d="M7.3203 1.36224L7.22142 1.66985H6.89917L7.15917 1.85661L7.0603 2.16422L7.3203 1.97379L7.5803 2.16422L7.48142 1.85661L7.74143 1.66985H7.41917L7.3203 1.36224Z" fill="white"/>
<path d="M7.3203 2.91492L7.22142 3.22252H6.89917L7.15917 3.41295L7.0603 3.71689L7.3203 3.53013L7.5803 3.71689L7.48142 3.41295L7.74143 3.22252H7.41917L7.3203 2.91492Z" fill="white"/>
<path d="M7.3203 4.46759L7.22142 4.7752H6.89917L7.15917 4.96562L7.0603 5.27322L7.3203 5.0828L7.5803 5.27322L7.48142 4.96562L7.74143 4.7752H7.41917L7.3203 4.46759Z" fill="white"/>
<path d="M7.3203 6.02393L7.22142 6.32787H6.89917L7.15917 6.51829L7.0603 6.8259L7.3203 6.63548L7.5803 6.8259L7.48142 6.51829L7.74143 6.32787H7.41917L7.3203 6.02393Z" fill="white"/>
<path d="M7.41917 7.88054L7.3203 7.5766L7.22142 7.88054H6.89917L7.15917 8.07097L7.0603 8.37857L7.3203 8.18815L7.5803 8.37857L7.48142 8.07097L7.74143 7.88054H7.41917Z" fill="white"/>
<path d="M8.23204 2.13858L8.13317 2.44619H7.81091L8.07091 2.63661L7.97204 2.94055L8.23204 2.75013L8.4957 2.94055L8.39317 2.63661L8.65683 2.44619H8.33457L8.23204 2.13858Z" fill="white"/>
<path d="M8.23204 3.69122L8.13317 3.99883H7.81091L8.07091 4.18925L7.97204 4.4932L8.23204 4.30644L8.4957 4.4932L8.39317 4.18925L8.65683 3.99883H8.33457L8.23204 3.69122Z" fill="white"/>
<path d="M8.23204 5.24759L8.13317 5.55153H7.81091L8.07091 5.74196L7.97204 6.04956L8.23204 5.85914L8.4957 6.04956L8.39317 5.74196L8.65683 5.55153H8.33457L8.23204 5.24759Z" fill="white"/>
<path d="M8.33457 7.10421L8.23204 6.80026L8.13317 7.10421H7.81091L8.07091 7.29463L7.97204 7.60223L8.23204 7.41181L8.4957 7.60223L8.39317 7.29463L8.65683 7.10421H8.33457Z" fill="white"/>
<path d="M9.14757 1.36224L9.04869 1.66985H8.72644L8.98644 1.85661L8.88757 2.16422L9.14757 1.97379L9.40757 2.16422L9.30869 1.85661L9.56869 1.66985H9.24644L9.14757 1.36224Z" fill="white"/>
<path d="M9.14757 2.91492L9.04869 3.22252H8.72644L8.98644 3.41295L8.88757 3.71689L9.14757 3.53013L9.40757 3.71689L9.30869 3.41295L9.56869 3.22252H9.24644L9.14757 2.91492Z" fill="white"/>
<path d="M9.14757 4.46759L9.04869 4.7752H8.72644L8.98644 4.96562L8.88757 5.27322L9.14757 5.0828L9.40757 5.27322L9.30869 4.96562L9.56869 4.7752H9.24644L9.14757 4.46759Z" fill="white"/>
<path d="M9.14757 6.02393L9.04869 6.32787H8.72644L8.98644 6.51829L8.88757 6.8259L9.14757 6.63548L9.40757 6.8259L9.30869 6.51829L9.56869 6.32787H9.24644L9.14757 6.02393Z" fill="white"/>
<path d="M9.24644 7.88054L9.14757 7.5766L9.04869 7.88054H8.72644L8.98644 8.07097L8.88757 8.37857L9.14757 8.18815L9.40757 8.37857L9.30869 8.07097L9.56869 7.88054H9.24644Z" fill="white"/>
<path d="M10.0594 2.13858L9.96056 2.44619H9.63831L9.89831 2.63661L9.79943 2.94055L10.0594 2.75013L10.3231 2.94055L10.2206 2.63661L10.4842 2.44619H10.162L10.0594 2.13858Z" fill="white"/>
<path d="M10.0594 3.69122L9.96056 3.99883H9.63831L9.89831 4.18925L9.79943 4.4932L10.0594 4.30644L10.3231 4.4932L10.2206 4.18925L10.4842 3.99883H10.162L10.0594 3.69122Z" fill="white"/>
<path d="M10.0594 5.24759L9.96056 5.55153H9.63831L9.89831 5.74196L9.79943 6.04956L10.0594 5.85914L10.3231 6.04956L10.2206 5.74196L10.4842 5.55153H10.162L10.0594 5.24759Z" fill="white"/>
<path d="M10.162 7.10421L10.0594 6.80026L9.96056 7.10421H9.63831L9.89831 7.29463L9.79943 7.60223L10.0594 7.41181L10.3231 7.60223L10.2206 7.29463L10.4842 7.10421H10.162Z" fill="white"/>
<path d="M10.8138 1.85661L10.715 2.16422L10.975 1.97379L11.235 2.16422L11.1361 1.85661L11.3961 1.66985H11.0738L10.975 1.36224L10.8761 1.66985H10.5538L10.8138 1.85661Z" fill="white"/>
<path d="M10.975 2.91492L10.8761 3.22252H10.5538L10.8138 3.41295L10.715 3.71689L10.975 3.53013L11.235 3.71689L11.1361 3.41295L11.3961 3.22252H11.0738L10.975 2.91492Z" fill="white"/>
<path d="M10.975 4.46759L10.8761 4.7752H10.5538L10.8138 4.96562L10.715 5.27322L10.975 5.0828L11.235 5.27322L11.1361 4.96562L11.3961 4.7752H11.0738L10.975 4.46759Z" fill="white"/>
<path d="M10.975 6.02393L10.8761 6.32787H10.5538L10.8138 6.51829L10.715 6.8259L10.975 6.63548L11.235 6.8259L11.1361 6.51829L11.3961 6.32787H11.0738L10.975 6.02393Z" fill="white"/>
<path d="M11.0738 7.88054L10.975 7.5766L10.8761 7.88054H10.5538L10.8138 8.07097L10.715 8.37857L10.975 8.18815L11.235 8.37857L11.1361 8.07097L11.3961 7.88054H11.0738Z" fill="white"/>
</g>
<defs>
<clipPath id="clip0">
<path d="M0 0H26V17.5775H0V0Z" fill="white"/>
</clipPath>
</defs>
</svg>
