<svg width="26" height="18" viewBox="0 0 26 18" fill="none" xmlns="http://www.w3.org/2000/svg">
<path d="M25.9634 4.86311H0.329559V12.5533H25.9634V4.86311Z" fill="white"/>
<path d="M23.6343 0.102542H2.66224C1.37596 0.102542 0.333221 1.14528 0.333221 2.43155V4.8631H25.967L25.967 2.43522C25.968 1.81625 25.7225 1.22236 25.2849 0.784691C24.8472 0.347018 24.2533 0.101568 23.6343 0.102542Z" fill="#8CBAE2"/>
<path d="M0.329559 14.9848C0.329559 16.2711 1.37229 17.3138 2.65857 17.3138H23.6307C24.917 17.3138 25.9597 16.2711 25.9597 14.9848V12.5533H0.325897L0.329559 14.9848Z" fill="#8CBAE2"/>
<path d="M15.4389 9.44422C15.4434 9.33038 15.4734 9.21901 15.5268 9.11831L15.6769 8.85831C15.7245 8.76389 15.7245 8.65245 15.6769 8.55803L15.5231 8.2907C15.4702 8.18982 15.4402 8.07856 15.4352 7.96479V7.65718C15.4292 7.5516 15.3735 7.45512 15.2851 7.39718L15.0251 7.2507C14.929 7.19001 14.8477 7.1087 14.787 7.01267L14.6369 6.75267C14.579 6.66421 14.4825 6.60849 14.3769 6.60253H14.0656C13.9519 6.5975 13.8406 6.56749 13.7397 6.51465L13.4724 6.36084C13.378 6.31319 13.2665 6.31319 13.1721 6.36084L12.9158 6.51098C12.815 6.56417 12.7037 6.5942 12.5898 6.59887H12.2896C12.184 6.60483 12.0875 6.66055 12.0296 6.74901L11.8758 7.01634C11.8149 7.11221 11.7336 7.19348 11.6377 7.25436L11.3704 7.40817C11.2819 7.4661 11.2262 7.56259 11.2203 7.66817V7.96845C11.2157 8.08229 11.1857 8.19367 11.1324 8.29436L10.9822 8.55436C10.9346 8.64879 10.9346 8.76022 10.9822 8.85465L11.136 9.12197C11.1889 9.22285 11.2189 9.33412 11.2239 9.44789V9.75549C11.2307 9.86175 11.2879 9.95837 11.3777 10.0155L11.6377 10.162C11.7338 10.2226 11.8152 10.3039 11.8758 10.4L12.0259 10.66C12.0838 10.7485 12.1803 10.8042 12.2859 10.8101H12.5972C12.7109 10.8152 12.8222 10.8452 12.9231 10.898L13.1904 11.0518C13.2848 11.0995 13.3963 11.0995 13.4907 11.0518L13.747 10.9017C13.8478 10.8485 13.9591 10.8185 14.0729 10.8138H14.3732C14.4788 10.8078 14.5753 10.7521 14.6332 10.6637L14.787 10.3963C14.8479 10.3005 14.9292 10.2192 15.0251 10.1583L15.2924 10.0045C15.3808 9.94657 15.4366 9.85009 15.4425 9.74451L15.4389 9.44422Z" fill="#F6BB42"/>
</svg>
