<svg width="26" height="18" viewBox="0 0 26 18" fill="none" xmlns="http://www.w3.org/2000/svg">
<path d="M2.36262 0.00371483C1.05778 0.00371483 0 1.0615 0 2.36634V15.097C0 16.4019 1.05778 17.4596 2.36262 17.4596H8.67781C8.67781 11.6398 8.67781 5.81988 8.67781 0L2.36262 0.00371483Z" fill="#434A54"/>
<path d="M8.67041 0.00372314C8.67041 5.8236 8.67041 11.6435 8.67041 17.4634H17.3445C17.3445 11.6435 17.3445 5.8236 17.3445 0.00372314H8.67041Z" fill="#FFCE54"/>
<path d="M23.6374 0.00372314H17.3408C17.3408 5.8236 17.3408 11.6435 17.3408 17.4634H23.6374C24.9423 17.4634 26.0001 16.4056 26.0001 15.1007V2.36635C26.0001 1.06151 24.9423 0.00372314 23.6374 0.00372314Z" fill="#ED5565"/>
</svg>
