<svg width="26" height="18" viewBox="0 0 26 18" fill="none" xmlns="http://www.w3.org/2000/svg">
<g clip-path="url(#clip0)">
<path d="M2.43522 0.256348C1.14894 0.256348 0.106201 1.29908 0.106201 2.58536V15.1349C0.106201 16.4212 1.14894 17.464 2.43522 17.464H8.66057C8.66057 11.7269 8.66057 5.98978 8.66057 0.252686L2.43522 0.256348Z" fill="#ED5565"/>
<path d="M8.65332 0.256348C8.65332 5.99344 8.65332 11.7305 8.65332 17.4676H17.2113C17.2113 11.7305 17.2113 5.99344 17.2113 0.256348H8.65332Z" fill="white"/>
<path d="M23.4074 0.256348H17.2113C17.2113 5.99344 17.2113 11.7305 17.2113 17.4676H23.4074C24.6936 17.4676 25.7364 16.4249 25.7364 15.1386V2.58536C25.7364 1.29908 24.6936 0.256348 23.4074 0.256348Z" fill="#ED5565"/>
<path d="M13.1428 5.18903C13.1166 5.08716 13.0247 5.01599 12.9195 5.01599C12.8143 5.01599 12.7224 5.08716 12.6961 5.18903L12.513 5.55522C12.4311 5.73197 12.3224 5.89502 12.1907 6.0386C12.0295 6.03107 11.8724 5.98458 11.733 5.90311C11.6085 5.8372 11.5426 5.99466 11.5902 6.26931L11.7586 7.17015C11.8054 7.37997 11.8054 7.59752 11.7586 7.80734C11.7147 7.89889 11.4217 7.66818 11.2459 7.46677L11.0848 7.28367C10.909 7.08593 10.7369 7.02734 10.7186 7.15184C10.6924 7.25257 10.6568 7.35064 10.6124 7.4448C10.4045 7.46452 10.1947 7.4459 9.99355 7.38987H9.94228C9.83717 7.33433 9.70813 7.35378 9.62406 7.43785C9.54 7.52191 9.52054 7.65096 9.57609 7.75607V7.81466C9.64566 8.06734 9.72256 8.34565 9.75186 8.42987C9.70267 8.56581 9.59723 8.67392 9.46257 8.72649C9.36369 8.7741 9.46257 8.94987 9.65665 9.12198L10.6454 9.9386C10.7949 10.0511 10.9368 10.1735 11.0702 10.3048C11.0845 10.4458 11.0683 10.5882 11.0226 10.7223C10.9823 10.8614 11.1654 10.9493 11.4327 10.92L12.1907 10.8321C12.375 10.8049 12.5612 10.7939 12.7474 10.7992C12.8042 10.9801 12.8217 11.1712 12.7986 11.3594L12.762 12.264C12.716 12.4335 12.7634 12.6147 12.8865 12.74C13.0123 12.6162 13.0637 12.4354 13.022 12.264L13 11.3631C12.9873 11.1856 12.9971 11.0072 13.0293 10.8321C13.2207 10.7982 13.4165 10.7982 13.6079 10.8321L14.3659 10.92C14.6333 10.953 14.82 10.8614 14.7761 10.7223C14.7398 10.6093 14.7165 10.4926 14.7065 10.3744C14.8339 10.1878 14.991 10.0232 15.1716 9.88734L16.1603 9.07072C16.3654 8.90227 16.4533 8.72283 16.3544 8.67522C16.2663 8.63574 16.1858 8.58122 16.1164 8.5141C16.1244 8.25825 16.1663 8.00459 16.2409 7.75973V7.70114C16.2964 7.59603 16.277 7.46698 16.1929 7.38292C16.1088 7.29885 15.9798 7.2794 15.8747 7.33494H15.8234C15.6401 7.38149 15.4522 7.40729 15.2631 7.41184C15.1826 7.32289 15.127 7.21425 15.102 7.09691C15.0654 6.96874 14.8933 7.031 14.7358 7.22874L14.5747 7.41184C14.4349 7.58186 14.2693 7.7289 14.084 7.84762C13.9888 7.8879 14.0217 7.37156 14.084 7.11522L14.2524 6.21438C14.3 5.95804 14.2524 5.80058 14.1096 5.84818C13.9912 5.90985 13.8689 5.96367 13.7434 6.00931C13.5538 5.88471 13.4058 5.70614 13.3186 5.49663L13.1428 5.18903Z" fill="#ED5565"/>
</g>
<defs>
<clipPath id="clip0">
<path d="M0 0H26V17.5775H0V0Z" fill="white"/>
</clipPath>
</defs>
</svg>
