<svg width="26" height="18" viewBox="0 0 26 18" fill="none" xmlns="http://www.w3.org/2000/svg">
<g clip-path="url(#clip0)">
<path d="M0.281982 7.94648V15.1386C0.281982 16.4249 1.32472 17.4676 2.611 17.4676H23.5831C24.8694 17.4676 25.9121 16.4249 25.9121 15.1386V7.94648H0.27832H0.281982Z" fill="#ED5565"/>
<path d="M23.5831 0.256334L10.1693 0.256331V7.94647H25.9158V2.58535C25.9158 1.96702 25.6699 1.37407 25.2323 0.93719C24.7948 0.50031 24.2014 0.255362 23.5831 0.256334Z" fill="white"/>
<path d="M10.1693 0.256339H2.611C1.32472 0.256339 0.281982 1.29907 0.281982 2.58535V7.94648H10.1693V0.256339Z" fill="#4758A9"/>
<path d="M4.36137 5.69437C4.21122 5.80057 4.12334 5.74197 4.16728 5.55888L4.33207 4.88507C4.36892 4.68411 4.30297 4.47802 4.1563 4.33578L3.66193 3.91099C3.52277 3.79014 3.55939 3.68761 3.74249 3.68028L4.43094 3.66197C4.62879 3.64765 4.79892 3.51645 4.86306 3.32873L5.07911 2.59634C5.13038 2.4169 5.22559 2.41324 5.28784 2.59634L5.54785 3.32873C5.62425 3.51325 5.79896 3.63825 5.99827 3.65099H6.70137C6.88446 3.65099 6.92475 3.75352 6.78559 3.87803L6.25094 4.34676C6.10472 4.489 6.0436 4.69738 6.08982 4.89606L6.26193 5.4893C6.3132 5.66873 6.22531 5.73465 6.06785 5.63578L5.49658 5.26958C5.32364 5.16796 5.10923 5.16796 4.9363 5.26958L4.36137 5.69437Z" fill="white"/>
</g>
<defs>
<clipPath id="clip0">
<rect width="26" height="17.5775" fill="white"/>
</clipPath>
</defs>
</svg>
