<svg width="26" height="18" viewBox="0 0 26 18" fill="none" xmlns="http://www.w3.org/2000/svg">
<g clip-path="url(#clip0)">
<path d="M23.4073 0.358887H2.43155C1.14527 0.358887 0.102539 1.40162 0.102539 2.6879V15.2411C0.102539 16.5274 1.14527 17.5702 2.43155 17.5702H23.4073C24.6936 17.5702 25.7363 16.5274 25.7363 15.2411V2.6879C25.7363 1.40162 24.6936 0.358887 23.4073 0.358887Z" fill="#ED5565"/>
<path d="M4.47856 9.64563C4.17828 9.86169 4.00251 9.74084 4.08673 9.37831L4.41265 8.0307C4.48333 7.62621 4.3457 7.21329 4.04645 6.93211L3.06138 6.07887C2.77941 5.83718 2.85265 5.62845 3.22251 5.61746L4.60307 5.57718C5.00891 5.55705 5.36148 5.29153 5.49293 4.90704L5.92504 3.44225C6.03124 3.07605 6.218 3.07605 6.34251 3.44225L6.86251 4.90704C7.01461 5.27665 7.36443 5.52693 7.76335 5.55155H9.16955C9.53575 5.55155 9.61265 5.76028 9.33434 6.00197L8.26138 6.93943C7.97026 7.22465 7.84943 7.64131 7.94279 8.03803L8.28335 9.2245C8.38589 9.5907 8.21377 9.71521 7.89884 9.52112L6.74532 8.78873C6.39322 8.59508 5.96347 8.60912 5.62476 8.82535L4.47856 9.64563Z" fill="#F6D660"/>
<path d="M10.7552 3.94761C10.6526 4.02085 10.594 3.98057 10.6233 3.8524L10.7332 3.38367C10.7536 3.24999 10.7102 3.11447 10.616 3.01747L10.2828 2.72085C10.1876 2.63662 10.2132 2.56338 10.3377 2.55972H10.8028C10.9389 2.54823 11.0546 2.45565 11.0957 2.32536L11.2422 1.81268C11.2788 1.68817 11.3411 1.68817 11.385 1.81268L11.5608 2.31803C11.613 2.44296 11.7299 2.52887 11.8648 2.54141H12.3408C12.4653 2.54141 12.491 2.61465 12.3957 2.69888L12.0295 3.02479C11.9348 3.12128 11.8937 3.25828 11.9197 3.39099L12.0369 3.80479C12.0735 3.9293 12.0149 3.9769 11.9087 3.90733L11.5205 3.66197C11.4072 3.59656 11.2676 3.59656 11.1543 3.66197L10.7552 3.94761Z" fill="#F6D660"/>
<path d="M10.7552 11.18C10.6526 11.2532 10.594 11.213 10.6233 11.0848L10.7332 10.6161C10.7536 10.4824 10.7102 10.3469 10.616 10.2499L10.2828 9.95324C10.1876 9.86901 10.2132 9.79577 10.3377 9.79211H10.8028C10.938 9.78119 11.0534 9.69027 11.0957 9.56141L11.2422 9.04873C11.2788 8.92423 11.3411 8.92423 11.385 9.04873L11.5608 9.55408C11.613 9.67901 11.7299 9.76492 11.8648 9.77746H12.3408C12.4653 9.77746 12.491 9.8507 12.3957 9.93493L12.0295 10.2608C11.9348 10.3573 11.8937 10.4943 11.9197 10.627L12.0369 11.0408C12.0735 11.1653 12.0149 11.213 11.9087 11.1434L11.5242 10.898C11.4109 10.8326 11.2713 10.8326 11.158 10.898L10.7552 11.18Z" fill="#F6D660"/>
<path d="M13.2929 9.23918C13.1904 9.31242 13.1318 9.27213 13.1611 9.14763L13.2709 8.67889C13.2913 8.54522 13.2479 8.4097 13.1537 8.3127L12.8205 8.01608C12.7253 7.93185 12.7509 7.85861 12.8754 7.85495H13.3405C13.4757 7.84403 13.5911 7.75311 13.6335 7.62425L13.7799 7.11157C13.8166 6.98706 13.8788 6.98706 13.9228 7.11157L14.0985 7.61692C14.1508 7.74185 14.2677 7.82776 14.4025 7.8403H14.8785C15.003 7.8403 15.0287 7.91354 14.9335 7.99777L14.5673 8.32368C14.4738 8.42087 14.4341 8.55778 14.4611 8.68988L14.5782 9.10368C14.6149 9.22819 14.5526 9.2758 14.4501 9.20622L14.0656 8.96087C13.9523 8.89545 13.8127 8.89545 13.6994 8.96087L13.2929 9.23918Z" fill="#F6D660"/>
<path d="M13.293 5.89213C13.1905 5.96537 13.1319 5.92509 13.1612 5.79692L13.271 5.32819C13.2914 5.19451 13.2481 5.05899 13.1539 4.96199L12.817 4.65072C12.7217 4.56649 12.7474 4.49326 12.8719 4.48959H13.337C13.4721 4.47867 13.5876 4.38775 13.6299 4.25889L13.7764 3.74621C13.813 3.62171 13.8753 3.62171 13.9192 3.74621L14.095 4.25156C14.1472 4.37649 14.2641 4.4624 14.3989 4.47495H14.875C14.9995 4.47495 15.0251 4.54818 14.9299 4.63241L14.5637 4.95833C14.4708 5.05584 14.4312 5.19245 14.4575 5.32452L14.5747 5.73833C14.6113 5.86283 14.5491 5.91044 14.4465 5.84086L14.062 5.59551C13.9487 5.53009 13.8091 5.53009 13.6958 5.59551L13.293 5.89213Z" fill="#F6D660"/>
</g>
<defs>
<clipPath id="clip0">
<path d="M0 0H26V17.5775H0V0Z" fill="white"/>
</clipPath>
</defs>
</svg>
