<svg width="26" height="18" viewBox="0 0 26 18" fill="none" xmlns="http://www.w3.org/2000/svg">
<g clip-path="url(#clip0)">
<path d="M25.8644 3.84875H0.230591V13.7361H25.8644V3.84875Z" fill="#FFCE54"/>
<path d="M23.5348 0.205081H2.56266C1.94496 0.205081 1.35257 0.450458 0.915795 0.887233C0.47902 1.32401 0.233643 1.9164 0.233643 2.53409V3.86705H25.8674V2.53409C25.8674 1.91577 25.6216 1.32282 25.184 0.885937C24.7464 0.449057 24.1531 0.204109 23.5348 0.205081Z" fill="#ED5565"/>
<path d="M0.230591 15.0874C0.230591 15.705 0.475968 16.2974 0.912743 16.7342C1.34952 17.171 1.94191 17.4164 2.5596 17.4164H23.5317C24.1494 17.4164 24.7418 17.171 25.1786 16.7342C25.6154 16.2974 25.8607 15.705 25.8607 15.0874V13.7544H0.226929L0.230591 15.0874Z" fill="#ED5565"/>
<path d="M4.28796 9.93494V10.9859C4.28796 11.5927 4.77982 12.0845 5.38655 12.0845H6.00909V9.94958L4.28796 9.93494Z" fill="#F6D660"/>
<path d="M4.83728 9.93494V11.9197C4.8956 11.9533 4.95689 11.9815 5.02038 12.0039V9.93494H4.83728Z" fill="#ED5565"/>
<path d="M4.44189 9.93494V11.5279C4.49174 11.6152 4.55335 11.6953 4.62499 11.7659V9.93494H4.44189Z" fill="#ED5565"/>
<path d="M5.23657 9.93494V12.0552C5.28534 12.0585 5.33428 12.0585 5.38305 12.0552H5.41967V9.92029L5.23657 9.93494Z" fill="#ED5565"/>
<path d="M5.99815 9.93494H5.63196V12.0699H5.99815V9.93494Z" fill="#ED5565"/>
<path d="M6.00543 7.99408H4.28796V9.93126H6.00543V7.99408Z" fill="#ED5565"/>
<path d="M7.72296 10.9859V9.94592H6.00549V12.0845H6.62803C7.23333 12.0825 7.72296 11.5912 7.72296 10.9859Z" fill="#ED5565"/>
<path d="M7.72296 7.99408H6.00549V9.93126H7.72296V7.99408Z" fill="white"/>
<path d="M6.00547 10.4915C6.31288 10.4915 6.56209 10.2423 6.56209 9.93492C6.56209 9.6275 6.31288 9.3783 6.00547 9.3783C5.69806 9.3783 5.44885 9.6275 5.44885 9.93492C5.44885 10.2423 5.69806 10.4915 6.00547 10.4915Z" fill="#4A89DC" stroke="#ED5565" stroke-width="0.5"/>
<path d="M3.72422 8.25408C3.72422 8.11049 3.60782 7.99408 3.46422 7.99408C3.32063 7.99408 3.20422 8.11049 3.20422 8.25408V11.2899C3.20422 11.4335 3.32063 11.5499 3.46422 11.5499C3.60782 11.5499 3.72422 11.4335 3.72422 11.2899V8.25408Z" fill="white"/>
<path d="M8.80686 8.25408C8.80686 8.11049 8.69046 7.99408 8.54686 7.99408C8.40327 7.99408 8.28687 8.11049 8.28687 8.25408V11.2899C8.28687 11.4335 8.40327 11.5499 8.54686 11.5499C8.69046 11.5499 8.80686 11.4335 8.80686 11.2899V8.25408Z" fill="white"/>
<path d="M7.66447 6.73438C7.66447 6.73438 7.66447 6.71607 7.66447 6.70509C7.66447 6.41213 6.93208 6.1741 5.99095 6.1741C5.04982 6.1741 4.31743 6.41213 4.31743 6.70509C4.31623 6.71727 4.31623 6.72953 4.31743 6.74171L4.68363 7.16283L4.81546 7.12622C4.86916 7.12213 4.92209 7.11105 4.97292 7.09326C5.04437 7.06175 5.11776 7.03484 5.19264 7.01269L5.43433 7.05298L5.60278 6.93946L5.80053 7.01636L5.98729 6.89917L6.16306 7.02002L6.37546 6.92481C6.43758 6.97242 6.50239 7.01643 6.56954 7.05664L6.75264 6.96875L6.88081 7.10424L7.06757 7.03467L7.21405 7.19579L7.66447 6.73438Z" fill="#ED5565"/>
<path d="M6.95756 7.10424L6.82572 6.96875C6.82572 6.96875 6.64995 7.05663 6.6353 7.05663C6.56577 7.01646 6.49853 6.97245 6.43389 6.9248L6.21051 7.02001L6.02375 6.89917L5.82601 7.01635L5.61727 6.93945L5.4415 7.05297L5.18516 7.01269C5.10669 7.03483 5.02965 7.06174 4.95446 7.09325C4.9011 7.111 4.84575 7.12207 4.78967 7.12621L4.65051 7.16283L4.75671 7.25804L4.90319 7.51438H7.10037L7.24685 7.25804L7.32009 7.19579L7.16629 7.03466L6.95756 7.10424Z" fill="white"/>
<path d="M6.00179 7.8769C6.54988 7.8769 6.99419 7.71294 6.99419 7.5107C6.99419 7.30845 6.54988 7.1445 6.00179 7.1445C5.45371 7.1445 5.0094 7.30845 5.0094 7.5107C5.0094 7.71294 5.45371 7.8769 6.00179 7.8769Z" stroke="white" stroke-linecap="round" stroke-linejoin="round"/>
<path d="M4.78613 7.25436C4.9436 7.1445 5.28782 7.08957 6.00557 7.08957" stroke="white" stroke-width="0.51" stroke-linecap="round" stroke-linejoin="round"/>
<path d="M6.00183 7.08957C6.73423 7.08957 7.0638 7.1445 7.22127 7.25436" stroke="white" stroke-width="0.51" stroke-linecap="round" stroke-linejoin="round"/>
<path d="M6.00179 7.8769C6.54988 7.8769 6.99419 7.71294 6.99419 7.5107C6.99419 7.30845 6.54988 7.1445 6.00179 7.1445C5.45371 7.1445 5.0094 7.30845 5.0094 7.5107C5.0094 7.71294 5.45371 7.8769 6.00179 7.8769Z" stroke="white" stroke-width="0.5" stroke-linecap="round" stroke-linejoin="round"/>
<path d="M6.00179 7.8769C6.54988 7.8769 6.99419 7.71294 6.99419 7.5107C6.99419 7.30845 6.54988 7.1445 6.00179 7.1445C5.45371 7.1445 5.0094 7.30845 5.0094 7.5107C5.0094 7.71294 5.45371 7.8769 6.00179 7.8769Z" fill="#ED5565"/>
<path d="M5.20356 6.43774C5.12988 6.36475 5.09393 6.2619 5.10609 6.1589C5.11825 6.0559 5.17717 5.96424 5.26582 5.91042C5.46329 5.80658 5.70151 5.81779 5.88835 5.93971L6.00187 6.01295L6.1154 5.93971" stroke="white" stroke-width="0.5" stroke-linecap="round" stroke-linejoin="round"/>
<path d="M4.39422 6.70507C4.31941 6.62671 4.28114 6.52042 4.28881 6.41236C4.29648 6.3043 4.34938 6.20448 4.4345 6.13747C4.63237 6.01313 4.87541 5.98358 5.09731 6.0569" stroke="white" stroke-width="0.5" stroke-linecap="round" stroke-linejoin="round"/>
<path d="M6.80381 6.43774C6.87749 6.36475 6.91344 6.2619 6.90128 6.1589C6.88912 6.0559 6.8302 5.96424 6.74155 5.91042C6.54408 5.80658 6.30587 5.81779 6.11902 5.93971" stroke="white" stroke-width="0.5" stroke-linecap="round" stroke-linejoin="round"/>
<path d="M7.60947 6.70507C7.68427 6.62671 7.72255 6.52042 7.71488 6.41236C7.70721 6.3043 7.65431 6.20448 7.56919 6.13747C7.37132 6.01313 7.12827 5.98358 6.90637 6.0569" stroke="white" stroke-width="0.5" stroke-linecap="round" stroke-linejoin="round"/>
<path d="M6.00183 6.36086V6.01663" stroke="white" stroke-width="0.5" stroke-linecap="round" stroke-linejoin="round"/>
<path d="M7.39711 7.06029C7.29457 7.23241 7.03091 7.17748 7.15908 6.9541C7.15908 6.9541 7.07852 7.13353 6.91739 7.10424C6.81852 7.10424 6.76725 6.99438 6.79288 6.86255C6.78316 6.977 6.6842 7.06298 6.56951 7.05663C6.38641 7.05663 6.40472 6.81128 6.40472 6.81128C6.40472 6.81128 6.40472 7.02734 6.20331 7.02001C6.14891 7.0181 6.0975 6.99464 6.06041 6.95481C6.02332 6.91497 6.00358 6.86201 6.00556 6.80762C6.00958 6.86324 5.99076 6.91811 5.95345 6.95956C5.91614 7.00102 5.86356 7.02549 5.80782 7.02734C5.61007 7.02734 5.60641 6.8186 5.60641 6.8186C5.60641 6.8186 5.60641 7.04931 5.44162 7.06396C5.32693 7.07031 5.22796 6.98433 5.21824 6.86987C5.24021 7.0017 5.1926 7.09325 5.09373 7.11156C4.9326 7.14086 4.85204 6.96142 4.85204 6.96142C4.96922 7.18846 4.71655 7.23973 4.61401 7.06762" stroke="white" stroke-width="0.3" stroke-linecap="round" stroke-linejoin="round"/>
<path d="M6.00182 6.12284C6.20406 6.12284 6.36802 5.95889 6.36802 5.75664C6.36802 5.55439 6.20406 5.39044 6.00182 5.39044C5.79957 5.39044 5.63562 5.55439 5.63562 5.75664C5.63562 5.95889 5.79957 6.12284 6.00182 6.12284Z" fill="#4A89DC"/>
</g>
<defs>
<clipPath id="clip0">
<path d="M0 0H26V17.5775H0V0Z" fill="white"/>
</clipPath>
</defs>
</svg>
