<svg width="26" height="18" viewBox="0 0 26 18" fill="none" xmlns="http://www.w3.org/2000/svg">
<g clip-path="url(#clip0_1_1026)">
<path d="M2.38394 0.0402831C1.09766 0.0402831 0.0549273 1.08302 0.0549273 2.3693V14.9189C0.0549273 16.2052 1.09766 17.2479 2.38394 17.2479H8.60929C8.60929 11.5108 8.60929 5.77371 8.60929 0.0366211L2.38394 0.0402831Z" fill="#4758A9"/>
<path d="M8.60197 0.0402832C8.60197 5.77737 8.60197 11.5145 8.60197 17.2516H17.1527C17.1527 11.5145 17.1527 5.77737 17.1527 0.0402832H8.60197Z" fill="white"/>
<path d="M23.3561 0.0402832H17.149C17.149 5.77737 17.149 11.5145 17.149 17.2516H23.3561C24.6423 17.2516 25.6851 16.2088 25.6851 14.9225V2.37296C25.686 1.75463 25.4411 1.1613 25.0042 0.72373C24.5673 0.286163 23.9744 0.0402824 23.3561 0.0402832Z" fill="#ED5565"/>
</g>
<defs>
<clipPath id="clip0_1_1026">
<rect width="26" height="17.5775" fill="white"/>
</clipPath>
</defs>
</svg>
