<svg width="26" height="18" viewBox="0 0 26 18" fill="none" xmlns="http://www.w3.org/2000/svg">
<g clip-path="url(#clip0)">
<path d="M11.194 0.249023H10.0478V5.49297L0.892916 0.915502C0.467565 1.3264 0.207088 1.87861 0.160522 2.46818L7.19151 5.98367H4.62813L0.149536 3.74621V4.39437L3.34644 5.99099H0.149536V7.13719H11.205L11.194 0.249023Z" fill="white"/>
<path d="M24.9857 16.8048C25.4233 16.4054 25.6994 15.8596 25.762 15.2704L18.6505 11.7183H21.2139L25.7767 13.9997V13.3589L22.4809 11.7183H25.7767V10.5721H14.6479V17.453H15.7941V12.209L24.9857 16.8048Z" fill="white"/>
<path d="M15.7832 0.249023H14.6479V7.12987H25.7877V5.98367H22.4919L25.7877 4.34311V2.66959C25.7877 2.58536 25.7877 2.5048 25.7877 2.42423L18.6725 5.98001H16.1091L25.3995 1.33297C25.2957 1.16882 25.1728 1.01762 25.0333 0.882545L15.7832 5.49297V0.249023Z" fill="white"/>
<path d="M0.142822 10.5685V11.7183H3.33972L0.142822 13.3149V15.0141C0.142822 15.0873 0.142822 15.1569 0.142822 15.2301L7.17381 11.7146H9.73719L0.516343 16.3251C0.619802 16.4905 0.742747 16.643 0.882541 16.7792L10.0375 12.2054V17.4493H11.1837V10.5685H0.142822Z" fill="white"/>
<path d="M25.7766 10.5685V7.12987H14.6369V0.249023H11.1947V7.12987H0.142822V10.5685H11.1947V17.4493H14.6369V10.5685H25.7766Z" fill="#EC5565"/>
<path d="M7.18113 5.98366L0.150146 2.46817C0.150146 2.53409 0.150146 2.60366 0.150146 2.66958V3.74254L4.62874 5.98L7.18113 5.98366Z" fill="#EC5565"/>
<path d="M18.6504 5.98365L25.7656 2.42788C25.7278 2.0355 25.5945 1.65835 25.3775 1.32928L16.087 5.97633L18.6504 5.98365Z" fill="#EC5565"/>
<path d="M18.6504 11.7183L25.762 15.2741C25.7664 15.1887 25.7664 15.1031 25.762 15.0178V13.9997L21.2138 11.7183H18.6504Z" fill="#EC5565"/>
<path d="M7.18113 11.7183L0.150146 15.2338C0.181384 15.6243 0.307057 16.0013 0.516344 16.3324L9.74817 11.7183H7.18113Z" fill="#EC5565"/>
<path d="M15.7831 5.49297L24.9966 0.886206C24.61 0.526021 24.1161 0.30224 23.5904 0.249023H15.7831V5.49297Z" fill="#4658A9"/>
<path d="M25.7766 13.3552V11.7147H22.4955L25.7766 13.3552Z" fill="#4658A9"/>
<path d="M25.7766 5.98367V4.34311L22.4955 5.98367H25.7766Z" fill="#4658A9"/>
<path d="M0.900879 16.7792C1.35163 17.2097 1.95108 17.4497 2.5744 17.4493H10.0485V12.2054L0.900879 16.7792Z" fill="#4658A9"/>
<path d="M15.7831 12.2054V17.4493H23.3451C23.953 17.4493 24.5386 17.2205 24.9856 16.8084L15.7831 12.2054Z" fill="#4658A9"/>
<path d="M10.0484 0.249023H2.32893C1.78927 0.304057 1.28373 0.538769 0.893433 0.915502L10.0484 5.49297V0.249023Z" fill="#4658A9"/>
<path d="M0.142822 11.7147V13.3113L3.33606 11.7147H0.142822Z" fill="#4658A9"/>
<path d="M0.142822 4.38339V5.98367H3.33606L0.142822 4.38339Z" fill="#4658A9"/>
</g>
<defs>
<clipPath id="clip0">
<path d="M0 0H26V17.5775H0V0Z" fill="white"/>
</clipPath>
</defs>
</svg>
