<svg width="26" height="18" viewBox="0 0 26 18" fill="none" xmlns="http://www.w3.org/2000/svg">
<g clip-path="url(#clip0)">
<path d="M23.2938 0.274658H2.5231C1.18019 0.274658 0.0915527 1.3633 0.0915527 2.70621V15.0544C0.0915527 16.3973 1.18019 17.4859 2.5231 17.4859H23.2938C24.6367 17.4859 25.7254 16.3973 25.7254 15.0544V2.70621C25.7254 1.3633 24.6367 0.274658 23.2938 0.274658Z" fill="#EC5565"/>
<path d="M13.1831 4.02817C13.4036 3.99427 13.627 3.98445 13.8496 3.99887C13.6495 4.09464 13.4871 4.25444 13.3882 4.45296C13.2835 4.68587 13.2835 4.95243 13.3882 5.18535C13.4431 5.32084 13.542 5.43437 13.5859 5.57352C13.6717 5.85402 13.6574 6.15558 13.5457 6.42676C13.4607 6.66358 13.314 6.87344 13.1209 7.03465C13.0183 7.11887 12.8865 7.15915 12.7766 7.23606C12.4649 7.42691 12.2593 7.75153 12.22 8.11493C12.195 8.40211 12.292 8.68656 12.4873 8.89859C12.1185 8.61341 11.8755 8.19564 11.8099 7.73408C11.7345 7.25894 11.8334 6.77257 12.0882 6.36451L12.0259 6.32422C11.5707 7.05073 11.6145 7.98357 12.1358 8.66422C12.2104 8.75756 12.2951 8.8423 12.3885 8.9169C12.0309 8.73834 11.7133 8.4892 11.4547 8.18451C11.1372 7.7996 10.95 7.32393 10.92 6.82591C10.8451 5.45089 11.8228 4.24217 13.1831 4.02817ZM12.198 5.58084C12.198 5.68582 12.2042 5.7908 12.2164 5.89577L11.938 6.05324L12.2457 6.13014L12.3079 6.44141L12.4764 6.17408L12.7913 6.2107L12.5899 5.96535L12.7217 5.67972L12.4288 5.7969L12.198 5.58084Z" fill="white"/>
<path d="M8.11494 8.05633C7.96738 7.48104 8.00977 6.87345 8.23578 6.32422C8.26516 6.5439 8.36696 6.7475 8.52508 6.90281C8.71112 7.06263 8.95507 7.1382 9.19888 7.11154C9.35635 7.11154 9.50649 7.0383 9.66762 7.04197C9.98342 7.05815 10.2826 7.18825 10.5099 7.40816C10.6687 7.54811 10.7939 7.72211 10.8761 7.91718C10.942 8.06732 10.931 8.23943 10.9859 8.39323C11.0924 8.76771 11.38 9.06357 11.7513 9.18056C11.9838 9.24663 12.2319 9.23112 12.4544 9.13661C12.0639 9.39759 11.587 9.49611 11.1251 9.41126C10.6575 9.33167 10.2333 9.08906 9.92762 8.72647L9.87269 8.77408C10.1686 9.12592 10.5731 9.3694 11.0225 9.46619C11.4641 9.56666 11.927 9.50831 12.3299 9.3014C12.3628 9.27943 12.4214 9.27577 12.4251 9.2245V9.2538C12.3335 9.31605 12.2603 9.39661 12.1724 9.46253C11.8451 9.73354 11.4567 9.9208 11.0409 10.0082C10.5767 10.0988 10.0961 10.049 9.66029 9.86535C8.88832 9.54006 8.30986 8.87646 8.09297 8.06732L8.11494 8.05633ZM9.46621 7.9245C9.46621 8.0307 9.46621 8.13323 9.48452 8.23943L9.20987 8.3969L9.51015 8.47013C9.53945 8.57267 9.55409 8.67887 9.57607 8.78506L9.74452 8.51774L10.0594 8.55436L9.85804 8.30901L9.98987 8.02337L9.69691 8.1369L9.46621 7.9245Z" fill="white"/>
<path d="M14.4502 6.62082C15.3218 6.38379 16.2542 6.59664 16.9366 7.18843C17.3596 7.56222 17.6574 8.05694 17.7899 8.60561C17.6323 8.43853 17.421 8.33222 17.193 8.30533C16.9495 8.29301 16.7116 8.38026 16.5338 8.54702C16.4166 8.64589 16.3361 8.78139 16.2079 8.86927C15.9265 9.05206 15.5867 9.12262 15.2558 9.06702C14.9789 9.04135 14.7198 8.91956 14.5234 8.72279C14.3581 8.54552 14.1461 8.41857 13.9118 8.3566C13.612 8.27515 13.2916 8.32722 13.033 8.49941C12.9071 8.5875 12.801 8.70103 12.7217 8.83265C12.8656 8.43403 13.1475 8.10015 13.5164 7.89153C13.9649 7.6286 14.4983 7.55109 15.0031 7.67547L15.0251 7.60589C14.0711 7.357 13.077 7.83394 12.6741 8.73378C12.7414 8.28104 12.9173 7.85133 13.1868 7.48139C13.5018 7.06419 13.946 6.76291 14.4502 6.62448V6.62082ZM15.2485 7.42646C15.2485 7.53265 15.2485 7.63885 15.2668 7.74139L14.9921 7.89519L15.2997 7.97575C15.3217 8.07829 15.34 8.18082 15.362 8.28702L15.5341 8.0197L15.849 8.05632L15.6476 7.81096L15.7795 7.52533L15.4865 7.64251L15.2485 7.42646Z" fill="white"/>
<path d="M12.9084 8.95719C13.3899 8.87433 13.8847 8.91851 14.3439 9.08536C14.842 9.27673 15.2613 9.63015 15.5341 10.0887C16.0152 10.8997 16.0402 11.9024 15.6 12.7363C15.3677 13.1628 15.0282 13.5213 14.6149 13.7763C14.7386 13.5528 14.7676 13.289 14.6955 13.0439C14.5863 12.7708 14.3628 12.5592 14.0839 12.4654C13.8077 12.347 13.592 12.1207 13.487 11.8392C13.3641 11.5542 13.3333 11.2379 13.3991 10.9347C13.4491 10.7968 13.5079 10.6622 13.5749 10.5318C13.6972 10.2269 13.6879 9.88494 13.5493 9.58705C13.4111 9.29273 13.1375 9.08478 12.8169 9.03043C13.1936 9.03319 13.5584 9.16212 13.8532 9.39662C14.3173 9.74669 14.606 10.2814 14.6442 10.8614H14.7175C14.66 10.0439 14.1238 9.33796 13.3515 9.06338C13.2073 9.01438 13.0569 8.98603 12.9048 8.97916L12.9084 8.95719ZM14.4245 10.92C14.4245 11.0262 14.4245 11.1324 14.4245 11.2423C14.333 11.2899 14.2414 11.3411 14.1535 11.3924L14.4575 11.4693C14.4794 11.5718 14.4977 11.678 14.5197 11.7806L14.6882 11.5132L15.0031 11.5499L14.8017 11.3045L14.9335 11.0189L14.6406 11.1361L14.4245 10.92Z" fill="white"/>
<path d="M12.6778 9.1842C12.8741 9.89441 12.6413 10.654 12.0809 11.1324C11.9137 11.2856 11.7218 11.4095 11.5133 11.4986L11.5389 11.5681C12.2535 11.2781 12.7475 10.6148 12.8206 9.84702C12.8364 9.65285 12.8203 9.45741 12.773 9.26843C12.9986 9.70186 13.1084 10.1863 13.0916 10.6746C13.0586 11.2576 12.8138 11.8085 12.4031 12.2236C11.7766 12.8604 10.8769 13.1479 9.99721 12.9927C9.52304 12.9035 9.08014 12.6928 8.71185 12.3811C8.93766 12.4224 9.1708 12.3836 9.37101 12.2712C9.57578 12.1373 9.71723 11.9257 9.76284 11.6853C9.79946 11.5389 9.78481 11.3814 9.83608 11.2386C9.94201 10.9542 10.1441 10.7158 10.4073 10.5648C10.6032 10.4396 10.8273 10.3653 11.0592 10.3487C11.1983 10.3487 11.3338 10.389 11.473 10.3927C11.8343 10.4169 12.1867 10.2738 12.4288 10.0045C12.6194 9.78353 12.7072 9.49202 12.6704 9.20251L12.6778 9.1842ZM10.8614 11.2129C10.8614 11.3191 10.8614 11.4217 10.8797 11.5279L10.6051 11.6817C10.7076 11.7073 10.8138 11.7329 10.9127 11.7659C10.9127 11.8684 10.953 11.971 10.9713 12.0735L11.1397 11.8062L11.4547 11.8428C11.3888 11.7622 11.3228 11.6817 11.2533 11.6011C11.2935 11.5022 11.3411 11.407 11.3851 11.3118L11.0921 11.429L10.8614 11.2129Z" fill="white"/>
</g>
<defs>
<clipPath id="clip0">
<rect width="26" height="17.5775" fill="white"/>
</clipPath>
</defs>
</svg>
