<svg width="26" height="18" viewBox="0 0 26 18" fill="none" xmlns="http://www.w3.org/2000/svg">
<g clip-path="url(#clip0_1599_28877)">
<path d="M0.281982 2.78675V6.08253H25.9158V2.78675C25.9158 1.44384 24.8271 0.355201 23.4842 0.355201H2.71353C2.06864 0.355201 1.45017 0.611381 0.994167 1.06739C0.538163 1.52339 0.281982 2.14186 0.281982 2.78675Z" fill="#FC6E51"/>
<path d="M0.281982 11.8318H25.9158V6.09352H0.281982V11.8318Z" fill="white"/>
<path d="M0.281982 15.1313C0.281982 16.4742 1.37062 17.5628 2.71353 17.5628H23.4842C24.8271 17.5628 25.9158 16.4742 25.9158 15.1313V11.8355H0.281982V15.1313Z" fill="#57A863"/>
<path d="M15.2595 8.82167L15.1167 8.57632C15.0686 8.48314 15.0412 8.38074 15.0361 8.27604V7.9904C15.031 7.89223 14.9793 7.80241 14.8969 7.74871L14.6589 7.61322C14.5702 7.55728 14.4951 7.48221 14.4392 7.3935L14.3 7.15547C14.2463 7.07314 14.1565 7.02142 14.0584 7.01632H13.7727C13.668 7.01126 13.5656 6.98379 13.4724 6.93576L13.2271 6.7966C13.1396 6.75223 13.0362 6.75223 12.9488 6.7966L12.7107 6.93576C12.6179 6.98457 12.5153 7.01209 12.4105 7.01632H12.1358C12.0376 7.02142 11.9478 7.07314 11.8941 7.15547L11.7513 7.40083C11.6953 7.48946 11.6202 7.56451 11.5316 7.62054L11.2862 7.76336C11.2039 7.81706 11.1522 7.90688 11.1471 8.00505V8.2797C11.1429 8.38453 11.1153 8.48711 11.0665 8.57998L10.9274 8.81801C10.8836 8.90561 10.8836 9.00872 10.9274 9.09632L11.0702 9.34167C11.1182 9.43485 11.1457 9.53725 11.1507 9.64195V9.92759C11.1559 10.0258 11.2076 10.1156 11.2899 10.1693L11.5279 10.3048C11.6167 10.3606 11.6918 10.4357 11.7477 10.5245L11.8868 10.7625C11.9405 10.8449 12.0303 10.8966 12.1285 10.9017H12.4141C12.5188 10.9067 12.6212 10.9342 12.7144 10.9822L12.9598 11.1214C13.0472 11.1658 13.1506 11.1658 13.2381 11.1214L13.4761 10.9822C13.5689 10.9332 13.6715 10.9057 13.7764 10.9017H14.051C14.1492 10.8966 14.239 10.8449 14.2927 10.7625L14.4355 10.5172C14.4922 10.4291 14.5671 10.3541 14.6553 10.2974L14.9006 10.1546C14.9829 10.1009 15.0347 10.0111 15.0398 9.91294V9.63829C15.044 9.53346 15.0715 9.43088 15.1203 9.33801L15.2595 9.09998C15.3038 9.01252 15.3038 8.90914 15.2595 8.82167ZM14.4026 9.04505L14.3184 9.18787C14.289 9.24459 14.2728 9.30715 14.2707 9.37097V9.52111C14.2676 9.58057 14.2363 9.63498 14.1865 9.66759L14.0364 9.75548C13.9833 9.78921 13.9383 9.83422 13.9046 9.88731L13.8203 10.0374C13.7877 10.0873 13.7333 10.1186 13.6738 10.1217H13.5054C13.4428 10.1242 13.3816 10.1405 13.326 10.1693L13.1831 10.2535C13.1303 10.2809 13.0675 10.2809 13.0147 10.2535L12.8646 10.1693C12.8078 10.1401 12.7453 10.1238 12.6815 10.1217H12.5093C12.4499 10.1186 12.3955 10.0873 12.3629 10.0374L12.2786 9.89463C12.2449 9.84154 12.1999 9.79653 12.1468 9.7628L12.0077 9.67857C11.9578 9.64597 11.9265 9.59156 11.9234 9.5321V9.35998C11.9206 9.29744 11.9044 9.23624 11.8758 9.18055L11.7916 9.0304C11.7648 8.97744 11.7648 8.91492 11.7916 8.86195L11.8758 8.71914C11.9052 8.66246 11.9215 8.59987 11.9234 8.53604V8.37125C11.9265 8.31179 11.9578 8.25738 12.0077 8.22477L12.1578 8.13688C12.2109 8.10315 12.2559 8.05814 12.2896 8.00505L12.3738 7.85491C12.4065 7.80509 12.4609 7.77381 12.5203 7.77069H12.6888C12.7514 7.76812 12.8126 7.75187 12.8682 7.72308L13.011 7.63885C13.064 7.61209 13.1265 7.61209 13.1795 7.63885L13.3296 7.72308C13.3863 7.75239 13.4489 7.76866 13.5127 7.77069H13.6848C13.7443 7.77381 13.7987 7.80509 13.8313 7.85491L13.9155 7.99773C13.9493 8.05082 13.9943 8.09583 14.0474 8.12956L14.1938 8.21378C14.2437 8.24639 14.275 8.3008 14.2781 8.36026V8.53238C14.2808 8.59493 14.297 8.65616 14.3257 8.71181L14.4099 8.86195C14.4367 8.91492 14.4367 8.97744 14.4099 9.0304L14.4026 9.04505Z" fill="#4758A9"/>
</g>
<defs>
<clipPath id="clip0_1599_28877">
<rect width="26" height="17.5775" fill="white"/>
</clipPath>
</defs>
</svg>
