<svg width="26" height="18" viewBox="0 0 26 18" fill="none" xmlns="http://www.w3.org/2000/svg">
<g clip-path="url(#clip0)">
<path d="M2.43522 0.194092C1.14894 0.194092 0.106201 1.23683 0.106201 2.52311V15.0727C0.106201 16.359 1.14894 17.4017 2.43522 17.4017H8.66057C8.66057 11.6646 8.66057 5.92752 8.66057 0.19043L2.43522 0.194092Z" fill="#57A863"/>
<path d="M8.6532 0.194092C8.6532 5.93118 8.6532 11.6683 8.6532 17.4054H17.2112C17.2112 11.6683 17.2112 5.93118 17.2112 0.194092H8.6532Z" fill="white"/>
<path d="M23.4074 0.194092H17.2113C17.2113 5.93118 17.2113 11.6683 17.2113 17.4054H23.4074C24.6936 17.4054 25.7364 16.3626 25.7364 15.0763V2.52311C25.7364 1.23683 24.6936 0.194092 23.4074 0.194092Z" fill="#ED5565"/>
</g>
<defs>
<clipPath id="clip0">
<path d="M0 0H26V17.5775H0V0Z" fill="white"/>
</clipPath>
</defs>
</svg>
