<svg width="26" height="18" viewBox="0 0 26 18" fill="none" xmlns="http://www.w3.org/2000/svg">
<path d="M23.5337 0H2.46629C1.10419 0 0 1.10419 0 2.46629V14.9909C0 16.3529 1.10419 17.4571 2.46629 17.4571H23.5337C24.8958 17.4571 26 16.3529 26 14.9909V2.46629C26 1.10419 24.8958 0 23.5337 0Z" fill="white"/>
<path d="M3.85547 5.29657L6.27347 1.67143L6.8789 2.07257L4.4609 5.69771L3.85547 5.29657Z" fill="#434A54"/>
<path d="M18.9689 2.07257L19.5743 1.67143L20.6886 3.33171L20.0832 3.73286L18.9689 2.07257Z" fill="#434A54"/>
<path d="M4.76184 5.90571C5.5666 4.69733 6.3726 3.48895 7.17984 2.28057L7.78156 2.68171L5.36356 6.30686L4.76184 5.90571Z" fill="#434A54"/>
<path d="M18.059 2.68543C18.2558 2.54057 18.4638 2.41429 18.6644 2.27686C19.4692 3.48524 20.2752 4.69362 21.0824 5.902L20.477 6.30314C19.6821 5.096 18.8724 3.88514 18.059 2.68543Z" fill="#434A54"/>
<path d="M8.08609 2.87857L8.69152 3.27971L6.27352 6.90486L5.66809 6.50371L8.08609 2.87857Z" fill="#434A54"/>
<path d="M17.1526 3.28343L17.758 2.88229L18.8723 4.54629L18.2706 4.94743C17.8917 4.39029 17.524 3.83686 17.1526 3.28343Z" fill="#434A54"/>
<path d="M20.2764 4.04857C20.4769 3.91486 20.6738 3.78114 20.8744 3.65114L21.9887 5.304L21.3832 5.70514L20.2764 4.04857Z" fill="#434A54"/>
<path d="M18.4637 5.24457L19.0692 4.84343L20.1835 6.50371L19.578 6.90857L18.4637 5.24457Z" fill="#434A54"/>
<path d="M5.66809 10.9386L6.27352 10.5374L8.69152 14.1626L8.08609 14.5674L5.66809 10.9386Z" fill="#434A54"/>
<path d="M19.5706 10.5337L20.176 10.9349L19.0617 12.5951L18.4563 12.194L19.5706 10.5337Z" fill="#434A54"/>
<path d="M4.76184 11.5403L5.36727 11.1391L6.48155 12.7994L5.87613 13.2006L4.76184 11.5403Z" fill="#434A54"/>
<path d="M20.477 11.1391L21.0824 11.5403L19.9681 13.2006L19.3627 12.7957L20.477 11.1391Z" fill="#434A54"/>
<path d="M3.85547 12.1457L4.4609 11.7446L6.8789 15.3697L6.27347 15.7746L3.85547 12.1457Z" fill="#434A54"/>
<path d="M21.3832 11.7446C21.5875 11.8746 21.7881 12.012 21.9886 12.1457L20.8743 13.806L20.2689 13.4011L21.3832 11.7446Z" fill="#434A54"/>
<path d="M18.2632 12.4986L18.8686 12.8997L17.7544 14.56L17.1489 14.1589L18.2632 12.4986Z" fill="#434A54"/>
<path d="M6.07288 13.5089L6.67459 13.104C7.04602 13.6537 7.41745 14.2183 7.78888 14.7643L7.18345 15.1691L6.07288 13.5089Z" fill="#434A54"/>
<path d="M18.059 14.7643C18.4304 14.2109 18.8018 13.65 19.1732 13.104C19.3738 13.2414 19.5781 13.3714 19.775 13.5089L18.6607 15.1691L18.059 14.7643Z" fill="#434A54"/>
<path d="M20.072 13.7057C20.2763 13.8357 20.4769 13.9731 20.6775 14.1069L19.5632 15.7671L18.9578 15.3623L20.072 13.7057Z" fill="#434A54"/>
<path d="M10.7157 4.96229C12.0421 4.18233 13.6816 4.15992 15.0289 4.90333C16.3762 5.64673 17.2314 7.04568 17.2788 8.58372C17.3078 9.43829 17.0829 10.2823 16.6326 11.0091C17.1088 10.1738 16.9816 9.12506 16.3195 8.4278C15.6573 7.73054 14.6165 7.54943 13.7577 7.982C13.4205 8.15301 13.1337 8.40906 12.9257 8.72486C12.3911 9.53017 11.3901 9.88734 10.4664 9.60235C9.54278 9.31736 8.91704 8.45825 8.92913 7.49172C8.93601 7.16105 9.01325 6.83564 9.1557 6.53714C9.53014 5.88564 10.0678 5.34288 10.7157 4.96229Z" fill="#EC5565"/>
<path d="M8.56515 8.58C8.58606 7.85605 8.79055 7.14927 9.15943 6.526C9.01698 6.82449 8.93974 7.1499 8.93286 7.48057C8.92077 8.44711 9.54651 9.30622 10.4702 9.59121C11.3938 9.8762 12.3948 9.51902 12.9294 8.71371C13.4546 7.93493 14.4195 7.58005 15.3242 7.83298C16.2288 8.0859 16.8697 8.88977 16.9149 9.828C16.9361 10.2454 16.8382 10.6602 16.6326 11.024C16.1705 11.7797 15.4871 12.3749 14.6751 12.7289C13.3039 13.3304 11.72 13.1863 10.4799 12.3472C9.23972 11.5081 8.51682 10.0914 8.56515 8.59486V8.58Z" fill="#4658A9"/>
</svg>
