<svg width="26" height="18" viewBox="0 0 26 18" fill="none" xmlns="http://www.w3.org/2000/svg">
<g clip-path="url(#clip0)">
<path d="M2.38395 0.347839C1.09767 0.347839 0.0549316 1.39057 0.0549316 2.67685V15.2264C0.0549316 16.5127 1.09767 17.5554 2.38395 17.5554H8.6093C8.6093 11.8184 8.6093 6.08127 8.6093 0.344177L2.38395 0.347839Z" fill="#57A863"/>
<path d="M8.60199 0.347839C8.60199 6.08493 8.60199 11.822 8.60199 17.5591H17.1527C17.1527 11.822 17.1527 6.08493 17.1527 0.347839H8.60199Z" fill="white"/>
<path d="M23.3561 0.347839H17.149C17.149 6.08493 17.149 11.822 17.149 17.5591H23.3561C24.6423 17.5591 25.6851 16.5164 25.6851 15.2301V2.68052C25.686 2.06219 25.4411 1.46885 25.0042 1.03129C24.5673 0.593719 23.9744 0.347839 23.3561 0.347839Z" fill="#ED5565"/>
<path d="M16.2225 9.65652C16.3156 9.58425 16.3751 9.4771 16.3873 9.3599C16.3989 9.24986 16.3674 9.13963 16.2994 9.05229C16.2983 8.9998 16.2669 8.95272 16.2189 8.93145H16.1786C16.1638 8.89549 16.1454 8.86113 16.1237 8.82891C16.0973 8.79896 16.0592 8.7818 16.0193 8.7818C15.9794 8.7818 15.9414 8.79896 15.9149 8.82891C15.8766 8.86988 15.8434 8.91538 15.8161 8.96441C15.781 8.93823 15.7389 8.92295 15.6952 8.92046C15.6603 8.91754 15.6257 8.92951 15.6 8.95342C15.552 9.00643 15.552 9.08717 15.6 9.14018C15.6047 9.15695 15.6047 9.17468 15.6 9.19145V9.24272C15.575 9.33504 15.575 9.43237 15.6 9.52469C15.5221 9.5522 15.4696 9.62521 15.4682 9.70779C15.4709 9.74081 15.4796 9.77307 15.4938 9.803C15.5075 9.83073 15.5292 9.8537 15.5561 9.86891C15.4959 9.8975 15.4393 9.93315 15.3876 9.97511C15.2603 10.0665 15.1853 10.2139 15.1862 10.3706C15.185 10.3913 15.185 10.4121 15.1862 10.4329C15.126 10.4269 15.0667 10.4516 15.0287 10.4988C15.0048 10.5263 14.9873 10.5588 14.9775 10.594C14.9696 10.6153 14.9696 10.6386 14.9775 10.6599H14.9482C14.8777 10.6656 14.8234 10.7246 14.8237 10.7954C14.8227 10.8039 14.8227 10.8125 14.8237 10.821C14.7982 10.8458 14.7713 10.8691 14.7431 10.8906C14.6388 10.9608 14.5543 11.0566 14.4978 11.1689C14.448 11.1408 14.3889 11.1342 14.3343 11.1509C14.2796 11.1675 14.2341 11.2058 14.2085 11.2568C14.2085 11.2751 14.2085 11.2568 14.2085 11.2971C14.2085 11.3374 14.2085 11.3484 14.2085 11.3557C14.2061 11.3702 14.2061 11.3851 14.2085 11.3996C14.1502 11.3722 14.086 11.3597 14.0217 11.363C13.9141 11.3606 13.8079 11.3872 13.7141 11.4399C13.6654 11.4705 13.6221 11.5088 13.5859 11.5534C13.5648 11.5799 13.5402 11.6033 13.5127 11.623C13.4803 11.6415 13.4459 11.6562 13.4101 11.6669H13.3589C13.3176 11.6509 13.2746 11.6398 13.2307 11.634C13.1674 11.627 13.1036 11.627 13.0403 11.634C12.9854 11.634 12.9414 11.7109 12.9231 11.7731C12.9212 11.7228 12.8916 11.6777 12.8462 11.656C12.7815 11.6266 12.712 11.6092 12.6411 11.6047C12.5606 11.607 12.4806 11.6193 12.4031 11.6413C12.3737 11.5877 12.3208 11.5511 12.2603 11.5424H12.22C12.1727 11.4824 12.1022 11.4452 12.0259 11.4399C11.9681 11.4333 11.9097 11.4435 11.8575 11.4692C11.8262 11.4512 11.791 11.4411 11.7549 11.4399C11.6977 11.4353 11.6407 11.4508 11.5938 11.4838V11.4619C11.597 11.4511 11.597 11.4397 11.5938 11.4289C11.5952 11.4106 11.5952 11.3923 11.5938 11.374C11.6 11.3549 11.6 11.3344 11.5938 11.3154C11.5883 11.301 11.5809 11.2875 11.5718 11.2751C11.5588 11.2577 11.5426 11.2428 11.5242 11.2312C11.4796 11.1597 11.3919 11.128 11.3118 11.1543C11.2978 11.1417 11.2817 11.1318 11.2642 11.125C11.2626 11.0871 11.2539 11.0498 11.2386 11.0151C11.2005 10.9312 11.1287 10.8673 11.0409 10.8393C11.0231 10.7747 10.9794 10.7203 10.92 10.6892C10.8808 10.6761 10.8384 10.6761 10.7992 10.6892V10.6709C10.8024 10.654 10.8024 10.6366 10.7992 10.6196C10.7928 10.5916 10.7803 10.5653 10.7625 10.5427C10.7544 10.4627 10.695 10.3973 10.6161 10.3816C10.6211 10.3349 10.6034 10.2885 10.5685 10.2571C10.5566 10.2463 10.5429 10.2377 10.5282 10.2314C10.5267 10.1861 10.5167 10.1414 10.4989 10.0996C10.4744 10.0039 10.3851 9.9392 10.2865 9.94581C10.2626 9.9164 10.2287 9.89684 10.1913 9.89088V9.86525H10.2425C10.2814 9.8406 10.312 9.8049 10.3304 9.76272C10.341 9.73186 10.341 9.69836 10.3304 9.6675C10.361 9.59082 10.3353 9.50315 10.2682 9.45511H10.2389C10.256 9.41537 10.256 9.37034 10.2389 9.3306C10.2697 9.2905 10.2876 9.24196 10.2901 9.19145C10.2911 9.13888 10.2698 9.08836 10.2316 9.05229C10.2323 9.04132 10.2323 9.03031 10.2316 9.01933C10.245 8.96631 10.2313 8.91006 10.1949 8.86919C10.1476 8.80976 10.0652 8.79145 9.99719 8.82525H9.96057H9.9386C9.89552 8.81949 9.85194 8.83137 9.81775 8.85821C9.77461 8.8935 9.74068 8.93874 9.71888 8.99004H9.69325C9.64014 9.00491 9.59526 9.04055 9.56874 9.08891C9.54444 9.13367 9.53422 9.18473 9.53944 9.23539C9.51353 9.25339 9.49221 9.27722 9.47719 9.30497C9.40395 9.44046 9.50282 9.54666 9.59071 9.60891C9.57615 9.62 9.56374 9.63365 9.55409 9.64919C9.51571 9.71619 9.52778 9.8007 9.58339 9.85426C9.59717 9.89591 9.62417 9.93191 9.66029 9.9568C9.70091 9.98133 9.74901 9.99042 9.79578 9.98243L9.77381 10.0081C9.77151 10.0239 9.77151 10.0399 9.77381 10.0557C9.72822 10.0747 9.69616 10.1166 9.68959 10.1655C9.67515 10.2476 9.70762 10.3309 9.77381 10.3816C9.78044 10.4871 9.84342 10.5809 9.9386 10.6269C9.94264 10.6584 9.95392 10.6885 9.97156 10.7148C10.0019 10.751 10.0429 10.7767 10.0887 10.7881C10.0692 10.8145 10.0589 10.8467 10.0594 10.8796C10.0636 10.921 10.0816 10.9597 10.1107 10.9895C10.1278 11.0104 10.1508 11.0257 10.1766 11.0334V11.0554C10.2047 11.0853 10.2422 11.1047 10.2828 11.1103C10.3001 11.1188 10.3204 11.1188 10.3378 11.1103C10.3644 11.1033 10.3893 11.0908 10.411 11.0737V11.103C10.3829 11.2052 10.4226 11.3139 10.5099 11.374C10.5135 11.4519 10.5493 11.5248 10.6087 11.5754C10.6682 11.6335 10.7457 11.6697 10.8285 11.6779H10.8761L10.9163 11.7036C10.9155 11.7405 10.9271 11.7766 10.9493 11.8061C10.9637 11.8257 10.981 11.843 11.0006 11.8574C11.0121 11.8669 11.026 11.8733 11.0409 11.8757H11.1031C11.1242 11.8899 11.1478 11.8999 11.1727 11.905C11.1798 11.9438 11.2022 11.9781 11.2349 12.0002C11.2741 12.0212 11.3191 12.0289 11.3631 12.0222C11.3809 12.0334 11.4009 12.0409 11.4217 12.0441C11.4386 12.0929 11.4761 12.1317 11.5242 12.1503C11.5735 12.163 11.6251 12.163 11.6744 12.1503C11.7018 12.1949 11.7449 12.2276 11.7952 12.2419C11.858 12.2639 11.9265 12.2639 11.9893 12.2419C12.0102 12.2572 12.0338 12.2683 12.0589 12.2748H12.0845C12.1519 12.2684 12.2158 12.2416 12.2676 12.1979C12.3039 12.2235 12.3477 12.2364 12.3921 12.2345C12.4555 12.2359 12.5166 12.2107 12.5606 12.165H12.5862L12.6704 12.11C12.7109 12.0887 12.754 12.0727 12.7986 12.0624C12.8415 12.0496 12.8755 12.0169 12.8901 11.9745C12.9016 12.0256 12.9371 12.0679 12.9854 12.0881C13.0339 12.1039 13.0815 12.1222 13.1282 12.143C13.1465 12.143 13.1758 12.176 13.1758 12.1686C13.2114 12.2366 13.2821 12.279 13.3589 12.2785C13.4161 12.2769 13.4697 12.2501 13.5054 12.2053C13.5776 12.2607 13.6638 12.2949 13.7544 12.3041C13.9159 12.2826 14.0715 12.229 14.2121 12.1467L14.2744 12.1174C14.3084 12.1122 14.3429 12.1122 14.3769 12.1174C14.4524 12.1174 14.5141 12.0573 14.5161 11.9819C14.5174 11.9709 14.5174 11.9599 14.5161 11.9489L14.5563 11.9672C14.5788 11.9757 14.6035 11.9757 14.6259 11.9672C14.6683 11.9667 14.7094 11.9526 14.7431 11.9269C14.7715 11.9054 14.7931 11.8762 14.8054 11.8427C14.8091 11.8246 14.8091 11.8059 14.8054 11.7878C14.8121 11.7589 14.8121 11.7288 14.8054 11.6999C14.9331 11.6936 15.058 11.6599 15.1716 11.601C15.2959 11.5185 15.3755 11.3835 15.3876 11.2348C15.4064 11.2107 15.4166 11.1811 15.4169 11.1506H15.4572C15.4715 11.1554 15.4869 11.1554 15.5011 11.1506H15.5378C15.5656 11.1446 15.591 11.1306 15.611 11.1103L15.6366 11.0847C15.6513 11.074 15.6617 11.0584 15.6659 11.0407C15.6659 11.0407 15.6659 10.9968 15.6659 10.9858C15.67 10.9665 15.67 10.9465 15.6659 10.9272C15.6617 10.8998 15.6517 10.8736 15.6366 10.8503L15.6879 10.8247C15.8314 10.716 15.9324 10.5605 15.9735 10.3853C15.9959 10.3351 16.0269 10.2893 16.0651 10.2498C16.1099 10.2048 16.1175 10.1348 16.0834 10.0813C16.0703 10.0594 16.0512 10.0416 16.0285 10.03H16.0651C16.0864 10.0225 16.1062 10.0114 16.1237 9.99708C16.1237 9.99708 16.142 9.99708 16.153 9.96779C16.1643 9.95034 16.1741 9.93196 16.1823 9.91286V9.88722C16.1836 9.87383 16.1836 9.86033 16.1823 9.84694C16.1794 9.81116 16.1694 9.77631 16.153 9.74441L16.2225 9.65652Z" fill="#57A863"/>
<path d="M14.6992 10.1839V10.1363C14.6977 10.0909 14.6877 10.0462 14.6699 10.0044C14.6442 9.95684 14.4978 9.84332 14.4392 9.85064C14.3445 9.88518 14.2601 9.94313 14.1938 10.0191C14.1023 10.107 14.1133 10.1802 13.9851 10.1729H13.9155V10.1436C13.9204 10.117 13.9204 10.0897 13.9155 10.063C13.914 10.0294 13.9078 9.99612 13.8972 9.96416L13.824 9.87994C13.824 9.87994 13.6848 9.80304 13.6775 9.8067H13.5493L13.3369 9.92388H13.3149L13.1831 9.95684H13.1502L13.2673 9.78839L13.0366 9.81402H12.9671H12.8865C12.8585 9.80567 12.8324 9.79199 12.8096 9.77374C12.7764 9.74943 12.7408 9.72857 12.7034 9.71149C12.6465 9.68627 12.5877 9.66545 12.5276 9.64923C12.4799 9.63522 12.4308 9.62662 12.3811 9.6236C12.3366 9.62473 12.2934 9.63872 12.2566 9.66388C12.1998 9.70306 12.1522 9.75433 12.1175 9.81402C12.069 9.75621 12.0137 9.70456 11.9527 9.66022L11.9307 9.64191C11.8394 9.57986 11.7333 9.54321 11.6231 9.53571C11.53 9.52796 11.4383 9.563 11.3741 9.63092C11.3754 9.60897 11.3754 9.58696 11.3741 9.56501C11.3584 9.44585 11.2998 9.3365 11.2093 9.2574C11.1339 9.17593 11.0273 9.13061 10.9164 9.1329C10.8751 9.13977 10.8368 9.15891 10.8065 9.18782C10.7752 9.22128 10.7548 9.2634 10.7479 9.30867V9.33064C10.7479 9.33064 10.7479 9.33064 10.7479 9.35261C10.7465 9.36967 10.7465 9.38682 10.7479 9.40388V9.4405L10.7699 9.50275L10.7918 9.53571V9.55402L10.8285 9.60529L10.92 9.68219L10.9566 9.7005L11.0079 9.72614H11.0335H11.0702H11.0995H11.1251H11.1764H11.224H11.2899C11.2883 9.73829 11.2883 9.7506 11.2899 9.76275C11.2983 9.80219 11.3188 9.83803 11.3485 9.86529C11.456 9.94028 11.5836 9.98112 11.7147 9.98247H11.8209C11.8992 9.98076 11.9755 9.95661 12.0406 9.9129C12.0468 9.9757 12.0754 10.0342 12.1211 10.0777C12.1677 10.124 12.2259 10.1568 12.2896 10.1729C12.3952 10.1982 12.5033 10.2117 12.6118 10.2132C12.6778 10.2151 12.7435 10.2052 12.8059 10.1839C12.857 10.1644 12.9041 10.1359 12.9451 10.0997C12.9301 10.1558 12.9227 10.2137 12.9231 10.2718C12.9231 10.3194 12.9231 10.3743 12.9231 10.4219C12.2786 10.4219 11.7549 10.5794 11.7549 10.7881C11.7549 10.9968 12.2786 11.1543 12.9231 11.1543C13.5676 11.1543 14.0913 10.9968 14.0913 10.7881C14.0913 10.5794 13.758 10.5061 13.3003 10.4585C13.3086 10.4268 13.325 10.3978 13.3479 10.3743C13.4352 10.3125 13.5378 10.2758 13.6445 10.2681C13.6918 10.266 13.7381 10.2535 13.78 10.2315H13.8093L13.9558 10.2937L14.084 10.3304H14.1206H14.2378C14.368 10.3186 14.4936 10.276 14.604 10.2059H14.6259H14.6479L14.6992 10.1656V10.1839Z" fill="#039188"/>
<path d="M11.6561 9.0926L11.5682 8.96077H11.5279H11.5535C11.5367 8.96495 11.5191 8.96495 11.5022 8.96077C11.4744 8.9602 11.4479 8.9483 11.429 8.92781C11.4033 8.90205 11.3866 8.86865 11.3814 8.8326C11.3733 8.78483 11.3598 8.73814 11.3411 8.69344C11.3048 8.63156 11.2547 8.57892 11.1946 8.53964C11.1361 8.49204 11.0811 8.44809 11.0738 8.39682C11.0727 8.38709 11.0727 8.37726 11.0738 8.36753C11.0776 8.32167 11.09 8.27695 11.1104 8.2357V8.20274C11.1261 8.16959 11.1336 8.13318 11.1324 8.09654C11.1324 8.09654 11.1324 8.09654 11.1324 8.07091C11.1329 8.05993 11.1329 8.04893 11.1324 8.03795C11.1177 7.9595 11.0696 7.89133 11.0006 7.85119C10.9682 7.82961 10.9339 7.81121 10.898 7.79626C10.898 7.79626 10.8761 7.74499 10.8468 7.73767C10.8175 7.73035 10.8028 7.78527 10.7882 7.79626V7.7633C10.782 7.74287 10.7651 7.72744 10.7442 7.72302C10.7282 7.71941 10.7117 7.72689 10.7039 7.74133C10.7039 7.74133 10.7039 7.69739 10.649 7.69739C10.5941 7.69739 10.6087 7.75964 10.5977 7.75964C10.5868 7.75964 10.5355 7.75964 10.5282 7.79992C10.5208 7.8402 10.5648 7.84387 10.5684 7.85119C10.5633 7.87163 10.5633 7.89301 10.5684 7.91344C10.5684 7.93908 10.6307 7.91344 10.649 7.91344C10.648 7.9195 10.648 7.92569 10.649 7.93175C10.6673 7.96105 10.7296 7.93175 10.7296 7.93175V7.90612C10.7296 7.92809 10.7296 7.96837 10.7625 7.9757C10.7855 7.98058 10.8091 7.97027 10.8211 7.95006L10.8577 7.9757C10.88 7.99228 10.8966 8.01529 10.9053 8.04161C10.8978 8.09043 10.8817 8.13753 10.8577 8.18077C10.8287 8.24151 10.8125 8.30758 10.8101 8.37485C10.8101 8.37485 10.8101 8.39682 10.8101 8.40781C10.8084 8.42852 10.8084 8.44935 10.8101 8.47006C10.8156 8.50893 10.8336 8.54495 10.8614 8.5726C10.8796 8.59688 10.9004 8.619 10.9237 8.63851C10.981 8.67625 11.0328 8.72186 11.0775 8.77401C11.1065 8.83903 11.125 8.90825 11.1324 8.97908C11.1389 9.01689 11.15 9.05378 11.1653 9.08894C11.1797 9.12234 11.204 9.15048 11.2349 9.1695C11.2804 9.1962 11.3323 9.21012 11.3851 9.20978H11.4437L11.5132 9.19147C11.5404 9.18114 11.5662 9.16762 11.5901 9.15119C11.6177 9.1391 11.6408 9.11859 11.6561 9.0926ZM11.3301 8.78133V8.74471V8.77767V8.78133Z" fill="#57A863"/>
<path d="M11.429 6.7929C11.4986 6.7929 11.4583 6.59149 11.4583 6.59149L11.4107 6.63177C11.4279 6.65531 11.4381 6.68325 11.44 6.71234C11.4434 6.73786 11.4434 6.76372 11.44 6.78924L11.429 6.7929Z" fill="#57A863"/>
<path d="M12.2017 8.89849L12.1541 8.7923V8.71906V8.64582V8.57624L12.1321 8.51032L12.0955 8.45173L12.0625 8.42244L12.0296 8.39314L11.9673 8.37483H11.9087H11.7952H11.6744H11.6268L11.5352 8.33089L11.4766 8.23201V8.11483L11.5023 8.04892L11.5389 7.99765L11.5608 7.97568L11.6414 7.89511H11.6597L11.722 7.84385L11.7696 7.80723L11.8355 7.7523C11.8565 7.73549 11.875 7.71576 11.8904 7.69371L11.9637 7.60948L12.0149 7.51793C11.9873 7.49151 11.955 7.4704 11.9197 7.45568C11.9551 7.47033 11.9873 7.49144 12.0149 7.51793V7.44469V7.35314L11.9783 7.29089L11.9344 7.22863L11.8868 7.17371L11.8611 7.14807H11.7439L11.6817 7.22131L11.6011 7.31286L11.7293 7.40807C11.7316 7.41646 11.7316 7.42532 11.7293 7.43371C11.667 7.57286 11.5316 7.63878 11.4107 7.72666C11.3468 7.76908 11.292 7.82387 11.2496 7.88779C11.201 7.96961 11.1768 8.06365 11.18 8.15878C11.1689 8.30776 11.2336 8.45233 11.3521 8.54328C11.4174 8.58608 11.4938 8.60899 11.5718 8.6092H11.6304H11.7549H11.8282C11.8413 8.60523 11.8553 8.60523 11.8685 8.6092C11.871 8.61631 11.871 8.62406 11.8685 8.63117C11.8656 8.64952 11.8566 8.66633 11.8428 8.67878L11.8062 8.70807L11.9051 8.79962V8.90216L12.0149 8.92413H12.0406H12.0735L12.2017 8.89849Z" fill="#57A863"/>
<path d="M11.1214 7.12242C11.1214 7.18467 11.147 7.24326 11.191 7.26157C11.2762 7.27039 11.3621 7.27039 11.4473 7.26157H11.4839V7.23594L11.5425 7.03819C11.5202 7.0472 11.4968 7.05335 11.4729 7.0565H11.3521H11.3082C11.3 7.03782 11.3 7.01659 11.3082 6.99791C11.3411 6.99791 11.3814 6.97227 11.4473 6.94664C11.5132 6.92101 11.5535 6.85143 11.5425 6.84777C11.5315 6.84411 11.5096 6.88073 11.4546 6.90636C11.4108 6.92933 11.3609 6.93828 11.3118 6.93199C11.2935 6.93199 11.3118 6.89904 11.3118 6.8734C11.3293 6.83766 11.3515 6.8044 11.3777 6.77453C11.3911 6.74463 11.3974 6.71204 11.396 6.67932C11.396 6.64636 11.4729 6.60608 11.4766 6.59509C11.4803 6.58411 11.4766 6.55481 11.4437 6.55481C11.4107 6.55481 11.3777 6.60608 11.3777 6.60608H11.3558C11.3438 6.60298 11.3312 6.60298 11.3191 6.60608L11.2752 6.63537L11.2386 6.66467C11.1777 6.70911 11.1277 6.76668 11.0921 6.83312C11.0921 6.89537 11.147 6.96495 11.1507 6.97227C11.138 7.02171 11.1282 7.07184 11.1214 7.12242Z" fill="#57A863"/>
<path d="M15.3803 7.78527C15.3803 7.78527 15.3327 7.75597 15.2741 7.70471L15.1935 7.5802C15.1123 7.37325 15.0092 7.1756 14.8859 6.99062C14.7439 6.78462 14.5621 6.60907 14.3513 6.47428C14.3547 6.46093 14.361 6.44846 14.3696 6.43766C14.3696 6.43766 14.4355 6.36443 14.4135 6.35344C14.3915 6.34245 14.3293 6.35344 14.2853 6.35344C14.2414 6.35344 14.2158 6.35344 14.0949 6.25823C13.7976 6.07513 13.4586 5.97055 13.1098 5.95428C12.9231 5.95428 12.8389 6.00921 12.8279 6.04583V6.07513C12.762 6.07513 12.5532 6.07513 12.5606 6.26555C12.5606 6.34245 12.5789 6.36809 12.6411 6.3864C12.7476 6.39812 12.8489 6.43863 12.9341 6.50358C13.0056 6.55386 13.0479 6.63591 13.0476 6.7233C13.0469 6.76131 13.0381 6.79874 13.022 6.83316L13.0879 7.15541L13.1355 7.32752V7.36414L13.1794 7.67541L13.476 8.18443H13.5456H13.6079C13.6432 8.15048 13.6707 8.10924 13.6884 8.06358H13.7214C13.7214 8.08189 13.7983 8.18076 13.8459 8.20274C13.8935 8.22471 13.9191 8.20274 13.9631 8.25034C14.0377 8.33922 14.1074 8.43213 14.1718 8.52865C14.1854 8.54897 14.2001 8.56853 14.2158 8.58724C14.2275 8.59213 14.2407 8.59213 14.2524 8.58724C14.278 8.58724 14.2853 8.58724 14.2744 8.56893C14.2343 8.52677 14.2032 8.47694 14.1828 8.42245C14.1583 8.33405 14.1226 8.24913 14.0766 8.16978H14.1315C14.2062 8.2074 14.2694 8.2643 14.3146 8.33457C14.3241 8.3972 14.3439 8.45783 14.3732 8.514C14.3948 8.56855 14.4231 8.62021 14.4575 8.66781C14.4575 8.70443 14.4941 8.73372 14.516 8.73738C14.538 8.74105 14.516 8.6971 14.4941 8.66781C14.4721 8.63851 14.4721 8.55795 14.4355 8.45541C14.4165 8.37169 14.3908 8.28964 14.3586 8.21006L14.3293 8.18443H14.3513L14.3879 8.21006C14.435 8.26352 14.4711 8.32574 14.4941 8.39316C14.516 8.45541 14.5417 8.55795 14.571 8.65316C14.6003 8.74837 14.6479 8.85457 14.6589 8.82893C14.6673 8.71659 14.6498 8.60381 14.6076 8.49936C14.573 8.39285 14.5545 8.28176 14.5527 8.16978C14.5868 8.18769 14.6129 8.21775 14.6259 8.254C14.6625 8.33457 14.6259 8.38583 14.6808 8.6202C14.7054 8.7277 14.7448 8.83123 14.798 8.92781C14.8237 9.00471 14.798 9.19147 14.8346 9.23175C14.8458 9.08793 14.8458 8.94346 14.8346 8.79964C14.8346 8.70076 14.8346 8.6971 14.8053 8.45541C14.776 8.21372 14.776 8.18076 14.7724 8.17344C14.8061 8.21045 14.8289 8.25608 14.8383 8.30527C14.8822 8.45907 14.8822 8.71907 14.9115 8.78499C14.9325 8.82525 14.9509 8.86684 14.9665 8.9095C14.9958 8.99372 14.9408 9.34527 14.9994 9.34527C15.058 9.34527 15.047 8.86921 15.036 8.7264C15.0251 8.58358 15.0141 8.18809 15.0104 8.14781C15.0417 8.18496 15.0687 8.22549 15.091 8.26865V8.29428C15.091 8.39682 15.091 8.75203 15.1203 8.87288C15.1399 8.95846 15.1534 9.04536 15.1606 9.13288C15.1545 9.21909 15.1423 9.30476 15.1239 9.38921C15.1239 9.42217 15.1239 9.48076 15.1642 9.4771C15.2045 9.47344 15.1642 9.4002 15.1898 9.35992C15.1993 9.33421 15.2116 9.30965 15.2265 9.28668C15.2484 9.22443 15.2521 8.81062 15.2887 8.60555C15.3362 8.47132 15.3621 8.33043 15.3656 8.18809C15.3658 8.04861 15.3384 7.91047 15.2851 7.78161H15.351C15.36 7.78617 15.3704 7.78747 15.3803 7.78527ZM14.3952 6.49992L14.3549 6.47428L14.3952 6.49992Z" fill="#866F57"/>
<path d="M12.3664 8.9791C12.3253 8.97576 12.2877 8.95429 12.2639 8.92051C12.2639 8.9022 12.2932 8.88023 12.2895 8.86558C12.2859 8.85093 12.2676 8.82896 12.2566 8.82896C12.2373 8.7732 12.2031 8.7238 12.1577 8.68614C12.1138 8.66417 12.1577 8.72643 12.1577 8.75206C12.153 8.77255 12.153 8.79383 12.1577 8.81431C12.1731 8.83436 12.1821 8.85863 12.1833 8.88389C12.1833 8.88389 12.1833 8.90586 12.1504 8.91685H12.1101C12.0726 8.90108 12.0332 8.89001 11.9929 8.88389C11.9978 8.87217 11.9978 8.85899 11.9929 8.84727C11.9933 8.8165 11.9781 8.7876 11.9526 8.77037C11.9383 8.7661 11.923 8.7661 11.9087 8.77037C11.9034 8.7537 11.9034 8.73578 11.9087 8.7191C11.9087 8.66417 11.9417 8.65685 11.9417 8.65685C11.9271 8.65432 11.9123 8.65432 11.8977 8.65685H11.8721H11.8464C11.8259 8.65239 11.8047 8.65239 11.7842 8.65685C11.7293 8.65685 11.689 8.73009 11.678 8.77037H11.6487C11.6138 8.78384 11.5906 8.81719 11.5901 8.8546C11.581 8.84936 11.5699 8.84936 11.5608 8.8546C11.5444 8.8881 11.5444 8.92729 11.5608 8.96079C11.5634 8.98422 11.5737 9.00612 11.5901 9.02305C11.5901 9.04868 11.6231 9.09629 11.645 9.09629C11.6592 9.11722 11.6821 9.13067 11.7073 9.1329C11.7403 9.12981 11.7713 9.11561 11.7952 9.09262C11.8213 9.08778 11.8462 9.07782 11.8684 9.06333C11.888 9.06207 11.9069 9.05577 11.9233 9.04502C11.9444 9.06732 11.9709 9.08373 12.0002 9.09262C12.0295 9.09262 12.0918 9.03037 12.1248 8.98643C12.1248 8.98643 12.1504 9.03403 12.176 9.03403L12.2273 9.1146H12.4214L12.5019 9.03403C12.5019 9.03403 12.4507 8.98276 12.3664 8.9791ZM12.2126 8.9791H12.231V9.0084L12.2126 8.9791Z" fill="#F6D660"/>
<path d="M14.0583 10.063C14.0597 10.0521 14.0597 10.041 14.0583 10.0301C14.0711 10.0009 14.0711 9.96768 14.0583 9.93852V9.91655C14.0327 9.88359 14.007 9.88359 14.007 9.88359C14.007 9.87146 13.9972 9.86162 13.985 9.86162C13.985 9.86162 13.985 9.7957 13.9448 9.78472C13.9126 9.77436 13.878 9.77436 13.8459 9.78472C13.8393 9.77233 13.8306 9.76117 13.8203 9.75176C13.8076 9.73881 13.7907 9.73099 13.7727 9.72979L13.7397 9.69683C13.7297 9.68251 13.7132 9.67423 13.6958 9.67486C13.6857 9.65854 13.6734 9.64374 13.6591 9.63091L13.5822 9.565V9.44049L13.4321 9.59063C13.4321 9.59063 13.4321 9.59063 13.4321 9.61627L13.3552 9.66387L13.2893 9.69317C13.2893 9.69317 13.2893 9.69317 13.2343 9.69317H13.1831C13.1661 9.68336 13.1451 9.68336 13.1281 9.69317C13.0886 9.69627 13.0543 9.72195 13.0403 9.75908C13.021 9.75428 13.0009 9.75428 12.9817 9.75908C12.9377 9.75908 12.8901 9.78838 12.8938 9.84331C12.89 9.86266 12.89 9.88255 12.8938 9.9019C12.9019 9.91545 12.9132 9.92677 12.9267 9.93486C12.9267 9.93486 12.8938 9.87627 12.9267 9.85796C12.9597 9.83965 12.989 9.85796 13.0146 9.85796C13.0392 9.86833 13.0669 9.86833 13.0915 9.85796C13.0896 9.86763 13.0896 9.87758 13.0915 9.88725C13.0571 9.90703 13.0351 9.94286 13.0329 9.98246C13.0329 10.0404 13.0697 10.0919 13.1245 10.1106H13.1465C13.1465 10.1106 13.1025 10.0484 13.1281 10.0118C13.1538 9.97514 13.1684 10.0118 13.1831 10.0118C13.1977 10.0118 13.1831 10.0118 13.1831 10.0118C13.2076 10.0226 13.2355 10.0226 13.26 10.0118C13.2925 9.9997 13.3101 9.96447 13.3003 9.9312L13.3332 9.90922C13.3662 9.88725 13.4028 9.85429 13.4321 9.83965C13.4614 9.825 13.4321 9.85796 13.476 9.86162C13.4875 9.86749 13.5012 9.86749 13.5127 9.86162C13.5195 9.88152 13.5394 9.8938 13.5603 9.89091C13.5831 9.89374 13.6046 9.87988 13.6115 9.85796H13.6591C13.6563 9.865 13.6563 9.87288 13.6591 9.87993C13.6607 9.91424 13.6794 9.94548 13.7088 9.96315C13.7383 9.98082 13.7746 9.98257 13.8056 9.96782C13.8056 9.96782 13.8239 9.96782 13.8276 9.96782C13.8276 9.96782 13.8825 9.96782 13.9008 10.0008C13.9191 10.0337 13.8459 10.0813 13.8459 10.0813C13.8664 10.0857 13.8876 10.0857 13.9081 10.0813H13.9448C13.9606 10.098 13.9836 10.1059 14.0064 10.1022C14.0291 10.0985 14.0485 10.0839 14.0583 10.063Z" fill="#F6D660"/>
<path d="M14.8969 9.47347L14.8236 9.41854C14.8236 9.41854 14.6039 9.24643 14.3219 9.05234L13.736 8.6129C13.7399 8.53006 13.73 8.44716 13.7067 8.36755C13.6889 8.31046 13.663 8.25621 13.6298 8.20642C13.6848 8.16248 13.6811 8.07826 13.6811 8.02333C13.6811 7.9684 13.6115 7.89149 13.6408 7.92811C13.6617 7.95672 13.672 7.99164 13.6701 8.02699C13.6662 8.07755 13.6391 8.12347 13.5969 8.1515C13.5682 8.16647 13.534 8.16647 13.5053 8.1515C13.4832 8.0797 13.4524 8.01085 13.4138 7.94642C13.3698 7.8622 13.2783 7.72671 13.2783 7.72304V7.68642C13.2783 7.68642 13.2417 7.60586 13.2197 7.56924C13.1974 7.52782 13.1779 7.48501 13.1611 7.44107C13.1677 7.37165 13.1677 7.30176 13.1611 7.23234C13.1553 7.17618 13.143 7.12089 13.1245 7.06755C13.151 7.05902 13.1678 7.03299 13.1648 7.0053C13.132 6.978 13.1036 6.9459 13.0805 6.91009C13.0456 6.85201 13.0139 6.79211 12.9853 6.73065C12.9526 6.67802 12.9088 6.63306 12.8572 6.59882C12.865 6.57628 12.865 6.55178 12.8572 6.52924C12.8572 6.52924 12.8572 6.55487 12.7839 6.55487C12.7277 6.54689 12.6733 6.52956 12.6228 6.50361C12.5768 6.48796 12.5285 6.48053 12.48 6.48164C12.4703 6.48371 12.4603 6.48371 12.4507 6.48164H12.4214C12.4152 6.42097 12.391 6.36355 12.3518 6.31685C12.3481 6.3422 12.3407 6.36687 12.3298 6.39009C12.3101 6.42513 12.2854 6.45719 12.2566 6.4853C12.2539 6.44458 12.2477 6.40415 12.2383 6.36445C12.2383 6.28755 12.1943 6.30586 12.1943 6.30586V6.33516C12.1954 6.41617 12.1778 6.49633 12.1431 6.56952L12.0808 6.59882C12.0808 6.59882 12.1065 6.56586 12.1028 6.49628C12.0991 6.42671 12.0479 6.39741 12.0479 6.39741C12.055 6.44107 12.055 6.48558 12.0479 6.52924C12.0373 6.58093 12.0133 6.62893 11.9783 6.6684C11.9817 6.64288 11.9817 6.61701 11.9783 6.59149C11.9783 6.49262 11.9343 6.49628 11.9343 6.49628C11.9321 6.52662 11.9246 6.55634 11.9124 6.58417C11.8923 6.64992 11.8572 6.7101 11.8098 6.75995C11.7146 6.86248 11.6743 6.86614 11.6853 6.91009C11.6871 6.92086 11.6932 6.93044 11.7021 6.93666C11.7111 6.94287 11.7222 6.94517 11.7329 6.94304H11.7622H11.7805C11.8333 6.97298 11.8921 6.99052 11.9526 6.99431C11.9893 6.99431 12.0186 6.96502 12.0845 6.96502C12.1504 6.96502 12.165 6.98699 12.165 6.98699C12.1791 7.00817 12.1979 7.02573 12.22 7.03826C12.22 7.03826 12.2676 7.03826 12.2895 7.03826C12.3033 7.05892 12.3109 7.08303 12.3115 7.10783H12.3298C12.3225 7.13433 12.3127 7.16008 12.3005 7.18473C12.2786 7.23234 12.2383 7.27262 12.2419 7.27995H12.2639H12.2895L12.209 7.40811C12.1724 7.46671 12.1174 7.55093 12.1321 7.55093H12.1834C12.1823 7.56067 12.1823 7.57049 12.1834 7.58023C12.121 7.66493 12.0785 7.76254 12.0588 7.86586C12.0588 7.9684 12.0772 7.94642 12.1101 8.04164C12.1322 8.12209 12.1481 8.20411 12.1577 8.28699C12.1796 8.27977 12.2005 8.26993 12.22 8.25769L12.2749 8.34558C12.2638 8.41226 12.2714 8.4807 12.2969 8.54333C12.342 8.62025 12.3961 8.69154 12.458 8.75572L12.4141 8.7191C12.4015 8.70392 12.3851 8.69251 12.3665 8.68614C12.3446 8.67505 12.3187 8.67505 12.2969 8.68614C12.3078 8.72241 12.3238 8.75693 12.3445 8.78868C12.3781 8.81536 12.415 8.83752 12.4543 8.85459C12.4175 8.85552 12.3813 8.86426 12.3481 8.88023C12.323 8.90433 12.3009 8.93138 12.2822 8.96079C12.2822 8.98276 12.3225 9.01206 12.4031 9.04868C12.3789 9.05361 12.354 9.05361 12.3298 9.04868C12.2712 9.04868 12.2639 9.0084 12.2566 9.01206L12.2786 9.04502C12.2494 9.041 12.2198 9.041 12.1907 9.04502C12.1597 9.04727 12.1314 9.06343 12.1138 9.08896C12.1564 9.11972 12.2051 9.14095 12.2566 9.15121L12.4141 9.1915C12.401 9.21416 12.401 9.24207 12.4141 9.26474C12.4141 9.26474 12.4617 9.30135 12.6008 9.26474C12.6516 9.25199 12.7007 9.23356 12.7473 9.20981H12.7729C12.7729 9.20981 12.8205 9.316 12.8535 9.31234C12.8864 9.30868 12.9048 9.14389 12.9048 9.07431L13.0842 9.27938C13.0842 9.27938 13.1172 9.31966 13.1391 9.316C13.1391 9.316 13.1794 9.39657 13.216 9.46248C13.2526 9.5284 13.2856 9.59431 13.3186 9.57966C13.3515 9.56502 13.3588 9.51741 13.3625 9.51009V9.52107C13.4138 9.56868 13.498 9.66755 13.5126 9.66389V9.61995C13.52 9.57262 13.52 9.52445 13.5126 9.47713C13.5456 9.52474 13.6042 9.6053 13.6262 9.59431C13.6325 9.5555 13.6325 9.51594 13.6262 9.47713C13.6481 9.4991 13.6848 9.53206 13.6994 9.52474C13.7141 9.51741 13.6994 9.44051 13.6994 9.42586C13.701 9.40759 13.701 9.38921 13.6994 9.37093V9.3453L13.9228 9.60896C13.9456 9.63087 13.9755 9.64386 14.007 9.64558C14.0406 9.65032 14.0734 9.63246 14.0876 9.60164C14.1184 9.63647 14.1594 9.66079 14.2048 9.67121C14.2538 9.67578 14.3015 9.65334 14.3293 9.61262L14.3659 9.63826C14.458 9.64588 14.5495 9.61841 14.6222 9.56135H14.6442C14.787 9.61995 14.9115 9.48812 14.8969 9.47347ZM13.5236 8.20642C13.5246 8.21372 13.5246 8.2211 13.5236 8.2284C13.5242 8.22108 13.5242 8.21374 13.5236 8.20642ZM12.4836 7.22868C12.4815 7.21288 12.4815 7.19687 12.4836 7.18107C12.48 7.2053 12.4787 7.22984 12.48 7.25431L12.4836 7.22868ZM12.3774 7.28727C12.362 7.29881 12.3447 7.30749 12.3262 7.3129L12.3774 7.28727Z" fill="#866F57"/>
<path d="M12.2273 7.06024C12.2273 7.00531 12.1504 6.97235 12.0772 6.97235C12.0039 6.97235 11.9893 7.00165 11.938 7.00165C11.8867 7.00165 11.8062 6.92841 11.6963 6.92841H11.6743L11.6487 6.95038H11.6304V6.96869C11.6282 6.97709 11.6282 6.98591 11.6304 6.99432C11.6304 6.99432 11.5974 6.99432 11.5498 7.05291C11.5294 7.07401 11.5132 7.09889 11.5022 7.12615C11.5004 7.14197 11.5004 7.15795 11.5022 7.17376C11.4992 7.18825 11.4992 7.20321 11.5022 7.2177L11.5279 7.27263L11.5755 7.3239L11.6121 7.34587H11.6377H11.689C11.7108 7.34768 11.7323 7.33962 11.7476 7.3239L11.7036 7.28362L11.656 7.20305C11.6532 7.19225 11.6532 7.18091 11.656 7.1701C11.6778 7.09594 11.7473 7.04612 11.8245 7.04925H11.8684H11.8904L11.9234 7.08587L11.9527 7.12615C11.9527 7.12615 12.2529 7.12249 12.2273 7.06024Z" fill="#F6D660"/>
<path d="M12.1065 8.94244C12.1148 8.94523 12.1238 8.94523 12.1321 8.94244H12.1065Z" fill="#977C2E"/>
</g>
<defs>
<clipPath id="clip0">
<rect width="26" height="17.5775" fill="white"/>
</clipPath>
</defs>
</svg>
