<svg width="26" height="18" viewBox="0 0 26 18" fill="none" xmlns="http://www.w3.org/2000/svg">
<g clip-path="url(#clip0)">
<path d="M23.3963 0.0439453H2.42057C1.13429 0.0439453 0.0915527 1.08668 0.0915527 2.37296V8.83268H25.7254V2.37296C25.7254 1.08668 24.6826 0.0439453 23.3963 0.0439453Z" fill="#4758A9"/>
<path d="M0.0915526 14.9226C0.0915526 16.2088 1.13429 17.2516 2.42057 17.2516H23.3927C24.0104 17.2516 24.6028 17.0062 25.0395 16.5694C25.4763 16.1326 25.7217 15.5403 25.7217 14.9226V8.8327H0.0878906L0.0915526 14.9226Z" fill="#ED5565"/>
<path d="M0.787333 0.71405C0.340999 1.15193 0.0901503 1.75133 0.0915586 2.37659V14.9262C0.0919794 15.5579 0.349836 16.1622 0.805643 16.5997L9.24649 8.83264L0.787333 0.71405Z" fill="white"/>
<path d="M3.75353 10.1144C4.56251 10.1144 5.21832 9.45858 5.21832 8.6496C5.21832 7.84062 4.56251 7.18481 3.75353 7.18481C2.94455 7.18481 2.28874 7.84062 2.28874 8.6496C2.28874 9.45858 2.94455 10.1144 3.75353 10.1144Z" fill="#F6D660"/>
</g>
<defs>
<clipPath id="clip0">
<rect width="26" height="17.5775" fill="white"/>
</clipPath>
</defs>
</svg>
