<svg width="26" height="18" viewBox="0 0 26 18" fill="none" xmlns="http://www.w3.org/2000/svg">
<path d="M23.6377 17.4571H2.366C1.7382 17.4581 1.13582 17.2092 0.691897 16.7652C0.247972 16.3213 -0.000984963 15.7189 2.92886e-06 15.0911L0 8.54285H26L26 15.0911C26.001 15.7183 25.7525 16.3201 25.3094 16.7639C24.8663 17.2077 24.2649 17.4571 23.6377 17.4571Z" fill="white"/>
<path d="M0 2.36229C0 1.05763 1.05763 0 2.36229 0H23.634C24.9386 0 25.9963 1.05763 25.9963 2.36229V8.54286H0V2.36229Z" fill="#ED5565"/>
<path d="M7.20563 3.58058C7.14992 3.61772 7.11649 3.58058 7.13135 3.53229L7.19077 3.29458C7.20384 3.22293 7.17848 3.14967 7.12392 3.10144L6.94192 2.94915C6.88992 2.90458 6.90477 2.87115 6.97163 2.86744H7.22792C7.30003 2.86303 7.3627 2.81639 7.38763 2.74858L7.46935 2.48858C7.48792 2.42544 7.52506 2.42544 7.54735 2.48858L7.64392 2.74487C7.67335 2.81179 7.73804 2.85635 7.81106 2.86001H8.07106C8.13792 2.86001 8.15277 2.89715 8.10077 2.94172L7.9002 3.10887C7.84704 3.15784 7.82433 3.23162 7.84077 3.30201L7.90392 3.51372C7.92249 3.57687 7.90392 3.59915 7.83335 3.56572L7.62163 3.43944C7.55689 3.40375 7.47837 3.40375 7.41363 3.43944L7.20563 3.58058ZM6.09135 4.51658C6.03563 4.55372 6.0022 4.51658 6.01706 4.46829L6.07649 4.23058C6.09046 4.1596 6.06655 4.08646 6.01335 4.03744L5.83135 3.88515C5.77935 3.84429 5.7942 3.80715 5.86106 3.80344H6.11735C6.18945 3.79903 6.25213 3.75239 6.27706 3.68458L6.35877 3.42458C6.37735 3.36144 6.41449 3.36144 6.43677 3.42458L6.53335 3.68087C6.56278 3.74779 6.62747 3.79235 6.70049 3.79601H6.9642C7.03106 3.79601 7.04592 3.83315 6.99392 3.87772L6.79335 4.04487C6.74018 4.09384 6.71748 4.16762 6.73392 4.23801L6.79706 4.44972C6.81563 4.51287 6.79706 4.53515 6.72649 4.50172L6.51477 4.37544C6.45003 4.33975 6.37151 4.33975 6.30677 4.37544L6.09135 4.51658ZM8.37192 4.51658C8.3162 4.55372 8.28277 4.51658 8.29763 4.46829L8.35706 4.23058C8.36938 4.15899 8.34415 4.08609 8.2902 4.03744L8.1082 3.88515C8.0562 3.84429 8.07106 3.80715 8.13792 3.80344H8.3942C8.46631 3.79903 8.52899 3.75239 8.55392 3.68458L8.63563 3.42458C8.6542 3.36144 8.69134 3.36144 8.71363 3.42458L8.8102 3.68087C8.83963 3.74779 8.90433 3.79235 8.97735 3.79601H9.23735C9.3042 3.79601 9.31906 3.83315 9.26706 3.87772L9.06649 4.04487C9.01332 4.09384 8.99062 4.16762 9.00706 4.23801L9.0702 4.44972C9.08877 4.51287 9.0702 4.53515 8.99963 4.50172L8.78792 4.37544C8.72318 4.33975 8.64466 4.33975 8.57992 4.37544L8.37192 4.51658ZM7.9782 5.79801C7.92249 5.83515 7.88906 5.79801 7.90392 5.74972L7.96335 5.51201C7.97703 5.43921 7.95168 5.36456 7.89649 5.31515L7.71449 5.16287C7.66249 5.11829 7.67735 5.08115 7.7442 5.08115H8.00049C8.07226 5.07583 8.13449 5.02951 8.1602 4.96229L8.24192 4.70229C8.26049 4.63915 8.29763 4.63915 8.31992 4.70229L8.41649 4.95858C8.44592 5.0255 8.51062 5.07007 8.58363 5.07372H8.84735C8.9142 5.07372 8.92906 5.11087 8.87706 5.15544L8.67649 5.32258C8.62332 5.37155 8.60062 5.44534 8.61706 5.51572L8.6802 5.72744C8.69877 5.79058 8.6802 5.81287 8.60963 5.77944L8.39792 5.65315C8.33318 5.61746 8.25466 5.61746 8.18992 5.65315L7.9782 5.79801ZM6.57049 5.79801C6.51477 5.83515 6.48135 5.79801 6.4962 5.74972L6.55563 5.51201C6.56932 5.43921 6.54396 5.36456 6.48877 5.31515L6.30677 5.16287C6.25477 5.11829 6.26963 5.08115 6.33649 5.08115H6.59277C6.66455 5.07583 6.72678 5.02951 6.75249 4.96229L6.8342 4.70229C6.85277 4.63915 6.88992 4.63915 6.9122 4.70229L7.00877 4.95858C7.03821 5.0255 7.1029 5.07007 7.17592 5.07372H7.43592C7.50277 5.07372 7.51763 5.11087 7.46563 5.15544L7.26506 5.32258C7.2119 5.37155 7.18919 5.44534 7.20563 5.51572L7.26877 5.72744C7.28735 5.79058 7.26877 5.81287 7.1982 5.77944L6.98649 5.65315C6.92175 5.61746 6.84323 5.61746 6.77849 5.65315L6.57049 5.79801ZM5.99477 5.96144C5.89449 6.01321 5.79015 6.05669 5.68277 6.09144C4.65096 6.44208 3.52697 5.91131 3.1422 4.89172C3.01232 4.51164 3.00067 4.10113 3.10877 3.71429C3.43226 2.67519 4.523 2.08129 5.57135 2.37344C5.68079 2.40302 5.78763 2.44153 5.89077 2.48858C5.92558 2.49824 5.96176 2.4785 5.97249 2.44401C5.98154 2.41533 5.9691 2.38425 5.94277 2.36972C5.28292 1.86514 4.4192 1.71221 3.62621 1.95956C2.83321 2.20691 2.20961 2.82376 1.95363 3.61401C1.81722 4.08068 1.83152 4.5785 1.99449 5.03658C2.29472 5.80964 2.95047 6.38963 3.75441 6.5932C4.55835 6.79677 5.4111 6.59874 6.04306 6.06172C6.06799 6.04605 6.07877 6.01523 6.06906 5.98744C6.05379 5.95348 6.01478 5.93722 5.97992 5.95029L5.99477 5.96144Z" fill="white"/>
</svg>
