<svg width="26" height="18" viewBox="0 0 26 18" fill="none" xmlns="http://www.w3.org/2000/svg">
<g clip-path="url(#clip0)">
<path d="M25.7766 2.37296C25.7756 2.22041 25.7597 2.06833 25.729 1.91888C25.729 1.8493 25.6961 1.77972 25.6778 1.71381C25.6332 1.5744 25.5756 1.43952 25.5056 1.31099C25.4837 1.27437 25.4617 1.23775 25.4397 1.20479L25.3885 1.12057L25.3335 1.04367L25.2566 0.937471L25.2054 0.882541L25.1065 0.772682L25.0149 0.692119L24.9417 0.622541H24.9197H24.8978C24.7954 0.541528 24.6863 0.469255 24.5718 0.406485L24.4766 0.358879L24.4327 0.336907L24.3704 0.307612L24.2972 0.281978L24.1873 0.241696H24.158H24.0885C23.9969 0.21676 23.904 0.197197 23.8101 0.183105H23.7662C23.6667 0.16908 23.5664 0.161739 23.4659 0.161133H12.989C12.989 3.09071 12.989 6.02029 12.989 8.94987H0.142822V15.0434C0.143141 15.2781 0.178944 15.5115 0.249019 15.7355C0.270991 15.8087 0.296625 15.8795 0.325921 15.9479C0.384965 16.0864 0.457324 16.2189 0.541977 16.3434C0.58348 16.4044 0.628644 16.4642 0.67747 16.5228C0.754607 16.6161 0.839103 16.7031 0.930146 16.7828H0.948456C1.04159 16.8635 1.14075 16.937 1.24508 17.0025C1.42315 17.1132 1.6153 17.1994 1.81634 17.2589H1.83099C1.91765 17.2836 2.00569 17.3031 2.09465 17.3175H2.16423C2.26374 17.3313 2.36405 17.3386 2.46451 17.3394H23.4366C23.5371 17.3389 23.6374 17.3315 23.7369 17.3175H23.7809C23.8747 17.3033 23.9676 17.2838 24.0592 17.2589H24.1287H24.158L24.2679 17.2186L24.3411 17.193L24.3961 17.1673L24.473 17.1307L24.5462 17.0978L24.6487 17.0355L24.722 16.9916L24.7916 16.9403L24.8575 16.8927L24.9014 16.8597L24.938 16.8268C25.0386 16.7408 25.1317 16.6464 25.2163 16.5448L25.2932 16.4386L25.3482 16.3654L25.3994 16.2811C25.4214 16.2445 25.4434 16.2116 25.4654 16.1749C25.5353 16.0464 25.593 15.9115 25.6375 15.7721C25.6375 15.7135 25.6704 15.6549 25.6814 15.5963V15.5561C25.7118 15.4078 25.7278 15.257 25.729 15.1056C25.729 15.1056 25.729 15.1056 25.729 15.0873V2.37296H25.7766Z" fill="#ED5565"/>
<path d="M12.989 0.0402832H2.47184C2.3491 0.0416474 2.22665 0.0526673 2.10564 0.073241H2.05071C1.93626 0.0951906 1.82363 0.125795 1.71381 0.16479L1.65156 0.186762C1.54432 0.227811 1.44027 0.276772 1.34029 0.333241L1.29635 0.358875C1.10643 0.468356 0.9347 0.606725 0.787332 0.769016L0.736064 0.823945C0.670139 0.898118 0.608983 0.976398 0.552966 1.05831C0.292237 1.44303 0.153168 1.89723 0.153811 2.36197L0.153809 8.82169H13C12.9927 5.897 12.989 2.96986 12.989 0.0402832Z" fill="#4758A9"/>
<path d="M8.67156 5.17074C8.67648 5.05695 8.70649 4.94566 8.75945 4.84483L8.90592 4.58483C8.95358 4.49041 8.95358 4.37897 8.90592 4.28455L8.75212 4.01722C8.70123 3.91689 8.67132 3.80724 8.66423 3.69497V3.38736C8.65715 3.28212 8.6017 3.1861 8.51409 3.12736L8.25409 2.98088C8.15735 2.9211 8.07585 2.8396 8.01607 2.74286L7.86592 2.48286C7.80799 2.39439 7.7115 2.33867 7.60593 2.33271H7.29832C7.18462 2.32721 7.07345 2.29723 6.9724 2.24483L6.70874 2.09102C6.61305 2.04331 6.50049 2.04331 6.4048 2.09102L6.14846 2.24117C6.04776 2.29447 5.93639 2.3245 5.82254 2.32905H5.52593C5.42035 2.33501 5.32386 2.39073 5.26593 2.47919L5.11212 2.74652C5.05152 2.84262 4.9702 2.92395 4.87409 2.98455L4.61043 3.13835C4.52152 3.19586 4.46566 3.29259 4.46029 3.39835V3.69863C4.4561 3.81091 4.42735 3.92091 4.37607 4.02088L4.22592 4.28088C4.17827 4.37531 4.17827 4.48674 4.22592 4.58117L4.37973 4.84849C4.43269 4.94932 4.4627 5.06062 4.46762 5.1744V5.493C4.47414 5.59841 4.52972 5.69465 4.61776 5.753L4.87776 5.89948C4.9745 5.95926 5.056 6.04076 5.11578 6.1375L5.26593 6.3975C5.32386 6.48597 5.42035 6.54169 5.52593 6.54764H5.83353C5.94723 6.55315 6.0584 6.58313 6.15945 6.63553L6.42677 6.78933C6.52119 6.83699 6.63263 6.83699 6.72705 6.78933L6.98339 6.63919C7.08427 6.58635 7.19554 6.55634 7.3093 6.55131H7.60593C7.7115 6.54535 7.80799 6.48963 7.86592 6.40117L8.01973 6.13384C8.08023 6.03766 8.16158 5.95631 8.25776 5.89581L8.52508 5.74201C8.61259 5.68368 8.66701 5.58708 8.67156 5.48201V5.18539V5.17074Z" fill="white"/>
</g>
<defs>
<clipPath id="clip0">
<rect width="26" height="17.5775" fill="white"/>
</clipPath>
</defs>
</svg>
