<svg width="26" height="18" viewBox="0 0 26 18" fill="none" xmlns="http://www.w3.org/2000/svg">
<g clip-path="url(#clip0)">
<path d="M23.4476 0.0915527H2.47184C1.18556 0.0915527 0.142822 1.13429 0.142822 2.42057V14.9738C0.142822 16.2601 1.18556 17.3028 2.47184 17.3028H23.4476C24.7339 17.3028 25.7766 16.2601 25.7766 14.9738V2.42057C25.7766 1.13429 24.7339 0.0915527 23.4476 0.0915527Z" fill="#ED5565"/>
<path d="M11.3521 11.4546C11.0811 11.6341 10.931 11.5242 11.0189 11.2129L11.3375 10.0484C11.4126 9.69924 11.3066 9.33569 11.0555 9.08167L10.2132 8.31265C9.97156 8.09293 10.0411 7.91716 10.3671 7.91716H11.5792C11.9258 7.90245 12.2301 7.68182 12.3518 7.35688L12.7693 6.08617C12.8718 5.77857 13.0366 5.77857 13.1355 6.08617L13.5493 7.36054C13.6762 7.68655 13.9771 7.91226 14.3256 7.94279L15.5597 7.9904C15.8856 7.9904 15.9442 8.18082 15.6916 8.38589L14.7285 9.17688C14.4681 9.41659 14.3516 9.77464 14.4209 10.1217L14.6918 11.1617C14.7724 11.4766 14.6186 11.5865 14.3476 11.4107L13.3589 10.7662C13.0547 10.5879 12.678 10.5879 12.3738 10.7662L11.3521 11.4546Z" fill="#F6D660"/>
</g>
<defs>
<clipPath id="clip0">
<rect width="26" height="17.5775" fill="white"/>
</clipPath>
</defs>
</svg>
