<svg width="346" height="73" viewBox="0 0 346 73" fill="none" xmlns="http://www.w3.org/2000/svg">
<g filter="url(#filter0_d)">
<path d="M69.1561 22.4376C67.8801 21.9096 66.4721 22.4816 65.9441 23.7136L57.2105 44.376L51.5345 30.868C51.0945 29.9 50.1705 29.372 49.2465 29.372C48.2785 29.372 47.3545 29.9 46.9585 30.868L41.2825 44.376L32.0926 22.7135C31.6086 21.4815 30.1566 20.9095 28.9686 21.4375C27.6926 21.9215 27.1646 23.3735 27.6486 24.5615L39.0385 51.504C39.1265 51.636 39.1705 51.812 39.2585 51.9V51.944C39.3465 52.032 39.3905 52.12 39.4785 52.208C39.5225 52.296 39.5225 52.296 39.5665 52.34C39.6985 52.384 39.7425 52.472 39.8745 52.56C39.8745 52.56 39.8745 52.56 39.9185 52.56C40.0065 52.648 40.1825 52.78 40.3145 52.824C40.3585 52.824 40.3585 52.824 40.4025 52.868C40.4905 52.868 40.5785 52.912 40.7105 52.956C40.7545 52.956 40.7985 52.956 40.8425 52.956C40.9745 53 41.1505 53 41.2825 53C41.4145 53 41.5465 53 41.6785 52.956C41.7225 52.956 41.7665 52.956 41.8105 52.956C41.8985 52.912 41.9865 52.868 42.1625 52.868C42.1625 52.824 42.2065 52.824 42.2065 52.824C42.2065 52.824 42.2065 52.824 42.2505 52.824C42.3385 52.78 42.4705 52.648 42.6025 52.56C42.6025 52.56 42.6025 52.56 42.6905 52.56C42.7785 52.472 42.8665 52.384 42.9545 52.34C42.9545 52.296 42.9985 52.296 42.9985 52.208C43.0865 52.12 43.1745 52.032 43.2625 51.944C43.2625 51.944 43.2625 51.9 43.3065 51.9C43.3505 51.812 43.4385 51.636 43.4825 51.504L49.2465 37.864L55.0105 51.504C55.0545 51.636 55.0985 51.812 55.1865 51.9C55.1865 51.9 55.1865 51.944 55.2745 51.944C55.3185 52.032 55.4065 52.12 55.4505 52.208C55.4945 52.296 55.4945 52.296 55.5385 52.34C55.6265 52.384 55.7145 52.472 55.8465 52.56C55.8465 52.56 55.8465 52.56 55.8905 52.56C55.9785 52.648 56.1105 52.78 56.2865 52.824C56.3305 52.824 56.3305 52.824 56.3745 52.868C56.4625 52.868 56.5505 52.912 56.6825 52.956C56.6825 52.956 56.7265 52.956 56.8145 52.956C56.9465 53 57.0785 53 57.2105 53C57.3865 53 57.5185 53 57.6505 52.956C57.6505 52.956 57.6945 52.956 57.7385 52.956C57.8705 52.912 58.0025 52.868 58.0905 52.868C58.0905 52.824 58.1345 52.824 58.1345 52.824H58.1785C58.3545 52.78 58.4425 52.648 58.5745 52.56H58.6185C58.7065 52.472 58.8385 52.384 58.9265 52.34C58.9265 52.296 58.9705 52.296 58.9705 52.208C59.0585 52.12 59.1465 52.032 59.1905 51.944L59.2345 51.9C59.3225 51.812 59.4105 51.636 59.4545 51.504L70.3881 25.5616C70.9161 24.3736 70.3441 22.9216 69.1561 22.4376Z" fill="#CF3947"/>
<path d="M121.145 53C125.017 53 128.537 51.724 131.309 49.568C132.365 48.732 132.541 47.148 131.749 46.048C130.869 44.992 129.241 44.816 128.229 45.564C126.249 47.148 123.873 47.984 121.145 47.984C118.109 47.984 115.293 46.752 113.225 44.816C111.245 42.88 110.013 40.152 110.013 37.16C110.013 34.168 111.245 31.528 113.225 29.504C115.293 27.568 118.109 26.336 121.145 26.336C123.873 26.336 126.293 27.172 128.229 28.756C129.241 29.548 130.869 29.372 131.749 28.272C132.541 27.172 132.365 25.632 131.309 24.752C128.537 22.596 125.017 21.32 121.145 21.32C112.345 21.364 105.041 28.448 104.997 37.16C105.041 45.916 112.345 53 121.145 53Z" fill="#CF3947"/>
<path d="M139.086 53C140.45 53 141.55 51.944 141.55 50.58V40.02H152.946V50.58C152.946 51.944 154.002 53 155.366 53C156.73 53 157.83 51.944 157.83 50.58V24.62C157.83 23.256 156.73 22.2 155.366 22.2C154.002 22.2 152.946 23.256 152.946 24.62V35.18H141.55V24.62C141.55 23.256 140.45 22.2 139.086 22.2C137.722 22.2 136.666 23.256 136.666 24.62V50.58C136.666 51.944 137.722 53 139.086 53Z" fill="#CF3947"/>
<path d="M164.726 53L164.77 52.956C164.77 52.956 164.77 53 164.858 53H179.114C180.39 53 181.534 51.9 181.534 50.58C181.534 49.216 180.39 48.116 179.114 48.116H167.19V40.02H177.442C178.762 40.02 179.862 38.92 179.862 37.556C179.862 36.28 178.762 35.136 177.442 35.136H167.19V27.084H179.114C180.39 27.084 181.534 25.984 181.534 24.62C181.534 23.256 180.39 22.2 179.114 22.2H164.858C164.77 22.2 164.77 22.2 164.77 22.2H164.726C163.362 22.2 162.306 23.256 162.306 24.62V50.58C162.306 51.9 163.362 53 164.726 53Z" fill="#CF3947"/>
<path d="M185.118 48.556C187.626 50.536 191.63 52.912 196.382 52.956C199.506 52.956 202.366 52.032 204.522 50.448C206.722 48.864 208.306 46.444 208.306 43.628C208.306 42.264 207.91 40.944 207.25 39.888C206.238 38.26 204.654 37.116 202.85 36.236C201.09 35.4 199.022 34.828 196.778 34.388H196.69C194.314 33.948 192.334 33.244 191.19 32.452C190.618 32.056 190.222 31.66 190.002 31.308C189.782 30.956 189.694 30.604 189.694 30.076C189.694 29.152 190.178 28.184 191.366 27.304C192.554 26.424 194.314 25.808 196.294 25.808C198.978 25.808 201.134 27.128 203.378 28.624C204.434 29.328 205.842 29.02 206.502 27.964C207.206 26.952 206.898 25.544 205.886 24.84C203.642 23.388 200.518 21.32 196.294 21.32C193.434 21.32 190.75 22.156 188.682 23.652C186.658 25.148 185.162 27.436 185.162 30.076C185.162 31.396 185.514 32.628 186.174 33.684C187.142 35.224 188.594 36.324 190.266 37.116C191.938 37.908 193.874 38.436 195.942 38.832H196.03C198.626 39.316 200.782 40.064 202.058 40.9C202.718 41.34 203.114 41.78 203.378 42.22C203.642 42.66 203.774 43.056 203.774 43.628C203.774 44.728 203.202 45.828 201.882 46.796C200.562 47.764 198.582 48.424 196.382 48.424C193.258 48.468 189.914 46.62 187.978 45.036C187.01 44.244 185.558 44.376 184.766 45.344C184.018 46.312 184.15 47.764 185.118 48.556Z" fill="#CF3947"/>
<path d="M106.128 24.62C106.128 23.256 105.028 22.2 103.708 22.2H84.9198C83.5558 22.2 82.4998 23.256 82.4998 24.62C82.4998 25.94 83.5558 27.084 84.9198 27.084H91.8718L85.081 49.6248C84.5976 50.9653 85.2167 52.3613 86.4998 52.824C87.7416 53.2719 89.192 52.6221 89.6754 51.2817L96.7118 27.084H103.708C105.028 27.084 106.128 25.94 106.128 24.62Z" fill="#CF3947"/>
</g>
<g filter="url(#filter1_d)">
<path d="M3.46021 48.4768C5.96821 50.4568 9.97221 52.8328 14.7242 52.8768C17.8482 52.8768 20.7082 51.9528 22.8642 50.3688C25.0642 48.7848 26.6482 46.3648 26.6482 43.5488C26.6482 42.1848 26.2522 40.8648 25.5922 39.8088C24.5802 38.1808 22.9962 37.0368 21.1922 36.1568C19.4322 35.3208 17.3642 34.7488 15.1202 34.3088H15.0322C12.6562 33.8688 10.6762 33.1648 9.53221 32.3728C8.96021 31.9768 8.56421 31.5808 8.34421 31.2288C8.12421 30.8768 8.03621 30.5248 8.03621 29.9968C8.03621 29.0728 8.52021 28.1048 9.70821 27.2248C10.8962 26.3448 12.6562 25.7288 14.6362 25.7288C17.3202 25.7288 19.4762 27.0488 21.7202 28.5448C22.7762 29.2488 24.1842 28.9408 24.8442 27.8848C25.5482 26.8728 25.2402 25.4648 24.2282 24.7608C21.9842 23.3088 18.8602 21.2408 14.6362 21.2408C11.7762 21.2408 9.09222 22.0768 7.02422 23.5728C5.00022 25.0688 3.50421 27.3568 3.50421 29.9968C3.50421 31.3168 3.85622 32.5488 4.51622 33.6048C5.48422 35.1448 6.93622 36.2448 8.60822 37.0368C10.2802 37.8288 12.2162 38.3568 14.2842 38.7528H14.3722C16.9682 39.2368 19.1242 39.9848 20.4002 40.8208C21.0602 41.2608 21.4562 41.7008 21.7202 42.1408C21.9842 42.5808 22.1162 42.9768 22.1162 43.5488C22.1162 44.6488 21.5442 45.7488 20.2242 46.7168C18.9042 47.6848 16.9242 48.3448 14.7242 48.3448C11.6002 48.3888 8.25621 46.5408 6.32021 44.9568C5.35221 44.1648 3.90022 44.2968 3.10822 45.2648C2.36022 46.2328 2.49221 47.6848 3.46021 48.4768Z" fill="#CF3947"/>
</g>
<g filter="url(#filter2_d)">
<path d="M65.6184 50.2188C65.2481 51.2455 65.9548 52.3986 67.2379 52.8613C68.4797 53.3091 69.8425 52.9024 70.2127 51.8757L77.2475 32.3689C77.6178 31.3422 76.8283 30.1593 75.5865 29.7115C74.3034 29.2487 73.0234 29.6853 72.6532 30.712L65.6184 50.2188Z" fill="#CF3947"/>
</g>
<g filter="url(#filter3_d)">
<path d="M248.048 36.7412C247.853 36.7412 247.682 36.8958 247.535 37.2051C246.917 38.4095 246.257 39.5 245.558 40.4766C244.874 41.4531 244.182 42.2832 243.482 42.9668C242.783 43.6504 242.091 44.1794 241.407 44.5537C240.724 44.9118 240.081 45.0908 239.479 45.0908C238.893 45.0908 238.347 44.9688 237.843 44.7246C237.354 44.4642 236.817 43.984 236.231 43.2842C235.662 42.5843 235.003 41.6159 234.254 40.3789C233.521 39.1419 232.618 37.5306 231.544 35.5449C231.365 35.2194 231.178 34.9834 230.982 34.8369C230.803 34.6742 230.641 34.5928 230.494 34.5928C230.283 34.5928 230.087 34.8206 229.908 35.2764C229.729 35.7158 229.575 36.3424 229.444 37.1562C229.314 37.9538 229.208 38.9222 229.127 40.0615C229.062 41.1846 229.029 42.4297 229.029 43.7969C229.029 44.6107 229.07 45.4245 229.151 46.2383C229.249 47.0521 229.298 47.8903 229.298 48.7529C229.298 49.0459 229.216 49.3226 229.054 49.583C228.891 49.8271 228.671 50.0387 228.395 50.2178C228.134 50.4131 227.817 50.5677 227.442 50.6816C227.084 50.7956 226.702 50.8525 226.295 50.8525C225.481 50.8525 224.895 50.3643 224.537 49.3877C224.179 48.4111 224 46.8486 224 44.7002C224 41.9821 224.146 39.5163 224.439 37.3027C224.749 35.0729 225.18 33.1686 225.733 31.5898C226.303 29.9948 226.97 28.766 227.735 27.9033C228.517 27.0244 229.387 26.585 230.348 26.585C231.194 26.585 232 27.0732 232.765 28.0498C233.546 29.0101 234.384 30.5726 235.279 32.7373C235.637 33.6162 236.02 34.4382 236.427 35.2031C236.85 35.9681 237.265 36.6354 237.672 37.2051C238.095 37.7585 238.502 38.1979 238.893 38.5234C239.283 38.8327 239.633 38.9873 239.942 38.9873C240.252 38.9873 240.545 38.9222 240.821 38.792C241.114 38.6455 241.44 38.3444 241.798 37.8887C242.172 37.4167 242.604 36.7331 243.092 35.8379C243.596 34.9427 244.215 33.7464 244.947 32.249C245.338 31.4678 245.688 30.8167 245.997 30.2959C246.306 29.7751 246.616 29.36 246.925 29.0508C247.234 28.7253 247.56 28.4974 247.901 28.3672C248.243 28.2207 248.626 28.1475 249.049 28.1475C249.553 28.1475 250.05 28.416 250.538 28.9531C251.026 29.4902 251.498 30.2064 251.954 31.1016C252.426 31.9967 252.882 33.0384 253.321 34.2266C253.761 35.4147 254.184 36.6598 254.591 37.9619C255.014 39.264 255.421 40.5905 255.812 41.9414C256.218 43.276 256.609 44.5456 256.983 45.75C257.081 46.1081 257.146 46.3604 257.179 46.5068C257.228 46.637 257.252 46.7998 257.252 46.9951C257.252 47.2718 257.162 47.5485 256.983 47.8252C256.821 48.0856 256.601 48.3216 256.324 48.5332C256.048 48.7448 255.73 48.9157 255.372 49.0459C255.03 49.1761 254.688 49.2412 254.347 49.2412C253.891 49.2412 253.533 49.1924 253.272 49.0947C253.028 48.9808 252.833 48.7855 252.687 48.5088C252.605 48.3623 252.467 47.9717 252.271 47.3369C252.076 46.7021 251.84 45.9535 251.563 45.0908C251.303 44.2119 251.01 43.2842 250.685 42.3076C250.375 41.3311 250.058 40.4359 249.732 39.6221C249.423 38.792 249.122 38.1084 248.829 37.5713C248.536 37.0179 248.276 36.7412 248.048 36.7412Z" fill="white"/>
<path d="M265.259 50.8525C264.901 51.7152 264.356 52.1465 263.623 52.1465C263.33 52.1465 262.997 52.0651 262.622 51.9023L261.963 51.585C261.166 51.1943 260.767 50.6491 260.767 49.9492C260.767 49.5911 260.832 49.2575 260.962 48.9482C261.467 47.7601 262.012 46.5312 262.598 45.2617C263.184 43.9759 263.802 42.6657 264.453 41.3311C264.502 41.2008 264.551 41.0788 264.6 40.9648C264.649 40.8509 264.673 40.7451 264.673 40.6475C264.673 40.2568 264.47 39.9069 264.063 39.5977C262.695 38.5723 261.336 37.5469 259.986 36.5215C258.651 35.4798 257.292 34.4544 255.908 33.4453C255.306 33.0221 255.005 32.5339 255.005 31.9805C255.005 31.7526 255.046 31.5329 255.127 31.3213C255.208 31.0934 255.355 30.8656 255.567 30.6377L256.25 29.832C256.722 29.2786 257.243 29.002 257.813 29.002C258.008 29.002 258.203 29.0508 258.399 29.1484C258.61 29.2298 258.83 29.3438 259.058 29.4902C260.262 30.3691 261.45 31.248 262.622 32.127C263.81 32.9896 264.99 33.8766 266.162 34.7881C266.309 34.8857 266.447 34.9671 266.577 35.0322C266.708 35.0973 266.838 35.1299 266.968 35.1299C267.326 35.1299 267.643 34.902 267.92 34.4463C268.701 32.9326 269.507 31.4352 270.337 29.9541C271.167 28.473 272.022 27.0163 272.901 25.584C273.34 24.9167 273.861 24.583 274.463 24.583C274.805 24.583 275.204 24.7214 275.659 24.998L276.05 25.2422C276.717 25.6816 277.051 26.1943 277.051 26.7803C277.051 26.9919 277.018 27.2035 276.953 27.415C276.888 27.6104 276.791 27.8219 276.66 28.0498C275.7 29.5798 274.789 31.126 273.926 32.6885C273.063 34.251 272.225 35.8379 271.411 37.4492C271.362 37.5794 271.314 37.6934 271.265 37.791C271.232 37.8887 271.216 37.9863 271.216 38.084C271.216 38.4909 271.411 38.8408 271.802 39.1338C273.69 40.5986 275.562 42.0716 277.417 43.5527C279.273 45.0176 287.136 50.4661 289.008 51.8984C289.578 52.3379 289.862 52.818 289.862 53.3389C289.862 53.8271 289.61 54.291 289.106 54.7305L288.251 55.4873C287.779 55.9268 287.299 56.1465 286.811 56.1465C286.371 56.1465 285.924 55.9593 285.468 55.585L269.8 44.041C269.653 43.9434 269.515 43.862 269.385 43.7969C269.271 43.7318 269.149 43.6992 269.019 43.6992C268.628 43.6992 268.311 43.9434 268.067 44.4316L265.259 50.8525Z" fill="white"/>
</g>
<g filter="url(#filter4_d)">
<path d="M8.544 60.26C8.544 59.888 8.244 59.6 7.884 59.6H2.76C2.388 59.6 2.1 59.888 2.1 60.26C2.1 60.62 2.388 60.932 2.76 60.932H4.656V67.34C4.656 67.712 4.956 68 5.316 68C5.688 68 5.976 67.712 5.976 67.34V60.932H7.884C8.244 60.932 8.544 60.62 8.544 60.26ZM10.8949 64.628C10.9069 63.92 11.4709 63.344 12.1789 63.332C12.8989 63.344 13.4749 63.92 13.4749 64.628V67.34C13.4749 67.712 13.7629 68 14.1349 68C14.5069 68 14.7949 67.712 14.7949 67.34V64.628C14.7949 63.188 13.6309 62 12.1789 62C11.7109 62 11.2789 62.144 10.8949 62.348V60.26C10.8949 59.888 10.5949 59.6 10.2229 59.6C9.86288 59.6 9.56288 59.888 9.56288 60.26V67.34C9.56288 67.4 9.57488 67.46 9.58688 67.508C9.67088 67.784 9.92288 68 10.2229 68C10.5949 68 10.8949 67.712 10.8949 67.34V64.628ZM18.8303 68C19.6823 68 20.3903 67.748 20.9783 67.208C21.2543 66.956 21.1343 66.596 20.9783 66.428C20.8223 66.236 20.3303 66.2 20.0783 66.464C19.7783 66.692 19.2623 66.8 18.8303 66.764C18.4103 66.728 17.9303 66.512 17.6783 66.224C17.4623 66.02 17.3303 65.708 17.2703 65.432H21.0863C21.4223 65.432 21.6743 65.24 21.7103 64.952C21.7223 64.928 21.7223 64.868 21.7223 64.844C21.7223 64.82 21.7223 64.796 21.7223 64.784C21.6263 63.164 20.3903 62 18.8303 62C17.1863 62 15.9143 63.368 15.9023 65C15.9143 66.632 17.1863 67.988 18.8303 68ZM18.8303 63.14C19.8743 63.224 20.4863 63.932 20.6063 64.412H17.2103C17.3063 63.92 17.8103 63.188 18.8303 63.14ZM28.6484 68.036C29.4404 68.036 30.1604 67.688 30.6524 67.124C31.1924 66.596 31.4924 65.852 31.4924 65.012C31.4924 64.196 31.1924 63.488 30.6524 62.912C30.1604 62.348 29.4404 62 28.6484 62C27.8204 62 27.1244 62.348 26.5844 62.912C26.0684 63.488 25.7564 64.196 25.7564 65.012C25.7564 65.852 26.0684 66.596 26.5844 67.124C27.1244 67.688 27.8204 68.036 28.6484 68.036ZM27.4964 63.764C27.7964 63.5 28.1924 63.308 28.6484 63.308C29.0684 63.308 29.4524 63.5 29.7524 63.764C30.0524 64.088 30.2204 64.52 30.2204 65.012C30.2204 65.528 30.0524 65.948 29.7524 66.284C29.4524 66.572 29.0684 66.728 28.6484 66.728C28.1924 66.728 27.7964 66.572 27.4964 66.284C27.2204 65.948 27.0644 65.528 27.0644 65.012C27.0644 64.52 27.2204 64.088 27.4964 63.764ZM35.4284 62C34.9604 62 34.5164 62.144 34.1564 62.372C34.0484 62.144 33.8204 62 33.5684 62C33.2084 62 32.9324 62.288 32.9324 62.636V64.496V67.364C32.9324 67.712 33.2084 68 33.5684 68C33.8804 68 34.1444 67.772 34.2044 67.484C34.2284 67.436 34.2284 67.4 34.2284 67.364V64.496C34.2284 63.824 34.7564 63.284 35.4284 63.284C36.1124 63.284 36.6764 63.824 36.6764 64.496V67.364C36.6764 67.712 36.9764 68 37.3124 68C37.6604 68 37.9364 67.712 37.9364 67.364V64.496C37.9364 63.14 36.8204 62 35.4284 62ZM42.1998 68C43.0518 68 43.7598 67.748 44.3478 67.208C44.6238 66.956 44.5038 66.596 44.3478 66.428C44.1918 66.236 43.6998 66.2 43.4478 66.464C43.1478 66.692 42.6318 66.8 42.1998 66.764C41.7798 66.728 41.2998 66.512 41.0478 66.224C40.8318 66.02 40.6998 65.708 40.6398 65.432H44.4558C44.7918 65.432 45.0438 65.24 45.0798 64.952C45.0918 64.928 45.0918 64.868 45.0918 64.844C45.0918 64.82 45.0918 64.796 45.0918 64.784C44.9958 63.164 43.7598 62 42.1998 62C40.5558 62 39.2838 63.368 39.2718 65C39.2838 66.632 40.5558 67.988 42.1998 68ZM42.1998 63.14C43.2438 63.224 43.8558 63.932 43.9758 64.412H40.5798C40.6758 63.92 41.1798 63.188 42.1998 63.14ZM46.7883 65.036H49.0443C49.4283 65.036 49.7523 64.712 49.7523 64.328C49.7523 63.932 49.4283 63.608 49.0443 63.608H46.7883C46.4043 63.608 46.0803 63.932 46.0803 64.328C46.0803 64.712 46.4043 65.036 46.7883 65.036ZM50.4987 67.172C50.9787 67.556 51.6987 67.988 52.6347 68C53.2227 68 53.7627 67.82 54.1947 67.52C54.6267 67.208 54.9507 66.716 54.9507 66.128C54.9507 65.852 54.8667 65.576 54.7227 65.336C54.5187 65 54.1947 64.772 53.8707 64.628C53.5227 64.46 53.1507 64.352 52.7547 64.28H52.7427L52.7307 64.268C52.3227 64.196 52.0107 64.088 51.8547 63.98C51.7707 63.932 51.7347 63.884 51.7227 63.86C51.6987 63.824 51.6987 63.812 51.6987 63.764C51.6987 63.704 51.7347 63.596 51.8907 63.488C52.0467 63.368 52.3107 63.272 52.6107 63.272C52.9947 63.272 53.3307 63.464 53.7147 63.716C54.0147 63.92 54.4107 63.836 54.6027 63.548C54.7827 63.248 54.6987 62.852 54.4107 62.66C54.0267 62.396 53.4387 62 52.6107 62C52.0587 62 51.5547 62.156 51.1347 62.444C50.7387 62.744 50.4267 63.212 50.4267 63.764C50.4267 64.04 50.4987 64.304 50.6307 64.52C50.8467 64.844 51.1347 65.06 51.4587 65.216C51.7707 65.36 52.1307 65.456 52.5027 65.528H52.5147C52.9467 65.612 53.3067 65.744 53.4747 65.864C53.5707 65.924 53.6187 65.972 53.6307 66.008C53.6547 66.044 53.6667 66.068 53.6667 66.128C53.6667 66.224 53.6187 66.344 53.4507 66.488C53.2587 66.608 52.9587 66.716 52.6347 66.716C52.1667 66.728 51.6267 66.452 51.3147 66.188C51.0507 65.96 50.6307 65.996 50.4147 66.284C50.1987 66.548 50.2347 66.956 50.4987 67.172ZM58.2127 62H57.9127V60.26C57.9127 59.888 57.6247 59.6 57.2527 59.6C56.8807 59.6 56.5807 59.888 56.5807 60.26V62H56.2327C55.8607 62 55.5727 62.288 55.5727 62.66C55.5727 63.02 55.8607 63.32 56.2327 63.32H56.5807V66.668C56.5807 67.4 57.1807 68 57.9127 68C58.2847 68 58.5727 67.712 58.5727 67.34C58.5727 66.968 58.2847 66.668 57.9127 66.668V63.32H58.2127C58.5727 63.32 58.8847 63.02 58.8847 62.66C58.8847 62.288 58.5727 62 58.2127 62ZM62.8297 68.036C63.6217 68.036 64.3417 67.688 64.8337 67.124C65.3737 66.596 65.6737 65.852 65.6737 65.012C65.6737 64.196 65.3737 63.488 64.8337 62.912C64.3417 62.348 63.6217 62 62.8297 62C62.0017 62 61.3057 62.348 60.7657 62.912C60.2497 63.488 59.9377 64.196 59.9377 65.012C59.9377 65.852 60.2497 66.596 60.7657 67.124C61.3057 67.688 62.0017 68.036 62.8297 68.036ZM61.6777 63.764C61.9777 63.5 62.3737 63.308 62.8297 63.308C63.2497 63.308 63.6337 63.5 63.9337 63.764C64.2337 64.088 64.4017 64.52 64.4017 65.012C64.4017 65.528 64.2337 65.948 63.9337 66.284C63.6337 66.572 63.2497 66.728 62.8297 66.728C62.3737 66.728 61.9777 66.572 61.6777 66.284C61.4017 65.948 61.2457 65.528 61.2457 65.012C61.2457 64.52 61.4017 64.088 61.6777 63.764ZM67.7497 70.256C68.1337 70.256 68.4337 69.944 68.4337 69.608V67.496C68.8657 67.808 69.4417 67.988 70.0417 67.988C71.6377 67.988 72.9457 66.656 72.9457 65.012C72.9457 63.368 71.6377 62 70.0417 62C69.4297 62 68.8537 62.204 68.4097 62.492C68.3617 62.228 68.0857 62 67.7497 62C67.4017 62 67.1137 62.288 67.1137 62.636V65.012C67.1137 65.024 67.1137 65.024 67.1137 65.024V69.608C67.1137 69.944 67.4017 70.256 67.7497 70.256ZM68.9017 63.8C69.2017 63.476 69.5977 63.308 70.0417 63.308C70.4497 63.308 70.8577 63.476 71.1697 63.8C71.4457 64.112 71.6377 64.544 71.6377 65.012C71.6377 65.48 71.4457 65.936 71.1697 66.212C70.8577 66.548 70.4497 66.716 70.0417 66.716C69.5977 66.716 69.2017 66.548 68.9017 66.212C68.5897 65.936 68.4337 65.48 68.4337 65.012C68.4337 64.544 68.5897 64.112 68.9017 63.8ZM82.7972 65.024V62.636C82.7972 62.288 82.5212 62 82.1612 62C81.8492 62 81.5852 62.216 81.5252 62.504C81.0932 62.192 80.5412 62 79.9172 62C79.1252 62 78.3932 62.348 77.8772 62.888C77.3612 63.452 77.0372 64.196 77.0372 65.024C77.0372 65.864 77.3612 66.608 77.8772 67.136C78.3932 67.7 79.1252 68.048 79.9172 68.048C80.5052 68.048 81.0572 67.868 81.4892 67.568C81.3332 68.3 80.6972 68.852 79.9172 68.852C79.6652 68.852 79.4372 68.792 79.2332 68.684C78.8972 68.54 78.5252 68.66 78.3692 68.984C78.2012 69.308 78.3452 69.704 78.6572 69.848C79.0292 70.04 79.4732 70.148 79.9172 70.148C81.5132 70.148 82.7972 68.84 82.7972 67.268V65.036V65.024ZM81.0572 66.26C80.7452 66.584 80.3732 66.752 79.9172 66.752C79.4972 66.752 79.1012 66.584 78.8132 66.26C78.5252 65.984 78.3332 65.528 78.3332 65.024C78.3332 64.544 78.5252 64.088 78.8132 63.8C79.1012 63.464 79.4972 63.284 79.9172 63.284C80.3732 63.284 80.7452 63.464 81.0572 63.8C81.3212 64.088 81.5132 64.544 81.5132 65.024C81.5132 65.528 81.3212 65.984 81.0572 66.26ZM89.6631 65.504V62.636C89.6631 62.3 89.3511 62 89.0151 62C88.6551 62 88.3911 62.3 88.3911 62.636V65.504C88.3791 66.188 87.8271 66.728 87.1311 66.728C86.4471 66.728 85.9071 66.188 85.9071 65.504V62.636C85.9071 62.3 85.6311 62 85.2711 62C84.9231 62 84.6351 62.3 84.6351 62.636V65.504C84.6351 66.872 85.7631 68 87.1311 68C88.5111 68 89.6631 66.872 89.6631 65.504ZM92.1744 62.012C91.8144 62.012 91.5264 62.288 91.5264 62.672V67.352C91.5264 67.712 91.8144 68 92.1744 68C92.5464 68 92.8224 67.712 92.8224 67.352V62.672C92.8224 62.288 92.5464 62.012 92.1744 62.012ZM92.8224 60.248C92.8224 59.888 92.5464 59.6 92.1744 59.6C91.8144 59.6 91.5264 59.888 91.5264 60.248V60.5C91.5264 60.86 91.8144 61.16 92.1744 61.16C92.5464 61.16 92.8224 60.86 92.8224 60.5V60.248ZM99.7254 65.012C99.7254 65 99.7254 65 99.7254 65V60.248C99.7254 59.9 99.4374 59.6 99.0774 59.6C98.7054 59.6 98.4174 59.9 98.4174 60.248V62.504C97.9734 62.192 97.3974 62 96.8094 62C95.1894 62 93.8934 63.368 93.8934 65.012C93.8934 66.632 95.1894 68 96.8094 68C97.4094 68 97.9854 67.796 98.4414 67.484C98.5014 67.772 98.7534 68 99.0774 68C99.4374 68 99.7254 67.7 99.7254 67.352V65.012ZM97.9374 63.8C98.2374 64.1 98.4174 64.532 98.4174 65.012C98.4174 65.468 98.2374 65.9 97.9374 66.2C97.6374 66.512 97.2534 66.692 96.8094 66.692C96.3774 66.692 95.9814 66.512 95.6814 66.2C95.3814 65.9 95.2014 65.468 95.2014 65.012C95.2014 64.532 95.3814 64.1 95.6814 63.8C95.9814 63.488 96.3774 63.308 96.8094 63.308C97.2534 63.308 97.6374 63.488 97.9374 63.8ZM103.944 68C104.796 68 105.504 67.748 106.092 67.208C106.368 66.956 106.248 66.596 106.092 66.428C105.936 66.236 105.444 66.2 105.192 66.464C104.892 66.692 104.376 66.8 103.944 66.764C103.524 66.728 103.044 66.512 102.792 66.224C102.576 66.02 102.444 65.708 102.384 65.432H106.2C106.536 65.432 106.788 65.24 106.824 64.952C106.836 64.928 106.836 64.868 106.836 64.844C106.836 64.82 106.836 64.796 106.836 64.784C106.74 63.164 105.504 62 103.944 62C102.3 62 101.028 63.368 101.016 65C101.028 66.632 102.3 67.988 103.944 68ZM103.944 63.14C104.988 63.224 105.6 63.932 105.72 64.412H102.324C102.42 63.92 102.924 63.188 103.944 63.14ZM113.222 60.992C113.234 60.98 113.246 60.968 113.294 60.956C113.342 60.932 113.45 60.92 113.606 60.92C113.966 60.92 114.266 60.62 114.266 60.248C114.266 59.888 113.966 59.588 113.606 59.588C113.354 59.588 113.126 59.612 112.886 59.684C112.526 59.792 112.19 60.068 112.022 60.428C111.842 60.776 111.794 61.16 111.794 61.604V61.772H111.482C111.11 61.772 110.81 62.06 110.81 62.432C110.81 62.792 111.11 63.092 111.482 63.092H111.794V67.328C111.794 67.688 112.082 67.988 112.454 67.988C112.826 67.988 113.114 67.688 113.114 67.328V63.092H113.474C113.834 63.092 114.134 62.792 114.134 62.432C114.134 62.06 113.834 61.772 113.474 61.772H113.114V61.604C113.114 61.16 113.21 60.992 113.222 60.992ZM117.369 68.036C118.161 68.036 118.881 67.688 119.373 67.124C119.913 66.596 120.213 65.852 120.213 65.012C120.213 64.196 119.913 63.488 119.373 62.912C118.881 62.348 118.161 62 117.369 62C116.541 62 115.845 62.348 115.305 62.912C114.789 63.488 114.477 64.196 114.477 65.012C114.477 65.852 114.789 66.596 115.305 67.124C115.845 67.688 116.541 68.036 117.369 68.036ZM116.217 63.764C116.517 63.5 116.913 63.308 117.369 63.308C117.789 63.308 118.173 63.5 118.473 63.764C118.773 64.088 118.941 64.52 118.941 65.012C118.941 65.528 118.773 65.948 118.473 66.284C118.173 66.572 117.789 66.728 117.369 66.728C116.913 66.728 116.517 66.572 116.217 66.284C115.941 65.948 115.785 65.528 115.785 65.012C115.785 64.52 115.941 64.088 116.217 63.764ZM124.478 62.012C123.878 62 123.362 62.216 122.966 62.48C122.882 62.54 122.786 62.636 122.714 62.72V62.636C122.714 62.288 122.414 62.012 122.054 62.012C121.706 62.012 121.418 62.288 121.418 62.636V67.364C121.418 67.712 121.706 68 122.054 68C122.414 68 122.714 67.712 122.714 67.364V65.084C122.774 64.916 122.918 64.46 123.206 64.076C123.35 63.848 123.53 63.644 123.758 63.5C123.962 63.344 124.202 63.272 124.478 63.272C124.838 63.272 125.114 62.972 125.114 62.636C125.114 62.288 124.838 62.012 124.478 62.012ZM135.773 59.6C135.761 59.6 135.761 59.6 135.761 59.6C135.545 59.6 135.353 59.696 135.221 59.876L132.833 63.188L130.445 59.876C130.325 59.696 130.109 59.6 129.917 59.6C129.893 59.6 129.893 59.6 129.881 59.6C129.521 59.6 129.221 59.9 129.221 60.26V67.34C129.221 67.7 129.521 68 129.881 68C130.253 68 130.553 67.7 130.553 67.34V62.288L132.269 64.688C132.401 64.868 132.605 64.964 132.821 64.964H132.833H132.845C133.061 64.964 133.253 64.868 133.385 64.688L135.113 62.288V67.34C135.113 67.7 135.401 68 135.773 68C136.133 68 136.445 67.7 136.445 67.34V60.26C136.445 59.9 136.133 59.612 135.773 59.6ZM144.614 59.828C144.314 59.6 143.918 59.66 143.69 59.972L141.674 62.732L139.646 59.972C139.442 59.66 139.022 59.6 138.734 59.828C138.434 60.032 138.374 60.44 138.578 60.74L140.858 63.836L138.578 66.956C138.374 67.244 138.434 67.664 138.734 67.868C138.842 67.952 138.974 68 139.118 68C139.322 68 139.514 67.892 139.646 67.724L141.674 64.952L143.69 67.724C143.822 67.892 144.014 68 144.23 68C144.362 68 144.494 67.952 144.614 67.868C144.914 67.664 144.962 67.244 144.758 66.956L142.478 63.836L144.758 60.74C144.962 60.44 144.914 60.032 144.614 59.828ZM149.468 67.172C149.948 67.556 150.668 67.988 151.604 68C152.192 68 152.732 67.82 153.164 67.52C153.596 67.208 153.92 66.716 153.92 66.128C153.92 65.852 153.836 65.576 153.692 65.336C153.488 65 153.164 64.772 152.84 64.628C152.492 64.46 152.12 64.352 151.724 64.28H151.712L151.7 64.268C151.292 64.196 150.98 64.088 150.824 63.98C150.74 63.932 150.704 63.884 150.692 63.86C150.668 63.824 150.668 63.812 150.668 63.764C150.668 63.704 150.704 63.596 150.86 63.488C151.016 63.368 151.28 63.272 151.58 63.272C151.964 63.272 152.3 63.464 152.684 63.716C152.984 63.92 153.38 63.836 153.572 63.548C153.752 63.248 153.668 62.852 153.38 62.66C152.996 62.396 152.408 62 151.58 62C151.028 62 150.524 62.156 150.104 62.444C149.708 62.744 149.396 63.212 149.396 63.764C149.396 64.04 149.468 64.304 149.6 64.52C149.816 64.844 150.104 65.06 150.428 65.216C150.74 65.36 151.1 65.456 151.472 65.528H151.484C151.916 65.612 152.276 65.744 152.444 65.864C152.54 65.924 152.588 65.972 152.6 66.008C152.624 66.044 152.636 66.068 152.636 66.128C152.636 66.224 152.588 66.344 152.42 66.488C152.228 66.608 151.928 66.716 151.604 66.716C151.136 66.728 150.596 66.452 150.284 66.188C150.02 65.96 149.6 65.996 149.384 66.284C149.168 66.548 149.204 66.956 149.468 67.172ZM157.182 62H156.882V60.26C156.882 59.888 156.594 59.6 156.222 59.6C155.85 59.6 155.55 59.888 155.55 60.26V62H155.202C154.83 62 154.542 62.288 154.542 62.66C154.542 63.02 154.83 63.32 155.202 63.32H155.55V66.668C155.55 67.4 156.15 68 156.882 68C157.254 68 157.542 67.712 157.542 67.34C157.542 66.968 157.254 66.668 156.882 66.668V63.32H157.182C157.542 63.32 157.854 63.02 157.854 62.66C157.854 62.288 157.542 62 157.182 62ZM163.235 62C162.875 62 162.611 62.276 162.611 62.636V65.468C162.611 66.164 162.059 66.692 161.375 66.692C160.691 66.692 160.127 66.164 160.127 65.468V62.636C160.127 62.276 159.863 62 159.491 62C159.167 62 158.867 62.276 158.867 62.636V65.468C158.867 66.848 159.995 67.988 161.375 67.988C161.771 67.988 162.179 67.892 162.515 67.7C162.323 68.324 161.723 68.78 161.015 68.792C160.775 68.792 160.547 68.732 160.319 68.624C160.031 68.468 159.623 68.6 159.467 68.888C159.323 69.224 159.443 69.596 159.779 69.74C160.139 69.92 160.583 70.04 161.015 70.04C162.611 70.04 163.883 68.78 163.883 67.172V65.468V62.636C163.883 62.276 163.583 62 163.235 62ZM165.534 60.26V67.34C165.534 67.7 165.834 68 166.194 68C166.566 68 166.866 67.7 166.866 67.34V60.26C166.866 59.9 166.566 59.6 166.194 59.6C165.834 59.6 165.534 59.9 165.534 60.26ZM170.886 68C171.738 68 172.446 67.748 173.034 67.208C173.31 66.956 173.19 66.596 173.034 66.428C172.878 66.236 172.386 66.2 172.134 66.464C171.834 66.692 171.318 66.8 170.886 66.764C170.466 66.728 169.986 66.512 169.734 66.224C169.518 66.02 169.386 65.708 169.326 65.432H173.142C173.478 65.432 173.73 65.24 173.766 64.952C173.778 64.928 173.778 64.868 173.778 64.844C173.778 64.82 173.778 64.796 173.778 64.784C173.682 63.164 172.446 62 170.886 62C169.242 62 167.97 63.368 167.958 65C167.97 66.632 169.242 67.988 170.886 68ZM170.886 63.14C171.93 63.224 172.542 63.932 172.662 64.412H169.266C169.362 63.92 169.866 63.188 170.886 63.14ZM184.352 63.284C185.012 63.284 185.564 63.836 185.564 64.52V67.364C185.564 67.712 185.864 68 186.212 68C186.56 68 186.848 67.712 186.848 67.364V64.52C186.848 63.128 185.732 62 184.352 62C183.596 62 182.912 62.312 182.468 62.828C182.012 62.312 181.34 62 180.584 62C180.128 62 179.684 62.132 179.3 62.36C179.204 62.132 178.976 62 178.724 62C178.376 62 178.088 62.276 178.088 62.648V64.508C178.088 64.508 178.088 64.508 178.088 64.52V67.364C178.088 67.676 178.316 67.916 178.604 67.988C178.64 67.988 178.676 68 178.724 68C178.976 68 179.216 67.832 179.324 67.616C179.324 67.592 179.324 67.568 179.324 67.556C179.348 67.532 179.348 67.508 179.36 67.484C179.36 67.484 179.36 67.46 179.36 67.448C179.36 67.424 179.372 67.388 179.372 67.364V64.52C179.372 63.836 179.924 63.284 180.584 63.284C181.256 63.284 181.808 63.824 181.82 64.484C181.82 64.496 181.82 64.508 181.82 64.52V67.364C181.82 67.712 182.132 68 182.468 68C182.816 68 183.104 67.712 183.104 67.364V64.52C183.104 64.508 183.104 64.496 183.104 64.484C183.128 63.824 183.668 63.284 184.352 63.284ZM191.41 68C192.262 68 192.97 67.748 193.558 67.208C193.834 66.956 193.714 66.596 193.558 66.428C193.402 66.236 192.91 66.2 192.658 66.464C192.358 66.692 191.842 66.8 191.41 66.764C190.99 66.728 190.51 66.512 190.258 66.224C190.042 66.02 189.91 65.708 189.85 65.432H193.666C194.002 65.432 194.254 65.24 194.29 64.952C194.302 64.928 194.302 64.868 194.302 64.844C194.302 64.82 194.302 64.796 194.302 64.784C194.206 63.164 192.97 62 191.41 62C189.766 62 188.494 63.368 188.482 65C188.494 66.632 189.766 67.988 191.41 68ZM191.41 63.14C192.454 63.224 193.066 63.932 193.186 64.412H189.79C189.886 63.92 190.39 63.188 191.41 63.14ZM198.242 68C198.962 68 199.634 67.736 200.15 67.364C200.426 67.124 200.474 66.74 200.282 66.476C200.042 66.188 199.646 66.14 199.382 66.344C199.07 66.572 198.674 66.728 198.242 66.728C197.27 66.728 196.466 65.936 196.466 65.012C196.466 64.088 197.27 63.284 198.242 63.284C198.686 63.284 199.07 63.44 199.382 63.668C199.658 63.884 200.042 63.836 200.282 63.548C200.474 63.284 200.426 62.876 200.15 62.66C199.634 62.264 198.962 62 198.242 62C196.586 62.012 195.194 63.344 195.194 65.012C195.194 66.656 196.586 68 198.242 68ZM203.202 64.628C203.214 63.92 203.778 63.344 204.486 63.332C205.206 63.344 205.782 63.92 205.782 64.628V67.34C205.782 67.712 206.07 68 206.442 68C206.814 68 207.102 67.712 207.102 67.34V64.628C207.102 63.188 205.938 62 204.486 62C204.018 62 203.586 62.144 203.202 62.348V60.26C203.202 59.888 202.902 59.6 202.53 59.6C202.17 59.6 201.87 59.888 201.87 60.26V67.34C201.87 67.4 201.882 67.46 201.894 67.508C201.978 67.784 202.23 68 202.53 68C202.902 68 203.202 67.712 203.202 67.34V64.628ZM214.186 62.648C214.186 62.288 213.898 62 213.55 62C213.238 62 212.998 62.228 212.926 62.528C212.47 62.204 211.93 62 211.33 62C210.514 62 209.806 62.348 209.29 62.9C208.774 63.44 208.474 64.184 208.474 65.012C208.474 65.828 208.774 66.572 209.29 67.124C209.806 67.664 210.514 68 211.33 68C211.93 68 212.47 67.808 212.926 67.484C212.998 67.772 213.238 68 213.55 68C213.898 68 214.186 67.712 214.186 67.364V65.012V62.648ZM212.446 66.248C212.158 66.548 211.75 66.716 211.33 66.716C210.898 66.716 210.49 66.548 210.214 66.248C209.926 65.936 209.758 65.504 209.758 65.012C209.758 64.508 209.926 64.076 210.214 63.776C210.49 63.452 210.898 63.284 211.33 63.284C211.75 63.284 212.158 63.452 212.446 63.776C212.734 64.076 212.914 64.508 212.914 65.012C212.914 65.504 212.734 65.936 212.446 66.248ZM218.318 62C217.85 62 217.406 62.144 217.046 62.372C216.938 62.144 216.71 62 216.458 62C216.098 62 215.822 62.288 215.822 62.636V64.496V67.364C215.822 67.712 216.098 68 216.458 68C216.77 68 217.034 67.772 217.094 67.484C217.118 67.436 217.118 67.4 217.118 67.364V64.496C217.118 63.824 217.646 63.284 218.318 63.284C219.002 63.284 219.566 63.824 219.566 64.496V67.364C219.566 67.712 219.866 68 220.202 68C220.55 68 220.826 67.712 220.826 67.364V64.496C220.826 63.14 219.71 62 218.318 62ZM223.242 62.012C222.882 62.012 222.594 62.288 222.594 62.672V67.352C222.594 67.712 222.882 68 223.242 68C223.614 68 223.89 67.712 223.89 67.352V62.672C223.89 62.288 223.614 62.012 223.242 62.012ZM223.89 60.248C223.89 59.888 223.614 59.6 223.242 59.6C222.882 59.6 222.594 59.888 222.594 60.248V60.5C222.594 60.86 222.882 61.16 223.242 61.16C223.614 61.16 223.89 60.86 223.89 60.5V60.248ZM227.985 68C228.705 68 229.377 67.736 229.893 67.364C230.169 67.124 230.217 66.74 230.025 66.476C229.785 66.188 229.389 66.14 229.125 66.344C228.813 66.572 228.417 66.728 227.985 66.728C227.013 66.728 226.209 65.936 226.209 65.012C226.209 64.088 227.013 63.284 227.985 63.284C228.429 63.284 228.813 63.44 229.125 63.668C229.401 63.884 229.785 63.836 230.025 63.548C230.217 63.284 230.169 62.876 229.893 62.66C229.377 62.264 228.705 62 227.985 62C226.329 62.012 224.937 63.344 224.937 65.012C224.937 66.656 226.329 68 227.985 68ZM236.688 62.648C236.688 62.288 236.4 62 236.052 62C235.74 62 235.5 62.228 235.428 62.528C234.972 62.204 234.432 62 233.832 62C233.016 62 232.308 62.348 231.792 62.9C231.276 63.44 230.976 64.184 230.976 65.012C230.976 65.828 231.276 66.572 231.792 67.124C232.308 67.664 233.016 68 233.832 68C234.432 68 234.972 67.808 235.428 67.484C235.5 67.772 235.74 68 236.052 68C236.4 68 236.688 67.712 236.688 67.364V65.012V62.648ZM234.948 66.248C234.66 66.548 234.252 66.716 233.832 66.716C233.4 66.716 232.992 66.548 232.716 66.248C232.428 65.936 232.26 65.504 232.26 65.012C232.26 64.508 232.428 64.076 232.716 63.776C232.992 63.452 233.4 63.284 233.832 63.284C234.252 63.284 234.66 63.452 234.948 63.776C235.236 64.076 235.416 64.508 235.416 65.012C235.416 65.504 235.236 65.936 234.948 66.248ZM238.69 60.26V67.34C238.69 67.7 238.99 68 239.35 68C239.722 68 240.022 67.7 240.022 67.34V60.26C240.022 59.9 239.722 59.6 239.35 59.6C238.99 59.6 238.69 59.9 238.69 60.26ZM244.652 68C245.024 68 245.324 67.7 245.324 67.34V66.284L245.984 65.624L247.748 67.76C247.868 67.916 248.06 68 248.252 68C248.396 68 248.552 67.952 248.672 67.844C248.96 67.616 248.996 67.196 248.768 66.908L246.92 64.688L248.72 62.888C248.984 62.636 248.984 62.216 248.72 61.952C248.468 61.7 248.036 61.7 247.784 61.952L245.324 64.412V60.26C245.324 59.9 245.024 59.6 244.652 59.6C244.28 59.6 243.992 59.9 243.992 60.26V67.34C243.992 67.7 244.28 68 244.652 68ZM252.31 68C253.162 68 253.87 67.748 254.458 67.208C254.734 66.956 254.614 66.596 254.458 66.428C254.302 66.236 253.81 66.2 253.558 66.464C253.258 66.692 252.742 66.8 252.31 66.764C251.89 66.728 251.41 66.512 251.158 66.224C250.942 66.02 250.81 65.708 250.75 65.432H254.566C254.902 65.432 255.154 65.24 255.19 64.952C255.202 64.928 255.202 64.868 255.202 64.844C255.202 64.82 255.202 64.796 255.202 64.784C255.106 63.164 253.87 62 252.31 62C250.666 62 249.394 63.368 249.382 65C249.394 66.632 250.666 67.988 252.31 68ZM252.31 63.14C253.354 63.224 253.966 63.932 254.086 64.412H250.69C250.786 63.92 251.29 63.188 252.31 63.14ZM260.765 62C260.405 62 260.141 62.276 260.141 62.636V65.468C260.141 66.164 259.589 66.692 258.905 66.692C258.221 66.692 257.657 66.164 257.657 65.468V62.636C257.657 62.276 257.393 62 257.021 62C256.697 62 256.397 62.276 256.397 62.636V65.468C256.397 66.848 257.525 67.988 258.905 67.988C259.301 67.988 259.709 67.892 260.045 67.7C259.853 68.324 259.253 68.78 258.545 68.792C258.305 68.792 258.077 68.732 257.849 68.624C257.561 68.468 257.153 68.6 256.997 68.888C256.853 69.224 256.973 69.596 257.309 69.74C257.669 69.92 258.113 70.04 258.545 70.04C260.141 70.04 261.413 68.78 261.413 67.172V65.468V62.636C261.413 62.276 261.113 62 260.765 62ZM263.344 67.352C263.344 67.7 263.632 68 263.992 68C264.316 68 264.568 67.772 264.628 67.484C265.084 67.796 265.66 68 266.26 68C267.88 68 269.176 66.632 269.176 65.012C269.176 63.368 267.88 62 266.26 62C265.672 62 265.096 62.192 264.652 62.504V60.248C264.652 59.9 264.364 59.6 263.992 59.6C263.632 59.6 263.344 59.9 263.344 60.248V65C263.344 65 263.344 65 263.344 65.012V67.352ZM265.132 63.8C265.432 63.488 265.816 63.308 266.26 63.308C266.692 63.308 267.088 63.488 267.388 63.8C267.688 64.1 267.868 64.532 267.868 65.012C267.868 65.468 267.688 65.9 267.388 66.2C267.088 66.512 266.692 66.692 266.26 66.692C265.816 66.692 265.432 66.512 265.132 66.2C264.832 65.9 264.652 65.468 264.652 65.012C264.652 64.532 264.832 64.1 265.132 63.8ZM273.282 68.036C274.074 68.036 274.794 67.688 275.286 67.124C275.826 66.596 276.126 65.852 276.126 65.012C276.126 64.196 275.826 63.488 275.286 62.912C274.794 62.348 274.074 62 273.282 62C272.454 62 271.758 62.348 271.218 62.912C270.702 63.488 270.39 64.196 270.39 65.012C270.39 65.852 270.702 66.596 271.218 67.124C271.758 67.688 272.454 68.036 273.282 68.036ZM272.13 63.764C272.43 63.5 272.826 63.308 273.282 63.308C273.702 63.308 274.086 63.5 274.386 63.764C274.686 64.088 274.854 64.52 274.854 65.012C274.854 65.528 274.686 65.948 274.386 66.284C274.086 66.572 273.702 66.728 273.282 66.728C272.826 66.728 272.43 66.572 272.13 66.284C271.854 65.948 271.698 65.528 271.698 65.012C271.698 64.52 271.854 64.088 272.13 63.764ZM282.642 62.648C282.642 62.288 282.354 62 282.006 62C281.694 62 281.454 62.228 281.382 62.528C280.926 62.204 280.386 62 279.786 62C278.97 62 278.262 62.348 277.746 62.9C277.23 63.44 276.93 64.184 276.93 65.012C276.93 65.828 277.23 66.572 277.746 67.124C278.262 67.664 278.97 68 279.786 68C280.386 68 280.926 67.808 281.382 67.484C281.454 67.772 281.694 68 282.006 68C282.354 68 282.642 67.712 282.642 67.364V65.012V62.648ZM280.902 66.248C280.614 66.548 280.206 66.716 279.786 66.716C279.354 66.716 278.946 66.548 278.67 66.248C278.382 65.936 278.214 65.504 278.214 65.012C278.214 64.508 278.382 64.076 278.67 63.776C278.946 63.452 279.354 63.284 279.786 63.284C280.206 63.284 280.614 63.452 280.902 63.776C281.19 64.076 281.37 64.508 281.37 65.012C281.37 65.504 281.19 65.936 280.902 66.248ZM287.456 62.012C286.856 62 286.34 62.216 285.944 62.48C285.86 62.54 285.764 62.636 285.692 62.72V62.636C285.692 62.288 285.392 62.012 285.032 62.012C284.684 62.012 284.396 62.288 284.396 62.636V67.364C284.396 67.712 284.684 68 285.032 68C285.392 68 285.692 67.712 285.692 67.364V65.084C285.752 64.916 285.896 64.46 286.184 64.076C286.328 63.848 286.508 63.644 286.736 63.5C286.94 63.344 287.18 63.272 287.456 63.272C287.816 63.272 288.092 62.972 288.092 62.636C288.092 62.288 287.816 62.012 287.456 62.012ZM294.2 65.012C294.2 65 294.2 65 294.2 65V60.248C294.2 59.9 293.912 59.6 293.552 59.6C293.18 59.6 292.892 59.9 292.892 60.248V62.504C292.448 62.192 291.872 62 291.284 62C289.664 62 288.368 63.368 288.368 65.012C288.368 66.632 289.664 68 291.284 68C291.884 68 292.46 67.796 292.916 67.484C292.976 67.772 293.228 68 293.552 68C293.912 68 294.2 67.7 294.2 67.352V65.012ZM292.412 63.8C292.712 64.1 292.892 64.532 292.892 65.012C292.892 65.468 292.712 65.9 292.412 66.2C292.112 66.512 291.728 66.692 291.284 66.692C290.852 66.692 290.456 66.512 290.156 66.2C289.856 65.9 289.676 65.468 289.676 65.012C289.676 64.532 289.856 64.1 290.156 63.8C290.456 63.488 290.852 63.308 291.284 63.308C291.728 63.308 292.112 63.488 292.412 63.8ZM298.88 67.172C299.36 67.556 300.08 67.988 301.016 68C301.604 68 302.144 67.82 302.576 67.52C303.008 67.208 303.332 66.716 303.332 66.128C303.332 65.852 303.248 65.576 303.104 65.336C302.9 65 302.576 64.772 302.252 64.628C301.904 64.46 301.532 64.352 301.136 64.28H301.124L301.112 64.268C300.704 64.196 300.392 64.088 300.236 63.98C300.152 63.932 300.116 63.884 300.104 63.86C300.08 63.824 300.08 63.812 300.08 63.764C300.08 63.704 300.116 63.596 300.272 63.488C300.428 63.368 300.692 63.272 300.992 63.272C301.376 63.272 301.712 63.464 302.096 63.716C302.396 63.92 302.792 63.836 302.984 63.548C303.164 63.248 303.08 62.852 302.792 62.66C302.408 62.396 301.82 62 300.992 62C300.44 62 299.936 62.156 299.516 62.444C299.12 62.744 298.808 63.212 298.808 63.764C298.808 64.04 298.88 64.304 299.012 64.52C299.228 64.844 299.516 65.06 299.84 65.216C300.152 65.36 300.512 65.456 300.884 65.528H300.896C301.328 65.612 301.688 65.744 301.856 65.864C301.952 65.924 302 65.972 302.012 66.008C302.036 66.044 302.048 66.068 302.048 66.128C302.048 66.224 302 66.344 301.832 66.488C301.64 66.608 301.34 66.716 301.016 66.716C300.548 66.728 300.008 66.452 299.696 66.188C299.432 65.96 299.012 65.996 298.796 66.284C298.58 66.548 298.616 66.956 298.88 67.172ZM311.582 62.132C311.282 62 310.898 62.144 310.778 62.492L309.362 65.72L308.51 63.716C308.414 63.476 308.186 63.332 307.922 63.332C307.67 63.332 307.442 63.476 307.334 63.716L306.494 65.72L305.078 62.492C304.946 62.144 304.574 62 304.286 62.132C303.95 62.276 303.794 62.636 303.938 62.96L305.906 67.616C305.93 67.64 305.942 67.676 305.966 67.712C305.966 67.724 305.966 67.724 305.978 67.724C305.99 67.748 306.014 67.772 306.026 67.796C306.05 67.808 306.05 67.808 306.05 67.808C306.086 67.832 306.11 67.856 306.122 67.868C306.122 67.88 306.122 67.88 306.134 67.88C306.158 67.916 306.206 67.94 306.242 67.952C306.254 67.952 306.254 67.952 306.266 67.964C306.29 67.964 306.314 67.976 306.338 67.988C306.362 67.988 306.362 67.988 306.374 67.988C306.41 68 306.446 68 306.494 68C306.53 68 306.566 68 306.614 67.988C306.614 67.988 306.614 67.988 306.638 67.988C306.65 67.976 306.686 67.964 306.71 67.964C306.71 67.952 306.722 67.952 306.722 67.952H306.746C306.782 67.94 306.806 67.916 306.854 67.88C306.878 67.856 306.902 67.832 306.926 67.808C306.926 67.808 306.938 67.808 306.938 67.796C306.962 67.772 306.986 67.748 307.01 67.724V67.712C307.034 67.676 307.058 67.64 307.07 67.616L307.922 65.54L308.798 67.616C308.81 67.64 308.822 67.676 308.846 67.712C308.846 67.724 308.858 67.724 308.858 67.724C308.87 67.748 308.894 67.772 308.918 67.796C308.918 67.808 308.942 67.808 308.942 67.808C308.966 67.832 308.978 67.856 309.014 67.868C309.014 67.88 309.014 67.88 309.014 67.88C309.05 67.916 309.086 67.94 309.122 67.952C309.122 67.952 309.122 67.952 309.134 67.952C309.134 67.952 309.134 67.952 309.146 67.964C309.182 67.964 309.206 67.976 309.23 67.988C309.242 67.988 309.242 67.988 309.254 67.988C309.29 68 309.326 68 309.362 68C309.41 68 309.446 68 309.482 67.988C309.494 67.988 309.494 67.988 309.506 67.988C309.542 67.976 309.578 67.964 309.602 67.964C309.602 67.952 309.614 67.952 309.614 67.952C309.662 67.94 309.686 67.916 309.722 67.892C309.722 67.88 309.734 67.88 309.734 67.868C309.758 67.856 309.782 67.832 309.806 67.808C309.806 67.808 309.818 67.808 309.83 67.796C309.854 67.772 309.878 67.748 309.89 67.724C309.89 67.724 309.902 67.724 309.902 67.712C309.926 67.676 309.938 67.64 309.95 67.616L311.93 62.96C312.074 62.636 311.906 62.276 311.582 62.132ZM313.872 62.012C313.512 62.012 313.224 62.288 313.224 62.672V67.352C313.224 67.712 313.512 68 313.872 68C314.244 68 314.52 67.712 314.52 67.352V62.672C314.52 62.288 314.244 62.012 313.872 62.012ZM314.52 60.248C314.52 59.888 314.244 59.6 313.872 59.6C313.512 59.6 313.224 59.888 313.224 60.248V60.5C313.224 60.86 313.512 61.16 313.872 61.16C314.244 61.16 314.52 60.86 314.52 60.5V60.248ZM318.015 62H317.715V60.26C317.715 59.888 317.427 59.6 317.055 59.6C316.683 59.6 316.383 59.888 316.383 60.26V62H316.035C315.663 62 315.375 62.288 315.375 62.66C315.375 63.02 315.663 63.32 316.035 63.32H316.383V66.668C316.383 67.4 316.983 68 317.715 68C318.087 68 318.375 67.712 318.375 67.34C318.375 66.968 318.087 66.668 317.715 66.668V63.32H318.015C318.375 63.32 318.687 63.02 318.687 62.66C318.687 62.288 318.375 62 318.015 62ZM322.644 68C323.364 68 324.036 67.736 324.552 67.364C324.828 67.124 324.876 66.74 324.684 66.476C324.444 66.188 324.048 66.14 323.784 66.344C323.472 66.572 323.076 66.728 322.644 66.728C321.672 66.728 320.868 65.936 320.868 65.012C320.868 64.088 321.672 63.284 322.644 63.284C323.088 63.284 323.472 63.44 323.784 63.668C324.06 63.884 324.444 63.836 324.684 63.548C324.876 63.284 324.828 62.876 324.552 62.66C324.036 62.264 323.364 62 322.644 62C320.988 62.012 319.596 63.344 319.596 65.012C319.596 66.656 320.988 68 322.644 68ZM327.603 64.628C327.615 63.92 328.179 63.344 328.887 63.332C329.607 63.344 330.183 63.92 330.183 64.628V67.34C330.183 67.712 330.471 68 330.843 68C331.215 68 331.503 67.712 331.503 67.34V64.628C331.503 63.188 330.339 62 328.887 62C328.419 62 327.987 62.144 327.603 62.348V60.26C327.603 59.888 327.303 59.6 326.931 59.6C326.571 59.6 326.271 59.888 326.271 60.26V67.34C326.271 67.4 326.283 67.46 326.295 67.508C326.379 67.784 326.631 68 326.931 68C327.303 68 327.603 67.712 327.603 67.34V64.628ZM335.539 68C336.391 68 337.099 67.748 337.687 67.208C337.963 66.956 337.843 66.596 337.687 66.428C337.531 66.236 337.039 66.2 336.787 66.464C336.487 66.692 335.971 66.8 335.539 66.764C335.119 66.728 334.639 66.512 334.387 66.224C334.171 66.02 334.039 65.708 333.979 65.432H337.795C338.131 65.432 338.383 65.24 338.419 64.952C338.431 64.928 338.431 64.868 338.431 64.844C338.431 64.82 338.431 64.796 338.431 64.784C338.335 63.164 337.099 62 335.539 62C333.895 62 332.623 63.368 332.611 65C332.623 66.632 333.895 67.988 335.539 68ZM335.539 63.14C336.583 63.224 337.195 63.932 337.315 64.412H333.919C334.015 63.92 334.519 63.188 335.539 63.14ZM339.539 67.172C340.019 67.556 340.739 67.988 341.675 68C342.263 68 342.803 67.82 343.235 67.52C343.667 67.208 343.991 66.716 343.991 66.128C343.991 65.852 343.907 65.576 343.763 65.336C343.559 65 343.235 64.772 342.911 64.628C342.563 64.46 342.191 64.352 341.795 64.28H341.783L341.771 64.268C341.363 64.196 341.051 64.088 340.895 63.98C340.811 63.932 340.775 63.884 340.763 63.86C340.739 63.824 340.739 63.812 340.739 63.764C340.739 63.704 340.775 63.596 340.931 63.488C341.087 63.368 341.351 63.272 341.651 63.272C342.035 63.272 342.371 63.464 342.755 63.716C343.055 63.92 343.451 63.836 343.643 63.548C343.823 63.248 343.739 62.852 343.451 62.66C343.067 62.396 342.479 62 341.651 62C341.099 62 340.595 62.156 340.175 62.444C339.779 62.744 339.467 63.212 339.467 63.764C339.467 64.04 339.539 64.304 339.671 64.52C339.887 64.844 340.175 65.06 340.499 65.216C340.811 65.36 341.171 65.456 341.543 65.528H341.555C341.987 65.612 342.347 65.744 342.515 65.864C342.611 65.924 342.659 65.972 342.671 66.008C342.695 66.044 342.707 66.068 342.707 66.128C342.707 66.224 342.659 66.344 342.491 66.488C342.299 66.608 341.999 66.716 341.675 66.716C341.207 66.728 340.667 66.452 340.355 66.188C340.091 65.96 339.671 65.996 339.455 66.284C339.239 66.548 339.275 66.956 339.539 67.172Z" fill="url(#paint0_linear)"/>
</g>
<g filter="url(#filter5_d)">
<path d="M6.505 6.191H8.511V4.831H12.438V6.191H14.461V4.831H18.031V2.978H14.461V1.601H12.438V2.978H8.511V1.601H6.505V2.978H2.969V4.831H6.505V6.191ZM4.652 8.571H16.399V6.735H4.652V8.571ZM18.201 11.784V9.931H2.799V11.784H6.998C6.624 12.889 6.114 14.096 5.604 15.031C4.822 15.065 4.091 15.082 3.445 15.099L3.632 17.156C6.675 17.003 11.163 16.782 15.362 16.493C15.651 16.901 15.906 17.292 16.076 17.632L17.98 16.561C17.181 15.116 15.345 13.212 13.764 11.852L12.03 12.821C12.642 13.365 13.288 14.011 13.883 14.674C11.826 14.759 9.752 14.861 7.865 14.946C8.409 13.994 9.004 12.872 9.548 11.784H18.201ZM35.167 2.519H31.138V4.287H35.167V2.519ZM30.968 4.355C30.764 3.726 30.254 2.774 29.812 2.043L28.469 2.604C28.911 3.352 29.387 4.355 29.591 4.984L30.968 4.355ZM22.298 1.618C21.703 2.689 20.53 4.032 19.442 4.865C19.748 5.205 20.241 5.953 20.479 6.378C21.788 5.341 23.216 3.743 24.117 2.264L22.298 1.618ZM24.389 8.69C24.287 10.781 24.066 12.906 23.454 14.266C23.828 14.487 24.525 14.963 24.814 15.201C25.477 13.654 25.834 11.291 26.004 8.928L24.389 8.69ZM30.543 7.058V5.205H28.35V1.856H26.48V5.205H24.219V5.698L22.689 5.171C21.89 6.922 20.581 8.69 19.238 9.812C19.595 10.237 20.139 11.257 20.326 11.682C20.666 11.359 21.023 11.002 21.363 10.611V17.479H23.233V8.095C23.59 7.534 23.93 6.939 24.219 6.361V7.058H26.48V17.207H28.35V7.058H30.543ZM28.673 9.013C28.996 10.628 29.302 12.719 29.353 14.079L30.917 13.773C30.815 12.396 30.509 10.356 30.152 8.724L28.673 9.013ZM35.422 7.296H30.713V9.098H32.192V15.252C32.192 15.473 32.124 15.524 31.903 15.524C31.699 15.524 30.985 15.524 30.288 15.49C30.543 16.085 30.781 16.901 30.832 17.462C31.954 17.462 32.787 17.428 33.382 17.105C33.977 16.782 34.113 16.238 34.113 15.286V9.098H35.422V7.296ZM51.759 10.016C51.759 6.31 49.107 3.386 44.891 3.386C40.488 3.386 37.088 6.735 37.088 10.662C37.088 13.535 38.652 15.609 40.539 15.609C42.392 15.609 43.854 13.501 44.874 10.067C45.367 8.469 45.656 6.905 45.894 5.46C48.189 5.851 49.464 7.602 49.464 9.948C49.464 12.43 47.764 13.994 45.588 14.504C45.129 14.606 44.653 14.708 44.007 14.776L45.282 16.799C49.566 16.136 51.759 13.603 51.759 10.016ZM39.264 10.441C39.264 8.571 40.777 6.089 43.582 5.511C43.395 6.922 43.072 8.367 42.681 9.625C41.984 11.92 41.321 12.991 40.607 12.991C39.944 12.991 39.264 12.158 39.264 10.441ZM58.338 11.512V10.135H59.222V11.512H58.338ZM56.179 10.135H57.012V11.512H56.162C56.179 11.138 56.179 10.798 56.179 10.458V10.135ZM57.777 4.644C57.607 5.103 57.42 5.562 57.233 5.936H56.077C56.281 5.528 56.468 5.086 56.655 4.644H57.777ZM58.338 7.432H59.222V8.707H58.338V7.432ZM56.179 7.432H57.012V8.707H56.179V7.432ZM60.854 5.936H58.916C59.307 5.239 59.664 4.457 59.953 3.743L58.882 3.012L58.559 3.114H57.182C57.301 2.74 57.403 2.349 57.488 1.975L55.72 1.601C55.278 3.573 54.462 5.545 53.374 6.786C53.714 6.99 54.224 7.415 54.581 7.738V10.458C54.581 12.345 54.479 14.844 53.425 16.612C53.799 16.782 54.496 17.224 54.802 17.479C55.55 16.255 55.907 14.589 56.06 12.991H59.222V15.558C59.222 15.762 59.154 15.83 58.95 15.83C58.763 15.83 58.1 15.83 57.42 15.813C57.675 16.255 57.913 17.003 57.981 17.496C59.001 17.496 59.698 17.445 60.208 17.156C60.701 16.867 60.854 16.374 60.854 15.592V5.936ZM63.217 10.186V6.684H64.186V10.186H63.217ZM67.11 6.684V10.186H66.056V6.684H67.11ZM69.609 16.918C69.439 15.711 68.776 13.824 68.062 12.345L66.481 12.855C66.719 13.382 66.94 13.96 67.144 14.538L66.056 14.64V11.869H68.878V5.018H66.056V1.601H64.186V5.018H61.534V11.869H64.186V14.81C63.03 14.929 61.959 15.014 61.092 15.065L61.364 17.003C63.098 16.816 65.41 16.578 67.654 16.306C67.773 16.748 67.841 17.156 67.892 17.513L69.609 16.918ZM73.179 5.953H83.889V8.027H85.827V4.287H83.192C83.685 3.709 84.229 3.029 84.739 2.349L82.58 1.686C82.206 2.502 81.543 3.556 80.982 4.287H78.364L79.622 3.811C79.401 3.216 78.84 2.264 78.364 1.601L76.596 2.196C77.004 2.842 77.463 3.675 77.701 4.287H74.777L75.559 3.93C75.27 3.318 74.573 2.451 74.012 1.839L72.278 2.604C72.703 3.097 73.162 3.743 73.468 4.287H71.326V8.027H73.179V5.953ZM75.78 11.733H81.22V12.549H75.78V11.733ZM75.78 9.829H81.22V10.611H75.78V9.829ZM75.78 7.908H81.22V8.673H75.78V7.908ZM82.07 15.592C81.407 15.592 81.305 15.541 81.305 15.099V13.756H83.192V6.684H73.91V13.756H75.491C75.117 14.895 74.165 15.439 70.629 15.762C71.003 16.187 71.479 17.003 71.632 17.513C75.933 16.935 77.123 15.779 77.582 13.756H79.316V15.116C79.316 16.816 79.758 17.377 81.798 17.377H84.076C85.589 17.377 86.116 16.867 86.337 14.81C85.81 14.691 84.96 14.385 84.569 14.096C84.501 15.422 84.399 15.592 83.872 15.592H82.07Z" fill="url(#paint1_linear)"/>
</g>
<g filter="url(#filter6_d)">
<path d="M212.834 36.6569C213.225 37.0474 213.225 37.6806 212.834 38.0711L211.978 38.9277C211.587 39.3183 211.587 39.9514 211.978 40.342L212.386 40.7499C212.776 41.1405 213.409 41.1405 213.8 40.7499L214.657 39.8933C215.047 39.5027 215.68 39.5027 216.071 39.8933L216.928 40.7499C217.318 41.1405 217.951 41.1405 218.342 40.7499L218.75 40.3419C219.14 39.9514 219.14 39.3183 218.75 38.9277L217.893 38.0711C217.503 37.6805 217.503 37.0474 217.893 36.6568L218.75 35.8002C219.14 35.4097 219.14 34.7765 218.75 34.386L218.342 33.978C217.951 33.5875 217.318 33.5875 216.928 33.978L216.071 34.8347C215.68 35.2252 215.047 35.2252 214.657 34.8347L213.8 33.978C213.409 33.5875 212.776 33.5875 212.386 33.978L211.978 34.386C211.587 34.7765 211.587 35.4097 211.978 35.8002L212.834 36.6569Z" fill="#CF3947"/>
</g>
<g filter="url(#filter7_d)">
<path d="M74.6935 23.7885C75.084 24.1791 75.084 24.8122 74.6935 25.2028L74.3415 25.5548C73.9509 25.9453 73.9525 26.58 74.343 26.9705C74.7335 27.361 75.3682 27.3626 75.7587 26.972L76.1108 26.62C76.5013 26.2295 77.1344 26.2295 77.525 26.62L77.877 26.972C78.2675 27.3626 78.9022 27.361 79.2927 26.9705C79.6833 26.58 79.6848 25.9453 79.2943 25.5548L78.9422 25.2027C78.5517 24.8122 78.5517 24.1791 78.9422 23.7885L79.2943 23.4365C79.6848 23.046 79.6833 22.4113 79.2927 22.0208C78.9022 21.6302 78.2675 21.6287 77.877 22.0192L77.525 22.3713C77.1345 22.7618 76.5013 22.7618 76.1108 22.3713L75.7587 22.0192C75.3682 21.6287 74.7335 21.6302 74.343 22.0208C73.9525 22.4113 73.9509 23.046 74.3415 23.4365L74.6935 23.7885Z" fill="white"/>
</g>
<g filter="url(#filter8_d)">
<path d="M54.6725 24.0574C54.6725 24.6097 54.2248 25.0574 53.6725 25.0574L52.8179 25.0574C52.2656 25.0574 51.8179 25.5052 51.8179 26.0574L51.8179 26.3481C51.8179 26.9004 52.2656 27.3481 52.8179 27.3481L53.6725 27.3481C54.2248 27.3481 54.6725 27.7958 54.6725 28.3481L54.6725 29.2028C54.6725 29.755 55.1203 30.2028 55.6725 30.2028L55.9632 30.2028C56.5155 30.2028 56.9632 29.755 56.9632 29.2028L56.9632 28.3481C56.9632 27.7958 57.4109 27.3481 57.9632 27.3481L58.8179 27.3481C59.3702 27.3481 59.8179 26.9004 59.8179 26.3481L59.8179 26.0574C59.8179 25.5052 59.3702 25.0574 58.8179 25.0574L57.9632 25.0574C57.4109 25.0574 56.9632 24.6097 56.9632 24.0574L56.9632 23.2028C56.9632 22.6505 56.5155 22.2028 55.9632 22.2028L55.6725 22.2028C55.1203 22.2028 54.6725 22.6505 54.6725 23.2028L54.6725 24.0574Z" fill="#5B5B5B"/>
</g>
<g filter="url(#filter9_d)">
<path d="M117.673 33.0574C117.673 33.6097 117.225 34.0574 116.673 34.0574L115.818 34.0574C115.266 34.0574 114.818 34.5052 114.818 35.0574L114.818 35.3481C114.818 35.9004 115.266 36.3481 115.818 36.3481L116.673 36.3481C117.225 36.3481 117.673 36.7958 117.673 37.3481L117.673 38.2028C117.673 38.755 118.12 39.2028 118.673 39.2028L118.963 39.2028C119.515 39.2028 119.963 38.755 119.963 38.2028L119.963 37.3481C119.963 36.7958 120.411 36.3481 120.963 36.3481L121.818 36.3481C122.37 36.3481 122.818 35.9004 122.818 35.3481L122.818 35.0574C122.818 34.5052 122.37 34.0574 121.818 34.0574L120.963 34.0574C120.411 34.0574 119.963 33.6097 119.963 33.0574L119.963 32.2028C119.963 31.6505 119.515 31.2028 118.963 31.2028L118.673 31.2028C118.12 31.2028 117.673 31.6505 117.673 32.2028L117.673 33.0574Z" fill="#C5C5C5"/>
</g>
<g filter="url(#filter10_d)">
<path d="M97.6725 43.0574C97.6725 43.6097 97.2248 44.0574 96.6725 44.0574L95.8179 44.0574C95.2656 44.0574 94.8179 44.5052 94.8179 45.0574L94.8179 45.3481C94.8179 45.9004 95.2656 46.3481 95.8179 46.3481L96.6725 46.3481C97.2248 46.3481 97.6725 46.7958 97.6725 47.3481L97.6725 48.2028C97.6725 48.755 98.1203 49.2028 98.6725 49.2028L98.9632 49.2028C99.5155 49.2028 99.9632 48.755 99.9632 48.2028L99.9632 47.3481C99.9632 46.7958 100.411 46.3481 100.963 46.3481L101.818 46.3481C102.37 46.3481 102.818 45.9004 102.818 45.3481L102.818 45.0574C102.818 44.5052 102.37 44.0574 101.818 44.0574L100.963 44.0574C100.411 44.0574 99.9632 43.6097 99.9632 43.0574L99.9632 42.2028C99.9632 41.6505 99.5155 41.2028 98.9632 41.2028L98.6725 41.2028C98.1203 41.2028 97.6725 41.6505 97.6725 42.2028L97.6725 43.0574Z" fill="#6F6F6F"/>
</g>
<defs>
<filter id="filter0_d" x="27.4712" y="21.2408" width="182.834" height="33.7592" filterUnits="userSpaceOnUse" color-interpolation-filters="sRGB">
<feFlood flood-opacity="0" result="BackgroundImageFix"/>
<feColorMatrix in="SourceAlpha" type="matrix" values="0 0 0 0 0 0 0 0 0 0 0 0 0 0 0 0 0 0 127 0"/>
<feOffset dx="1" dy="1"/>
<feGaussianBlur stdDeviation="0.5"/>
<feColorMatrix type="matrix" values="0 0 0 0 0 0 0 0 0 0 0 0 0 0 0 0 0 0 0.2 0"/>
<feBlend mode="normal" in2="BackgroundImageFix" result="effect1_dropShadow"/>
<feBlend mode="normal" in="SourceGraphic" in2="effect1_dropShadow" result="shape"/>
</filter>
<filter id="filter1_d" x="2.62793" y="21.2408" width="26.0203" height="33.636" filterUnits="userSpaceOnUse" color-interpolation-filters="sRGB">
<feFlood flood-opacity="0" result="BackgroundImageFix"/>
<feColorMatrix in="SourceAlpha" type="matrix" values="0 0 0 0 0 0 0 0 0 0 0 0 0 0 0 0 0 0 127 0"/>
<feOffset dx="1" dy="1"/>
<feGaussianBlur stdDeviation="0.5"/>
<feColorMatrix type="matrix" values="0 0 0 0 0 0 0 0 0 0 0 0 0 0 0 0 0 0 0.2 0"/>
<feBlend mode="normal" in2="BackgroundImageFix" result="effect1_dropShadow"/>
<feBlend mode="normal" in="SourceGraphic" in2="effect1_dropShadow" result="shape"/>
</filter>
<filter id="filter2_d" x="65.52" y="29.5272" width="13.8191" height="25.5145" filterUnits="userSpaceOnUse" color-interpolation-filters="sRGB">
<feFlood flood-opacity="0" result="BackgroundImageFix"/>
<feColorMatrix in="SourceAlpha" type="matrix" values="0 0 0 0 0 0 0 0 0 0 0 0 0 0 0 0 0 0 127 0"/>
<feOffset dx="1" dy="1"/>
<feGaussianBlur stdDeviation="0.5"/>
<feColorMatrix type="matrix" values="0 0 0 0 0 0 0 0 0 0 0 0 0 0 0 0 0 0 0.2 0"/>
<feBlend mode="normal" in2="BackgroundImageFix" result="effect1_dropShadow"/>
<feBlend mode="normal" in="SourceGraphic" in2="effect1_dropShadow" result="shape"/>
</filter>
<filter id="filter3_d" x="224" y="24.583" width="67.8625" height="33.5635" filterUnits="userSpaceOnUse" color-interpolation-filters="sRGB">
<feFlood flood-opacity="0" result="BackgroundImageFix"/>
<feColorMatrix in="SourceAlpha" type="matrix" values="0 0 0 0 0 0 0 0 0 0 0 0 0 0 0 0 0 0 127 0"/>
<feOffset dx="1" dy="1"/>
<feGaussianBlur stdDeviation="0.5"/>
<feColorMatrix type="matrix" values="0 0 0 0 0 0 0 0 0 0 0 0 0 0 0 0 0 0 0.2 0"/>
<feBlend mode="normal" in2="BackgroundImageFix" result="effect1_dropShadow"/>
<feBlend mode="normal" in="SourceGraphic" in2="effect1_dropShadow" result="shape"/>
</filter>
<filter id="filter4_d" x="2.1001" y="59.588" width="343.891" height="12.668" filterUnits="userSpaceOnUse" color-interpolation-filters="sRGB">
<feFlood flood-opacity="0" result="BackgroundImageFix"/>
<feColorMatrix in="SourceAlpha" type="matrix" values="0 0 0 0 0 0 0 0 0 0 0 0 0 0 0 0 0 0 127 0"/>
<feOffset dx="1" dy="1"/>
<feGaussianBlur stdDeviation="0.5"/>
<feColorMatrix type="matrix" values="0 0 0 0 0 0 0 0 0 0 0 0 0 0 0 0 0 0 0.2 0"/>
<feBlend mode="normal" in2="BackgroundImageFix" result="effect1_dropShadow"/>
<feBlend mode="normal" in="SourceGraphic" in2="effect1_dropShadow" result="shape"/>
</filter>
<filter id="filter5_d" x="2.79883" y="1.60095" width="85.538" height="18.031" filterUnits="userSpaceOnUse" color-interpolation-filters="sRGB">
<feFlood flood-opacity="0" result="BackgroundImageFix"/>
<feColorMatrix in="SourceAlpha" type="matrix" values="0 0 0 0 0 0 0 0 0 0 0 0 0 0 0 0 0 0 127 0"/>
<feOffset dx="1" dy="1"/>
<feGaussianBlur stdDeviation="0.5"/>
<feColorMatrix type="matrix" values="0 0 0 0 0 0 0 0 0 0 0 0 0 0 0 0 0 0 0.2 0"/>
<feBlend mode="normal" in2="BackgroundImageFix" result="effect1_dropShadow"/>
<feBlend mode="normal" in="SourceGraphic" in2="effect1_dropShadow" result="shape"/>
</filter>
<filter id="filter6_d" x="211.685" y="33.6851" width="9.35774" height="9.35774" filterUnits="userSpaceOnUse" color-interpolation-filters="sRGB">
<feFlood flood-opacity="0" result="BackgroundImageFix"/>
<feColorMatrix in="SourceAlpha" type="matrix" values="0 0 0 0 0 0 0 0 0 0 0 0 0 0 0 0 0 0 127 0"/>
<feOffset dx="1" dy="1"/>
<feGaussianBlur stdDeviation="0.5"/>
<feColorMatrix type="matrix" values="0 0 0 0 0 0 0 0 0 0 0 0 0 0 0 0 0 0 0.2 0"/>
<feBlend mode="normal" in2="BackgroundImageFix" result="effect1_dropShadow"/>
<feBlend mode="normal" in="SourceGraphic" in2="effect1_dropShadow" result="shape"/>
</filter>
<filter id="filter7_d" x="74.0493" y="21.7272" width="7.53707" height="7.53707" filterUnits="userSpaceOnUse" color-interpolation-filters="sRGB">
<feFlood flood-opacity="0" result="BackgroundImageFix"/>
<feColorMatrix in="SourceAlpha" type="matrix" values="0 0 0 0 0 0 0 0 0 0 0 0 0 0 0 0 0 0 127 0"/>
<feOffset dx="1" dy="1"/>
<feGaussianBlur stdDeviation="0.5"/>
<feColorMatrix type="matrix" values="0 0 0 0 0 0 0 0 0 0 0 0 0 0 0 0 0 0 0.2 0"/>
<feBlend mode="normal" in2="BackgroundImageFix" result="effect1_dropShadow"/>
<feBlend mode="normal" in="SourceGraphic" in2="effect1_dropShadow" result="shape"/>
</filter>
<filter id="filter8_d" x="51.8179" y="22.2028" width="10" height="10" filterUnits="userSpaceOnUse" color-interpolation-filters="sRGB">
<feFlood flood-opacity="0" result="BackgroundImageFix"/>
<feColorMatrix in="SourceAlpha" type="matrix" values="0 0 0 0 0 0 0 0 0 0 0 0 0 0 0 0 0 0 127 0"/>
<feOffset dx="1" dy="1"/>
<feGaussianBlur stdDeviation="0.5"/>
<feColorMatrix type="matrix" values="0 0 0 0 0 0 0 0 0 0 0 0 0 0 0 0 0 0 0.2 0"/>
<feBlend mode="normal" in2="BackgroundImageFix" result="effect1_dropShadow"/>
<feBlend mode="normal" in="SourceGraphic" in2="effect1_dropShadow" result="shape"/>
</filter>
<filter id="filter9_d" x="114.818" y="31.2028" width="10" height="10" filterUnits="userSpaceOnUse" color-interpolation-filters="sRGB">
<feFlood flood-opacity="0" result="BackgroundImageFix"/>
<feColorMatrix in="SourceAlpha" type="matrix" values="0 0 0 0 0 0 0 0 0 0 0 0 0 0 0 0 0 0 127 0"/>
<feOffset dx="1" dy="1"/>
<feGaussianBlur stdDeviation="0.5"/>
<feColorMatrix type="matrix" values="0 0 0 0 0 0 0 0 0 0 0 0 0 0 0 0 0 0 0.2 0"/>
<feBlend mode="normal" in2="BackgroundImageFix" result="effect1_dropShadow"/>
<feBlend mode="normal" in="SourceGraphic" in2="effect1_dropShadow" result="shape"/>
</filter>
<filter id="filter10_d" x="94.8179" y="41.2028" width="10" height="10" filterUnits="userSpaceOnUse" color-interpolation-filters="sRGB">
<feFlood flood-opacity="0" result="BackgroundImageFix"/>
<feColorMatrix in="SourceAlpha" type="matrix" values="0 0 0 0 0 0 0 0 0 0 0 0 0 0 0 0 0 0 127 0"/>
<feOffset dx="1" dy="1"/>
<feGaussianBlur stdDeviation="0.5"/>
<feColorMatrix type="matrix" values="0 0 0 0 0 0 0 0 0 0 0 0 0 0 0 0 0 0 0.2 0"/>
<feBlend mode="normal" in2="BackgroundImageFix" result="effect1_dropShadow"/>
<feBlend mode="normal" in="SourceGraphic" in2="effect1_dropShadow" result="shape"/>
</filter>
<linearGradient id="paint0_linear" x1="173.5" y1="58" x2="173.5" y2="70" gradientUnits="userSpaceOnUse">
<stop offset="0.0729167" stop-color="#ADADAD"/>
<stop offset="0.942708" stop-color="white" stop-opacity="0.4"/>
</linearGradient>
<linearGradient id="paint1_linear" x1="44.5" y1="0" x2="44.5" y2="20" gradientUnits="userSpaceOnUse">
<stop offset="0.0729167" stop-color="#ADADAD"/>
<stop offset="0.692708" stop-color="white" stop-opacity="0.4"/>
</linearGradient>
</defs>
</svg>
