<svg width="368" height="82" viewBox="0 0 368 82" fill="none" xmlns="http://www.w3.org/2000/svg">
<path d="M67.125 37.556C69.633 39.536 73.637 41.912 78.389 41.956C81.513 41.956 84.373 41.032 86.529 39.448C88.729 37.864 90.313 35.444 90.313 32.628C90.313 31.264 89.917 29.944 89.257 28.888C88.245 27.26 86.661 26.116 84.857 25.236C83.097 24.4 81.029 23.828 78.785 23.388H78.697C76.321 22.948 74.341 22.244 73.197 21.452C72.625 21.056 72.229 20.66 72.009 20.308C71.789 19.956 71.701 19.604 71.701 19.076C71.701 18.152 72.185 17.184 73.373 16.304C74.561 15.424 76.321 14.808 78.301 14.808C80.985 14.808 83.141 16.128 85.385 17.624C86.441 18.328 87.849 18.02 88.509 16.964C89.213 15.952 88.905 14.544 87.893 13.84C85.649 12.388 82.525 10.32 78.301 10.32C75.441 10.32 72.757 11.156 70.689 12.652C68.665 14.148 67.169 16.436 67.169 19.076C67.169 20.396 67.521 21.628 68.181 22.684C69.149 24.224 70.601 25.324 72.273 26.116C73.945 26.908 75.881 27.436 77.949 27.832H78.037C80.633 28.316 82.789 29.064 84.065 29.9C84.725 30.34 85.121 30.78 85.385 31.22C85.649 31.66 85.781 32.056 85.781 32.628C85.781 33.728 85.209 34.828 83.889 35.796C82.569 36.764 80.589 37.424 78.389 37.424C75.265 37.468 71.921 35.62 69.985 34.036C69.017 33.244 67.565 33.376 66.773 34.344C66.025 35.312 66.157 36.764 67.125 37.556ZM133.547 11.728C132.271 11.2 130.863 11.772 130.335 13.004L121.755 33.376L116.079 19.868C115.639 18.9 114.715 18.372 113.791 18.372C112.823 18.372 111.899 18.9 111.503 19.868L105.827 33.376L97.2035 13.004C96.7195 11.772 95.2675 11.2 94.0795 11.728C92.8035 12.212 92.2755 13.664 92.7595 14.852L103.583 40.504C103.671 40.636 103.715 40.812 103.803 40.9V40.944C103.891 41.032 103.935 41.12 104.023 41.208C104.067 41.296 104.067 41.296 104.111 41.34C104.243 41.384 104.287 41.472 104.419 41.56C104.419 41.56 104.419 41.56 104.463 41.56C104.551 41.648 104.727 41.78 104.859 41.824C104.903 41.824 104.903 41.824 104.947 41.868C105.035 41.868 105.123 41.912 105.255 41.956C105.299 41.956 105.343 41.956 105.387 41.956C105.519 42 105.695 42 105.827 42C105.959 42 106.091 42 106.223 41.956C106.267 41.956 106.311 41.956 106.355 41.956C106.443 41.912 106.531 41.868 106.707 41.868C106.707 41.824 106.751 41.824 106.751 41.824C106.751 41.824 106.751 41.824 106.795 41.824C106.883 41.78 107.015 41.648 107.147 41.56C107.147 41.56 107.147 41.56 107.235 41.56C107.323 41.472 107.411 41.384 107.499 41.34C107.499 41.296 107.543 41.296 107.543 41.208C107.631 41.12 107.719 41.032 107.807 40.944C107.807 40.944 107.807 40.9 107.851 40.9C107.895 40.812 107.983 40.636 108.027 40.504L113.791 26.864L119.555 40.504C119.599 40.636 119.643 40.812 119.731 40.9C119.731 40.9 119.731 40.944 119.819 40.944C119.863 41.032 119.951 41.12 119.995 41.208C120.039 41.296 120.039 41.296 120.083 41.34C120.171 41.384 120.259 41.472 120.391 41.56C120.391 41.56 120.391 41.56 120.435 41.56C120.523 41.648 120.655 41.78 120.831 41.824C120.875 41.824 120.875 41.824 120.919 41.868C121.007 41.868 121.095 41.912 121.227 41.956C121.227 41.956 121.271 41.956 121.359 41.956C121.491 42 121.623 42 121.755 42C121.931 42 122.063 42 122.195 41.956C122.195 41.956 122.239 41.956 122.283 41.956C122.415 41.912 122.547 41.868 122.635 41.868C122.635 41.824 122.679 41.824 122.679 41.824H122.723C122.899 41.78 122.987 41.648 123.119 41.56H123.163C123.251 41.472 123.383 41.384 123.471 41.34C123.471 41.296 123.515 41.296 123.515 41.208C123.603 41.12 123.691 41.032 123.735 40.944L123.779 40.9C123.867 40.812 123.955 40.636 123.999 40.504L134.779 14.852C135.307 13.664 134.735 12.212 133.547 11.728ZM139.037 39.58C139.037 40.944 140.093 42 141.457 42C142.777 42 143.921 40.944 143.921 39.58V13.62C143.921 12.256 142.777 11.2 141.457 11.2C140.093 11.2 139.037 12.256 139.037 13.62V39.58ZM171.627 13.62C171.627 12.256 170.527 11.2 169.207 11.2H150.419C149.055 11.2 147.999 12.256 147.999 13.62C147.999 14.94 149.055 16.084 150.419 16.084H157.371V39.58C157.371 40.944 158.471 42 159.791 42C161.155 42 162.211 40.944 162.211 39.58V16.084H169.207C170.527 16.084 171.627 14.94 171.627 13.62ZM189.524 42C193.396 42 196.916 40.724 199.688 38.568C200.744 37.732 200.92 36.148 200.128 35.048C199.248 33.992 197.62 33.816 196.608 34.564C194.628 36.148 192.252 36.984 189.524 36.984C186.488 36.984 183.672 35.752 181.604 33.816C179.624 31.88 178.392 29.152 178.392 26.16C178.392 23.168 179.624 20.528 181.604 18.504C183.672 16.568 186.488 15.336 189.524 15.336C192.252 15.336 194.672 16.172 196.608 17.756C197.62 18.548 199.248 18.372 200.128 17.272C200.92 16.172 200.744 14.632 199.688 13.752C196.916 11.596 193.396 10.32 189.524 10.32C180.724 10.364 173.42 17.448 173.376 26.16C173.42 34.916 180.724 42 189.524 42ZM209.345 42C210.709 42 211.809 40.944 211.809 39.58V29.02H223.205V39.58C223.205 40.944 224.261 42 225.625 42C226.989 42 228.089 40.944 228.089 39.58V13.62C228.089 12.256 226.989 11.2 225.625 11.2C224.261 11.2 223.205 12.256 223.205 13.62V24.18H211.809V13.62C211.809 12.256 210.709 11.2 209.345 11.2C207.981 11.2 206.925 12.256 206.925 13.62V39.58C206.925 40.944 207.981 42 209.345 42ZM238.781 42L238.825 41.956C238.825 41.956 238.825 42 238.913 42H253.169C254.445 42 255.589 40.9 255.589 39.58C255.589 38.216 254.445 37.116 253.169 37.116H241.245V29.02H251.497C252.817 29.02 253.917 27.92 253.917 26.556C253.917 25.28 252.817 24.136 251.497 24.136H241.245V16.084H253.169C254.445 16.084 255.589 14.984 255.589 13.62C255.589 12.256 254.445 11.2 253.169 11.2H238.913C238.825 11.2 238.825 11.2 238.825 11.2H238.781C237.417 11.2 236.361 12.256 236.361 13.62V39.58C236.361 40.9 237.417 42 238.781 42ZM260.067 37.556C262.575 39.536 266.579 41.912 271.331 41.956C274.455 41.956 277.315 41.032 279.471 39.448C281.671 37.864 283.255 35.444 283.255 32.628C283.255 31.264 282.859 29.944 282.199 28.888C281.187 27.26 279.603 26.116 277.799 25.236C276.039 24.4 273.971 23.828 271.727 23.388H271.639C269.263 22.948 267.283 22.244 266.139 21.452C265.567 21.056 265.171 20.66 264.951 20.308C264.731 19.956 264.643 19.604 264.643 19.076C264.643 18.152 265.127 17.184 266.315 16.304C267.503 15.424 269.263 14.808 271.243 14.808C273.927 14.808 276.083 16.128 278.327 17.624C279.383 18.328 280.791 18.02 281.451 16.964C282.155 15.952 281.847 14.544 280.835 13.84C278.591 12.388 275.467 10.32 271.243 10.32C268.383 10.32 265.699 11.156 263.631 12.652C261.607 14.148 260.111 16.436 260.111 19.076C260.111 20.396 260.463 21.628 261.123 22.684C262.091 24.224 263.543 25.324 265.215 26.116C266.887 26.908 268.823 27.436 270.891 27.832H270.979C273.575 28.316 275.731 29.064 277.007 29.9C277.667 30.34 278.063 30.78 278.327 31.22C278.591 31.66 278.723 32.056 278.723 32.628C278.723 33.728 278.151 34.828 276.831 35.796C275.511 36.764 273.531 37.424 271.331 37.424C268.207 37.468 264.863 35.62 262.927 34.036C261.959 33.244 260.507 33.376 259.715 34.344C258.967 35.312 259.099 36.764 260.067 37.556ZM287.302 39.052C287.302 40.856 288.754 42.308 290.558 42.308C292.362 42.308 293.858 40.856 293.858 39.052C293.858 37.248 292.362 35.752 290.558 35.752C288.754 35.752 287.302 37.248 287.302 39.052Z" fill="white"/>
<path d="M323.093 27.6943C322.897 27.6943 322.727 27.849 322.58 28.1582C321.962 29.3626 321.302 30.4531 320.603 31.4297C319.919 32.4062 319.227 33.2363 318.527 33.9199C317.827 34.6035 317.136 35.1325 316.452 35.5068C315.769 35.8649 315.126 36.0439 314.523 36.0439C313.938 36.0439 313.392 35.9219 312.888 35.6777C312.399 35.4173 311.862 34.9372 311.276 34.2373C310.707 33.5374 310.048 32.569 309.299 31.332C308.566 30.0951 307.663 28.4837 306.589 26.498C306.41 26.1725 306.223 25.9365 306.027 25.79C305.848 25.6273 305.686 25.5459 305.539 25.5459C305.327 25.5459 305.132 25.7738 304.953 26.2295C304.774 26.6689 304.619 27.2956 304.489 28.1094C304.359 28.9069 304.253 29.8753 304.172 31.0146C304.107 32.1377 304.074 33.3828 304.074 34.75C304.074 35.5638 304.115 36.3776 304.196 37.1914C304.294 38.0052 304.343 38.8434 304.343 39.7061C304.343 39.999 304.261 40.2757 304.099 40.5361C303.936 40.7803 303.716 40.9919 303.439 41.1709C303.179 41.3662 302.862 41.5208 302.487 41.6348C302.129 41.7487 301.747 41.8057 301.34 41.8057C300.526 41.8057 299.94 41.3174 299.582 40.3408C299.224 39.3643 299.045 37.8018 299.045 35.6533C299.045 32.9352 299.191 30.4694 299.484 28.2559C299.794 26.026 300.225 24.1217 300.778 22.543C301.348 20.9479 302.015 19.7191 302.78 18.8564C303.562 17.9775 304.432 17.5381 305.393 17.5381C306.239 17.5381 307.045 18.0264 307.81 19.0029C308.591 19.9632 309.429 21.5257 310.324 23.6904C310.682 24.5693 311.065 25.3913 311.472 26.1562C311.895 26.9212 312.31 27.5885 312.717 28.1582C313.14 28.7116 313.547 29.151 313.938 29.4766C314.328 29.7858 314.678 29.9404 314.987 29.9404C315.297 29.9404 315.59 29.8753 315.866 29.7451C316.159 29.5986 316.485 29.2975 316.843 28.8418C317.217 28.3698 317.648 27.6862 318.137 26.791C318.641 25.8958 319.26 24.6995 319.992 23.2021C320.383 22.4209 320.733 21.7699 321.042 21.249C321.351 20.7282 321.66 20.3132 321.97 20.0039C322.279 19.6784 322.604 19.4505 322.946 19.3203C323.288 19.1738 323.671 19.1006 324.094 19.1006C324.598 19.1006 325.095 19.3691 325.583 19.9062C326.071 20.4434 326.543 21.1595 326.999 22.0547C327.471 22.9499 327.927 23.9915 328.366 25.1797C328.806 26.3678 329.229 27.613 329.636 28.915C330.059 30.2171 330.466 31.5436 330.856 32.8945C331.263 34.2292 331.654 35.4987 332.028 36.7031C332.126 37.0612 332.191 37.3135 332.224 37.46C332.272 37.5902 332.297 37.7529 332.297 37.9482C332.297 38.2249 332.207 38.5016 332.028 38.7783C331.866 39.0387 331.646 39.2747 331.369 39.4863C331.092 39.6979 330.775 39.8688 330.417 39.999C330.075 40.1292 329.733 40.1943 329.392 40.1943C328.936 40.1943 328.578 40.1455 328.317 40.0479C328.073 39.9339 327.878 39.7386 327.731 39.4619C327.65 39.3154 327.512 38.9248 327.316 38.29C327.121 37.6553 326.885 36.9066 326.608 36.0439C326.348 35.165 326.055 34.2373 325.729 33.2607C325.42 32.2842 325.103 31.389 324.777 30.5752C324.468 29.7451 324.167 29.0615 323.874 28.5244C323.581 27.971 323.321 27.6943 323.093 27.6943ZM342.599 40.5117C342.241 41.3743 341.695 41.8057 340.963 41.8057C340.67 41.8057 340.336 41.7243 339.962 41.5615L339.303 41.2441C338.505 40.8535 338.106 40.3083 338.106 39.6084C338.106 39.2503 338.172 38.9167 338.302 38.6074C338.806 37.4193 339.352 36.1904 339.938 34.9209C340.523 33.6351 341.142 32.3249 341.793 30.9902C341.842 30.86 341.891 30.738 341.939 30.624C341.988 30.5101 342.013 30.4043 342.013 30.3066C342.013 29.916 341.809 29.5661 341.402 29.2568C340.035 28.2314 338.676 27.2061 337.325 26.1807C335.991 25.139 334.632 24.1136 333.248 23.1045C332.646 22.6813 332.345 22.193 332.345 21.6396C332.345 21.4118 332.385 21.1921 332.467 20.9805C332.548 20.7526 332.695 20.5247 332.906 20.2969L333.59 19.4912C334.062 18.9378 334.583 18.6611 335.152 18.6611C335.348 18.6611 335.543 18.71 335.738 18.8076C335.95 18.889 336.17 19.0029 336.397 19.1494C337.602 20.0283 338.79 20.9072 339.962 21.7861C341.15 22.6488 342.33 23.5358 343.502 24.4473C343.648 24.5449 343.787 24.6263 343.917 24.6914C344.047 24.7565 344.177 24.7891 344.308 24.7891C344.666 24.7891 344.983 24.5612 345.26 24.1055C346.041 22.5918 346.847 21.0944 347.677 19.6133C348.507 18.1322 349.361 16.6755 350.24 15.2432C350.68 14.5758 351.201 14.2422 351.803 14.2422C352.145 14.2422 352.543 14.3805 352.999 14.6572L353.39 14.9014C354.057 15.3408 354.391 15.8535 354.391 16.4395C354.391 16.651 354.358 16.8626 354.293 17.0742C354.228 17.2695 354.13 17.4811 354 17.709C353.04 19.2389 352.128 20.7852 351.266 22.3477C350.403 23.9102 349.565 25.4971 348.751 27.1084C348.702 27.2386 348.653 27.3525 348.604 27.4502C348.572 27.5479 348.556 27.6455 348.556 27.7432C348.556 28.1501 348.751 28.5 349.142 28.793C351.03 30.2578 352.901 31.7308 354.757 33.2119C356.612 34.6768 358.476 36.1253 360.348 37.5576C360.917 37.9971 361.202 38.4772 361.202 38.998C361.202 39.4863 360.95 39.9502 360.445 40.3896L359.591 41.1465C359.119 41.5859 358.639 41.8057 358.15 41.8057C357.711 41.8057 357.263 41.6185 356.808 41.2441L347.14 33.7002C346.993 33.6025 346.855 33.5212 346.725 33.4561C346.611 33.391 346.489 33.3584 346.358 33.3584C345.968 33.3584 345.65 33.6025 345.406 34.0908L342.599 40.5117Z" fill="#FF3D7F"/>
<path d="M69.0792 67.26C69.0792 66.888 68.7792 66.6 68.4192 66.6H63.2952C62.9232 66.6 62.6352 66.888 62.6352 67.26C62.6352 67.62 62.9232 67.932 63.2952 67.932H65.1912V74.34C65.1912 74.712 65.4912 75 65.8512 75C66.2232 75 66.5112 74.712 66.5112 74.34V67.932H68.4192C68.7792 67.932 69.0792 67.62 69.0792 67.26ZM72.03 71.628C72.042 70.92 72.606 70.344 73.314 70.332C74.034 70.344 74.61 70.92 74.61 71.628V74.34C74.61 74.712 74.898 75 75.27 75C75.642 75 75.93 74.712 75.93 74.34V71.628C75.93 70.188 74.766 69 73.314 69C72.846 69 72.414 69.144 72.03 69.348V67.26C72.03 66.888 71.73 66.6 71.358 66.6C70.998 66.6 70.698 66.888 70.698 67.26V74.34C70.698 74.4 70.71 74.46 70.722 74.508C70.806 74.784 71.058 75 71.358 75C71.73 75 72.03 74.712 72.03 74.34V71.628ZM80.5654 75C81.4174 75 82.1254 74.748 82.7134 74.208C82.9894 73.956 82.8694 73.596 82.7134 73.428C82.5574 73.236 82.0654 73.2 81.8134 73.464C81.5134 73.692 80.9974 73.8 80.5654 73.764C80.1454 73.728 79.6654 73.512 79.4134 73.224C79.1974 73.02 79.0654 72.708 79.0054 72.432H82.8214C83.1574 72.432 83.4094 72.24 83.4454 71.952C83.4574 71.928 83.4574 71.868 83.4574 71.844C83.4574 71.82 83.4574 71.796 83.4574 71.784C83.3614 70.164 82.1254 69 80.5654 69C78.9214 69 77.6494 70.368 77.6374 72C77.6494 73.632 78.9214 74.988 80.5654 75ZM80.5654 70.14C81.6094 70.224 82.2214 70.932 82.3414 71.412H78.9454C79.0414 70.92 79.5454 70.188 80.5654 70.14ZM91.5836 75.036C92.3756 75.036 93.0956 74.688 93.5876 74.124C94.1276 73.596 94.4276 72.852 94.4276 72.012C94.4276 71.196 94.1276 70.488 93.5876 69.912C93.0956 69.348 92.3756 69 91.5836 69C90.7556 69 90.0596 69.348 89.5196 69.912C89.0036 70.488 88.6916 71.196 88.6916 72.012C88.6916 72.852 89.0036 73.596 89.5196 74.124C90.0596 74.688 90.7556 75.036 91.5836 75.036ZM90.4316 70.764C90.7316 70.5 91.1276 70.308 91.5836 70.308C92.0036 70.308 92.3876 70.5 92.6876 70.764C92.9876 71.088 93.1556 71.52 93.1556 72.012C93.1556 72.528 92.9876 72.948 92.6876 73.284C92.3876 73.572 92.0036 73.728 91.5836 73.728C91.1276 73.728 90.7316 73.572 90.4316 73.284C90.1556 72.948 89.9996 72.528 89.9996 72.012C89.9996 71.52 90.1556 71.088 90.4316 70.764ZM98.9636 69C98.4956 69 98.0516 69.144 97.6916 69.372C97.5836 69.144 97.3556 69 97.1036 69C96.7436 69 96.4676 69.288 96.4676 69.636V71.496V74.364C96.4676 74.712 96.7436 75 97.1036 75C97.4156 75 97.6796 74.772 97.7396 74.484C97.7636 74.436 97.7636 74.4 97.7636 74.364V71.496C97.7636 70.824 98.2916 70.284 98.9636 70.284C99.6476 70.284 100.212 70.824 100.212 71.496V74.364C100.212 74.712 100.512 75 100.848 75C101.196 75 101.472 74.712 101.472 74.364V71.496C101.472 70.14 100.356 69 98.9636 69ZM106.335 75C107.187 75 107.895 74.748 108.483 74.208C108.759 73.956 108.639 73.596 108.483 73.428C108.327 73.236 107.835 73.2 107.583 73.464C107.283 73.692 106.767 73.8 106.335 73.764C105.915 73.728 105.435 73.512 105.183 73.224C104.967 73.02 104.835 72.708 104.775 72.432H108.591C108.927 72.432 109.179 72.24 109.215 71.952C109.227 71.928 109.227 71.868 109.227 71.844C109.227 71.82 109.227 71.796 109.227 71.784C109.131 70.164 107.895 69 106.335 69C104.691 69 103.419 70.368 103.407 72C103.419 73.632 104.691 74.988 106.335 75ZM106.335 70.14C107.379 70.224 107.991 70.932 108.111 71.412H104.715C104.811 70.92 105.315 70.188 106.335 70.14ZM111.523 72.036H113.779C114.163 72.036 114.487 71.712 114.487 71.328C114.487 70.932 114.163 70.608 113.779 70.608H111.523C111.139 70.608 110.815 70.932 110.815 71.328C110.815 71.712 111.139 72.036 111.523 72.036ZM115.834 74.172C116.314 74.556 117.034 74.988 117.97 75C118.558 75 119.098 74.82 119.53 74.52C119.962 74.208 120.286 73.716 120.286 73.128C120.286 72.852 120.202 72.576 120.058 72.336C119.854 72 119.53 71.772 119.206 71.628C118.858 71.46 118.486 71.352 118.09 71.28H118.078L118.066 71.268C117.658 71.196 117.346 71.088 117.19 70.98C117.106 70.932 117.07 70.884 117.058 70.86C117.034 70.824 117.034 70.812 117.034 70.764C117.034 70.704 117.07 70.596 117.226 70.488C117.382 70.368 117.646 70.272 117.946 70.272C118.33 70.272 118.666 70.464 119.05 70.716C119.35 70.92 119.746 70.836 119.938 70.548C120.118 70.248 120.034 69.852 119.746 69.66C119.362 69.396 118.774 69 117.946 69C117.394 69 116.89 69.156 116.47 69.444C116.074 69.744 115.762 70.212 115.762 70.764C115.762 71.04 115.834 71.304 115.966 71.52C116.182 71.844 116.47 72.06 116.794 72.216C117.106 72.36 117.466 72.456 117.838 72.528H117.85C118.282 72.612 118.642 72.744 118.81 72.864C118.906 72.924 118.954 72.972 118.966 73.008C118.99 73.044 119.002 73.068 119.002 73.128C119.002 73.224 118.954 73.344 118.786 73.488C118.594 73.608 118.294 73.716 117.97 73.716C117.502 73.728 116.962 73.452 116.65 73.188C116.386 72.96 115.966 72.996 115.75 73.284C115.534 73.548 115.57 73.956 115.834 74.172ZM124.148 69H123.848V67.26C123.848 66.888 123.56 66.6 123.188 66.6C122.816 66.6 122.516 66.888 122.516 67.26V69H122.168C121.796 69 121.508 69.288 121.508 69.66C121.508 70.02 121.796 70.32 122.168 70.32H122.516V73.668C122.516 74.4 123.116 75 123.848 75C124.22 75 124.508 74.712 124.508 74.34C124.508 73.968 124.22 73.668 123.848 73.668V70.32H124.148C124.508 70.32 124.82 70.02 124.82 69.66C124.82 69.288 124.508 69 124.148 69ZM129.365 75.036C130.157 75.036 130.877 74.688 131.369 74.124C131.909 73.596 132.209 72.852 132.209 72.012C132.209 71.196 131.909 70.488 131.369 69.912C130.877 69.348 130.157 69 129.365 69C128.537 69 127.841 69.348 127.301 69.912C126.785 70.488 126.473 71.196 126.473 72.012C126.473 72.852 126.785 73.596 127.301 74.124C127.841 74.688 128.537 75.036 129.365 75.036ZM128.213 70.764C128.513 70.5 128.909 70.308 129.365 70.308C129.785 70.308 130.169 70.5 130.469 70.764C130.769 71.088 130.937 71.52 130.937 72.012C130.937 72.528 130.769 72.948 130.469 73.284C130.169 73.572 129.785 73.728 129.365 73.728C128.909 73.728 128.513 73.572 128.213 73.284C127.937 72.948 127.781 72.528 127.781 72.012C127.781 71.52 127.937 71.088 128.213 70.764ZM134.885 77.256C135.269 77.256 135.569 76.944 135.569 76.608V74.496C136.001 74.808 136.577 74.988 137.177 74.988C138.773 74.988 140.081 73.656 140.081 72.012C140.081 70.368 138.773 69 137.177 69C136.565 69 135.989 69.204 135.545 69.492C135.497 69.228 135.221 69 134.885 69C134.537 69 134.249 69.288 134.249 69.636V72.012C134.249 72.024 134.249 72.024 134.249 72.024V76.608C134.249 76.944 134.537 77.256 134.885 77.256ZM136.037 70.8C136.337 70.476 136.733 70.308 137.177 70.308C137.585 70.308 137.993 70.476 138.305 70.8C138.581 71.112 138.773 71.544 138.773 72.012C138.773 72.48 138.581 72.936 138.305 73.212C137.993 73.548 137.585 73.716 137.177 73.716C136.733 73.716 136.337 73.548 136.037 73.212C135.725 72.936 135.569 72.48 135.569 72.012C135.569 71.544 135.725 71.112 136.037 70.8ZM151.132 72.024V69.636C151.132 69.288 150.856 69 150.496 69C150.184 69 149.92 69.216 149.86 69.504C149.428 69.192 148.876 69 148.252 69C147.46 69 146.728 69.348 146.212 69.888C145.696 70.452 145.372 71.196 145.372 72.024C145.372 72.864 145.696 73.608 146.212 74.136C146.728 74.7 147.46 75.048 148.252 75.048C148.84 75.048 149.392 74.868 149.824 74.568C149.668 75.3 149.032 75.852 148.252 75.852C148 75.852 147.772 75.792 147.568 75.684C147.232 75.54 146.86 75.66 146.704 75.984C146.536 76.308 146.68 76.704 146.992 76.848C147.364 77.04 147.808 77.148 148.252 77.148C149.848 77.148 151.132 75.84 151.132 74.268V72.036V72.024ZM149.392 73.26C149.08 73.584 148.708 73.752 148.252 73.752C147.832 73.752 147.436 73.584 147.148 73.26C146.86 72.984 146.668 72.528 146.668 72.024C146.668 71.544 146.86 71.088 147.148 70.8C147.436 70.464 147.832 70.284 148.252 70.284C148.708 70.284 149.08 70.464 149.392 70.8C149.656 71.088 149.848 71.544 149.848 72.024C149.848 72.528 149.656 72.984 149.392 73.26ZM158.598 72.504V69.636C158.598 69.3 158.286 69 157.95 69C157.59 69 157.326 69.3 157.326 69.636V72.504C157.314 73.188 156.762 73.728 156.066 73.728C155.382 73.728 154.842 73.188 154.842 72.504V69.636C154.842 69.3 154.566 69 154.206 69C153.858 69 153.57 69.3 153.57 69.636V72.504C153.57 73.872 154.698 75 156.066 75C157.446 75 158.598 73.872 158.598 72.504ZM161.71 69.012C161.35 69.012 161.062 69.288 161.062 69.672V74.352C161.062 74.712 161.35 75 161.71 75C162.082 75 162.358 74.712 162.358 74.352V69.672C162.358 69.288 162.082 69.012 161.71 69.012ZM162.358 67.248C162.358 66.888 162.082 66.6 161.71 66.6C161.35 66.6 161.062 66.888 161.062 67.248V67.5C161.062 67.86 161.35 68.16 161.71 68.16C162.082 68.16 162.358 67.86 162.358 67.5V67.248ZM169.861 72.012C169.861 72 169.861 72 169.861 72V67.248C169.861 66.9 169.573 66.6 169.213 66.6C168.841 66.6 168.553 66.9 168.553 67.248V69.504C168.109 69.192 167.533 69 166.945 69C165.325 69 164.029 70.368 164.029 72.012C164.029 73.632 165.325 75 166.945 75C167.545 75 168.121 74.796 168.577 74.484C168.637 74.772 168.889 75 169.213 75C169.573 75 169.861 74.7 169.861 74.352V72.012ZM168.073 70.8C168.373 71.1 168.553 71.532 168.553 72.012C168.553 72.468 168.373 72.9 168.073 73.2C167.773 73.512 167.389 73.692 166.945 73.692C166.513 73.692 166.117 73.512 165.817 73.2C165.517 72.9 165.337 72.468 165.337 72.012C165.337 71.532 165.517 71.1 165.817 70.8C166.117 70.488 166.513 70.308 166.945 70.308C167.389 70.308 167.773 70.488 168.073 70.8ZM174.679 75C175.531 75 176.239 74.748 176.827 74.208C177.103 73.956 176.983 73.596 176.827 73.428C176.671 73.236 176.179 73.2 175.927 73.464C175.627 73.692 175.111 73.8 174.679 73.764C174.259 73.728 173.779 73.512 173.527 73.224C173.311 73.02 173.179 72.708 173.119 72.432H176.935C177.271 72.432 177.523 72.24 177.559 71.952C177.571 71.928 177.571 71.868 177.571 71.844C177.571 71.82 177.571 71.796 177.571 71.784C177.475 70.164 176.239 69 174.679 69C173.035 69 171.763 70.368 171.751 72C171.763 73.632 173.035 74.988 174.679 75ZM174.679 70.14C175.723 70.224 176.335 70.932 176.455 71.412H173.059C173.155 70.92 173.659 70.188 174.679 70.14ZM185.157 67.992C185.169 67.98 185.181 67.968 185.229 67.956C185.277 67.932 185.385 67.92 185.541 67.92C185.901 67.92 186.201 67.62 186.201 67.248C186.201 66.888 185.901 66.588 185.541 66.588C185.289 66.588 185.061 66.612 184.821 66.684C184.461 66.792 184.125 67.068 183.957 67.428C183.777 67.776 183.729 68.16 183.729 68.604V68.772H183.417C183.045 68.772 182.745 69.06 182.745 69.432C182.745 69.792 183.045 70.092 183.417 70.092H183.729V74.328C183.729 74.688 184.017 74.988 184.389 74.988C184.761 74.988 185.049 74.688 185.049 74.328V70.092H185.409C185.769 70.092 186.069 69.792 186.069 69.432C186.069 69.06 185.769 68.772 185.409 68.772H185.049V68.604C185.049 68.16 185.145 67.992 185.157 67.992ZM189.904 75.036C190.696 75.036 191.416 74.688 191.908 74.124C192.448 73.596 192.748 72.852 192.748 72.012C192.748 71.196 192.448 70.488 191.908 69.912C191.416 69.348 190.696 69 189.904 69C189.076 69 188.38 69.348 187.84 69.912C187.324 70.488 187.012 71.196 187.012 72.012C187.012 72.852 187.324 73.596 187.84 74.124C188.38 74.688 189.076 75.036 189.904 75.036ZM188.752 70.764C189.052 70.5 189.448 70.308 189.904 70.308C190.324 70.308 190.708 70.5 191.008 70.764C191.308 71.088 191.476 71.52 191.476 72.012C191.476 72.528 191.308 72.948 191.008 73.284C190.708 73.572 190.324 73.728 189.904 73.728C189.448 73.728 189.052 73.572 188.752 73.284C188.476 72.948 188.32 72.528 188.32 72.012C188.32 71.52 188.476 71.088 188.752 70.764ZM197.614 69.012C197.014 69 196.498 69.216 196.102 69.48C196.018 69.54 195.922 69.636 195.85 69.72V69.636C195.85 69.288 195.55 69.012 195.19 69.012C194.842 69.012 194.554 69.288 194.554 69.636V74.364C194.554 74.712 194.842 75 195.19 75C195.55 75 195.85 74.712 195.85 74.364V72.084C195.91 71.916 196.054 71.46 196.342 71.076C196.486 70.848 196.666 70.644 196.894 70.5C197.098 70.344 197.338 70.272 197.614 70.272C197.974 70.272 198.25 69.972 198.25 69.636C198.25 69.288 197.974 69.012 197.614 69.012ZM210.109 66.6C210.097 66.6 210.097 66.6 210.097 66.6C209.881 66.6 209.689 66.696 209.557 66.876L207.169 70.188L204.781 66.876C204.661 66.696 204.445 66.6 204.253 66.6C204.229 66.6 204.229 66.6 204.217 66.6C203.857 66.6 203.557 66.9 203.557 67.26V74.34C203.557 74.7 203.857 75 204.217 75C204.589 75 204.889 74.7 204.889 74.34V69.288L206.605 71.688C206.737 71.868 206.941 71.964 207.157 71.964H207.169H207.181C207.397 71.964 207.589 71.868 207.721 71.688L209.449 69.288V74.34C209.449 74.7 209.737 75 210.109 75C210.469 75 210.781 74.7 210.781 74.34V67.26C210.781 66.9 210.469 66.612 210.109 66.6ZM219.55 66.828C219.25 66.6 218.854 66.66 218.626 66.972L216.61 69.732L214.582 66.972C214.378 66.66 213.958 66.6 213.67 66.828C213.37 67.032 213.31 67.44 213.514 67.74L215.794 70.836L213.514 73.956C213.31 74.244 213.37 74.664 213.67 74.868C213.778 74.952 213.91 75 214.054 75C214.258 75 214.45 74.892 214.582 74.724L216.61 71.952L218.626 74.724C218.758 74.892 218.95 75 219.166 75C219.298 75 219.43 74.952 219.55 74.868C219.85 74.664 219.898 74.244 219.694 73.956L217.414 70.836L219.694 67.74C219.898 67.44 219.85 67.032 219.55 66.828ZM225.603 74.172C226.083 74.556 226.803 74.988 227.739 75C228.327 75 228.867 74.82 229.299 74.52C229.731 74.208 230.055 73.716 230.055 73.128C230.055 72.852 229.971 72.576 229.827 72.336C229.623 72 229.299 71.772 228.975 71.628C228.627 71.46 228.255 71.352 227.859 71.28H227.847L227.835 71.268C227.427 71.196 227.115 71.088 226.959 70.98C226.875 70.932 226.839 70.884 226.827 70.86C226.803 70.824 226.803 70.812 226.803 70.764C226.803 70.704 226.839 70.596 226.995 70.488C227.151 70.368 227.415 70.272 227.715 70.272C228.099 70.272 228.435 70.464 228.819 70.716C229.119 70.92 229.515 70.836 229.707 70.548C229.887 70.248 229.803 69.852 229.515 69.66C229.131 69.396 228.543 69 227.715 69C227.163 69 226.659 69.156 226.239 69.444C225.843 69.744 225.531 70.212 225.531 70.764C225.531 71.04 225.603 71.304 225.735 71.52C225.951 71.844 226.239 72.06 226.563 72.216C226.875 72.36 227.235 72.456 227.607 72.528H227.619C228.051 72.612 228.411 72.744 228.579 72.864C228.675 72.924 228.723 72.972 228.735 73.008C228.759 73.044 228.771 73.068 228.771 73.128C228.771 73.224 228.723 73.344 228.555 73.488C228.363 73.608 228.063 73.716 227.739 73.716C227.271 73.728 226.731 73.452 226.419 73.188C226.155 72.96 225.735 72.996 225.519 73.284C225.303 73.548 225.339 73.956 225.603 74.172ZM233.917 69H233.617V67.26C233.617 66.888 233.329 66.6 232.957 66.6C232.585 66.6 232.285 66.888 232.285 67.26V69H231.937C231.565 69 231.277 69.288 231.277 69.66C231.277 70.02 231.565 70.32 231.937 70.32H232.285V73.668C232.285 74.4 232.885 75 233.617 75C233.989 75 234.277 74.712 234.277 74.34C234.277 73.968 233.989 73.668 233.617 73.668V70.32H233.917C234.277 70.32 234.589 70.02 234.589 69.66C234.589 69.288 234.277 69 233.917 69ZM240.57 69C240.21 69 239.946 69.276 239.946 69.636V72.468C239.946 73.164 239.394 73.692 238.71 73.692C238.026 73.692 237.462 73.164 237.462 72.468V69.636C237.462 69.276 237.198 69 236.826 69C236.502 69 236.202 69.276 236.202 69.636V72.468C236.202 73.848 237.33 74.988 238.71 74.988C239.106 74.988 239.514 74.892 239.85 74.7C239.658 75.324 239.058 75.78 238.35 75.792C238.11 75.792 237.882 75.732 237.654 75.624C237.366 75.468 236.958 75.6 236.802 75.888C236.658 76.224 236.778 76.596 237.114 76.74C237.474 76.92 237.918 77.04 238.35 77.04C239.946 77.04 241.218 75.78 241.218 74.172V72.468V69.636C241.218 69.276 240.918 69 240.57 69ZM243.47 67.26V74.34C243.47 74.7 243.77 75 244.13 75C244.502 75 244.802 74.7 244.802 74.34V67.26C244.802 66.9 244.502 66.6 244.13 66.6C243.77 66.6 243.47 66.9 243.47 67.26ZM249.421 75C250.273 75 250.981 74.748 251.569 74.208C251.845 73.956 251.725 73.596 251.569 73.428C251.413 73.236 250.921 73.2 250.669 73.464C250.369 73.692 249.853 73.8 249.421 73.764C249.001 73.728 248.521 73.512 248.269 73.224C248.053 73.02 247.921 72.708 247.861 72.432H251.677C252.013 72.432 252.265 72.24 252.301 71.952C252.313 71.928 252.313 71.868 252.313 71.844C252.313 71.82 252.313 71.796 252.313 71.784C252.217 70.164 250.981 69 249.421 69C247.777 69 246.505 70.368 246.493 72C246.505 73.632 247.777 74.988 249.421 75ZM249.421 70.14C250.465 70.224 251.077 70.932 251.197 71.412H247.801C247.897 70.92 248.401 70.188 249.421 70.14ZM258.483 75C258.855 75 259.155 74.7 259.155 74.34V73.284L259.815 72.624L261.579 74.76C261.699 74.916 261.891 75 262.083 75C262.227 75 262.383 74.952 262.503 74.844C262.791 74.616 262.827 74.196 262.599 73.908L260.751 71.688L262.551 69.888C262.815 69.636 262.815 69.216 262.551 68.952C262.299 68.7 261.867 68.7 261.615 68.952L259.155 71.412V67.26C259.155 66.9 258.855 66.6 258.483 66.6C258.111 66.6 257.823 66.9 257.823 67.26V74.34C257.823 74.7 258.111 75 258.483 75ZM266.741 75C267.593 75 268.301 74.748 268.889 74.208C269.165 73.956 269.045 73.596 268.889 73.428C268.733 73.236 268.241 73.2 267.989 73.464C267.689 73.692 267.173 73.8 266.741 73.764C266.321 73.728 265.841 73.512 265.589 73.224C265.373 73.02 265.241 72.708 265.181 72.432H268.997C269.333 72.432 269.585 72.24 269.621 71.952C269.633 71.928 269.633 71.868 269.633 71.844C269.633 71.82 269.633 71.796 269.633 71.784C269.537 70.164 268.301 69 266.741 69C265.097 69 263.825 70.368 263.813 72C263.825 73.632 265.097 74.988 266.741 75ZM266.741 70.14C267.785 70.224 268.397 70.932 268.517 71.412H265.121C265.217 70.92 265.721 70.188 266.741 70.14ZM275.797 69C275.437 69 275.173 69.276 275.173 69.636V72.468C275.173 73.164 274.621 73.692 273.937 73.692C273.253 73.692 272.689 73.164 272.689 72.468V69.636C272.689 69.276 272.425 69 272.053 69C271.729 69 271.429 69.276 271.429 69.636V72.468C271.429 73.848 272.557 74.988 273.937 74.988C274.333 74.988 274.741 74.892 275.077 74.7C274.885 75.324 274.285 75.78 273.577 75.792C273.337 75.792 273.109 75.732 272.881 75.624C272.593 75.468 272.185 75.6 272.029 75.888C271.885 76.224 272.005 76.596 272.341 76.74C272.701 76.92 273.145 77.04 273.577 77.04C275.173 77.04 276.445 75.78 276.445 74.172V72.468V69.636C276.445 69.276 276.145 69 275.797 69ZM278.975 74.352C278.975 74.7 279.263 75 279.623 75C279.947 75 280.199 74.772 280.259 74.484C280.715 74.796 281.291 75 281.891 75C283.511 75 284.807 73.632 284.807 72.012C284.807 70.368 283.511 69 281.891 69C281.303 69 280.727 69.192 280.283 69.504V67.248C280.283 66.9 279.995 66.6 279.623 66.6C279.263 66.6 278.975 66.9 278.975 67.248V72C278.975 72 278.975 72 278.975 72.012V74.352ZM280.763 70.8C281.063 70.488 281.447 70.308 281.891 70.308C282.323 70.308 282.719 70.488 283.019 70.8C283.319 71.1 283.499 71.532 283.499 72.012C283.499 72.468 283.319 72.9 283.019 73.2C282.719 73.512 282.323 73.692 281.891 73.692C281.447 73.692 281.063 73.512 280.763 73.2C280.463 72.9 280.283 72.468 280.283 72.012C280.283 71.532 280.463 71.1 280.763 70.8ZM289.513 75.036C290.305 75.036 291.025 74.688 291.517 74.124C292.057 73.596 292.357 72.852 292.357 72.012C292.357 71.196 292.057 70.488 291.517 69.912C291.025 69.348 290.305 69 289.513 69C288.685 69 287.989 69.348 287.449 69.912C286.933 70.488 286.621 71.196 286.621 72.012C286.621 72.852 286.933 73.596 287.449 74.124C287.989 74.688 288.685 75.036 289.513 75.036ZM288.361 70.764C288.661 70.5 289.057 70.308 289.513 70.308C289.933 70.308 290.317 70.5 290.617 70.764C290.917 71.088 291.085 71.52 291.085 72.012C291.085 72.528 290.917 72.948 290.617 73.284C290.317 73.572 289.933 73.728 289.513 73.728C289.057 73.728 288.661 73.572 288.361 73.284C288.085 72.948 287.929 72.528 287.929 72.012C287.929 71.52 288.085 71.088 288.361 70.764ZM299.473 69.648C299.473 69.288 299.185 69 298.837 69C298.525 69 298.285 69.228 298.213 69.528C297.757 69.204 297.217 69 296.617 69C295.801 69 295.093 69.348 294.577 69.9C294.061 70.44 293.761 71.184 293.761 72.012C293.761 72.828 294.061 73.572 294.577 74.124C295.093 74.664 295.801 75 296.617 75C297.217 75 297.757 74.808 298.213 74.484C298.285 74.772 298.525 75 298.837 75C299.185 75 299.473 74.712 299.473 74.364V72.012V69.648ZM297.733 73.248C297.445 73.548 297.037 73.716 296.617 73.716C296.185 73.716 295.777 73.548 295.501 73.248C295.213 72.936 295.045 72.504 295.045 72.012C295.045 71.508 295.213 71.076 295.501 70.776C295.777 70.452 296.185 70.284 296.617 70.284C297.037 70.284 297.445 70.452 297.733 70.776C298.021 71.076 298.201 71.508 298.201 72.012C298.201 72.504 298.021 72.936 297.733 73.248ZM304.887 69.012C304.287 69 303.771 69.216 303.375 69.48C303.291 69.54 303.195 69.636 303.123 69.72V69.636C303.123 69.288 302.823 69.012 302.463 69.012C302.115 69.012 301.827 69.288 301.827 69.636V74.364C301.827 74.712 302.115 75 302.463 75C302.823 75 303.123 74.712 303.123 74.364V72.084C303.183 71.916 303.327 71.46 303.615 71.076C303.759 70.848 303.939 70.644 304.167 70.5C304.371 70.344 304.611 70.272 304.887 70.272C305.247 70.272 305.523 69.972 305.523 69.636C305.523 69.288 305.247 69.012 304.887 69.012ZM312.232 72.012C312.232 72 312.232 72 312.232 72V67.248C312.232 66.9 311.944 66.6 311.584 66.6C311.212 66.6 310.924 66.9 310.924 67.248V69.504C310.48 69.192 309.904 69 309.316 69C307.696 69 306.4 70.368 306.4 72.012C306.4 73.632 307.696 75 309.316 75C309.916 75 310.492 74.796 310.948 74.484C311.008 74.772 311.26 75 311.584 75C311.944 75 312.232 74.7 312.232 74.352V72.012ZM310.444 70.8C310.744 71.1 310.924 71.532 310.924 72.012C310.924 72.468 310.744 72.9 310.444 73.2C310.144 73.512 309.76 73.692 309.316 73.692C308.884 73.692 308.488 73.512 308.188 73.2C307.888 72.9 307.708 72.468 307.708 72.012C307.708 71.532 307.888 71.1 308.188 70.8C308.488 70.488 308.884 70.308 309.316 70.308C309.76 70.308 310.144 70.488 310.444 70.8ZM318.111 74.172C318.591 74.556 319.311 74.988 320.247 75C320.835 75 321.375 74.82 321.807 74.52C322.239 74.208 322.563 73.716 322.563 73.128C322.563 72.852 322.479 72.576 322.335 72.336C322.131 72 321.807 71.772 321.483 71.628C321.135 71.46 320.763 71.352 320.367 71.28H320.355L320.343 71.268C319.935 71.196 319.623 71.088 319.467 70.98C319.383 70.932 319.347 70.884 319.335 70.86C319.311 70.824 319.311 70.812 319.311 70.764C319.311 70.704 319.347 70.596 319.503 70.488C319.659 70.368 319.923 70.272 320.223 70.272C320.607 70.272 320.943 70.464 321.327 70.716C321.627 70.92 322.023 70.836 322.215 70.548C322.395 70.248 322.311 69.852 322.023 69.66C321.639 69.396 321.051 69 320.223 69C319.671 69 319.167 69.156 318.747 69.444C318.351 69.744 318.039 70.212 318.039 70.764C318.039 71.04 318.111 71.304 318.243 71.52C318.459 71.844 318.747 72.06 319.071 72.216C319.383 72.36 319.743 72.456 320.115 72.528H320.127C320.559 72.612 320.919 72.744 321.087 72.864C321.183 72.924 321.231 72.972 321.243 73.008C321.267 73.044 321.279 73.068 321.279 73.128C321.279 73.224 321.231 73.344 321.063 73.488C320.871 73.608 320.571 73.716 320.247 73.716C319.779 73.728 319.239 73.452 318.927 73.188C318.663 72.96 318.243 72.996 318.027 73.284C317.811 73.548 317.847 73.956 318.111 74.172ZM331.414 69.132C331.114 69 330.73 69.144 330.61 69.492L329.194 72.72L328.342 70.716C328.246 70.476 328.018 70.332 327.754 70.332C327.502 70.332 327.274 70.476 327.166 70.716L326.326 72.72L324.91 69.492C324.778 69.144 324.406 69 324.118 69.132C323.782 69.276 323.626 69.636 323.77 69.96L325.738 74.616C325.762 74.64 325.774 74.676 325.798 74.712C325.798 74.724 325.798 74.724 325.81 74.724C325.822 74.748 325.846 74.772 325.858 74.796C325.882 74.808 325.882 74.808 325.882 74.808C325.918 74.832 325.942 74.856 325.954 74.868C325.954 74.88 325.954 74.88 325.966 74.88C325.99 74.916 326.038 74.94 326.074 74.952C326.086 74.952 326.086 74.952 326.098 74.964C326.122 74.964 326.146 74.976 326.17 74.988C326.194 74.988 326.194 74.988 326.206 74.988C326.242 75 326.278 75 326.326 75C326.362 75 326.398 75 326.446 74.988C326.446 74.988 326.446 74.988 326.47 74.988C326.482 74.976 326.518 74.964 326.542 74.964C326.542 74.952 326.554 74.952 326.554 74.952H326.578C326.614 74.94 326.638 74.916 326.686 74.88C326.71 74.856 326.734 74.832 326.758 74.808C326.758 74.808 326.77 74.808 326.77 74.796C326.794 74.772 326.818 74.748 326.842 74.724V74.712C326.866 74.676 326.89 74.64 326.902 74.616L327.754 72.54L328.63 74.616C328.642 74.64 328.654 74.676 328.678 74.712C328.678 74.724 328.69 74.724 328.69 74.724C328.702 74.748 328.726 74.772 328.75 74.796C328.75 74.808 328.774 74.808 328.774 74.808C328.798 74.832 328.81 74.856 328.846 74.868C328.846 74.88 328.846 74.88 328.846 74.88C328.882 74.916 328.918 74.94 328.954 74.952C328.954 74.952 328.954 74.952 328.966 74.952C328.966 74.952 328.966 74.952 328.978 74.964C329.014 74.964 329.038 74.976 329.062 74.988C329.074 74.988 329.074 74.988 329.086 74.988C329.122 75 329.158 75 329.194 75C329.242 75 329.278 75 329.314 74.988C329.326 74.988 329.326 74.988 329.338 74.988C329.374 74.976 329.41 74.964 329.434 74.964C329.434 74.952 329.446 74.952 329.446 74.952C329.494 74.94 329.518 74.916 329.554 74.892C329.554 74.88 329.566 74.88 329.566 74.868C329.59 74.856 329.614 74.832 329.638 74.808C329.638 74.808 329.65 74.808 329.662 74.796C329.686 74.772 329.71 74.748 329.722 74.724C329.722 74.724 329.734 74.724 329.734 74.712C329.758 74.676 329.77 74.64 329.782 74.616L331.762 69.96C331.906 69.636 331.738 69.276 331.414 69.132ZM334.303 69.012C333.943 69.012 333.655 69.288 333.655 69.672V74.352C333.655 74.712 333.943 75 334.303 75C334.675 75 334.951 74.712 334.951 74.352V69.672C334.951 69.288 334.675 69.012 334.303 69.012ZM334.951 67.248C334.951 66.888 334.675 66.6 334.303 66.6C333.943 66.6 333.655 66.888 333.655 67.248V67.5C333.655 67.86 333.943 68.16 334.303 68.16C334.675 68.16 334.951 67.86 334.951 67.5V67.248ZM339.046 69H338.746V67.26C338.746 66.888 338.458 66.6 338.086 66.6C337.714 66.6 337.414 66.888 337.414 67.26V69H337.066C336.694 69 336.406 69.288 336.406 69.66C336.406 70.02 336.694 70.32 337.066 70.32H337.414V73.668C337.414 74.4 338.014 75 338.746 75C339.118 75 339.406 74.712 339.406 74.34C339.406 73.968 339.118 73.668 338.746 73.668V70.32H339.046C339.406 70.32 339.718 70.02 339.718 69.66C339.718 69.288 339.406 69 339.046 69ZM344.275 75C344.995 75 345.667 74.736 346.183 74.364C346.459 74.124 346.507 73.74 346.315 73.476C346.075 73.188 345.679 73.14 345.415 73.344C345.103 73.572 344.707 73.728 344.275 73.728C343.303 73.728 342.499 72.936 342.499 72.012C342.499 71.088 343.303 70.284 344.275 70.284C344.719 70.284 345.103 70.44 345.415 70.668C345.691 70.884 346.075 70.836 346.315 70.548C346.507 70.284 346.459 69.876 346.183 69.66C345.667 69.264 344.995 69 344.275 69C342.619 69.012 341.227 70.344 341.227 72.012C341.227 73.656 342.619 75 344.275 75ZM349.835 71.628C349.847 70.92 350.411 70.344 351.119 70.332C351.839 70.344 352.415 70.92 352.415 71.628V74.34C352.415 74.712 352.703 75 353.075 75C353.447 75 353.735 74.712 353.735 74.34V71.628C353.735 70.188 352.571 69 351.119 69C350.651 69 350.219 69.144 349.835 69.348V67.26C349.835 66.888 349.535 66.6 349.163 66.6C348.803 66.6 348.503 66.888 348.503 67.26V74.34C348.503 74.4 348.515 74.46 348.527 74.508C348.611 74.784 348.863 75 349.163 75C349.535 75 349.835 74.712 349.835 74.34V71.628ZM358.37 75C359.222 75 359.93 74.748 360.518 74.208C360.794 73.956 360.674 73.596 360.518 73.428C360.362 73.236 359.87 73.2 359.618 73.464C359.318 73.692 358.802 73.8 358.37 73.764C357.95 73.728 357.47 73.512 357.218 73.224C357.002 73.02 356.87 72.708 356.81 72.432H360.626C360.962 72.432 361.214 72.24 361.25 71.952C361.262 71.928 361.262 71.868 361.262 71.844C361.262 71.82 361.262 71.796 361.262 71.784C361.166 70.164 359.93 69 358.37 69C356.726 69 355.454 70.368 355.442 72C355.454 73.632 356.726 74.988 358.37 75ZM358.37 70.14C359.414 70.224 360.026 70.932 360.146 71.412H356.75C356.846 70.92 357.35 70.188 358.37 70.14ZM362.971 74.172C363.451 74.556 364.171 74.988 365.107 75C365.695 75 366.235 74.82 366.667 74.52C367.099 74.208 367.423 73.716 367.423 73.128C367.423 72.852 367.339 72.576 367.195 72.336C366.991 72 366.667 71.772 366.343 71.628C365.995 71.46 365.623 71.352 365.227 71.28H365.215L365.203 71.268C364.795 71.196 364.483 71.088 364.327 70.98C364.243 70.932 364.207 70.884 364.195 70.86C364.171 70.824 364.171 70.812 364.171 70.764C364.171 70.704 364.207 70.596 364.363 70.488C364.519 70.368 364.783 70.272 365.083 70.272C365.467 70.272 365.803 70.464 366.187 70.716C366.487 70.92 366.883 70.836 367.075 70.548C367.255 70.248 367.171 69.852 366.883 69.66C366.499 69.396 365.911 69 365.083 69C364.531 69 364.027 69.156 363.607 69.444C363.211 69.744 362.899 70.212 362.899 70.764C362.899 71.04 362.971 71.304 363.103 71.52C363.319 71.844 363.607 72.06 363.931 72.216C364.243 72.36 364.603 72.456 364.975 72.528H364.987C365.419 72.612 365.779 72.744 365.947 72.864C366.043 72.924 366.091 72.972 366.103 73.008C366.127 73.044 366.139 73.068 366.139 73.128C366.139 73.224 366.091 73.344 365.923 73.488C365.731 73.608 365.431 73.716 365.107 73.716C364.639 73.728 364.099 73.452 363.787 73.188C363.523 72.96 363.103 72.996 362.887 73.284C362.671 73.548 362.707 73.956 362.971 74.172Z" fill="#CACACA"/>
<rect x="63" y="54" width="305" height="3" rx="1.5" fill="#FF3D7F"/>
<path d="M0.5 38H55.5L35.5 82H20.5L0.5 38Z" fill="url(#paint0_linear)"/>
<path d="M16.5 54H39.5L35.5 82H20.5L16.5 54Z" fill="url(#paint1_linear)"/>
<path d="M18.662 41.2346V50.8994C18.662 54.2131 21.3483 56.8994 24.662 56.8994H31.2294C34.5431 56.8994 37.2294 54.2131 37.2294 50.8994V41.2346H46.8914C50.2051 41.2346 52.8914 38.5483 52.8914 35.2346V28.6648C52.8914 25.3511 50.2051 22.6648 46.8914 22.6648H37.2294V13C37.2294 9.68629 34.5431 7 31.2294 7H24.662C21.3483 7 18.662 9.68629 18.662 13V22.6648H9C5.68629 22.6648 3 25.3511 3 28.6648V35.2346C3 38.5483 5.68629 41.2346 9 41.2346H18.662Z" fill="#4C4C4C" stroke="#FF3D7F" stroke-width="6"/>
<defs>
<linearGradient id="paint0_linear" x1="28" y1="38" x2="28" y2="82" gradientUnits="userSpaceOnUse">
<stop stop-color="#FF3D7F" stop-opacity="0.7"/>
<stop offset="0.914773" stop-color="#FF3D7F" stop-opacity="0"/>
</linearGradient>
<linearGradient id="paint1_linear" x1="28" y1="38" x2="28" y2="82" gradientUnits="userSpaceOnUse">
<stop stop-color="#FF3D7F" stop-opacity="0.8"/>
<stop offset="0.914773" stop-color="#FF3D7F" stop-opacity="0"/>
</linearGradient>
</defs>
</svg>
